<?xml version="1.0" encoding="utf-8"?>
<svg xmlns="http://www.w3.org/2000/svg" xmlns:xlink="http://www.w3.org/1999/xlink" width="600" height="400" viewBox="0 0 2400 1600">
<defs>
  <clipPath id="clip690">
    <rect x="0" y="0" width="2400" height="1600"/>
  </clipPath>
</defs>
<path clip-path="url(#clip690)" d="M0 1600 L2400 1600 L2400 0 L0 0  Z" fill="#ffffff" fill-rule="evenodd" fill-opacity="1"/>
<defs>
  <clipPath id="clip691">
    <rect x="480" y="0" width="1681" height="1600"/>
  </clipPath>
</defs>
<defs>
  <clipPath id="clip692">
    <rect x="175" y="78" width="2139" height="1345"/>
  </clipPath>
</defs>
<path clip-path="url(#clip690)" d="M210.746 1423.18 L2313.01 1423.18 L2313.01 78.9921 L210.746 78.9921  Z" fill="#ffffff" fill-rule="evenodd" fill-opacity="1"/>
<defs>
  <clipPath id="clip693">
    <rect x="210" y="78" width="2103" height="1345"/>
  </clipPath>
</defs>
<polyline clip-path="url(#clip690)" style="stroke:#000000; stroke-linecap:round; stroke-linejoin:round; stroke-width:4; stroke-opacity:1; fill:none" points="210.746,1423.18 2313.01,1423.18 "/>
<polyline clip-path="url(#clip690)" style="stroke:#000000; stroke-linecap:round; stroke-linejoin:round; stroke-width:4; stroke-opacity:1; fill:none" points="270.244,1423.18 270.244,1404.28 "/>
<polyline clip-path="url(#clip690)" style="stroke:#000000; stroke-linecap:round; stroke-linejoin:round; stroke-width:4; stroke-opacity:1; fill:none" points="766.06,1423.18 766.06,1404.28 "/>
<polyline clip-path="url(#clip690)" style="stroke:#000000; stroke-linecap:round; stroke-linejoin:round; stroke-width:4; stroke-opacity:1; fill:none" points="1261.88,1423.18 1261.88,1404.28 "/>
<polyline clip-path="url(#clip690)" style="stroke:#000000; stroke-linecap:round; stroke-linejoin:round; stroke-width:4; stroke-opacity:1; fill:none" points="1757.69,1423.18 1757.69,1404.28 "/>
<polyline clip-path="url(#clip690)" style="stroke:#000000; stroke-linecap:round; stroke-linejoin:round; stroke-width:4; stroke-opacity:1; fill:none" points="2253.51,1423.18 2253.51,1404.28 "/>
<path clip-path="url(#clip690)" d="M237.397 1481.64 L245.036 1481.64 L245.036 1455.28 L236.726 1456.95 L236.726 1452.69 L244.989 1451.02 L249.665 1451.02 L249.665 1481.64 L257.304 1481.64 L257.304 1485.58 L237.397 1485.58 L237.397 1481.64 Z" fill="#000000" fill-rule="nonzero" fill-opacity="1" /><path clip-path="url(#clip690)" d="M266.749 1479.7 L271.633 1479.7 L271.633 1485.58 L266.749 1485.58 L266.749 1479.7 Z" fill="#000000" fill-rule="nonzero" fill-opacity="1" /><path clip-path="url(#clip690)" d="M291.818 1454.1 Q288.207 1454.1 286.378 1457.66 Q284.573 1461.2 284.573 1468.33 Q284.573 1475.44 286.378 1479.01 Q288.207 1482.55 291.818 1482.55 Q295.452 1482.55 297.258 1479.01 Q299.086 1475.44 299.086 1468.33 Q299.086 1461.2 297.258 1457.66 Q295.452 1454.1 291.818 1454.1 M291.818 1450.39 Q297.628 1450.39 300.684 1455 Q303.762 1459.58 303.762 1468.33 Q303.762 1477.06 300.684 1481.67 Q297.628 1486.25 291.818 1486.25 Q286.008 1486.25 282.929 1481.67 Q279.874 1477.06 279.874 1468.33 Q279.874 1459.58 282.929 1455 Q286.008 1450.39 291.818 1450.39 Z" fill="#000000" fill-rule="nonzero" fill-opacity="1" /><path clip-path="url(#clip690)" d="M733.711 1481.64 L741.35 1481.64 L741.35 1455.28 L733.04 1456.95 L733.04 1452.69 L741.304 1451.02 L745.98 1451.02 L745.98 1481.64 L753.618 1481.64 L753.618 1485.58 L733.711 1485.58 L733.711 1481.64 Z" fill="#000000" fill-rule="nonzero" fill-opacity="1" /><path clip-path="url(#clip690)" d="M763.063 1479.7 L767.947 1479.7 L767.947 1485.58 L763.063 1485.58 L763.063 1479.7 Z" fill="#000000" fill-rule="nonzero" fill-opacity="1" /><path clip-path="url(#clip690)" d="M778.178 1451.02 L796.535 1451.02 L796.535 1454.96 L782.461 1454.96 L782.461 1463.43 Q783.479 1463.08 784.498 1462.92 Q785.516 1462.73 786.535 1462.73 Q792.322 1462.73 795.701 1465.9 Q799.081 1469.08 799.081 1474.49 Q799.081 1480.07 795.609 1483.17 Q792.137 1486.25 785.817 1486.25 Q783.641 1486.25 781.373 1485.88 Q779.127 1485.51 776.72 1484.77 L776.72 1480.07 Q778.803 1481.2 781.026 1481.76 Q783.248 1482.32 785.725 1482.32 Q789.729 1482.32 792.067 1480.21 Q794.405 1478.1 794.405 1474.49 Q794.405 1470.88 792.067 1468.77 Q789.729 1466.67 785.725 1466.67 Q783.85 1466.67 781.975 1467.08 Q780.123 1467.5 778.178 1468.38 L778.178 1451.02 Z" fill="#000000" fill-rule="nonzero" fill-opacity="1" /><path clip-path="url(#clip690)" d="M1233.12 1481.64 L1249.43 1481.64 L1249.43 1485.58 L1227.49 1485.58 L1227.49 1481.64 Q1230.15 1478.89 1234.74 1474.26 Q1239.34 1469.61 1240.52 1468.27 Q1242.77 1465.74 1243.65 1464.01 Q1244.55 1462.25 1244.55 1460.56 Q1244.55 1457.8 1242.61 1456.07 Q1240.68 1454.33 1237.58 1454.33 Q1235.38 1454.33 1232.93 1455.09 Q1230.5 1455.86 1227.72 1457.41 L1227.72 1452.69 Q1230.55 1451.55 1233 1450.97 Q1235.45 1450.39 1237.49 1450.39 Q1242.86 1450.39 1246.06 1453.08 Q1249.25 1455.77 1249.25 1460.26 Q1249.25 1462.39 1248.44 1464.31 Q1247.65 1466.2 1245.55 1468.8 Q1244.97 1469.47 1241.87 1472.69 Q1238.76 1475.88 1233.12 1481.64 Z" fill="#000000" fill-rule="nonzero" fill-opacity="1" /><path clip-path="url(#clip690)" d="M1259.25 1479.7 L1264.13 1479.7 L1264.13 1485.58 L1259.25 1485.58 L1259.25 1479.7 Z" fill="#000000" fill-rule="nonzero" fill-opacity="1" /><path clip-path="url(#clip690)" d="M1284.32 1454.1 Q1280.71 1454.1 1278.88 1457.66 Q1277.07 1461.2 1277.07 1468.33 Q1277.07 1475.44 1278.88 1479.01 Q1280.71 1482.55 1284.32 1482.55 Q1287.95 1482.55 1289.76 1479.01 Q1291.59 1475.44 1291.59 1468.33 Q1291.59 1461.2 1289.76 1457.66 Q1287.95 1454.1 1284.32 1454.1 M1284.32 1450.39 Q1290.13 1450.39 1293.18 1455 Q1296.26 1459.58 1296.26 1468.33 Q1296.26 1477.06 1293.18 1481.67 Q1290.13 1486.25 1284.32 1486.25 Q1278.51 1486.25 1275.43 1481.67 Q1272.37 1477.06 1272.37 1468.33 Q1272.37 1459.58 1275.43 1455 Q1278.51 1450.39 1284.32 1450.39 Z" fill="#000000" fill-rule="nonzero" fill-opacity="1" /><path clip-path="url(#clip690)" d="M1729.43 1481.64 L1745.75 1481.64 L1745.75 1485.58 L1723.8 1485.58 L1723.8 1481.64 Q1726.47 1478.89 1731.05 1474.26 Q1735.66 1469.61 1736.84 1468.27 Q1739.08 1465.74 1739.96 1464.01 Q1740.86 1462.25 1740.86 1460.56 Q1740.86 1457.8 1738.92 1456.07 Q1737 1454.33 1733.9 1454.33 Q1731.7 1454.33 1729.24 1455.09 Q1726.81 1455.86 1724.04 1457.41 L1724.04 1452.69 Q1726.86 1451.55 1729.31 1450.97 Q1731.77 1450.39 1733.8 1450.39 Q1739.17 1450.39 1742.37 1453.08 Q1745.56 1455.77 1745.56 1460.26 Q1745.56 1462.39 1744.75 1464.31 Q1743.97 1466.2 1741.86 1468.8 Q1741.28 1469.47 1738.18 1472.69 Q1735.08 1475.88 1729.43 1481.64 Z" fill="#000000" fill-rule="nonzero" fill-opacity="1" /><path clip-path="url(#clip690)" d="M1755.56 1479.7 L1760.45 1479.7 L1760.45 1485.58 L1755.56 1485.58 L1755.56 1479.7 Z" fill="#000000" fill-rule="nonzero" fill-opacity="1" /><path clip-path="url(#clip690)" d="M1770.68 1451.02 L1789.04 1451.02 L1789.04 1454.96 L1774.96 1454.96 L1774.96 1463.43 Q1775.98 1463.08 1777 1462.92 Q1778.02 1462.73 1779.04 1462.73 Q1784.82 1462.73 1788.2 1465.9 Q1791.58 1469.08 1791.58 1474.49 Q1791.58 1480.07 1788.11 1483.17 Q1784.64 1486.25 1778.32 1486.25 Q1776.14 1486.25 1773.87 1485.88 Q1771.63 1485.51 1769.22 1484.77 L1769.22 1480.07 Q1771.3 1481.2 1773.53 1481.76 Q1775.75 1482.32 1778.23 1482.32 Q1782.23 1482.32 1784.57 1480.21 Q1786.91 1478.1 1786.91 1474.49 Q1786.91 1470.88 1784.57 1468.77 Q1782.23 1466.67 1778.23 1466.67 Q1776.35 1466.67 1774.48 1467.08 Q1772.62 1467.5 1770.68 1468.38 L1770.68 1451.02 Z" fill="#000000" fill-rule="nonzero" fill-opacity="1" /><path clip-path="url(#clip690)" d="M2234.82 1466.95 Q2238.17 1467.66 2240.05 1469.93 Q2241.95 1472.2 2241.95 1475.53 Q2241.95 1480.65 2238.43 1483.45 Q2234.91 1486.25 2228.43 1486.25 Q2226.25 1486.25 2223.94 1485.81 Q2221.65 1485.39 2219.19 1484.54 L2219.19 1480.02 Q2221.14 1481.16 2223.45 1481.74 Q2225.77 1482.32 2228.29 1482.32 Q2232.69 1482.32 2234.98 1480.58 Q2237.29 1478.84 2237.29 1475.53 Q2237.29 1472.48 2235.14 1470.77 Q2233.01 1469.03 2229.19 1469.03 L2225.17 1469.03 L2225.17 1465.19 L2229.38 1465.19 Q2232.83 1465.19 2234.66 1463.82 Q2236.48 1462.43 2236.48 1459.84 Q2236.48 1457.18 2234.59 1455.77 Q2232.71 1454.33 2229.19 1454.33 Q2227.27 1454.33 2225.07 1454.75 Q2222.87 1455.16 2220.23 1456.04 L2220.23 1451.88 Q2222.9 1451.14 2225.21 1450.77 Q2227.55 1450.39 2229.61 1450.39 Q2234.93 1450.39 2238.04 1452.83 Q2241.14 1455.23 2241.14 1459.35 Q2241.14 1462.22 2239.49 1464.21 Q2237.85 1466.18 2234.82 1466.95 Z" fill="#000000" fill-rule="nonzero" fill-opacity="1" /><path clip-path="url(#clip690)" d="M2250.81 1479.7 L2255.7 1479.7 L2255.7 1485.58 L2250.81 1485.58 L2250.81 1479.7 Z" fill="#000000" fill-rule="nonzero" fill-opacity="1" /><path clip-path="url(#clip690)" d="M2275.88 1454.1 Q2272.27 1454.1 2270.44 1457.66 Q2268.64 1461.2 2268.64 1468.33 Q2268.64 1475.44 2270.44 1479.01 Q2272.27 1482.55 2275.88 1482.55 Q2279.52 1482.55 2281.32 1479.01 Q2283.15 1475.44 2283.15 1468.33 Q2283.15 1461.2 2281.32 1457.66 Q2279.52 1454.1 2275.88 1454.1 M2275.88 1450.39 Q2281.69 1450.39 2284.75 1455 Q2287.83 1459.58 2287.83 1468.33 Q2287.83 1477.06 2284.75 1481.67 Q2281.69 1486.25 2275.88 1486.25 Q2270.07 1486.25 2266.99 1481.67 Q2263.94 1477.06 2263.94 1468.33 Q2263.94 1459.58 2266.99 1455 Q2270.07 1450.39 2275.88 1450.39 Z" fill="#000000" fill-rule="nonzero" fill-opacity="1" /><path clip-path="url(#clip690)" d="M1009.55 1554.39 L1009.55 1552.36 Q1013.06 1552.36 1013.87 1551.94 Q1014.67 1551.49 1014.67 1549.37 L1014.67 1515.07 Q1014.67 1512.62 1013.81 1512.01 Q1012.97 1511.4 1009.55 1511.4 L1009.55 1509.33 L1019.02 1508.63 L1019.02 1549.37 Q1019.02 1551.49 1019.86 1551.94 Q1020.7 1552.36 1024.18 1552.36 L1024.18 1554.39 Q1023.37 1554.39 1021.7 1554.33 Q1020.02 1554.26 1018.8 1554.23 Q1017.57 1554.2 1016.86 1554.2 Q1016.09 1554.2 1009.55 1554.39 Z" fill="#000000" fill-rule="nonzero" fill-opacity="1" /><path clip-path="url(#clip690)" d="M1034.1 1550.85 Q1029.75 1546.53 1029.75 1540.28 Q1029.75 1534 1034 1529.43 Q1038.29 1524.83 1044.41 1524.83 Q1050.4 1524.83 1054.68 1529.4 Q1059 1533.94 1059 1540.28 Q1059 1546.5 1054.65 1550.82 Q1050.33 1555.13 1044.34 1555.13 Q1038.48 1555.13 1034.1 1550.85 M1035.23 1539.74 Q1035.23 1546.15 1036.9 1549.04 Q1039.48 1553.46 1044.41 1553.46 Q1046.85 1553.46 1048.88 1552.14 Q1050.94 1550.82 1052.07 1548.59 Q1053.52 1545.69 1053.52 1539.74 Q1053.52 1533.39 1051.78 1530.59 Q1049.2 1526.31 1044.34 1526.31 Q1042.22 1526.31 1040.12 1527.43 Q1038.06 1528.53 1036.81 1530.72 Q1035.23 1533.62 1035.23 1539.74 Z" fill="#000000" fill-rule="nonzero" fill-opacity="1" /><path clip-path="url(#clip690)" d="M1060.04 1559.61 Q1060.04 1557.48 1061.65 1555.65 Q1063.29 1553.81 1066.13 1553.01 Q1063.23 1551.17 1063.23 1547.14 Q1063.23 1544.05 1065.26 1541.67 Q1062.17 1539.09 1062.17 1534.87 Q1062.17 1530.98 1065.26 1528.11 Q1068.35 1525.24 1072.86 1525.24 Q1076.82 1525.24 1079.85 1527.63 Q1083 1524.54 1086.84 1524.5 Q1088.54 1524.5 1089.35 1525.57 Q1090.19 1526.63 1090.19 1527.76 Q1090.19 1528.75 1089.54 1529.24 Q1088.93 1529.72 1088.29 1529.72 Q1087.48 1529.72 1086.9 1529.21 Q1086.35 1528.66 1086.35 1527.82 Q1086.35 1526.44 1087.42 1526.02 Q1087.22 1525.95 1086.77 1525.95 Q1083.55 1525.95 1080.81 1528.53 Q1083.52 1531.04 1083.52 1534.94 Q1083.52 1538.84 1080.43 1541.7 Q1077.34 1544.57 1072.86 1544.57 Q1069.15 1544.57 1066.32 1542.51 Q1065.19 1543.83 1065.19 1545.63 Q1065.19 1547.27 1066.19 1548.56 Q1067.19 1549.85 1068.7 1550.04 Q1069.15 1550.11 1073.63 1550.11 Q1076.27 1550.11 1077.72 1550.17 Q1079.17 1550.24 1081.23 1550.69 Q1083.33 1551.11 1084.97 1551.94 Q1089.25 1554.33 1089.28 1559.48 Q1089.28 1563.25 1084.94 1565.6 Q1080.62 1567.98 1074.63 1567.98 Q1068.58 1567.98 1064.29 1565.57 Q1060.04 1563.18 1060.04 1559.61 M1063.49 1559.61 Q1063.49 1562.31 1066.68 1564.37 Q1069.86 1566.47 1074.69 1566.47 Q1079.43 1566.47 1082.62 1564.41 Q1085.84 1562.38 1085.84 1559.61 Q1085.84 1557.64 1084.71 1556.39 Q1083.58 1555.13 1081.26 1554.62 Q1078.98 1554.13 1077.37 1554.04 Q1075.76 1553.94 1072.79 1553.94 L1068.9 1553.94 Q1066.64 1554.07 1065.06 1555.71 Q1063.49 1557.35 1063.49 1559.61 M1067.09 1534.94 Q1067.09 1543.05 1072.86 1543.05 Q1075.76 1543.05 1077.53 1540.41 Q1078.59 1538.64 1078.59 1534.87 Q1078.59 1526.76 1072.86 1526.76 Q1069.96 1526.76 1068.16 1529.4 Q1067.09 1531.17 1067.09 1534.94 Z" fill="#000000" fill-rule="nonzero" fill-opacity="1" /><path clip-path="url(#clip690)" d="M1096.92 1546.31 L1096.92 1544.87 Q1102.47 1544.87 1105.33 1541.92 Q1106.12 1541.92 1106.26 1542.1 Q1106.39 1542.28 1106.39 1543.11 L1106.39 1569.01 Q1106.39 1570.39 1107.07 1570.82 Q1107.75 1571.25 1110.7 1571.25 L1112.16 1571.25 L1112.16 1572.67 Q1110.54 1572.53 1104.68 1572.53 Q1098.82 1572.53 1097.22 1572.67 L1097.22 1571.25 L1098.68 1571.25 Q1101.59 1571.25 1102.29 1570.84 Q1102.99 1570.41 1102.99 1569.01 L1102.99 1545.1 Q1100.58 1546.31 1096.92 1546.31 Z" fill="#000000" fill-rule="nonzero" fill-opacity="1" /><path clip-path="url(#clip690)" d="M1114.45 1557.9 Q1114.45 1551.11 1116.16 1547.42 Q1118.55 1541.92 1124.19 1541.92 Q1125.38 1541.92 1126.62 1542.26 Q1127.89 1542.57 1129.47 1543.81 Q1131.07 1545.05 1132.04 1547.08 Q1133.88 1551 1133.88 1557.9 Q1133.88 1564.64 1132.17 1568.32 Q1129.67 1573.68 1124.14 1573.68 Q1122.07 1573.68 1119.95 1572.62 Q1117.86 1571.56 1116.53 1569.01 Q1114.45 1565.2 1114.45 1557.9 M1118.28 1557.34 Q1118.28 1564.3 1118.78 1567.08 Q1119.34 1570.07 1120.88 1571.38 Q1122.43 1572.67 1124.14 1572.67 Q1125.99 1572.67 1127.53 1571.29 Q1129.08 1569.89 1129.56 1566.9 Q1130.07 1563.94 1130.05 1557.34 Q1130.05 1550.91 1129.6 1548.34 Q1128.99 1545.34 1127.37 1544.15 Q1125.77 1542.93 1124.14 1542.93 Q1123.54 1542.93 1122.88 1543.11 Q1122.25 1543.29 1121.33 1543.81 Q1120.4 1544.33 1119.68 1545.61 Q1118.98 1546.9 1118.64 1548.84 Q1118.28 1551.34 1118.28 1557.34 Z" fill="#000000" fill-rule="nonzero" fill-opacity="1" /><path clip-path="url(#clip690)" d="M1144.36 1537.9 Q1144.36 1526.76 1148.51 1517.77 Q1150.28 1514 1152.76 1510.85 Q1155.24 1507.69 1156.88 1506.31 Q1158.53 1504.92 1158.98 1504.92 Q1159.62 1504.92 1159.65 1505.57 Q1159.65 1505.89 1158.78 1506.69 Q1148.16 1517.51 1148.19 1537.9 Q1148.19 1558.35 1158.53 1568.75 Q1159.65 1569.88 1159.65 1570.24 Q1159.65 1570.88 1158.98 1570.88 Q1158.53 1570.88 1156.95 1569.56 Q1155.37 1568.24 1152.92 1565.21 Q1150.47 1562.18 1148.7 1558.48 Q1144.36 1549.5 1144.36 1537.9 Z" fill="#000000" fill-rule="nonzero" fill-opacity="1" /><path clip-path="url(#clip690)" d="M1169.68 1553.52 L1169.68 1544.83 Q1169.68 1544.08 1169.72 1543.83 Q1169.75 1543.57 1169.94 1543.38 Q1170.13 1543.18 1170.52 1543.18 Q1170.97 1543.18 1171.13 1543.38 Q1171.33 1543.57 1171.45 1544.31 Q1172.45 1548.85 1174.58 1551.27 Q1176.74 1553.65 1180.63 1553.65 Q1184.34 1553.65 1186.2 1552.01 Q1188.07 1550.36 1188.07 1547.66 Q1188.07 1542.83 1181.21 1541.6 Q1177.25 1540.8 1175.61 1540.28 Q1173.97 1539.74 1172.52 1538.55 Q1169.68 1536.23 1169.68 1532.94 Q1169.68 1529.66 1172.16 1527.24 Q1174.68 1524.83 1180.21 1524.83 Q1183.92 1524.83 1186.43 1526.69 Q1187.17 1526.11 1187.56 1525.63 Q1188.43 1524.83 1188.88 1524.83 Q1189.39 1524.83 1189.49 1525.18 Q1189.59 1525.5 1189.59 1526.44 L1189.59 1533.07 Q1189.59 1533.81 1189.55 1534.07 Q1189.52 1534.33 1189.33 1534.52 Q1189.14 1534.68 1188.72 1534.68 Q1187.98 1534.68 1187.94 1534.07 Q1187.43 1526.08 1180.21 1526.08 Q1176.32 1526.08 1174.58 1527.6 Q1172.84 1529.08 1172.84 1531.11 Q1172.84 1532.23 1173.35 1533.1 Q1173.9 1533.94 1174.58 1534.46 Q1175.29 1534.94 1176.58 1535.42 Q1177.86 1535.87 1178.64 1536.03 Q1179.44 1536.19 1180.96 1536.52 Q1186.24 1537.51 1188.46 1539.67 Q1191.23 1542.44 1191.23 1545.95 Q1191.23 1549.85 1188.59 1552.49 Q1185.95 1555.13 1180.63 1555.13 Q1176.35 1555.13 1173.35 1552.26 Q1172.97 1552.65 1172.68 1553.01 Q1172.39 1553.33 1172.26 1553.46 Q1172.16 1553.59 1172.13 1553.68 Q1172.1 1553.75 1172.03 1553.81 Q1170.71 1555.13 1170.39 1555.13 Q1169.88 1555.13 1169.78 1554.78 Q1169.68 1554.45 1169.68 1553.52 Z" fill="#000000" fill-rule="nonzero" fill-opacity="1" /><path clip-path="url(#clip690)" d="M1194.87 1548.11 Q1194.87 1542.51 1201.47 1539.54 Q1205.43 1537.64 1213.61 1537.16 L1213.61 1534.74 Q1213.61 1530.65 1211.45 1528.5 Q1209.33 1526.31 1206.62 1526.31 Q1201.79 1526.31 1199.47 1529.33 Q1201.44 1529.4 1202.14 1530.4 Q1202.85 1531.36 1202.85 1532.36 Q1202.85 1533.68 1202.02 1534.55 Q1201.21 1535.39 1199.83 1535.39 Q1198.5 1535.39 1197.64 1534.58 Q1196.77 1533.75 1196.77 1532.3 Q1196.77 1529.08 1199.66 1526.95 Q1202.59 1524.83 1206.75 1524.83 Q1212.16 1524.83 1215.77 1528.46 Q1216.89 1529.59 1217.44 1531.04 Q1218.02 1532.49 1218.09 1533.46 Q1218.15 1534.39 1218.15 1536.26 L1218.15 1549.43 Q1218.15 1549.82 1218.28 1550.46 Q1218.41 1551.11 1218.99 1551.94 Q1219.6 1552.75 1220.6 1552.75 Q1222.98 1552.75 1222.95 1548.53 L1222.95 1544.83 L1224.62 1544.83 L1224.62 1548.53 Q1224.62 1552.04 1222.76 1553.42 Q1220.92 1554.78 1219.21 1554.78 Q1217.02 1554.78 1215.64 1553.17 Q1214.25 1551.56 1214.06 1549.37 Q1213.06 1551.88 1210.78 1553.52 Q1208.52 1555.13 1205.43 1555.13 Q1203.05 1555.13 1200.79 1554.52 Q1198.57 1553.94 1196.7 1552.3 Q1194.87 1550.62 1194.87 1548.11 M1199.95 1548.05 Q1199.95 1550.49 1201.69 1552.07 Q1203.43 1553.65 1205.88 1553.65 Q1208.65 1553.65 1211.13 1551.52 Q1213.61 1549.37 1213.61 1545.15 L1213.61 1538.55 Q1206.3 1538.8 1203.11 1541.73 Q1199.95 1544.63 1199.95 1548.05 Z" fill="#000000" fill-rule="nonzero" fill-opacity="1" /><path clip-path="url(#clip690)" d="M1225.95 1554.39 L1225.95 1552.36 Q1229.46 1552.36 1230.26 1551.94 Q1231.07 1551.49 1231.07 1549.37 L1231.07 1531.69 Q1231.07 1529.24 1230.2 1528.63 Q1229.36 1528.01 1225.95 1528.01 L1225.95 1525.95 L1235.22 1525.24 L1235.22 1532.17 Q1238.31 1525.24 1244.98 1525.24 Q1252.71 1525.24 1253.77 1531.69 Q1254.9 1529.17 1257.25 1527.21 Q1259.63 1525.24 1263.34 1525.24 Q1268.3 1525.24 1270.26 1527.69 Q1271.71 1529.33 1272 1531.17 Q1272.29 1533.01 1272.29 1537.77 L1272.29 1550.36 Q1272.35 1551.75 1273.42 1552.07 Q1274.48 1552.36 1277.44 1552.36 L1277.44 1554.39 Q1270.71 1554.2 1270.07 1554.2 Q1269.55 1554.2 1262.6 1554.39 L1262.6 1552.36 Q1266.11 1552.36 1266.91 1551.94 Q1267.75 1551.49 1267.75 1549.37 L1267.75 1534 Q1267.75 1530.65 1266.72 1528.69 Q1265.69 1526.69 1262.85 1526.69 Q1259.44 1526.69 1256.7 1529.56 Q1253.96 1532.43 1253.96 1537.26 L1253.96 1549.37 Q1253.96 1551.49 1254.77 1551.94 Q1255.61 1552.36 1259.12 1552.36 L1259.12 1554.39 Q1252.39 1554.2 1251.71 1554.2 Q1251.19 1554.2 1244.27 1554.39 L1244.27 1552.36 Q1247.78 1552.36 1248.59 1551.94 Q1249.42 1551.49 1249.42 1549.37 L1249.42 1534 Q1249.42 1530.65 1248.39 1528.69 Q1247.36 1526.69 1244.53 1526.69 Q1241.11 1526.69 1238.38 1529.56 Q1235.64 1532.43 1235.64 1537.26 L1235.64 1549.37 Q1235.64 1551.49 1236.44 1551.94 Q1237.28 1552.36 1240.76 1552.36 L1240.76 1554.39 Q1234.03 1554.2 1233.39 1554.2 Q1232.87 1554.2 1225.95 1554.39 Z" fill="#000000" fill-rule="nonzero" fill-opacity="1" /><path clip-path="url(#clip690)" d="M1277.36 1565.15 Q1280.87 1565.15 1281.67 1564.7 Q1282.51 1564.28 1282.51 1562.18 L1282.51 1531.3 Q1282.51 1529.11 1281.67 1528.56 Q1280.87 1528.01 1277.36 1528.01 L1277.36 1525.95 L1286.86 1525.24 L1286.86 1529.59 Q1290.82 1525.24 1296.1 1525.24 Q1301.71 1525.24 1305.8 1529.59 Q1309.89 1533.94 1309.89 1540.16 Q1309.89 1546.44 1305.54 1550.78 Q1301.19 1555.13 1295.17 1555.13 Q1291.88 1555.13 1289.66 1553.46 Q1287.47 1551.75 1287.05 1550.49 L1287.05 1551.11 L1287.05 1562.18 Q1287.05 1564.31 1287.89 1564.73 Q1288.73 1565.15 1292.21 1565.15 L1292.21 1567.18 Q1285.28 1566.98 1284.77 1566.98 Q1284.12 1566.98 1277.36 1567.18 L1277.36 1565.15 M1287.05 1546.89 Q1287.05 1547.88 1287.18 1548.24 Q1287.34 1548.59 1287.99 1549.66 Q1290.6 1553.65 1294.85 1553.65 Q1294.88 1553.65 1294.91 1553.65 Q1298.68 1553.65 1301.55 1549.82 Q1304.41 1545.95 1304.41 1540.16 Q1304.41 1534.62 1301.8 1530.75 Q1299.19 1526.89 1295.59 1526.89 Q1293.01 1526.89 1290.76 1528.27 Q1288.5 1529.66 1287.05 1532.17 L1287.05 1546.89 Z" fill="#000000" fill-rule="nonzero" fill-opacity="1" /><path clip-path="url(#clip690)" d="M1318.88 1554.39 L1318.88 1552.36 Q1322.39 1552.36 1323.19 1551.94 Q1324 1551.49 1324 1549.37 L1324 1515.07 Q1324 1512.62 1323.13 1512.01 Q1322.29 1511.4 1318.88 1511.4 L1318.88 1509.33 L1328.34 1508.63 L1328.34 1549.37 Q1328.34 1551.49 1329.18 1551.94 Q1330.02 1552.36 1333.5 1552.36 L1333.5 1554.39 Q1332.69 1554.39 1331.02 1554.33 Q1329.34 1554.26 1328.12 1554.23 Q1326.89 1554.2 1326.19 1554.2 Q1325.41 1554.2 1318.88 1554.39 Z" fill="#000000" fill-rule="nonzero" fill-opacity="1" /><path clip-path="url(#clip690)" d="M1337.75 1539.87 Q1337.75 1533.65 1341.75 1529.24 Q1345.74 1524.83 1351.47 1524.83 Q1357.27 1524.83 1360.27 1528.59 Q1363.29 1532.36 1363.29 1537.77 Q1363.29 1538.77 1363.04 1538.96 Q1362.78 1539.16 1361.65 1539.16 L1343.23 1539.16 Q1343.23 1545.89 1345.23 1549.04 Q1348 1553.46 1352.66 1553.46 Q1353.31 1553.46 1354.08 1553.33 Q1354.85 1553.2 1356.43 1552.65 Q1358.01 1552.07 1359.4 1550.56 Q1360.78 1549.04 1361.59 1546.66 Q1361.78 1545.73 1362.42 1545.76 Q1363.29 1545.76 1363.29 1546.53 Q1363.29 1547.11 1362.65 1548.43 Q1362.04 1549.72 1360.85 1551.27 Q1359.65 1552.81 1357.33 1553.97 Q1355.05 1555.13 1352.28 1555.13 Q1346.48 1555.13 1342.1 1550.75 Q1337.75 1546.34 1337.75 1539.87 M1343.29 1537.77 L1358.95 1537.77 Q1358.95 1536.39 1358.69 1534.84 Q1358.46 1533.3 1357.75 1531.17 Q1357.08 1529.01 1355.47 1527.66 Q1353.86 1526.31 1351.47 1526.31 Q1350.41 1526.31 1349.25 1526.76 Q1348.12 1527.21 1346.74 1528.3 Q1345.35 1529.4 1344.39 1531.88 Q1343.42 1534.36 1343.29 1537.77 Z" fill="#000000" fill-rule="nonzero" fill-opacity="1" /><path clip-path="url(#clip690)" d="M1384.18 1553.52 L1384.18 1544.83 Q1384.18 1544.08 1384.21 1543.83 Q1384.24 1543.57 1384.44 1543.38 Q1384.63 1543.18 1385.02 1543.18 Q1385.47 1543.18 1385.63 1543.38 Q1385.82 1543.57 1385.95 1544.31 Q1386.95 1548.85 1389.08 1551.27 Q1391.23 1553.65 1395.13 1553.65 Q1398.83 1553.65 1400.7 1552.01 Q1402.57 1550.36 1402.57 1547.66 Q1402.57 1542.83 1395.71 1541.6 Q1391.75 1540.8 1390.11 1540.28 Q1388.46 1539.74 1387.01 1538.55 Q1384.18 1536.23 1384.18 1532.94 Q1384.18 1529.66 1386.66 1527.24 Q1389.17 1524.83 1394.71 1524.83 Q1398.42 1524.83 1400.93 1526.69 Q1401.67 1526.11 1402.05 1525.63 Q1402.92 1524.83 1403.37 1524.83 Q1403.89 1524.83 1403.99 1525.18 Q1404.08 1525.5 1404.08 1526.44 L1404.08 1533.07 Q1404.08 1533.81 1404.05 1534.07 Q1404.02 1534.33 1403.83 1534.52 Q1403.63 1534.68 1403.21 1534.68 Q1402.47 1534.68 1402.44 1534.07 Q1401.93 1526.08 1394.71 1526.08 Q1390.81 1526.08 1389.08 1527.6 Q1387.34 1529.08 1387.34 1531.11 Q1387.34 1532.23 1387.85 1533.1 Q1388.4 1533.94 1389.08 1534.46 Q1389.78 1534.94 1391.07 1535.42 Q1392.36 1535.87 1393.13 1536.03 Q1393.94 1536.19 1395.45 1536.52 Q1400.73 1537.51 1402.96 1539.67 Q1405.73 1542.44 1405.73 1545.95 Q1405.73 1549.85 1403.09 1552.49 Q1400.44 1555.13 1395.13 1555.13 Q1390.85 1555.13 1387.85 1552.26 Q1387.47 1552.65 1387.18 1553.01 Q1386.89 1553.33 1386.76 1553.46 Q1386.66 1553.59 1386.63 1553.68 Q1386.6 1553.75 1386.53 1553.81 Q1385.21 1555.13 1384.89 1555.13 Q1384.37 1555.13 1384.28 1554.78 Q1384.18 1554.45 1384.18 1553.52 Z" fill="#000000" fill-rule="nonzero" fill-opacity="1" /><path clip-path="url(#clip690)" d="M1408.31 1554.39 L1408.31 1552.36 Q1411.82 1552.36 1412.62 1551.94 Q1413.43 1551.49 1413.43 1549.37 L1413.43 1531.62 Q1413.43 1529.17 1412.59 1528.59 Q1411.78 1528.01 1408.56 1528.01 L1408.56 1525.95 L1417.77 1525.24 L1417.77 1549.43 Q1417.77 1551.4 1418.48 1551.88 Q1419.19 1552.36 1422.41 1552.36 L1422.41 1554.39 Q1415.68 1554.2 1415.55 1554.2 Q1414.65 1554.2 1408.31 1554.39 M1411.08 1513.75 Q1411.08 1512.43 1412.07 1511.36 Q1413.11 1510.27 1414.55 1510.27 Q1416 1510.27 1417.03 1511.27 Q1418.06 1512.23 1418.06 1513.78 Q1418.06 1515.29 1417.03 1516.29 Q1416 1517.26 1414.55 1517.26 Q1413.04 1517.26 1412.04 1516.19 Q1411.08 1515.13 1411.08 1513.75 Z" fill="#000000" fill-rule="nonzero" fill-opacity="1" /><path clip-path="url(#clip690)" d="M1428.24 1553.46 Q1428.24 1553.01 1428.85 1552.26 L1447.24 1527.4 L1439.74 1527.4 Q1434.52 1527.4 1432.81 1529.33 Q1431.14 1531.23 1430.82 1536.58 L1429.17 1536.58 L1429.92 1525.95 L1451.01 1525.95 Q1451.75 1525.95 1452.04 1525.98 Q1452.33 1526.02 1452.52 1526.24 Q1452.72 1526.44 1452.72 1526.82 Q1452.72 1527.21 1452.14 1527.95 L1433.78 1552.75 L1441.57 1552.75 Q1447.05 1552.75 1448.88 1550.46 Q1450.75 1548.17 1451.2 1542.06 L1452.85 1542.06 L1451.72 1554.39 L1429.98 1554.39 Q1428.92 1554.39 1428.56 1554.26 Q1428.24 1554.1 1428.24 1553.46 Z" fill="#000000" fill-rule="nonzero" fill-opacity="1" /><path clip-path="url(#clip690)" d="M1459.88 1539.87 Q1459.88 1533.65 1463.87 1529.24 Q1467.86 1524.83 1473.6 1524.83 Q1479.39 1524.83 1482.39 1528.59 Q1485.42 1532.36 1485.42 1537.77 Q1485.42 1538.77 1485.16 1538.96 Q1484.9 1539.16 1483.77 1539.16 L1465.35 1539.16 Q1465.35 1545.89 1467.35 1549.04 Q1470.12 1553.46 1474.79 1553.46 Q1475.43 1553.46 1476.2 1553.33 Q1476.98 1553.2 1478.56 1552.65 Q1480.13 1552.07 1481.52 1550.56 Q1482.9 1549.04 1483.71 1546.66 Q1483.9 1545.73 1484.55 1545.76 Q1485.42 1545.76 1485.42 1546.53 Q1485.42 1547.11 1484.77 1548.43 Q1484.16 1549.72 1482.97 1551.27 Q1481.78 1552.81 1479.46 1553.97 Q1477.17 1555.13 1474.4 1555.13 Q1468.6 1555.13 1464.22 1550.75 Q1459.88 1546.34 1459.88 1539.87 M1465.42 1537.77 L1481.07 1537.77 Q1481.07 1536.39 1480.81 1534.84 Q1480.58 1533.3 1479.88 1531.17 Q1479.2 1529.01 1477.59 1527.66 Q1475.98 1526.31 1473.6 1526.31 Q1472.53 1526.31 1471.37 1526.76 Q1470.25 1527.21 1468.86 1528.3 Q1467.48 1529.4 1466.51 1531.88 Q1465.54 1534.36 1465.42 1537.77 Z" fill="#000000" fill-rule="nonzero" fill-opacity="1" /><path clip-path="url(#clip690)" d="M1488.87 1570.24 Q1488.87 1569.91 1489.71 1569.11 Q1500.34 1558.29 1500.34 1537.9 Q1500.34 1517.45 1490.13 1507.11 Q1488.87 1505.92 1488.87 1505.57 Q1488.87 1504.92 1489.52 1504.92 Q1489.97 1504.92 1491.55 1506.24 Q1493.16 1507.56 1495.57 1510.59 Q1498.02 1513.62 1499.82 1517.32 Q1504.17 1526.31 1504.17 1537.9 Q1504.17 1549.04 1500.02 1558.03 Q1498.24 1561.8 1495.76 1564.95 Q1493.28 1568.11 1491.64 1569.49 Q1490 1570.88 1489.52 1570.88 Q1488.87 1570.88 1488.87 1570.24 Z" fill="#000000" fill-rule="nonzero" fill-opacity="1" /><polyline clip-path="url(#clip690)" style="stroke:#000000; stroke-linecap:round; stroke-linejoin:round; stroke-width:4; stroke-opacity:1; fill:none" points="210.746,1423.18 210.746,78.9921 "/>
<polyline clip-path="url(#clip690)" style="stroke:#000000; stroke-linecap:round; stroke-linejoin:round; stroke-width:4; stroke-opacity:1; fill:none" points="210.746,1388.31 229.644,1388.31 "/>
<polyline clip-path="url(#clip690)" style="stroke:#000000; stroke-linecap:round; stroke-linejoin:round; stroke-width:4; stroke-opacity:1; fill:none" points="210.746,1184.54 229.644,1184.54 "/>
<polyline clip-path="url(#clip690)" style="stroke:#000000; stroke-linecap:round; stroke-linejoin:round; stroke-width:4; stroke-opacity:1; fill:none" points="210.746,980.762 229.644,980.762 "/>
<polyline clip-path="url(#clip690)" style="stroke:#000000; stroke-linecap:round; stroke-linejoin:round; stroke-width:4; stroke-opacity:1; fill:none" points="210.746,776.986 229.644,776.986 "/>
<polyline clip-path="url(#clip690)" style="stroke:#000000; stroke-linecap:round; stroke-linejoin:round; stroke-width:4; stroke-opacity:1; fill:none" points="210.746,573.21 229.644,573.21 "/>
<polyline clip-path="url(#clip690)" style="stroke:#000000; stroke-linecap:round; stroke-linejoin:round; stroke-width:4; stroke-opacity:1; fill:none" points="210.746,369.434 229.644,369.434 "/>
<polyline clip-path="url(#clip690)" style="stroke:#000000; stroke-linecap:round; stroke-linejoin:round; stroke-width:4; stroke-opacity:1; fill:none" points="210.746,165.658 229.644,165.658 "/>
<path clip-path="url(#clip690)" d="M114.26 1388.77 L143.936 1388.77 L143.936 1392.7 L114.26 1392.7 L114.26 1388.77 Z" fill="#000000" fill-rule="nonzero" fill-opacity="1" /><path clip-path="url(#clip690)" d="M154.839 1401.66 L162.477 1401.66 L162.477 1375.29 L154.167 1376.96 L154.167 1372.7 L162.431 1371.03 L167.107 1371.03 L167.107 1401.66 L174.746 1401.66 L174.746 1405.59 L154.839 1405.59 L154.839 1401.66 Z" fill="#000000" fill-rule="nonzero" fill-opacity="1" /><path clip-path="url(#clip690)" d="M162.802 1170.34 Q159.19 1170.34 157.362 1173.9 Q155.556 1177.44 155.556 1184.57 Q155.556 1191.68 157.362 1195.24 Q159.19 1198.79 162.802 1198.79 Q166.436 1198.79 168.241 1195.24 Q170.07 1191.68 170.07 1184.57 Q170.07 1177.44 168.241 1173.9 Q166.436 1170.34 162.802 1170.34 M162.802 1166.63 Q168.612 1166.63 171.667 1171.24 Q174.746 1175.82 174.746 1184.57 Q174.746 1193.3 171.667 1197.91 Q168.612 1202.49 162.802 1202.49 Q156.991 1202.49 153.913 1197.91 Q150.857 1193.3 150.857 1184.57 Q150.857 1175.82 153.913 1171.24 Q156.991 1166.63 162.802 1166.63 Z" fill="#000000" fill-rule="nonzero" fill-opacity="1" /><path clip-path="url(#clip690)" d="M154.839 994.107 L162.477 994.107 L162.477 967.742 L154.167 969.408 L154.167 965.149 L162.431 963.482 L167.107 963.482 L167.107 994.107 L174.746 994.107 L174.746 998.042 L154.839 998.042 L154.839 994.107 Z" fill="#000000" fill-rule="nonzero" fill-opacity="1" /><path clip-path="url(#clip690)" d="M158.427 790.331 L174.746 790.331 L174.746 794.266 L152.802 794.266 L152.802 790.331 Q155.464 787.576 160.047 782.947 Q164.653 778.294 165.834 776.952 Q168.079 774.428 168.959 772.692 Q169.862 770.933 169.862 769.243 Q169.862 766.489 167.917 764.753 Q165.996 763.016 162.894 763.016 Q160.695 763.016 158.241 763.78 Q155.811 764.544 153.033 766.095 L153.033 761.373 Q155.857 760.239 158.311 759.66 Q160.765 759.081 162.802 759.081 Q168.172 759.081 171.366 761.766 Q174.561 764.452 174.561 768.942 Q174.561 771.072 173.751 772.993 Q172.964 774.891 170.857 777.484 Q170.278 778.155 167.177 781.373 Q164.075 784.567 158.427 790.331 Z" fill="#000000" fill-rule="nonzero" fill-opacity="1" /><path clip-path="url(#clip690)" d="M167.616 571.856 Q170.973 572.574 172.848 574.842 Q174.746 577.111 174.746 580.444 Q174.746 585.56 171.227 588.36 Q167.709 591.161 161.227 591.161 Q159.052 591.161 156.737 590.722 Q154.445 590.305 151.991 589.448 L151.991 584.935 Q153.936 586.069 156.251 586.648 Q158.565 587.226 161.089 587.226 Q165.487 587.226 167.778 585.49 Q170.093 583.754 170.093 580.444 Q170.093 577.388 167.94 575.675 Q165.811 573.939 161.991 573.939 L157.964 573.939 L157.964 570.097 L162.177 570.097 Q165.626 570.097 167.454 568.731 Q169.283 567.342 169.283 564.749 Q169.283 562.087 167.385 560.675 Q165.51 559.24 161.991 559.24 Q160.07 559.24 157.871 559.657 Q155.672 560.074 153.033 560.953 L153.033 556.787 Q155.695 556.046 158.01 555.675 Q160.348 555.305 162.408 555.305 Q167.732 555.305 170.834 557.736 Q173.936 560.143 173.936 564.263 Q173.936 567.134 172.292 569.124 Q170.649 571.092 167.616 571.856 Z" fill="#000000" fill-rule="nonzero" fill-opacity="1" /><path clip-path="url(#clip690)" d="M165.163 356.228 L153.357 374.677 L165.163 374.677 L165.163 356.228 M163.936 352.154 L169.815 352.154 L169.815 374.677 L174.746 374.677 L174.746 378.566 L169.815 378.566 L169.815 386.714 L165.163 386.714 L165.163 378.566 L149.561 378.566 L149.561 374.052 L163.936 352.154 Z" fill="#000000" fill-rule="nonzero" fill-opacity="1" /><path clip-path="url(#clip690)" d="M153.843 148.378 L172.2 148.378 L172.2 152.313 L158.126 152.313 L158.126 160.785 Q159.144 160.438 160.163 160.276 Q161.181 160.091 162.2 160.091 Q167.987 160.091 171.366 163.262 Q174.746 166.433 174.746 171.85 Q174.746 177.429 171.274 180.53 Q167.802 183.609 161.482 183.609 Q159.306 183.609 157.038 183.239 Q154.792 182.868 152.385 182.128 L152.385 177.429 Q154.468 178.563 156.69 179.118 Q158.913 179.674 161.39 179.674 Q165.394 179.674 167.732 177.567 Q170.07 175.461 170.07 171.85 Q170.07 168.239 167.732 166.132 Q165.394 164.026 161.39 164.026 Q159.515 164.026 157.64 164.443 Q155.788 164.859 153.843 165.739 L153.843 148.378 Z" fill="#000000" fill-rule="nonzero" fill-opacity="1" /><path clip-path="url(#clip690)" d="M66.0841 1262.27 L64.0551 1262.27 Q64.0551 1259.89 63.6042 1258.38 Q63.1212 1256.86 62.2516 1256.32 Q61.3498 1255.77 60.7701 1255.64 Q60.1582 1255.48 59.1598 1255.48 L24.7318 1255.48 Q23.7978 1255.48 23.5724 1255.74 Q23.3469 1255.96 23.2181 1257.09 Q23.0893 1259.05 23.0893 1260.37 L23.0893 1262.27 L21.0281 1262.27 L21.0281 1251.07 Q21.0281 1250.13 21.1569 1249.88 Q21.2857 1249.62 21.8977 1249.17 L56.1325 1225.88 L27.9524 1225.88 Q26.954 1225.88 26.3743 1226.01 Q25.7946 1226.14 24.8928 1226.72 Q23.991 1227.27 23.5402 1228.78 Q23.0893 1230.29 23.0893 1232.68 L21.0281 1232.68 Q21.2213 1225.75 21.2213 1224.98 Q21.2213 1224.17 21.0281 1217.25 L23.0893 1217.25 Q23.0893 1219.63 23.5402 1221.15 Q23.991 1222.66 24.8928 1223.21 Q25.7946 1223.76 26.4065 1223.92 Q26.9862 1224.05 27.9524 1224.05 L64.3772 1224.05 Q65.44 1224.05 65.762 1224.17 Q66.0841 1224.3 66.0841 1224.95 Q66.0841 1225.4 65.2145 1226.08 L25.6657 1253 Q25.2793 1253.26 24.8606 1253.64 L59.1598 1253.64 Q60.1582 1253.64 60.7701 1253.51 Q61.3498 1253.39 62.2516 1252.84 Q63.1212 1252.26 63.6042 1250.74 Q64.0551 1249.23 64.0551 1246.85 L66.0841 1246.85 Q65.8909 1253.77 65.8909 1254.58 Q65.8909 1255.35 66.0841 1262.27 Z" fill="#000000" fill-rule="nonzero" fill-opacity="1" /><path clip-path="url(#clip690)" d="M62.5415 1202.3 Q58.2259 1206.65 51.9779 1206.65 Q45.6978 1206.65 41.1246 1202.4 Q36.5191 1198.12 36.5191 1192 Q36.5191 1186.01 41.0923 1181.72 Q45.6334 1177.41 51.9779 1177.41 Q58.1937 1177.41 62.5092 1181.76 Q66.8248 1186.07 66.8248 1192.06 Q66.8248 1197.92 62.5415 1202.3 M51.4304 1201.18 Q57.8394 1201.18 60.7379 1199.5 Q65.1501 1196.92 65.1501 1192 Q65.1501 1189.55 63.8297 1187.52 Q62.5092 1185.46 60.287 1184.33 Q57.3885 1182.88 51.4304 1182.88 Q45.0859 1182.88 42.284 1184.62 Q38.0006 1187.2 38.0006 1192.06 Q38.0006 1194.19 39.1278 1196.28 Q40.2228 1198.34 42.4128 1199.6 Q45.3113 1201.18 51.4304 1201.18 Z" fill="#000000" fill-rule="nonzero" fill-opacity="1" /><path clip-path="url(#clip690)" d="M66.0841 1175.31 L64.0551 1175.31 Q64.0551 1171.8 63.6364 1170.99 Q63.1856 1170.15 61.06 1170.15 L43.379 1170.15 Q40.9313 1170.15 40.3194 1171.02 Q39.7075 1171.86 39.7075 1175.31 L37.6463 1175.31 L36.9378 1166.13 L44.1841 1166.13 Q41.35 1165.19 39.16 1163.23 Q36.9378 1161.23 36.9378 1158.01 Q36.9378 1155.89 38.1294 1154.53 Q39.321 1153.15 40.9635 1153.15 Q42.4128 1153.15 43.1535 1154.05 Q43.8621 1154.92 43.8621 1155.98 Q43.8621 1157.17 43.1213 1158.01 Q42.3484 1158.82 41.0279 1158.82 Q40.2228 1158.82 39.6109 1158.46 Q38.9668 1158.08 38.7413 1157.79 Q38.5159 1157.5 38.4515 1157.3 Q38.3871 1157.43 38.3871 1158.01 Q38.3871 1161.65 42.0263 1163.74 Q45.6334 1165.81 50.7863 1165.81 L60.9312 1165.81 Q62.8313 1165.81 63.4432 1165.03 Q64.0551 1164.23 64.0551 1160.78 L64.0551 1159.4 L66.0841 1159.4 Q65.8909 1162.04 65.8909 1167.77 Q65.8909 1168.58 65.9231 1169.83 Q65.9553 1171.09 66.0197 1172.73 Q66.0841 1174.37 66.0841 1175.31 Z" fill="#000000" fill-rule="nonzero" fill-opacity="1" /><path clip-path="url(#clip690)" d="M66.0841 1145.8 L64.0551 1145.8 Q64.0551 1142.29 63.6364 1141.48 Q63.1856 1140.68 61.06 1140.68 L43.379 1140.68 Q40.9313 1140.68 40.3194 1141.55 Q39.7075 1142.39 39.7075 1145.8 L37.6463 1145.8 L36.9378 1136.53 L43.8621 1136.53 Q36.9378 1133.43 36.9378 1126.77 Q36.9378 1119.04 43.379 1117.97 Q40.8669 1116.85 38.9023 1114.5 Q36.9378 1112.11 36.9378 1108.41 Q36.9378 1103.45 39.3854 1101.49 Q41.0279 1100.04 42.8637 1099.75 Q44.6994 1099.46 49.4659 1099.46 L62.0584 1099.46 Q63.4432 1099.39 63.7653 1098.33 Q64.0551 1097.27 64.0551 1094.3 L66.0841 1094.3 Q65.8909 1101.03 65.8909 1101.68 Q65.8909 1102.19 66.0841 1109.15 L64.0551 1109.15 Q64.0551 1105.64 63.6364 1104.83 Q63.1856 1104 61.06 1104 L45.6978 1104 Q42.3484 1104 40.3838 1105.03 Q38.3871 1106.06 38.3871 1108.89 Q38.3871 1112.31 41.2534 1115.04 Q44.1197 1117.78 48.9506 1117.78 L61.06 1117.78 Q63.1856 1117.78 63.6364 1116.98 Q64.0551 1116.14 64.0551 1112.63 L66.0841 1112.63 Q65.8909 1119.36 65.8909 1120.04 Q65.8909 1120.55 66.0841 1127.48 L64.0551 1127.48 Q64.0551 1123.96 63.6364 1123.16 Q63.1856 1122.32 61.06 1122.32 L45.6978 1122.32 Q42.3484 1122.32 40.3838 1123.35 Q38.3871 1124.38 38.3871 1127.22 Q38.3871 1130.63 41.2534 1133.37 Q44.1197 1136.11 48.9506 1136.11 L61.06 1136.11 Q63.1856 1136.11 63.6364 1135.3 Q64.0551 1134.46 64.0551 1130.99 L66.0841 1130.99 Q65.8909 1137.72 65.8909 1138.36 Q65.8909 1138.88 66.0841 1145.8 Z" fill="#000000" fill-rule="nonzero" fill-opacity="1" /><path clip-path="url(#clip690)" d="M59.804 1090.62 Q54.2001 1090.62 51.2372 1084.02 Q49.337 1080.06 48.854 1071.88 L46.4385 1071.88 Q42.3484 1071.88 40.1906 1074.04 Q38.0006 1076.16 38.0006 1078.87 Q38.0006 1083.7 41.0279 1086.02 Q41.0923 1084.05 42.0907 1083.34 Q43.0569 1082.63 44.0553 1082.63 Q45.3757 1082.63 46.2453 1083.47 Q47.0826 1084.28 47.0826 1085.66 Q47.0826 1086.98 46.2775 1087.85 Q45.4401 1088.72 43.9909 1088.72 Q40.7703 1088.72 38.6447 1085.82 Q36.5191 1082.89 36.5191 1078.74 Q36.5191 1073.33 40.1584 1069.72 Q41.2856 1068.59 42.7348 1068.05 Q44.1841 1067.47 45.1503 1067.4 Q46.0843 1067.34 47.9522 1067.34 L61.1244 1067.34 Q61.5109 1067.34 62.155 1067.21 Q62.7991 1067.08 63.6364 1066.5 Q64.4416 1065.89 64.4416 1064.89 Q64.4416 1062.51 60.2226 1062.54 L56.519 1062.54 L56.519 1060.86 L60.2226 1060.86 Q63.7331 1060.86 65.1179 1062.73 Q66.4706 1064.57 66.4706 1066.27 Q66.4706 1068.46 64.8603 1069.85 Q63.25 1071.23 61.06 1071.43 Q63.572 1072.43 65.2145 1074.71 Q66.8248 1076.97 66.8248 1080.06 Q66.8248 1082.44 66.2129 1084.7 Q65.6332 1086.92 63.9907 1088.79 Q62.316 1090.62 59.804 1090.62 M59.7395 1085.53 Q62.1872 1085.53 63.7653 1083.79 Q65.3434 1082.05 65.3434 1079.61 Q65.3434 1076.84 63.2178 1074.36 Q61.06 1071.88 56.841 1071.88 L50.2388 1071.88 Q50.4965 1079.19 53.4272 1082.38 Q56.3257 1085.53 59.7395 1085.53 Z" fill="#000000" fill-rule="nonzero" fill-opacity="1" /><path clip-path="url(#clip690)" d="M66.0841 1058.22 L64.0551 1058.22 Q64.0551 1054.71 63.6364 1053.91 Q63.1856 1053.1 61.06 1053.1 L26.7607 1053.1 Q24.3131 1053.1 23.7012 1053.97 Q23.0893 1054.81 23.0893 1058.22 L21.0281 1058.22 L20.3196 1048.75 L61.06 1048.75 Q63.1856 1048.75 63.6364 1047.92 Q64.0551 1047.08 64.0551 1043.6 L66.0841 1043.6 Q66.0841 1044.41 66.0197 1046.08 Q65.9553 1047.75 65.9231 1048.98 Q65.8909 1050.2 65.8909 1050.91 Q65.8909 1051.68 66.0841 1058.22 Z" fill="#000000" fill-rule="nonzero" fill-opacity="1" /><path clip-path="url(#clip690)" d="M66.0841 1040.66 L64.0551 1040.66 Q64.0551 1037.15 63.6364 1036.35 Q63.1856 1035.54 61.06 1035.54 L43.3146 1035.54 Q40.8669 1035.54 40.2872 1036.38 Q39.7075 1037.18 39.7075 1040.41 L37.6463 1040.41 L36.9378 1031.19 L61.1244 1031.19 Q63.0889 1031.19 63.572 1030.49 Q64.0551 1029.78 64.0551 1026.56 L66.0841 1026.56 Q65.8909 1033.29 65.8909 1033.42 Q65.8909 1034.32 66.0841 1040.66 M25.4403 1037.89 Q24.1199 1037.89 23.0571 1036.89 Q21.9621 1035.86 21.9621 1034.42 Q21.9621 1032.97 22.9604 1031.94 Q23.9266 1030.9 25.4725 1030.9 Q26.9862 1030.9 27.9846 1031.94 Q28.9507 1032.97 28.9507 1034.42 Q28.9507 1035.93 27.8879 1036.93 Q26.8252 1037.89 25.4403 1037.89 Z" fill="#000000" fill-rule="nonzero" fill-opacity="1" /><path clip-path="url(#clip690)" d="M65.1501 1020.73 Q64.6992 1020.73 63.9585 1020.12 L39.0956 1001.73 L39.0956 1009.23 Q39.0956 1014.45 41.0279 1016.16 Q42.9281 1017.83 48.2743 1018.15 L48.2743 1019.79 L37.6463 1019.05 L37.6463 997.959 Q37.6463 997.218 37.6785 996.928 Q37.7107 996.639 37.9362 996.445 Q38.1294 996.252 38.5159 996.252 Q38.9023 996.252 39.6431 996.832 L64.4416 1015.19 L64.4416 1007.4 Q64.4416 1001.92 62.155 1000.08 Q59.8684 998.217 53.7493 997.766 L53.7493 996.123 L66.0841 997.25 L66.0841 1018.99 Q66.0841 1020.05 65.9553 1020.41 Q65.7942 1020.73 65.1501 1020.73 Z" fill="#000000" fill-rule="nonzero" fill-opacity="1" /><path clip-path="url(#clip690)" d="M51.5593 989.093 Q45.3435 989.093 40.9313 985.099 Q36.5191 981.106 36.5191 975.373 Q36.5191 969.576 40.2872 966.581 Q44.0553 963.554 49.4659 963.554 Q50.4643 963.554 50.6575 963.811 Q50.8507 964.069 50.8507 965.196 L50.8507 983.618 Q57.5817 983.618 60.7379 981.621 Q65.1501 978.851 65.1501 974.182 Q65.1501 973.537 65.0213 972.764 Q64.8925 971.992 64.345 970.413 Q63.7653 968.835 62.2516 967.45 Q60.7379 966.066 58.3547 965.26 Q57.4207 965.067 57.4529 964.423 Q57.4529 963.554 58.2259 963.554 Q58.8056 963.554 60.126 964.198 Q61.4142 964.81 62.9601 966.001 Q64.506 967.193 65.6654 969.512 Q66.8248 971.798 66.8248 974.568 Q66.8248 980.365 62.4448 984.745 Q58.0326 989.093 51.5593 989.093 M49.4659 983.553 L49.4659 967.901 Q48.081 967.901 46.5351 968.159 Q44.9893 968.384 42.8637 969.093 Q40.7059 969.769 39.3532 971.38 Q38.0006 972.99 38.0006 975.373 Q38.0006 976.436 38.4515 977.595 Q38.9023 978.723 39.9973 980.107 Q41.0923 981.492 43.5722 982.458 Q46.052 983.425 49.4659 983.553 Z" fill="#000000" fill-rule="nonzero" fill-opacity="1" /><path clip-path="url(#clip690)" d="M51.9135 960.097 Q45.6334 960.097 41.2856 955.717 Q36.9378 951.337 36.9378 945.411 Q36.9378 940.387 41.0279 937.102 L26.7607 937.102 Q24.3131 937.102 23.7012 937.972 Q23.0893 938.809 23.0893 942.223 L21.0281 942.223 L20.3196 932.722 L60.3515 932.722 Q62.7991 932.722 63.4432 931.885 Q64.0551 931.015 64.0551 927.601 L66.0841 927.601 L66.8248 937.295 L62.4448 937.295 Q66.7926 940.709 66.8248 946.12 Q66.8248 951.788 62.477 955.943 Q58.1292 960.097 51.9135 960.097 M51.9779 954.622 Q58.097 954.622 61.1244 952.722 Q65.3434 950.081 65.3434 945.798 Q65.3434 940.902 60.7379 938.004 Q59.6107 937.263 58.2903 937.295 L44.7638 937.295 Q43.4434 937.295 42.3484 938.004 Q38.3871 940.709 38.3871 945.121 Q38.3871 949.727 42.606 952.593 Q45.7622 954.622 51.9779 954.622 Z" fill="#000000" fill-rule="nonzero" fill-opacity="1" /><path clip-path="url(#clip690)" d="M39.7075 906.43 L37.6463 906.43 Q37.8396 903.467 37.8396 900.021 Q37.8396 898.765 37.6463 892.839 L39.7075 892.839 Q39.7075 896.607 41.4144 896.607 Q41.6721 896.607 42.5416 896.22 L60.9312 888.813 L44.1197 882.082 Q42.9925 881.695 42.5416 881.695 Q41.4144 881.695 40.6093 882.468 Q39.7719 883.209 39.7075 884.852 L37.6463 884.852 Q37.8396 881.502 37.8396 879.119 Q37.8396 876.414 37.6463 874.191 L39.7075 874.191 Q39.7075 876.156 40.6093 877.541 Q41.4788 878.926 42.2518 879.377 Q42.9925 879.795 44.1197 880.246 L65.5688 888.877 Q66.8248 889.393 66.8248 890.262 Q66.8248 890.842 66.5672 891.1 Q66.3417 891.325 65.5688 891.647 L42.1551 901.148 Q40.5126 901.792 40.1262 902.629 Q39.7075 903.467 39.7075 906.43 Z" fill="#000000" fill-rule="nonzero" fill-opacity="1" /><path clip-path="url(#clip690)" d="M59.804 868.69 Q54.2001 868.69 51.2372 862.088 Q49.337 858.127 48.854 849.946 L46.4385 849.946 Q42.3484 849.946 40.1906 852.104 Q38.0006 854.23 38.0006 856.935 Q38.0006 861.766 41.0279 864.085 Q41.0923 862.12 42.0907 861.412 Q43.0569 860.703 44.0553 860.703 Q45.3757 860.703 46.2453 861.54 Q47.0826 862.345 47.0826 863.73 Q47.0826 865.051 46.2775 865.92 Q45.4401 866.79 43.9909 866.79 Q40.7703 866.79 38.6447 863.891 Q36.5191 860.961 36.5191 856.806 Q36.5191 851.396 40.1584 847.788 Q41.2856 846.661 42.7348 846.114 Q44.1841 845.534 45.1503 845.47 Q46.0843 845.405 47.9522 845.405 L61.1244 845.405 Q61.5109 845.405 62.155 845.276 Q62.7991 845.148 63.6364 844.568 Q64.4416 843.956 64.4416 842.958 Q64.4416 840.574 60.2226 840.607 L56.519 840.607 L56.519 838.932 L60.2226 838.932 Q63.7331 838.932 65.1179 840.8 Q66.4706 842.636 66.4706 844.342 Q66.4706 846.532 64.8603 847.917 Q63.25 849.302 61.06 849.495 Q63.572 850.494 65.2145 852.78 Q66.8248 855.035 66.8248 858.127 Q66.8248 860.51 66.2129 862.764 Q65.6332 864.986 63.9907 866.854 Q62.316 868.69 59.804 868.69 M59.7395 863.602 Q62.1872 863.602 63.7653 861.862 Q65.3434 860.123 65.3434 857.676 Q65.3434 854.906 63.2178 852.426 Q61.06 849.946 56.841 849.946 L50.2388 849.946 Q50.4965 857.257 53.4272 860.445 Q56.3257 863.602 59.7395 863.602 Z" fill="#000000" fill-rule="nonzero" fill-opacity="1" /><path clip-path="url(#clip690)" d="M66.0841 837.61 L64.0551 837.61 Q64.0551 834.1 63.6364 833.294 Q63.1856 832.457 61.06 832.457 L43.379 832.457 Q40.9313 832.457 40.3194 833.327 Q39.7075 834.164 39.7075 837.61 L37.6463 837.61 L36.9378 828.431 L44.1841 828.431 Q41.35 827.497 39.16 825.533 Q36.9378 823.536 36.9378 820.315 Q36.9378 818.19 38.1294 816.837 Q39.321 815.452 40.9635 815.452 Q42.4128 815.452 43.1535 816.354 Q43.8621 817.224 43.8621 818.286 Q43.8621 819.478 43.1213 820.315 Q42.3484 821.121 41.0279 821.121 Q40.2228 821.121 39.6109 820.766 Q38.9668 820.38 38.7413 820.09 Q38.5159 819.8 38.4515 819.607 Q38.3871 819.736 38.3871 820.315 Q38.3871 823.955 42.0263 826.048 Q45.6334 828.109 50.7863 828.109 L60.9312 828.109 Q62.8313 828.109 63.4432 827.336 Q64.0551 826.531 64.0551 823.085 L64.0551 821.7 L66.0841 821.7 Q65.8909 824.341 65.8909 830.074 Q65.8909 830.879 65.9231 832.135 Q65.9553 833.391 66.0197 835.034 Q66.0841 836.676 66.0841 837.61 Z" fill="#000000" fill-rule="nonzero" fill-opacity="1" /><path clip-path="url(#clip690)" d="M66.0841 812.924 L64.0551 812.924 Q64.0551 809.414 63.6364 808.609 Q63.1856 807.803 61.06 807.803 L43.3146 807.803 Q40.8669 807.803 40.2872 808.641 Q39.7075 809.446 39.7075 812.667 L37.6463 812.667 L36.9378 803.456 L61.1244 803.456 Q63.0889 803.456 63.572 802.747 Q64.0551 802.039 64.0551 798.818 L66.0841 798.818 Q65.8909 805.549 65.8909 805.678 Q65.8909 806.58 66.0841 812.924 M25.4403 810.154 Q24.1199 810.154 23.0571 809.156 Q21.9621 808.126 21.9621 806.676 Q21.9621 805.227 22.9604 804.196 Q23.9266 803.166 25.4725 803.166 Q26.9862 803.166 27.9846 804.196 Q28.9507 805.227 28.9507 806.676 Q28.9507 808.19 27.8879 809.188 Q26.8252 810.154 25.4403 810.154 Z" fill="#000000" fill-rule="nonzero" fill-opacity="1" /><path clip-path="url(#clip690)" d="M59.804 793.254 Q54.2001 793.254 51.2372 786.652 Q49.337 782.69 48.854 774.51 L46.4385 774.51 Q42.3484 774.51 40.1906 776.668 Q38.0006 778.793 38.0006 781.499 Q38.0006 786.329 41.0279 788.648 Q41.0923 786.684 42.0907 785.975 Q43.0569 785.267 44.0553 785.267 Q45.3757 785.267 46.2453 786.104 Q47.0826 786.909 47.0826 788.294 Q47.0826 789.614 46.2775 790.484 Q45.4401 791.354 43.9909 791.354 Q40.7703 791.354 38.6447 788.455 Q36.5191 785.524 36.5191 781.37 Q36.5191 775.959 40.1584 772.352 Q41.2856 771.225 42.7348 770.677 Q44.1841 770.098 45.1503 770.033 Q46.0843 769.969 47.9522 769.969 L61.1244 769.969 Q61.5109 769.969 62.155 769.84 Q62.7991 769.711 63.6364 769.132 Q64.4416 768.52 64.4416 767.521 Q64.4416 765.138 60.2226 765.17 L56.519 765.17 L56.519 763.496 L60.2226 763.496 Q63.7331 763.496 65.1179 765.363 Q66.4706 767.199 66.4706 768.906 Q66.4706 771.096 64.8603 772.481 Q63.25 773.866 61.06 774.059 Q63.572 775.057 65.2145 777.344 Q66.8248 779.598 66.8248 782.69 Q66.8248 785.073 66.2129 787.328 Q65.6332 789.55 63.9907 791.418 Q62.316 793.254 59.804 793.254 M59.7395 788.165 Q62.1872 788.165 63.7653 786.426 Q65.3434 784.687 65.3434 782.239 Q65.3434 779.47 63.2178 776.99 Q61.06 774.51 56.841 774.51 L50.2388 774.51 Q50.4965 781.821 53.4272 785.009 Q56.3257 788.165 59.7395 788.165 Z" fill="#000000" fill-rule="nonzero" fill-opacity="1" /><path clip-path="url(#clip690)" d="M66.0841 762.174 L64.0551 762.174 Q64.0551 758.663 63.6364 757.858 Q63.1856 757.053 61.06 757.053 L43.379 757.053 Q40.9313 757.053 40.3194 757.923 Q39.7075 758.76 39.7075 762.174 L37.6463 762.174 L36.9378 752.898 L43.8621 752.898 Q36.9378 749.807 36.9378 743.14 Q36.9378 738.18 39.3854 736.216 Q41.0279 734.766 42.8637 734.477 Q44.6994 734.155 49.4659 734.155 L62.0584 734.155 Q63.4432 734.09 63.7653 733.027 Q64.0551 731.965 64.0551 729.002 L66.0841 729.002 Q65.8909 735.733 65.8909 736.409 Q65.8909 736.924 66.0841 743.849 L64.0551 743.849 Q64.0551 740.338 63.6364 739.533 Q63.1856 738.696 61.06 738.696 L45.6978 738.696 Q42.3484 738.696 40.3838 739.726 Q38.3871 740.757 38.3871 743.591 Q38.3871 747.005 41.2534 749.742 Q44.1197 752.48 48.9506 752.48 L61.06 752.48 Q63.1856 752.48 63.6364 751.675 Q64.0551 750.837 64.0551 747.359 L66.0841 747.359 Q65.8909 754.09 65.8909 754.734 Q65.8909 755.249 66.0841 762.174 Z" fill="#000000" fill-rule="nonzero" fill-opacity="1" /><path clip-path="url(#clip690)" d="M62.477 720.166 Q58.097 724.353 51.8491 724.353 Q45.569 724.353 41.0601 720.231 Q36.5191 716.108 36.5191 710.054 Q36.5191 706.028 38.4515 703.001 Q40.3516 699.973 43.6044 699.973 Q45.0537 699.973 45.891 700.843 Q46.6962 701.68 46.6962 703.001 Q46.6962 704.385 45.8588 705.223 Q44.9893 706.028 43.6688 706.028 Q43.0891 706.028 42.5094 705.835 Q41.9297 705.641 41.3178 704.933 Q40.7059 704.192 40.6093 702.936 Q38.1938 705.287 38.1938 709.86 Q38.1938 709.925 38.1938 709.989 Q38.1938 713.339 41.35 716.108 Q44.5062 718.878 51.7203 718.878 Q55.4884 718.878 58.2581 717.976 Q60.9956 717.042 62.4126 715.529 Q63.8297 714.015 64.506 712.533 Q65.1501 711.052 65.1501 709.603 Q65.1501 703.129 58.2259 700.939 Q57.5817 700.746 57.5817 700.102 Q57.5817 699.232 58.2259 699.232 Q58.5479 699.232 59.3853 699.49 Q60.2226 699.748 61.5431 700.553 Q62.8635 701.358 64.0229 702.517 Q65.1501 703.645 65.9875 705.674 Q66.8248 707.67 66.8248 710.182 Q66.8248 715.979 62.477 720.166 Z" fill="#000000" fill-rule="nonzero" fill-opacity="1" /><path clip-path="url(#clip690)" d="M51.5593 695.621 Q45.3435 695.621 40.9313 691.628 Q36.5191 687.634 36.5191 681.902 Q36.5191 676.105 40.2872 673.109 Q44.0553 670.082 49.4659 670.082 Q50.4643 670.082 50.6575 670.34 Q50.8507 670.597 50.8507 671.725 L50.8507 690.146 Q57.5817 690.146 60.7379 688.15 Q65.1501 685.38 65.1501 680.71 Q65.1501 680.066 65.0213 679.293 Q64.8925 678.52 64.345 676.942 Q63.7653 675.364 62.2516 673.979 Q60.7379 672.594 58.3547 671.789 Q57.4207 671.596 57.4529 670.952 Q57.4529 670.082 58.2259 670.082 Q58.8056 670.082 60.126 670.726 Q61.4142 671.338 62.9601 672.53 Q64.506 673.721 65.6654 676.04 Q66.8248 678.327 66.8248 681.096 Q66.8248 686.893 62.4448 691.273 Q58.0326 695.621 51.5593 695.621 M49.4659 690.082 L49.4659 674.43 Q48.081 674.43 46.5351 674.687 Q44.9893 674.913 42.8637 675.621 Q40.7059 676.298 39.3532 677.908 Q38.0006 679.518 38.0006 681.902 Q38.0006 682.964 38.4515 684.124 Q38.9023 685.251 39.9973 686.636 Q41.0923 688.021 43.5722 688.987 Q46.052 689.953 49.4659 690.082 Z" fill="#000000" fill-rule="nonzero" fill-opacity="1" /><path clip-path="url(#clip690)" d="M62.5415 644.847 Q58.2259 649.195 51.9779 649.195 Q45.6978 649.195 41.1246 644.943 Q36.5191 640.66 36.5191 634.541 Q36.5191 628.551 41.0923 624.267 Q45.6334 619.952 51.9779 619.952 Q58.1937 619.952 62.5092 624.3 Q66.8248 628.615 66.8248 634.605 Q66.8248 640.467 62.5415 644.847 M51.4304 643.72 Q57.8394 643.72 60.7379 642.045 Q65.1501 639.468 65.1501 634.541 Q65.1501 632.093 63.8297 630.064 Q62.5092 628.003 60.287 626.876 Q57.3885 625.427 51.4304 625.427 Q45.0859 625.427 42.284 627.166 Q38.0006 629.742 38.0006 634.605 Q38.0006 636.731 39.1278 638.824 Q40.2228 640.886 42.4128 642.142 Q45.3113 643.72 51.4304 643.72 Z" fill="#000000" fill-rule="nonzero" fill-opacity="1" /><path clip-path="url(#clip690)" d="M39.7075 616.531 L37.6463 616.531 L37.6463 611.345 L30.0779 611.345 Q25.1827 611.345 22.3807 608.189 Q19.5788 605.001 19.5788 601.104 Q19.5788 598.528 20.9637 596.853 Q22.3485 595.178 24.2165 595.178 Q25.4725 595.178 26.3099 595.951 Q27.115 596.692 27.115 598.077 Q27.115 599.397 26.2777 600.17 Q25.4403 600.911 24.2809 600.911 Q22.1553 600.911 21.5112 598.946 Q21.0603 599.945 21.0281 601.104 Q21.0281 603.487 23.4757 605.355 Q25.9234 607.191 30.0135 607.191 L37.6463 607.191 L37.6463 599.461 L39.7075 599.461 L39.7075 606.965 L60.9312 606.965 Q62.8313 606.965 63.4432 606.193 Q64.0551 605.387 64.0551 601.974 L64.0551 600.589 L66.0841 600.589 Q65.8909 603.23 65.8909 608.962 Q65.8909 609.767 65.9231 611.023 Q65.9553 612.247 66.0197 613.922 Q66.0841 615.564 66.0841 616.466 L64.0551 616.466 Q64.0551 612.956 63.6364 612.151 Q63.1856 611.345 61.06 611.345 L39.7075 611.345 L39.7075 616.531 Z" fill="#000000" fill-rule="nonzero" fill-opacity="1" /><path clip-path="url(#clip690)" d="M21.8332 548.664 Q22.4452 548.664 22.735 548.922 Q22.9927 549.147 23.0571 549.501 Q23.0893 549.855 23.0893 550.789 Q23.0893 552.368 23.2181 553.366 Q23.3147 554.364 23.4757 554.976 Q23.6046 555.588 24.0554 555.942 Q24.4741 556.264 24.8606 556.425 Q25.2471 556.554 26.1166 556.78 L61.2532 565.604 Q62.2838 565.894 62.7991 565.894 Q63.3466 565.894 63.572 565.572 Q63.7975 565.25 63.8941 564.219 Q64.0551 562.577 64.0551 561.385 Q64.0551 559.807 64.2806 559.582 Q64.506 559.421 64.8281 559.421 Q65.4078 559.421 65.7298 559.678 Q66.0197 559.936 66.0519 560.161 Q66.0841 560.355 66.0841 560.741 L65.8909 569.565 L66.0841 578.229 Q66.0841 579.195 65.3434 579.195 Q64.8603 579.195 64.6026 579.131 Q64.3128 579.034 64.2162 578.712 Q64.0873 578.358 64.0873 578.1 Q64.0551 577.842 64.0551 577.102 Q64.0551 575.781 64.0229 574.912 Q63.9585 574.01 63.7975 573.366 Q63.6042 572.689 63.4432 572.367 Q63.25 572.013 62.8313 571.755 Q62.3804 571.466 62.0262 571.369 Q61.6719 571.24 60.9312 571.079 L25.3759 562.19 Q24.7962 562.062 24.3453 562.062 Q23.4757 562.062 23.2825 563.092 Q23.0893 564.09 23.0893 566.603 Q23.0893 567.375 23.0571 567.698 Q23.0249 567.987 22.8638 568.245 Q22.7028 568.47 22.3485 568.47 Q21.8977 568.47 21.6078 568.342 Q21.2857 568.213 21.1891 567.987 Q21.0925 567.73 21.0603 567.569 Q21.0281 567.408 21.0281 567.15 L21.2213 558.358 L21.0281 549.662 Q21.0281 548.664 21.8332 548.664 Z" fill="#000000" fill-rule="nonzero" fill-opacity="1" /><path clip-path="url(#clip690)" d="M49.5947 541.214 Q38.4515 541.214 29.466 537.06 Q25.6979 535.289 22.5418 532.809 Q19.3856 530.329 18.0007 528.686 Q16.6159 527.044 16.6159 526.593 Q16.6159 525.949 17.26 525.917 Q17.5821 525.917 18.3872 526.786 Q29.2084 537.414 49.5947 537.382 Q70.0454 537.382 80.4479 527.044 Q81.5751 525.917 81.9294 525.917 Q82.5735 525.917 82.5735 526.593 Q82.5735 527.044 81.2531 528.622 Q79.9326 530.2 76.9053 532.648 Q73.8779 535.095 70.1742 536.867 Q61.1888 541.214 49.5947 541.214 Z" fill="#000000" fill-rule="nonzero" fill-opacity="1" /><path clip-path="url(#clip690)" d="M38.3871 500.646 Q39.2888 500.646 39.5143 501.064 Q39.7075 501.483 39.7075 502.642 L39.7075 508.826 L59.1598 513.721 Q60.8667 514.108 62.316 514.108 Q63.9263 514.108 64.6348 513.625 Q65.3434 513.109 65.3434 512.046 Q65.3434 509.953 63.4432 507.699 Q61.5431 505.412 56.9054 503.48 Q56.2935 503.222 56.1647 503.093 Q56.0037 502.932 56.0037 502.514 Q56.0037 501.708 56.6478 501.708 Q56.8732 501.708 57.9038 502.159 Q58.9344 502.578 60.4481 503.512 Q61.9617 504.414 63.3788 505.605 Q64.7959 506.765 65.8264 508.536 Q66.8248 510.307 66.8248 512.208 Q66.8248 514.881 65.1179 516.588 Q63.411 518.262 60.7379 518.262 Q59.8684 518.262 57.0987 517.586 Q54.2967 516.91 39.7075 513.238 L39.7075 519.067 Q39.7075 519.873 39.6753 520.195 Q39.6431 520.484 39.4821 520.71 Q39.2888 520.903 38.9023 520.903 Q38.2904 520.903 38.0328 520.645 Q37.7429 520.388 37.7107 520.066 Q37.6463 519.711 37.6463 518.906 L37.6463 512.723 L27.1794 510.146 Q26.1488 509.889 25.5691 509.245 Q24.9572 508.568 24.8928 508.182 Q24.7962 507.795 24.7962 507.505 Q24.7962 506.636 25.2793 506.121 Q25.7302 505.605 26.5675 505.605 Q27.0184 505.605 37.6463 508.311 L37.6463 502.514 Q37.6463 501.773 37.6785 501.483 Q37.7107 501.161 37.8718 500.903 Q38.0328 500.646 38.3871 500.646 Z" fill="#000000" fill-rule="nonzero" fill-opacity="1" /><path clip-path="url(#clip690)" d="M81.9294 495.482 Q81.6073 495.482 80.8022 494.645 Q69.981 484.017 49.5947 484.017 Q29.144 484.017 18.8059 494.226 Q17.6143 495.482 17.26 495.482 Q16.6159 495.482 16.6159 494.838 Q16.6159 494.387 17.9363 492.809 Q19.2568 491.199 22.2841 488.783 Q25.3115 486.336 29.0151 484.532 Q38.0006 480.184 49.5947 480.184 Q60.7379 480.184 69.7234 484.339 Q73.4914 486.11 76.6476 488.59 Q79.8038 491.07 81.1886 492.712 Q82.5735 494.355 82.5735 494.838 Q82.5735 495.482 81.9294 495.482 Z" fill="#000000" fill-rule="nonzero" fill-opacity="1" /><path clip-path="url(#clip690)" d="M21.8332 442 Q22.4452 442 22.735 442.257 Q22.9927 442.483 23.0571 442.837 Q23.0893 443.191 23.0893 444.125 Q23.0893 445.703 23.2181 446.702 Q23.3147 447.7 23.4757 448.312 Q23.6046 448.924 24.0554 449.278 Q24.4741 449.6 24.8606 449.761 Q25.2471 449.89 26.1166 450.115 L61.2532 458.94 Q62.2838 459.23 62.7991 459.23 Q63.3466 459.23 63.572 458.908 Q63.7975 458.586 63.8941 457.555 Q64.0551 455.912 64.0551 454.721 Q64.0551 453.143 64.2806 452.917 Q64.506 452.756 64.8281 452.756 Q65.4078 452.756 65.7298 453.014 Q66.0197 453.272 66.0519 453.497 Q66.0841 453.69 66.0841 454.077 L65.8909 462.901 L66.0841 471.565 Q66.0841 472.531 65.3434 472.531 Q64.8603 472.531 64.6026 472.466 Q64.3128 472.37 64.2162 472.048 Q64.0873 471.693 64.0873 471.436 Q64.0551 471.178 64.0551 470.437 Q64.0551 469.117 64.0229 468.247 Q63.9585 467.346 63.7975 466.701 Q63.6042 466.025 63.4432 465.703 Q63.25 465.349 62.8313 465.091 Q62.3804 464.801 62.0262 464.705 Q61.6719 464.576 60.9312 464.415 L25.3759 455.526 Q24.7962 455.397 24.3453 455.397 Q23.4757 455.397 23.2825 456.428 Q23.0893 457.426 23.0893 459.938 Q23.0893 460.711 23.0571 461.033 Q23.0249 461.323 22.8638 461.581 Q22.7028 461.806 22.3485 461.806 Q21.8977 461.806 21.6078 461.677 Q21.2857 461.549 21.1891 461.323 Q21.0925 461.065 21.0603 460.904 Q21.0281 460.743 21.0281 460.486 L21.2213 451.694 L21.0281 442.998 Q21.0281 442 21.8332 442 Z" fill="#000000" fill-rule="nonzero" fill-opacity="1" /><path clip-path="url(#clip690)" d="M49.5947 434.55 Q38.4515 434.55 29.466 430.396 Q25.6979 428.624 22.5418 426.144 Q19.3856 423.665 18.0007 422.022 Q16.6159 420.38 16.6159 419.929 Q16.6159 419.285 17.26 419.252 Q17.5821 419.252 18.3872 420.122 Q29.2084 430.75 49.5947 430.718 Q70.0454 430.718 80.4479 420.38 Q81.5751 419.252 81.9294 419.252 Q82.5735 419.252 82.5735 419.929 Q82.5735 420.38 81.2531 421.958 Q79.9326 423.536 76.9053 425.983 Q73.8779 428.431 70.1742 430.202 Q61.1888 434.55 49.5947 434.55 Z" fill="#000000" fill-rule="nonzero" fill-opacity="1" /><path clip-path="url(#clip690)" d="M38.3871 393.981 Q39.2888 393.981 39.5143 394.4 Q39.7075 394.819 39.7075 395.978 L39.7075 402.162 L59.1598 407.057 Q60.8667 407.443 62.316 407.443 Q63.9263 407.443 64.6348 406.96 Q65.3434 406.445 65.3434 405.382 Q65.3434 403.289 63.4432 401.034 Q61.5431 398.748 56.9054 396.815 Q56.2935 396.558 56.1647 396.429 Q56.0037 396.268 56.0037 395.849 Q56.0037 395.044 56.6478 395.044 Q56.8732 395.044 57.9038 395.495 Q58.9344 395.914 60.4481 396.848 Q61.9617 397.749 63.3788 398.941 Q64.7959 400.1 65.8264 401.872 Q66.8248 403.643 66.8248 405.543 Q66.8248 408.216 65.1179 409.923 Q63.411 411.598 60.7379 411.598 Q59.8684 411.598 57.0987 410.922 Q54.2967 410.245 39.7075 406.574 L39.7075 412.403 Q39.7075 413.208 39.6753 413.53 Q39.6431 413.82 39.4821 414.046 Q39.2888 414.239 38.9023 414.239 Q38.2904 414.239 38.0328 413.981 Q37.7429 413.723 37.7107 413.401 Q37.6463 413.047 37.6463 412.242 L37.6463 406.058 L27.1794 403.482 Q26.1488 403.224 25.5691 402.58 Q24.9572 401.904 24.8928 401.517 Q24.7962 401.131 24.7962 400.841 Q24.7962 399.972 25.2793 399.456 Q25.7302 398.941 26.5675 398.941 Q27.0184 398.941 37.6463 401.646 L37.6463 395.849 Q37.6463 395.108 37.6785 394.819 Q37.7107 394.497 37.8718 394.239 Q38.0328 393.981 38.3871 393.981 Z" fill="#000000" fill-rule="nonzero" fill-opacity="1" /><path clip-path="url(#clip690)" d="M50.3998 370.849 Q50.3998 372.363 49.5947 372.363 Q48.7895 372.363 48.7895 370.785 Q48.7895 370.592 48.8218 370.27 Q48.854 369.916 48.854 369.851 L48.854 351.268 L30.2068 351.268 Q30.1424 351.268 29.8525 351.301 Q29.5304 351.333 29.3372 351.333 Q27.7591 351.333 27.7591 350.56 Q27.7591 349.755 29.3372 349.755 L48.854 349.755 L48.854 331.14 Q48.854 331.075 48.8218 330.753 Q48.7895 330.431 48.7895 330.238 Q48.7895 328.724 49.5947 328.724 Q50.3998 328.692 50.3998 330.302 Q50.3998 330.496 50.3676 330.785 Q50.3354 331.075 50.3354 331.14 L50.3354 349.755 L69.9166 349.755 Q71.4303 349.755 71.4303 350.56 Q71.4303 351.333 69.8522 351.333 Q69.6589 351.333 69.3369 351.301 Q69.047 351.268 68.9826 351.268 L50.3354 351.268 L50.3354 369.851 Q50.3354 369.916 50.3676 370.302 Q50.3998 370.656 50.3998 370.849 Z" fill="#000000" fill-rule="nonzero" fill-opacity="1" /><path clip-path="url(#clip690)" d="M39.2244 271.298 Q41.4788 271.298 41.4788 274.551 L41.4788 285.63 L64.0551 290.042 Q64.6348 290.138 64.9569 290.267 Q65.2789 290.364 65.8264 290.654 Q66.3417 290.911 66.5994 291.459 Q66.8892 291.974 66.8892 292.747 Q66.8892 293.713 66.3095 294.196 Q65.762 294.647 65.0857 294.647 Q64.667 294.647 62.6703 294.003 L41.4788 287.53 L41.4788 293.005 Q41.4788 298.158 46.5673 301.378 Q47.2437 301.894 47.3081 302.183 Q47.3403 302.312 47.3403 302.441 Q47.3403 302.795 47.1793 303.021 Q47.0182 303.214 46.8572 303.214 L46.6962 303.246 Q46.4707 303.246 45.569 302.731 Q44.635 302.183 43.2501 301.217 Q41.8653 300.219 40.7703 299.221 Q39.3532 297.9 38.6125 296.419 Q37.8396 294.937 37.7429 294.196 Q37.6463 293.423 37.6463 292.425 L37.6463 273.939 Q37.6463 273.102 37.7107 272.651 Q37.7429 272.2 38.1294 271.749 Q38.4837 271.298 39.2244 271.298 Z" fill="#000000" fill-rule="nonzero" fill-opacity="1" /><path clip-path="url(#clip690)" d="M81.9294 265.225 Q81.6073 265.225 80.8022 264.388 Q69.981 253.76 49.5947 253.76 Q29.144 253.76 18.8059 263.969 Q17.6143 265.225 17.26 265.225 Q16.6159 265.225 16.6159 264.581 Q16.6159 264.13 17.9363 262.552 Q19.2568 260.942 22.2841 258.526 Q25.3115 256.079 29.0151 254.275 Q38.0006 249.927 49.5947 249.927 Q60.7379 249.927 69.7234 254.082 Q73.4914 255.853 76.6476 258.333 Q79.8038 260.813 81.1886 262.455 Q82.5735 264.098 82.5735 264.581 Q82.5735 265.225 81.9294 265.225 Z" fill="#000000" fill-rule="nonzero" fill-opacity="1" /><path clip-path="url(#clip693)" d="M270.244 1385.14 L369.407 1309.38 L468.571 1266.2 L567.734 1213.54 L666.897 1157.12 L766.06 1101.08 L865.224 1056.26 L964.387 1034.45 L1063.55 996.437 L1162.71 967.903 L1261.88 966.052 L1361.04 909.144 L1460.2 881.671 L1559.37 860.469 L1658.53 828.942 L1757.69 818.623 L1856.86 802.926 L1956.02 780.503 L2055.18 769.383 L2154.35 757.82 L2253.51 742.23 L2253.51 440.992 L2154.35 420.756 L2055.18 420.033 L1956.02 421.126 L1856.86 402.465 L1757.69 382.605 L1658.53 376.546 L1559.37 338.37 L1460.2 337.304 L1361.04 309.428 L1261.88 252.547 L1162.71 321.037 L1063.55 279.259 L964.387 270.481 L865.224 264.039 L766.06 191.234 L666.897 212.218 L567.734 162.425 L468.571 165.462 L369.407 132.483 L270.244 117.035  Z" fill="#009af9" fill-rule="evenodd" fill-opacity="0.5"/>
<polyline clip-path="url(#clip693)" style="stroke:#009af9; stroke-linecap:round; stroke-linejoin:round; stroke-width:4; stroke-opacity:1; fill:none" points="270.244,751.086 369.407,720.93 468.571,715.832 567.734,687.983 666.897,684.669 766.06,646.155 865.224,660.15 964.387,652.467 1063.55,637.848 1162.71,644.47 1261.88,609.299 1361.04,609.286 1460.2,609.487 1559.37,599.419 1658.53,602.744 1757.69,600.614 1856.86,602.695 1956.02,600.814 2055.18,594.708 2154.35,589.288 2253.51,591.611 "/>
<polyline clip-path="url(#clip690)" style="stroke:#000000; stroke-linecap:round; stroke-linejoin:round; stroke-width:4; stroke-opacity:1; fill:none" points="2313.01,1423.18 2313.01,78.9921 "/>
<polyline clip-path="url(#clip690)" style="stroke:#000000; stroke-linecap:round; stroke-linejoin:round; stroke-width:4; stroke-opacity:1; fill:none" points="2313.01,1388.31 2294.11,1388.31 "/>
<polyline clip-path="url(#clip690)" style="stroke:#000000; stroke-linecap:round; stroke-linejoin:round; stroke-width:4; stroke-opacity:1; fill:none" points="2313.01,1184.54 2294.11,1184.54 "/>
<polyline clip-path="url(#clip690)" style="stroke:#000000; stroke-linecap:round; stroke-linejoin:round; stroke-width:4; stroke-opacity:1; fill:none" points="2313.01,980.762 2294.11,980.762 "/>
<polyline clip-path="url(#clip690)" style="stroke:#000000; stroke-linecap:round; stroke-linejoin:round; stroke-width:4; stroke-opacity:1; fill:none" points="2313.01,776.986 2294.11,776.986 "/>
<polyline clip-path="url(#clip690)" style="stroke:#000000; stroke-linecap:round; stroke-linejoin:round; stroke-width:4; stroke-opacity:1; fill:none" points="2313.01,573.21 2294.11,573.21 "/>
<polyline clip-path="url(#clip690)" style="stroke:#000000; stroke-linecap:round; stroke-linejoin:round; stroke-width:4; stroke-opacity:1; fill:none" points="2313.01,369.434 2294.11,369.434 "/>
<polyline clip-path="url(#clip690)" style="stroke:#000000; stroke-linecap:round; stroke-linejoin:round; stroke-width:4; stroke-opacity:1; fill:none" points="2313.01,165.658 2294.11,165.658 "/>
<polyline clip-path="url(#clip690)" style="stroke:#000000; stroke-linecap:round; stroke-linejoin:round; stroke-width:4; stroke-opacity:1; fill:none" points="210.746,78.9921 2313.01,78.9921 "/>
<polyline clip-path="url(#clip690)" style="stroke:#000000; stroke-linecap:round; stroke-linejoin:round; stroke-width:4; stroke-opacity:1; fill:none" points="270.244,78.9921 270.244,97.8898 "/>
<polyline clip-path="url(#clip690)" style="stroke:#000000; stroke-linecap:round; stroke-linejoin:round; stroke-width:4; stroke-opacity:1; fill:none" points="766.06,78.9921 766.06,97.8898 "/>
<polyline clip-path="url(#clip690)" style="stroke:#000000; stroke-linecap:round; stroke-linejoin:round; stroke-width:4; stroke-opacity:1; fill:none" points="1261.88,78.9921 1261.88,97.8898 "/>
<polyline clip-path="url(#clip690)" style="stroke:#000000; stroke-linecap:round; stroke-linejoin:round; stroke-width:4; stroke-opacity:1; fill:none" points="1757.69,78.9921 1757.69,97.8898 "/>
<polyline clip-path="url(#clip690)" style="stroke:#000000; stroke-linecap:round; stroke-linejoin:round; stroke-width:4; stroke-opacity:1; fill:none" points="2253.51,78.9921 2253.51,97.8898 "/>
</svg>
