<?xml version="1.0" encoding="utf-8"?>
<svg xmlns="http://www.w3.org/2000/svg" xmlns:xlink="http://www.w3.org/1999/xlink" width="600" height="400" viewBox="0 0 2400 1600">
<defs>
  <clipPath id="clip050">
    <rect x="0" y="0" width="2400" height="1600"/>
  </clipPath>
</defs>
<path clip-path="url(#clip050)" d="M0 1600 L2400 1600 L2400 0 L0 0  Z" fill="#ffffff" fill-rule="evenodd" fill-opacity="1"/>
<defs>
  <clipPath id="clip051">
    <rect x="480" y="0" width="1681" height="1600"/>
  </clipPath>
</defs>
<defs>
  <clipPath id="clip052">
    <rect x="255" y="78" width="2058" height="1345"/>
  </clipPath>
</defs>
<path clip-path="url(#clip050)" d="M255.784 1423.18 L2313.01 1423.18 L2313.01 78.9921 L255.784 78.9921  Z" fill="#ffffff" fill-rule="evenodd" fill-opacity="1"/>
<polyline clip-path="url(#clip050)" style="stroke:#000000; stroke-linecap:round; stroke-linejoin:round; stroke-width:4; stroke-opacity:1; fill:none" points="255.784,1423.18 2313.01,1423.18 "/>
<polyline clip-path="url(#clip050)" style="stroke:#000000; stroke-linecap:round; stroke-linejoin:round; stroke-width:4; stroke-opacity:1; fill:none" points="314.007,1423.18 314.007,1404.28 "/>
<polyline clip-path="url(#clip050)" style="stroke:#000000; stroke-linecap:round; stroke-linejoin:round; stroke-width:4; stroke-opacity:1; fill:none" points="799.202,1423.18 799.202,1404.28 "/>
<polyline clip-path="url(#clip050)" style="stroke:#000000; stroke-linecap:round; stroke-linejoin:round; stroke-width:4; stroke-opacity:1; fill:none" points="1284.4,1423.18 1284.4,1404.28 "/>
<polyline clip-path="url(#clip050)" style="stroke:#000000; stroke-linecap:round; stroke-linejoin:round; stroke-width:4; stroke-opacity:1; fill:none" points="1769.59,1423.18 1769.59,1404.28 "/>
<polyline clip-path="url(#clip050)" style="stroke:#000000; stroke-linecap:round; stroke-linejoin:round; stroke-width:4; stroke-opacity:1; fill:none" points="2254.78,1423.18 2254.78,1404.28 "/>
<path clip-path="url(#clip050)" d="M281.16 1481.64 L288.799 1481.64 L288.799 1455.28 L280.489 1456.95 L280.489 1452.69 L288.753 1451.02 L293.429 1451.02 L293.429 1481.64 L301.067 1481.64 L301.067 1485.58 L281.16 1485.58 L281.16 1481.64 Z" fill="#000000" fill-rule="nonzero" fill-opacity="1" /><path clip-path="url(#clip050)" d="M310.512 1479.7 L315.396 1479.7 L315.396 1485.58 L310.512 1485.58 L310.512 1479.7 Z" fill="#000000" fill-rule="nonzero" fill-opacity="1" /><path clip-path="url(#clip050)" d="M335.581 1454.1 Q331.97 1454.1 330.141 1457.66 Q328.336 1461.2 328.336 1468.33 Q328.336 1475.44 330.141 1479.01 Q331.97 1482.55 335.581 1482.55 Q339.215 1482.55 341.021 1479.01 Q342.85 1475.44 342.85 1468.33 Q342.85 1461.2 341.021 1457.66 Q339.215 1454.1 335.581 1454.1 M335.581 1450.39 Q341.391 1450.39 344.447 1455 Q347.526 1459.58 347.526 1468.33 Q347.526 1477.06 344.447 1481.67 Q341.391 1486.25 335.581 1486.25 Q329.771 1486.25 326.692 1481.67 Q323.637 1477.06 323.637 1468.33 Q323.637 1459.58 326.692 1455 Q329.771 1450.39 335.581 1450.39 Z" fill="#000000" fill-rule="nonzero" fill-opacity="1" /><path clip-path="url(#clip050)" d="M766.852 1481.64 L774.491 1481.64 L774.491 1455.28 L766.181 1456.95 L766.181 1452.69 L774.445 1451.02 L779.121 1451.02 L779.121 1481.64 L786.759 1481.64 L786.759 1485.58 L766.852 1485.58 L766.852 1481.64 Z" fill="#000000" fill-rule="nonzero" fill-opacity="1" /><path clip-path="url(#clip050)" d="M796.204 1479.7 L801.088 1479.7 L801.088 1485.58 L796.204 1485.58 L796.204 1479.7 Z" fill="#000000" fill-rule="nonzero" fill-opacity="1" /><path clip-path="url(#clip050)" d="M811.32 1451.02 L829.676 1451.02 L829.676 1454.96 L815.602 1454.96 L815.602 1463.43 Q816.62 1463.08 817.639 1462.92 Q818.657 1462.73 819.676 1462.73 Q825.463 1462.73 828.843 1465.9 Q832.222 1469.08 832.222 1474.49 Q832.222 1480.07 828.75 1483.17 Q825.278 1486.25 818.958 1486.25 Q816.782 1486.25 814.514 1485.88 Q812.269 1485.51 809.861 1484.77 L809.861 1480.07 Q811.945 1481.2 814.167 1481.76 Q816.389 1482.32 818.866 1482.32 Q822.87 1482.32 825.208 1480.21 Q827.546 1478.1 827.546 1474.49 Q827.546 1470.88 825.208 1468.77 Q822.87 1466.67 818.866 1466.67 Q816.991 1466.67 815.116 1467.08 Q813.264 1467.5 811.32 1468.38 L811.32 1451.02 Z" fill="#000000" fill-rule="nonzero" fill-opacity="1" /><path clip-path="url(#clip050)" d="M1255.63 1481.64 L1271.95 1481.64 L1271.95 1485.58 L1250.01 1485.58 L1250.01 1481.64 Q1252.67 1478.89 1257.25 1474.26 Q1261.86 1469.61 1263.04 1468.27 Q1265.29 1465.74 1266.17 1464.01 Q1267.07 1462.25 1267.07 1460.56 Q1267.07 1457.8 1265.13 1456.07 Q1263.2 1454.33 1260.1 1454.33 Q1257.9 1454.33 1255.45 1455.09 Q1253.02 1455.86 1250.24 1457.41 L1250.24 1452.69 Q1253.07 1451.55 1255.52 1450.97 Q1257.97 1450.39 1260.01 1450.39 Q1265.38 1450.39 1268.57 1453.08 Q1271.77 1455.77 1271.77 1460.26 Q1271.77 1462.39 1270.96 1464.31 Q1270.17 1466.2 1268.06 1468.8 Q1267.49 1469.47 1264.38 1472.69 Q1261.28 1475.88 1255.63 1481.64 Z" fill="#000000" fill-rule="nonzero" fill-opacity="1" /><path clip-path="url(#clip050)" d="M1281.77 1479.7 L1286.65 1479.7 L1286.65 1485.58 L1281.77 1485.58 L1281.77 1479.7 Z" fill="#000000" fill-rule="nonzero" fill-opacity="1" /><path clip-path="url(#clip050)" d="M1306.84 1454.1 Q1303.23 1454.1 1301.4 1457.66 Q1299.59 1461.2 1299.59 1468.33 Q1299.59 1475.44 1301.4 1479.01 Q1303.23 1482.55 1306.84 1482.55 Q1310.47 1482.55 1312.28 1479.01 Q1314.11 1475.44 1314.11 1468.33 Q1314.11 1461.2 1312.28 1457.66 Q1310.47 1454.1 1306.84 1454.1 M1306.84 1450.39 Q1312.65 1450.39 1315.7 1455 Q1318.78 1459.58 1318.78 1468.33 Q1318.78 1477.06 1315.7 1481.67 Q1312.65 1486.25 1306.84 1486.25 Q1301.03 1486.25 1297.95 1481.67 Q1294.89 1477.06 1294.89 1468.33 Q1294.89 1459.58 1297.95 1455 Q1301.03 1450.39 1306.84 1450.39 Z" fill="#000000" fill-rule="nonzero" fill-opacity="1" /><path clip-path="url(#clip050)" d="M1741.33 1481.64 L1757.65 1481.64 L1757.65 1485.58 L1735.7 1485.58 L1735.7 1481.64 Q1738.36 1478.89 1742.95 1474.26 Q1747.55 1469.61 1748.73 1468.27 Q1750.98 1465.74 1751.86 1464.01 Q1752.76 1462.25 1752.76 1460.56 Q1752.76 1457.8 1750.82 1456.07 Q1748.9 1454.33 1745.79 1454.33 Q1743.59 1454.33 1741.14 1455.09 Q1738.71 1455.86 1735.93 1457.41 L1735.93 1452.69 Q1738.76 1451.55 1741.21 1450.97 Q1743.66 1450.39 1745.7 1450.39 Q1751.07 1450.39 1754.27 1453.08 Q1757.46 1455.77 1757.46 1460.26 Q1757.46 1462.39 1756.65 1464.31 Q1755.86 1466.2 1753.76 1468.8 Q1753.18 1469.47 1750.08 1472.69 Q1746.97 1475.88 1741.33 1481.64 Z" fill="#000000" fill-rule="nonzero" fill-opacity="1" /><path clip-path="url(#clip050)" d="M1767.46 1479.7 L1772.34 1479.7 L1772.34 1485.58 L1767.46 1485.58 L1767.46 1479.7 Z" fill="#000000" fill-rule="nonzero" fill-opacity="1" /><path clip-path="url(#clip050)" d="M1782.58 1451.02 L1800.93 1451.02 L1800.93 1454.96 L1786.86 1454.96 L1786.86 1463.43 Q1787.88 1463.08 1788.9 1462.92 Q1789.91 1462.73 1790.93 1462.73 Q1796.72 1462.73 1800.1 1465.9 Q1803.48 1469.08 1803.48 1474.49 Q1803.48 1480.07 1800.01 1483.17 Q1796.53 1486.25 1790.22 1486.25 Q1788.04 1486.25 1785.77 1485.88 Q1783.53 1485.51 1781.12 1484.77 L1781.12 1480.07 Q1783.2 1481.2 1785.42 1481.76 Q1787.65 1482.32 1790.12 1482.32 Q1794.13 1482.32 1796.47 1480.21 Q1798.8 1478.1 1798.8 1474.49 Q1798.8 1470.88 1796.47 1468.77 Q1794.13 1466.67 1790.12 1466.67 Q1788.25 1466.67 1786.37 1467.08 Q1784.52 1467.5 1782.58 1468.38 L1782.58 1451.02 Z" fill="#000000" fill-rule="nonzero" fill-opacity="1" /><path clip-path="url(#clip050)" d="M2236.09 1466.95 Q2239.45 1467.66 2241.32 1469.93 Q2243.22 1472.2 2243.22 1475.53 Q2243.22 1480.65 2239.7 1483.45 Q2236.19 1486.25 2229.7 1486.25 Q2227.53 1486.25 2225.21 1485.81 Q2222.92 1485.39 2220.47 1484.54 L2220.47 1480.02 Q2222.41 1481.16 2224.73 1481.74 Q2227.04 1482.32 2229.56 1482.32 Q2233.96 1482.32 2236.25 1480.58 Q2238.57 1478.84 2238.57 1475.53 Q2238.57 1472.48 2236.42 1470.77 Q2234.29 1469.03 2230.47 1469.03 L2226.44 1469.03 L2226.44 1465.19 L2230.65 1465.19 Q2234.1 1465.19 2235.93 1463.82 Q2237.76 1462.43 2237.76 1459.84 Q2237.76 1457.18 2235.86 1455.77 Q2233.99 1454.33 2230.47 1454.33 Q2228.55 1454.33 2226.35 1454.75 Q2224.15 1455.16 2221.51 1456.04 L2221.51 1451.88 Q2224.17 1451.14 2226.49 1450.77 Q2228.82 1450.39 2230.88 1450.39 Q2236.21 1450.39 2239.31 1452.83 Q2242.41 1455.23 2242.41 1459.35 Q2242.41 1462.22 2240.77 1464.21 Q2239.12 1466.18 2236.09 1466.95 Z" fill="#000000" fill-rule="nonzero" fill-opacity="1" /><path clip-path="url(#clip050)" d="M2252.09 1479.7 L2256.97 1479.7 L2256.97 1485.58 L2252.09 1485.58 L2252.09 1479.7 Z" fill="#000000" fill-rule="nonzero" fill-opacity="1" /><path clip-path="url(#clip050)" d="M2277.16 1454.1 Q2273.55 1454.1 2271.72 1457.66 Q2269.91 1461.2 2269.91 1468.33 Q2269.91 1475.44 2271.72 1479.01 Q2273.55 1482.55 2277.16 1482.55 Q2280.79 1482.55 2282.6 1479.01 Q2284.43 1475.44 2284.43 1468.33 Q2284.43 1461.2 2282.6 1457.66 Q2280.79 1454.1 2277.16 1454.1 M2277.16 1450.39 Q2282.97 1450.39 2286.02 1455 Q2289.1 1459.58 2289.1 1468.33 Q2289.1 1477.06 2286.02 1481.67 Q2282.97 1486.25 2277.16 1486.25 Q2271.35 1486.25 2268.27 1481.67 Q2265.21 1477.06 2265.21 1468.33 Q2265.21 1459.58 2268.27 1455 Q2271.35 1450.39 2277.16 1450.39 Z" fill="#000000" fill-rule="nonzero" fill-opacity="1" /><path clip-path="url(#clip050)" d="M1032.07 1554.39 L1032.07 1552.36 Q1035.58 1552.36 1036.39 1551.94 Q1037.19 1551.49 1037.19 1549.37 L1037.19 1515.07 Q1037.19 1512.62 1036.32 1512.01 Q1035.49 1511.4 1032.07 1511.4 L1032.07 1509.33 L1041.54 1508.63 L1041.54 1549.37 Q1041.54 1551.49 1042.38 1551.94 Q1043.22 1552.36 1046.69 1552.36 L1046.69 1554.39 Q1045.89 1554.39 1044.21 1554.33 Q1042.54 1554.26 1041.32 1554.23 Q1040.09 1554.2 1039.38 1554.2 Q1038.61 1554.2 1032.07 1554.39 Z" fill="#000000" fill-rule="nonzero" fill-opacity="1" /><path clip-path="url(#clip050)" d="M1056.62 1550.85 Q1052.27 1546.53 1052.27 1540.28 Q1052.27 1534 1056.52 1529.43 Q1060.81 1524.83 1066.93 1524.83 Q1072.92 1524.83 1077.2 1529.4 Q1081.51 1533.94 1081.51 1540.28 Q1081.51 1546.5 1077.17 1550.82 Q1072.85 1555.13 1066.86 1555.13 Q1061 1555.13 1056.62 1550.85 M1057.75 1539.74 Q1057.75 1546.15 1059.42 1549.04 Q1062 1553.46 1066.93 1553.46 Q1069.37 1553.46 1071.4 1552.14 Q1073.46 1550.82 1074.59 1548.59 Q1076.04 1545.69 1076.04 1539.74 Q1076.04 1533.39 1074.3 1530.59 Q1071.72 1526.31 1066.86 1526.31 Q1064.74 1526.31 1062.64 1527.43 Q1060.58 1528.53 1059.32 1530.72 Q1057.75 1533.62 1057.75 1539.74 Z" fill="#000000" fill-rule="nonzero" fill-opacity="1" /><path clip-path="url(#clip050)" d="M1082.56 1559.61 Q1082.56 1557.48 1084.17 1555.65 Q1085.81 1553.81 1088.65 1553.01 Q1085.75 1551.17 1085.75 1547.14 Q1085.75 1544.05 1087.78 1541.67 Q1084.69 1539.09 1084.69 1534.87 Q1084.69 1530.98 1087.78 1528.11 Q1090.87 1525.24 1095.38 1525.24 Q1099.34 1525.24 1102.37 1527.63 Q1105.52 1524.54 1109.35 1524.5 Q1111.06 1524.5 1111.87 1525.57 Q1112.7 1526.63 1112.7 1527.76 Q1112.7 1528.75 1112.06 1529.24 Q1111.45 1529.72 1110.8 1529.72 Q1110 1529.72 1109.42 1529.21 Q1108.87 1528.66 1108.87 1527.82 Q1108.87 1526.44 1109.93 1526.02 Q1109.74 1525.95 1109.29 1525.95 Q1106.07 1525.95 1103.33 1528.53 Q1106.04 1531.04 1106.04 1534.94 Q1106.04 1538.84 1102.95 1541.7 Q1099.85 1544.57 1095.38 1544.57 Q1091.67 1544.57 1088.84 1542.51 Q1087.71 1543.83 1087.71 1545.63 Q1087.71 1547.27 1088.71 1548.56 Q1089.71 1549.85 1091.22 1550.04 Q1091.67 1550.11 1096.15 1550.11 Q1098.79 1550.11 1100.24 1550.17 Q1101.69 1550.24 1103.75 1550.69 Q1105.84 1551.11 1107.49 1551.94 Q1111.77 1554.33 1111.8 1559.48 Q1111.8 1563.25 1107.45 1565.6 Q1103.14 1567.98 1097.15 1567.98 Q1091.09 1567.98 1086.81 1565.57 Q1082.56 1563.18 1082.56 1559.61 M1086.01 1559.61 Q1086.01 1562.31 1089.19 1564.37 Q1092.38 1566.47 1097.21 1566.47 Q1101.95 1566.47 1105.14 1564.41 Q1108.36 1562.38 1108.36 1559.61 Q1108.36 1557.64 1107.23 1556.39 Q1106.1 1555.13 1103.78 1554.62 Q1101.5 1554.13 1099.89 1554.04 Q1098.28 1553.94 1095.31 1553.94 L1091.42 1553.94 Q1089.16 1554.07 1087.58 1555.71 Q1086.01 1557.35 1086.01 1559.61 M1089.61 1534.94 Q1089.61 1543.05 1095.38 1543.05 Q1098.28 1543.05 1100.05 1540.41 Q1101.11 1538.64 1101.11 1534.87 Q1101.11 1526.76 1095.38 1526.76 Q1092.48 1526.76 1090.68 1529.4 Q1089.61 1531.17 1089.61 1534.94 Z" fill="#000000" fill-rule="nonzero" fill-opacity="1" /><path clip-path="url(#clip050)" d="M1119.44 1546.31 L1119.44 1544.87 Q1124.99 1544.87 1127.85 1541.92 Q1128.64 1541.92 1128.78 1542.1 Q1128.91 1542.28 1128.91 1543.11 L1128.91 1569.01 Q1128.91 1570.39 1129.59 1570.82 Q1130.26 1571.25 1133.22 1571.25 L1134.68 1571.25 L1134.68 1572.67 Q1133.06 1572.53 1127.2 1572.53 Q1121.34 1572.53 1119.74 1572.67 L1119.74 1571.25 L1121.2 1571.25 Q1124.11 1571.25 1124.81 1570.84 Q1125.51 1570.41 1125.51 1569.01 L1125.51 1545.1 Q1123.1 1546.31 1119.44 1546.31 Z" fill="#000000" fill-rule="nonzero" fill-opacity="1" /><path clip-path="url(#clip050)" d="M1136.97 1557.9 Q1136.97 1551.11 1138.68 1547.42 Q1141.07 1541.92 1146.71 1541.92 Q1147.9 1541.92 1149.14 1542.26 Q1150.41 1542.57 1151.98 1543.81 Q1153.59 1545.05 1154.55 1547.08 Q1156.4 1551 1156.4 1557.9 Q1156.4 1564.64 1154.69 1568.32 Q1152.19 1573.68 1146.66 1573.68 Q1144.59 1573.68 1142.47 1572.62 Q1140.37 1571.56 1139.04 1569.01 Q1136.97 1565.2 1136.97 1557.9 M1140.8 1557.34 Q1140.8 1564.3 1141.3 1567.08 Q1141.86 1570.07 1143.4 1571.38 Q1144.95 1572.67 1146.66 1572.67 Q1148.51 1572.67 1150.05 1571.29 Q1151.6 1569.89 1152.07 1566.9 Q1152.59 1563.94 1152.57 1557.34 Q1152.57 1550.91 1152.12 1548.34 Q1151.51 1545.34 1149.89 1544.15 Q1148.29 1542.93 1146.66 1542.93 Q1146.06 1542.93 1145.4 1543.11 Q1144.77 1543.29 1143.85 1543.81 Q1142.92 1544.33 1142.2 1545.61 Q1141.5 1546.9 1141.16 1548.84 Q1140.8 1551.34 1140.8 1557.34 Z" fill="#000000" fill-rule="nonzero" fill-opacity="1" /><path clip-path="url(#clip050)" d="M1166.87 1537.9 Q1166.87 1526.76 1171.03 1517.77 Q1172.8 1514 1175.28 1510.85 Q1177.76 1507.69 1179.4 1506.31 Q1181.05 1504.92 1181.5 1504.92 Q1182.14 1504.92 1182.17 1505.57 Q1182.17 1505.89 1181.3 1506.69 Q1170.68 1517.51 1170.71 1537.9 Q1170.71 1558.35 1181.05 1568.75 Q1182.17 1569.88 1182.17 1570.24 Q1182.17 1570.88 1181.5 1570.88 Q1181.05 1570.88 1179.47 1569.56 Q1177.89 1568.24 1175.44 1565.21 Q1172.99 1562.18 1171.22 1558.48 Q1166.87 1549.5 1166.87 1537.9 Z" fill="#000000" fill-rule="nonzero" fill-opacity="1" /><path clip-path="url(#clip050)" d="M1192.2 1553.52 L1192.2 1544.83 Q1192.2 1544.08 1192.23 1543.83 Q1192.27 1543.57 1192.46 1543.38 Q1192.65 1543.18 1193.04 1543.18 Q1193.49 1543.18 1193.65 1543.38 Q1193.84 1543.57 1193.97 1544.31 Q1194.97 1548.85 1197.1 1551.27 Q1199.26 1553.65 1203.15 1553.65 Q1206.86 1553.65 1208.72 1552.01 Q1210.59 1550.36 1210.59 1547.66 Q1210.59 1542.83 1203.73 1541.6 Q1199.77 1540.8 1198.13 1540.28 Q1196.49 1539.74 1195.04 1538.55 Q1192.2 1536.23 1192.2 1532.94 Q1192.2 1529.66 1194.68 1527.24 Q1197.19 1524.83 1202.73 1524.83 Q1206.44 1524.83 1208.95 1526.69 Q1209.69 1526.11 1210.08 1525.63 Q1210.95 1524.83 1211.4 1524.83 Q1211.91 1524.83 1212.01 1525.18 Q1212.11 1525.5 1212.11 1526.44 L1212.11 1533.07 Q1212.11 1533.81 1212.07 1534.07 Q1212.04 1534.33 1211.85 1534.52 Q1211.65 1534.68 1211.24 1534.68 Q1210.5 1534.68 1210.46 1534.07 Q1209.95 1526.08 1202.73 1526.08 Q1198.84 1526.08 1197.1 1527.6 Q1195.36 1529.08 1195.36 1531.11 Q1195.36 1532.23 1195.87 1533.1 Q1196.42 1533.94 1197.1 1534.46 Q1197.81 1534.94 1199.09 1535.42 Q1200.38 1535.87 1201.16 1536.03 Q1201.96 1536.19 1203.47 1536.52 Q1208.76 1537.51 1210.98 1539.67 Q1213.75 1542.44 1213.75 1545.95 Q1213.75 1549.85 1211.11 1552.49 Q1208.47 1555.13 1203.15 1555.13 Q1198.87 1555.13 1195.87 1552.26 Q1195.49 1552.65 1195.2 1553.01 Q1194.91 1553.33 1194.78 1553.46 Q1194.68 1553.59 1194.65 1553.68 Q1194.62 1553.75 1194.55 1553.81 Q1193.23 1555.13 1192.91 1555.13 Q1192.4 1555.13 1192.3 1554.78 Q1192.2 1554.45 1192.2 1553.52 Z" fill="#000000" fill-rule="nonzero" fill-opacity="1" /><path clip-path="url(#clip050)" d="M1217.38 1548.11 Q1217.38 1542.51 1223.99 1539.54 Q1227.95 1537.64 1236.13 1537.16 L1236.13 1534.74 Q1236.13 1530.65 1233.97 1528.5 Q1231.84 1526.31 1229.14 1526.31 Q1224.31 1526.31 1221.99 1529.33 Q1223.95 1529.4 1224.66 1530.4 Q1225.37 1531.36 1225.37 1532.36 Q1225.37 1533.68 1224.53 1534.55 Q1223.73 1535.39 1222.34 1535.39 Q1221.02 1535.39 1220.15 1534.58 Q1219.28 1533.75 1219.28 1532.3 Q1219.28 1529.08 1222.18 1526.95 Q1225.11 1524.83 1229.27 1524.83 Q1234.68 1524.83 1238.29 1528.46 Q1239.41 1529.59 1239.96 1531.04 Q1240.54 1532.49 1240.6 1533.46 Q1240.67 1534.39 1240.67 1536.26 L1240.67 1549.43 Q1240.67 1549.82 1240.8 1550.46 Q1240.93 1551.11 1241.51 1551.94 Q1242.12 1552.75 1243.12 1552.75 Q1245.5 1552.75 1245.47 1548.53 L1245.47 1544.83 L1247.14 1544.83 L1247.14 1548.53 Q1247.14 1552.04 1245.27 1553.42 Q1243.44 1554.78 1241.73 1554.78 Q1239.54 1554.78 1238.16 1553.17 Q1236.77 1551.56 1236.58 1549.37 Q1235.58 1551.88 1233.29 1553.52 Q1231.04 1555.13 1227.95 1555.13 Q1225.56 1555.13 1223.31 1554.52 Q1221.09 1553.94 1219.22 1552.3 Q1217.38 1550.62 1217.38 1548.11 M1222.47 1548.05 Q1222.47 1550.49 1224.21 1552.07 Q1225.95 1553.65 1228.4 1553.65 Q1231.17 1553.65 1233.65 1551.52 Q1236.13 1549.37 1236.13 1545.15 L1236.13 1538.55 Q1228.82 1538.8 1225.63 1541.73 Q1222.47 1544.63 1222.47 1548.05 Z" fill="#000000" fill-rule="nonzero" fill-opacity="1" /><path clip-path="url(#clip050)" d="M1248.46 1554.39 L1248.46 1552.36 Q1251.97 1552.36 1252.78 1551.94 Q1253.59 1551.49 1253.59 1549.37 L1253.59 1531.69 Q1253.59 1529.24 1252.72 1528.63 Q1251.88 1528.01 1248.46 1528.01 L1248.46 1525.95 L1257.74 1525.24 L1257.74 1532.17 Q1260.83 1525.24 1267.5 1525.24 Q1275.23 1525.24 1276.29 1531.69 Q1277.42 1529.17 1279.77 1527.21 Q1282.15 1525.24 1285.86 1525.24 Q1290.82 1525.24 1292.78 1527.69 Q1294.23 1529.33 1294.52 1531.17 Q1294.81 1533.01 1294.81 1537.77 L1294.81 1550.36 Q1294.87 1551.75 1295.94 1552.07 Q1297 1552.36 1299.96 1552.36 L1299.96 1554.39 Q1293.23 1554.2 1292.59 1554.2 Q1292.07 1554.2 1285.11 1554.39 L1285.11 1552.36 Q1288.63 1552.36 1289.43 1551.94 Q1290.27 1551.49 1290.27 1549.37 L1290.27 1534 Q1290.27 1530.65 1289.24 1528.69 Q1288.21 1526.69 1285.37 1526.69 Q1281.96 1526.69 1279.22 1529.56 Q1276.48 1532.43 1276.48 1537.26 L1276.48 1549.37 Q1276.48 1551.49 1277.29 1551.94 Q1278.13 1552.36 1281.64 1552.36 L1281.64 1554.39 Q1274.91 1554.2 1274.23 1554.2 Q1273.71 1554.2 1266.79 1554.39 L1266.79 1552.36 Q1270.3 1552.36 1271.11 1551.94 Q1271.94 1551.49 1271.94 1549.37 L1271.94 1534 Q1271.94 1530.65 1270.91 1528.69 Q1269.88 1526.69 1267.05 1526.69 Q1263.63 1526.69 1260.9 1529.56 Q1258.16 1532.43 1258.16 1537.26 L1258.16 1549.37 Q1258.16 1551.49 1258.96 1551.94 Q1259.8 1552.36 1263.28 1552.36 L1263.28 1554.39 Q1256.55 1554.2 1255.9 1554.2 Q1255.39 1554.2 1248.46 1554.39 Z" fill="#000000" fill-rule="nonzero" fill-opacity="1" /><path clip-path="url(#clip050)" d="M1299.88 1565.15 Q1303.39 1565.15 1304.19 1564.7 Q1305.03 1564.28 1305.03 1562.18 L1305.03 1531.3 Q1305.03 1529.11 1304.19 1528.56 Q1303.39 1528.01 1299.88 1528.01 L1299.88 1525.95 L1309.38 1525.24 L1309.38 1529.59 Q1313.34 1525.24 1318.62 1525.24 Q1324.23 1525.24 1328.32 1529.59 Q1332.41 1533.94 1332.41 1540.16 Q1332.41 1546.44 1328.06 1550.78 Q1323.71 1555.13 1317.69 1555.13 Q1314.4 1555.13 1312.18 1553.46 Q1309.99 1551.75 1309.57 1550.49 L1309.57 1551.11 L1309.57 1562.18 Q1309.57 1564.31 1310.41 1564.73 Q1311.25 1565.15 1314.72 1565.15 L1314.72 1567.18 Q1307.8 1566.98 1307.28 1566.98 Q1306.64 1566.98 1299.88 1567.18 L1299.88 1565.15 M1309.57 1546.89 Q1309.57 1547.88 1309.7 1548.24 Q1309.86 1548.59 1310.51 1549.66 Q1313.11 1553.65 1317.37 1553.65 Q1317.4 1553.65 1317.43 1553.65 Q1321.2 1553.65 1324.06 1549.82 Q1326.93 1545.95 1326.93 1540.16 Q1326.93 1534.62 1324.32 1530.75 Q1321.71 1526.89 1318.11 1526.89 Q1315.53 1526.89 1313.28 1528.27 Q1311.02 1529.66 1309.57 1532.17 L1309.57 1546.89 Z" fill="#000000" fill-rule="nonzero" fill-opacity="1" /><path clip-path="url(#clip050)" d="M1341.39 1554.39 L1341.39 1552.36 Q1344.9 1552.36 1345.71 1551.94 Q1346.51 1551.49 1346.51 1549.37 L1346.51 1515.07 Q1346.51 1512.62 1345.65 1512.01 Q1344.81 1511.4 1341.39 1511.4 L1341.39 1509.33 L1350.86 1508.63 L1350.86 1549.37 Q1350.86 1551.49 1351.7 1551.94 Q1352.54 1552.36 1356.02 1552.36 L1356.02 1554.39 Q1355.21 1554.39 1353.54 1554.33 Q1351.86 1554.26 1350.64 1554.23 Q1349.41 1554.2 1348.7 1554.2 Q1347.93 1554.2 1341.39 1554.39 Z" fill="#000000" fill-rule="nonzero" fill-opacity="1" /><path clip-path="url(#clip050)" d="M1360.27 1539.87 Q1360.27 1533.65 1364.27 1529.24 Q1368.26 1524.83 1373.99 1524.83 Q1379.79 1524.83 1382.78 1528.59 Q1385.81 1532.36 1385.81 1537.77 Q1385.81 1538.77 1385.55 1538.96 Q1385.3 1539.16 1384.17 1539.16 L1365.75 1539.16 Q1365.75 1545.89 1367.74 1549.04 Q1370.51 1553.46 1375.18 1553.46 Q1375.83 1553.46 1376.6 1553.33 Q1377.37 1553.2 1378.95 1552.65 Q1380.53 1552.07 1381.91 1550.56 Q1383.3 1549.04 1384.1 1546.66 Q1384.3 1545.73 1384.94 1545.76 Q1385.81 1545.76 1385.81 1546.53 Q1385.81 1547.11 1385.17 1548.43 Q1384.56 1549.72 1383.36 1551.27 Q1382.17 1552.81 1379.85 1553.97 Q1377.57 1555.13 1374.8 1555.13 Q1369 1555.13 1364.62 1550.75 Q1360.27 1546.34 1360.27 1539.87 M1365.81 1537.77 L1381.46 1537.77 Q1381.46 1536.39 1381.21 1534.84 Q1380.98 1533.3 1380.27 1531.17 Q1379.6 1529.01 1377.99 1527.66 Q1376.38 1526.31 1373.99 1526.31 Q1372.93 1526.31 1371.77 1526.76 Q1370.64 1527.21 1369.26 1528.3 Q1367.87 1529.4 1366.91 1531.88 Q1365.94 1534.36 1365.81 1537.77 Z" fill="#000000" fill-rule="nonzero" fill-opacity="1" /><path clip-path="url(#clip050)" d="M1406.7 1553.52 L1406.7 1544.83 Q1406.7 1544.08 1406.73 1543.83 Q1406.76 1543.57 1406.96 1543.38 Q1407.15 1543.18 1407.54 1543.18 Q1407.99 1543.18 1408.15 1543.38 Q1408.34 1543.57 1408.47 1544.31 Q1409.47 1548.85 1411.59 1551.27 Q1413.75 1553.65 1417.65 1553.65 Q1421.35 1553.65 1423.22 1552.01 Q1425.09 1550.36 1425.09 1547.66 Q1425.09 1542.83 1418.23 1541.6 Q1414.27 1540.8 1412.63 1540.28 Q1410.98 1539.74 1409.53 1538.55 Q1406.7 1536.23 1406.7 1532.94 Q1406.7 1529.66 1409.18 1527.24 Q1411.69 1524.83 1417.23 1524.83 Q1420.93 1524.83 1423.45 1526.69 Q1424.19 1526.11 1424.57 1525.63 Q1425.44 1524.83 1425.89 1524.83 Q1426.41 1524.83 1426.51 1525.18 Q1426.6 1525.5 1426.6 1526.44 L1426.6 1533.07 Q1426.6 1533.81 1426.57 1534.07 Q1426.54 1534.33 1426.34 1534.52 Q1426.15 1534.68 1425.73 1534.68 Q1424.99 1534.68 1424.96 1534.07 Q1424.44 1526.08 1417.23 1526.08 Q1413.33 1526.08 1411.59 1527.6 Q1409.86 1529.08 1409.86 1531.11 Q1409.86 1532.23 1410.37 1533.1 Q1410.92 1533.94 1411.59 1534.46 Q1412.3 1534.94 1413.59 1535.42 Q1414.88 1535.87 1415.65 1536.03 Q1416.46 1536.19 1417.97 1536.52 Q1423.25 1537.51 1425.48 1539.67 Q1428.24 1542.44 1428.24 1545.95 Q1428.24 1549.85 1425.6 1552.49 Q1422.96 1555.13 1417.65 1555.13 Q1413.37 1555.13 1410.37 1552.26 Q1409.98 1552.65 1409.69 1553.01 Q1409.4 1553.33 1409.28 1553.46 Q1409.18 1553.59 1409.15 1553.68 Q1409.11 1553.75 1409.05 1553.81 Q1407.73 1555.13 1407.41 1555.13 Q1406.89 1555.13 1406.8 1554.78 Q1406.7 1554.45 1406.7 1553.52 Z" fill="#000000" fill-rule="nonzero" fill-opacity="1" /><path clip-path="url(#clip050)" d="M1430.83 1554.39 L1430.83 1552.36 Q1434.34 1552.36 1435.14 1551.94 Q1435.95 1551.49 1435.95 1549.37 L1435.95 1531.62 Q1435.95 1529.17 1435.11 1528.59 Q1434.3 1528.01 1431.08 1528.01 L1431.08 1525.95 L1440.29 1525.24 L1440.29 1549.43 Q1440.29 1551.4 1441 1551.88 Q1441.71 1552.36 1444.93 1552.36 L1444.93 1554.39 Q1438.2 1554.2 1438.07 1554.2 Q1437.17 1554.2 1430.83 1554.39 M1433.6 1513.75 Q1433.6 1512.43 1434.59 1511.36 Q1435.62 1510.27 1437.07 1510.27 Q1438.52 1510.27 1439.55 1511.27 Q1440.58 1512.23 1440.58 1513.78 Q1440.58 1515.29 1439.55 1516.29 Q1438.52 1517.26 1437.07 1517.26 Q1435.56 1517.26 1434.56 1516.19 Q1433.6 1515.13 1433.6 1513.75 Z" fill="#000000" fill-rule="nonzero" fill-opacity="1" /><path clip-path="url(#clip050)" d="M1450.76 1553.46 Q1450.76 1553.01 1451.37 1552.26 L1469.76 1527.4 L1462.26 1527.4 Q1457.04 1527.4 1455.33 1529.33 Q1453.66 1531.23 1453.34 1536.58 L1451.69 1536.58 L1452.43 1525.95 L1473.53 1525.95 Q1474.27 1525.95 1474.56 1525.98 Q1474.85 1526.02 1475.04 1526.24 Q1475.24 1526.44 1475.24 1526.82 Q1475.24 1527.21 1474.66 1527.95 L1456.3 1552.75 L1464.09 1552.75 Q1469.57 1552.75 1471.4 1550.46 Q1473.27 1548.17 1473.72 1542.06 L1475.37 1542.06 L1474.24 1554.39 L1452.5 1554.39 Q1451.44 1554.39 1451.08 1554.26 Q1450.76 1554.1 1450.76 1553.46 Z" fill="#000000" fill-rule="nonzero" fill-opacity="1" /><path clip-path="url(#clip050)" d="M1482.4 1539.87 Q1482.4 1533.65 1486.39 1529.24 Q1490.38 1524.83 1496.12 1524.83 Q1501.91 1524.83 1504.91 1528.59 Q1507.93 1532.36 1507.93 1537.77 Q1507.93 1538.77 1507.68 1538.96 Q1507.42 1539.16 1506.29 1539.16 L1487.87 1539.16 Q1487.87 1545.89 1489.87 1549.04 Q1492.64 1553.46 1497.31 1553.46 Q1497.95 1553.46 1498.72 1553.33 Q1499.5 1553.2 1501.07 1552.65 Q1502.65 1552.07 1504.04 1550.56 Q1505.42 1549.04 1506.23 1546.66 Q1506.42 1545.73 1507.07 1545.76 Q1507.93 1545.76 1507.93 1546.53 Q1507.93 1547.11 1507.29 1548.43 Q1506.68 1549.72 1505.49 1551.27 Q1504.3 1552.81 1501.98 1553.97 Q1499.69 1555.13 1496.92 1555.13 Q1491.12 1555.13 1486.74 1550.75 Q1482.4 1546.34 1482.4 1539.87 M1487.93 1537.77 L1503.59 1537.77 Q1503.59 1536.39 1503.33 1534.84 Q1503.1 1533.3 1502.4 1531.17 Q1501.72 1529.01 1500.11 1527.66 Q1498.5 1526.31 1496.12 1526.31 Q1495.05 1526.31 1493.89 1526.76 Q1492.77 1527.21 1491.38 1528.3 Q1490 1529.4 1489.03 1531.88 Q1488.06 1534.36 1487.93 1537.77 Z" fill="#000000" fill-rule="nonzero" fill-opacity="1" /><path clip-path="url(#clip050)" d="M1511.39 1570.24 Q1511.39 1569.91 1512.23 1569.11 Q1522.86 1558.29 1522.86 1537.9 Q1522.86 1517.45 1512.65 1507.11 Q1511.39 1505.92 1511.39 1505.57 Q1511.39 1504.92 1512.04 1504.92 Q1512.49 1504.92 1514.06 1506.24 Q1515.67 1507.56 1518.09 1510.59 Q1520.54 1513.62 1522.34 1517.32 Q1526.69 1526.31 1526.69 1537.9 Q1526.69 1549.04 1522.53 1558.03 Q1520.76 1561.8 1518.28 1564.95 Q1515.8 1568.11 1514.16 1569.49 Q1512.52 1570.88 1512.04 1570.88 Q1511.39 1570.88 1511.39 1570.24 Z" fill="#000000" fill-rule="nonzero" fill-opacity="1" /><polyline clip-path="url(#clip050)" style="stroke:#000000; stroke-linecap:round; stroke-linejoin:round; stroke-width:4; stroke-opacity:1; fill:none" points="255.784,1423.18 255.784,78.9921 "/>
<polyline clip-path="url(#clip050)" style="stroke:#000000; stroke-linecap:round; stroke-linejoin:round; stroke-width:4; stroke-opacity:1; fill:none" points="255.784,1178.42 274.682,1178.42 "/>
<polyline clip-path="url(#clip050)" style="stroke:#000000; stroke-linecap:round; stroke-linejoin:round; stroke-width:4; stroke-opacity:1; fill:none" points="255.784,911.347 274.682,911.347 "/>
<polyline clip-path="url(#clip050)" style="stroke:#000000; stroke-linecap:round; stroke-linejoin:round; stroke-width:4; stroke-opacity:1; fill:none" points="255.784,644.275 274.682,644.275 "/>
<polyline clip-path="url(#clip050)" style="stroke:#000000; stroke-linecap:round; stroke-linejoin:round; stroke-width:4; stroke-opacity:1; fill:none" points="255.784,377.202 274.682,377.202 "/>
<polyline clip-path="url(#clip050)" style="stroke:#000000; stroke-linecap:round; stroke-linejoin:round; stroke-width:4; stroke-opacity:1; fill:none" points="255.784,110.13 274.682,110.13 "/>
<path clip-path="url(#clip050)" d="M133.442 1164.22 Q129.831 1164.22 128.002 1167.78 Q126.196 1171.32 126.196 1178.45 Q126.196 1185.56 128.002 1189.13 Q129.831 1192.67 133.442 1192.67 Q137.076 1192.67 138.882 1189.13 Q140.71 1185.56 140.71 1178.45 Q140.71 1171.32 138.882 1167.78 Q137.076 1164.22 133.442 1164.22 M133.442 1160.51 Q139.252 1160.51 142.307 1165.12 Q145.386 1169.7 145.386 1178.45 Q145.386 1187.18 142.307 1191.79 Q139.252 1196.37 133.442 1196.37 Q127.632 1196.37 124.553 1191.79 Q121.497 1187.18 121.497 1178.45 Q121.497 1169.7 124.553 1165.12 Q127.632 1160.51 133.442 1160.51 Z" fill="#000000" fill-rule="nonzero" fill-opacity="1" /><path clip-path="url(#clip050)" d="M153.604 1189.82 L158.488 1189.82 L158.488 1195.7 L153.604 1195.7 L153.604 1189.82 Z" fill="#000000" fill-rule="nonzero" fill-opacity="1" /><path clip-path="url(#clip050)" d="M172.701 1191.76 L189.02 1191.76 L189.02 1195.7 L167.076 1195.7 L167.076 1191.76 Q169.738 1189.01 174.321 1184.38 Q178.928 1179.73 180.108 1178.39 Q182.354 1175.86 183.233 1174.13 Q184.136 1172.37 184.136 1170.68 Q184.136 1167.92 182.192 1166.19 Q180.27 1164.45 177.168 1164.45 Q174.969 1164.45 172.516 1165.21 Q170.085 1165.98 167.307 1167.53 L167.307 1162.81 Q170.131 1161.67 172.585 1161.09 Q175.039 1160.51 177.076 1160.51 Q182.446 1160.51 185.641 1163.2 Q188.835 1165.89 188.835 1170.38 Q188.835 1172.51 188.025 1174.43 Q187.238 1176.32 185.131 1178.92 Q184.553 1179.59 181.451 1182.81 Q178.349 1186 172.701 1191.76 Z" fill="#000000" fill-rule="nonzero" fill-opacity="1" /><path clip-path="url(#clip050)" d="M198.881 1161.14 L217.238 1161.14 L217.238 1165.07 L203.164 1165.07 L203.164 1173.55 Q204.182 1173.2 205.201 1173.04 Q206.219 1172.85 207.238 1172.85 Q213.025 1172.85 216.404 1176.02 Q219.784 1179.2 219.784 1184.61 Q219.784 1190.19 216.312 1193.29 Q212.84 1196.37 206.52 1196.37 Q204.344 1196.37 202.076 1196 Q199.83 1195.63 197.423 1194.89 L197.423 1190.19 Q199.506 1191.32 201.728 1191.88 Q203.951 1192.44 206.427 1192.44 Q210.432 1192.44 212.77 1190.33 Q215.108 1188.22 215.108 1184.61 Q215.108 1181 212.77 1178.89 Q210.432 1176.79 206.427 1176.79 Q204.553 1176.79 202.678 1177.2 Q200.826 1177.62 198.881 1178.5 L198.881 1161.14 Z" fill="#000000" fill-rule="nonzero" fill-opacity="1" /><path clip-path="url(#clip050)" d="M132.446 897.146 Q128.835 897.146 127.007 900.711 Q125.201 904.252 125.201 911.382 Q125.201 918.488 127.007 922.053 Q128.835 925.595 132.446 925.595 Q136.081 925.595 137.886 922.053 Q139.715 918.488 139.715 911.382 Q139.715 904.252 137.886 900.711 Q136.081 897.146 132.446 897.146 M132.446 893.442 Q138.257 893.442 141.312 898.049 Q144.391 902.632 144.391 911.382 Q144.391 920.109 141.312 924.715 Q138.257 929.299 132.446 929.299 Q126.636 929.299 123.558 924.715 Q120.502 920.109 120.502 911.382 Q120.502 902.632 123.558 898.049 Q126.636 893.442 132.446 893.442 Z" fill="#000000" fill-rule="nonzero" fill-opacity="1" /><path clip-path="url(#clip050)" d="M152.608 922.748 L157.493 922.748 L157.493 928.627 L152.608 928.627 L152.608 922.748 Z" fill="#000000" fill-rule="nonzero" fill-opacity="1" /><path clip-path="url(#clip050)" d="M167.724 894.067 L186.08 894.067 L186.08 898.002 L172.006 898.002 L172.006 906.475 Q173.025 906.127 174.043 905.965 Q175.062 905.78 176.08 905.78 Q181.867 905.78 185.247 908.951 Q188.627 912.123 188.627 917.539 Q188.627 923.118 185.154 926.22 Q181.682 929.299 175.363 929.299 Q173.187 929.299 170.918 928.928 Q168.673 928.558 166.266 927.817 L166.266 923.118 Q168.349 924.252 170.571 924.808 Q172.793 925.363 175.27 925.363 Q179.275 925.363 181.613 923.257 Q183.951 921.15 183.951 917.539 Q183.951 913.928 181.613 911.822 Q179.275 909.715 175.27 909.715 Q173.395 909.715 171.52 910.132 Q169.668 910.549 167.724 911.428 L167.724 894.067 Z" fill="#000000" fill-rule="nonzero" fill-opacity="1" /><path clip-path="url(#clip050)" d="M207.84 897.146 Q204.228 897.146 202.4 900.711 Q200.594 904.252 200.594 911.382 Q200.594 918.488 202.4 922.053 Q204.228 925.595 207.84 925.595 Q211.474 925.595 213.279 922.053 Q215.108 918.488 215.108 911.382 Q215.108 904.252 213.279 900.711 Q211.474 897.146 207.84 897.146 M207.84 893.442 Q213.65 893.442 216.705 898.049 Q219.784 902.632 219.784 911.382 Q219.784 920.109 216.705 924.715 Q213.65 929.299 207.84 929.299 Q202.029 929.299 198.951 924.715 Q195.895 920.109 195.895 911.382 Q195.895 902.632 198.951 898.049 Q202.029 893.442 207.84 893.442 Z" fill="#000000" fill-rule="nonzero" fill-opacity="1" /><path clip-path="url(#clip050)" d="M133.442 630.073 Q129.831 630.073 128.002 633.638 Q126.196 637.18 126.196 644.309 Q126.196 651.416 128.002 654.981 Q129.831 658.522 133.442 658.522 Q137.076 658.522 138.882 654.981 Q140.71 651.416 140.71 644.309 Q140.71 637.18 138.882 633.638 Q137.076 630.073 133.442 630.073 M133.442 626.37 Q139.252 626.37 142.307 630.976 Q145.386 635.56 145.386 644.309 Q145.386 653.036 142.307 657.643 Q139.252 662.226 133.442 662.226 Q127.632 662.226 124.553 657.643 Q121.497 653.036 121.497 644.309 Q121.497 635.56 124.553 630.976 Q127.632 626.37 133.442 626.37 Z" fill="#000000" fill-rule="nonzero" fill-opacity="1" /><path clip-path="url(#clip050)" d="M153.604 655.675 L158.488 655.675 L158.488 661.555 L153.604 661.555 L153.604 655.675 Z" fill="#000000" fill-rule="nonzero" fill-opacity="1" /><path clip-path="url(#clip050)" d="M167.493 626.995 L189.715 626.995 L189.715 628.985 L177.168 661.555 L172.284 661.555 L184.09 630.93 L167.493 630.93 L167.493 626.995 Z" fill="#000000" fill-rule="nonzero" fill-opacity="1" /><path clip-path="url(#clip050)" d="M198.881 626.995 L217.238 626.995 L217.238 630.93 L203.164 630.93 L203.164 639.402 Q204.182 639.055 205.201 638.893 Q206.219 638.708 207.238 638.708 Q213.025 638.708 216.404 641.879 Q219.784 645.05 219.784 650.467 Q219.784 656.046 216.312 659.147 Q212.84 662.226 206.52 662.226 Q204.344 662.226 202.076 661.856 Q199.83 661.485 197.423 660.745 L197.423 656.046 Q199.506 657.18 201.728 657.735 Q203.951 658.291 206.427 658.291 Q210.432 658.291 212.77 656.184 Q215.108 654.078 215.108 650.467 Q215.108 646.856 212.77 644.749 Q210.432 642.643 206.427 642.643 Q204.553 642.643 202.678 643.059 Q200.826 643.476 198.881 644.356 L198.881 626.995 Z" fill="#000000" fill-rule="nonzero" fill-opacity="1" /><path clip-path="url(#clip050)" d="M123.257 390.547 L130.895 390.547 L130.895 364.181 L122.585 365.848 L122.585 361.589 L130.849 359.922 L135.525 359.922 L135.525 390.547 L143.164 390.547 L143.164 394.482 L123.257 394.482 L123.257 390.547 Z" fill="#000000" fill-rule="nonzero" fill-opacity="1" /><path clip-path="url(#clip050)" d="M152.608 388.603 L157.493 388.603 L157.493 394.482 L152.608 394.482 L152.608 388.603 Z" fill="#000000" fill-rule="nonzero" fill-opacity="1" /><path clip-path="url(#clip050)" d="M177.678 363.001 Q174.067 363.001 172.238 366.566 Q170.432 370.107 170.432 377.237 Q170.432 384.343 172.238 387.908 Q174.067 391.45 177.678 391.45 Q181.312 391.45 183.117 387.908 Q184.946 384.343 184.946 377.237 Q184.946 370.107 183.117 366.566 Q181.312 363.001 177.678 363.001 M177.678 359.297 Q183.488 359.297 186.543 363.904 Q189.622 368.487 189.622 377.237 Q189.622 385.964 186.543 390.57 Q183.488 395.154 177.678 395.154 Q171.867 395.154 168.789 390.57 Q165.733 385.964 165.733 377.237 Q165.733 368.487 168.789 363.904 Q171.867 359.297 177.678 359.297 Z" fill="#000000" fill-rule="nonzero" fill-opacity="1" /><path clip-path="url(#clip050)" d="M207.84 363.001 Q204.228 363.001 202.4 366.566 Q200.594 370.107 200.594 377.237 Q200.594 384.343 202.4 387.908 Q204.228 391.45 207.84 391.45 Q211.474 391.45 213.279 387.908 Q215.108 384.343 215.108 377.237 Q215.108 370.107 213.279 366.566 Q211.474 363.001 207.84 363.001 M207.84 359.297 Q213.65 359.297 216.705 363.904 Q219.784 368.487 219.784 377.237 Q219.784 385.964 216.705 390.57 Q213.65 395.154 207.84 395.154 Q202.029 395.154 198.951 390.57 Q195.895 385.964 195.895 377.237 Q195.895 368.487 198.951 363.904 Q202.029 359.297 207.84 359.297 Z" fill="#000000" fill-rule="nonzero" fill-opacity="1" /><path clip-path="url(#clip050)" d="M124.252 123.475 L131.891 123.475 L131.891 97.1089 L123.581 98.7756 L123.581 94.5163 L131.845 92.8497 L136.52 92.8497 L136.52 123.475 L144.159 123.475 L144.159 127.41 L124.252 127.41 L124.252 123.475 Z" fill="#000000" fill-rule="nonzero" fill-opacity="1" /><path clip-path="url(#clip050)" d="M153.604 121.53 L158.488 121.53 L158.488 127.41 L153.604 127.41 L153.604 121.53 Z" fill="#000000" fill-rule="nonzero" fill-opacity="1" /><path clip-path="url(#clip050)" d="M172.701 123.475 L189.02 123.475 L189.02 127.41 L167.076 127.41 L167.076 123.475 Q169.738 120.72 174.321 116.09 Q178.928 111.438 180.108 110.095 Q182.354 107.572 183.233 105.836 Q184.136 104.076 184.136 102.387 Q184.136 99.6321 182.192 97.896 Q180.27 96.1599 177.168 96.1599 Q174.969 96.1599 172.516 96.9237 Q170.085 97.6876 167.307 99.2385 L167.307 94.5163 Q170.131 93.3821 172.585 92.8034 Q175.039 92.2247 177.076 92.2247 Q182.446 92.2247 185.641 94.9099 Q188.835 97.595 188.835 102.086 Q188.835 104.215 188.025 106.137 Q187.238 108.035 185.131 110.627 Q184.553 111.299 181.451 114.516 Q178.349 117.711 172.701 123.475 Z" fill="#000000" fill-rule="nonzero" fill-opacity="1" /><path clip-path="url(#clip050)" d="M198.881 92.8497 L217.238 92.8497 L217.238 96.7849 L203.164 96.7849 L203.164 105.257 Q204.182 104.91 205.201 104.748 Q206.219 104.563 207.238 104.563 Q213.025 104.563 216.404 107.734 Q219.784 110.905 219.784 116.322 Q219.784 121.9 216.312 125.002 Q212.84 128.081 206.52 128.081 Q204.344 128.081 202.076 127.711 Q199.83 127.34 197.423 126.6 L197.423 121.9 Q199.506 123.035 201.728 123.59 Q203.951 124.146 206.427 124.146 Q210.432 124.146 212.77 122.039 Q215.108 119.933 215.108 116.322 Q215.108 112.711 212.77 110.604 Q210.432 108.498 206.427 108.498 Q204.553 108.498 202.678 108.914 Q200.826 109.331 198.881 110.211 L198.881 92.8497 Z" fill="#000000" fill-rule="nonzero" fill-opacity="1" /><path clip-path="url(#clip050)" d="M76.2382 1011.45 L74.2092 1011.45 Q74.2092 1007.94 73.7905 1007.14 Q73.3397 1006.3 71.2141 1006.3 L53.5331 1006.3 Q51.0854 1006.3 50.4735 1007.17 Q49.8616 1008.01 49.8616 1011.45 L47.8004 1011.45 L47.0919 1002.27 L54.3382 1002.27 Q51.5041 1001.34 49.3141 999.375 Q47.0919 997.378 47.0919 994.157 Q47.0919 992.032 48.2835 990.679 Q49.4751 989.294 51.1176 989.294 Q52.5669 989.294 53.3076 990.196 Q54.0161 991.066 54.0161 992.128 Q54.0161 993.32 53.2754 994.157 Q52.5025 994.963 51.182 994.963 Q50.3769 994.963 49.765 994.608 Q49.1209 994.222 48.8954 993.932 Q48.67 993.642 48.6056 993.449 Q48.5411 993.578 48.5411 994.157 Q48.5411 997.797 52.1804 999.89 Q55.7875 1001.95 60.9404 1001.95 L71.0853 1001.95 Q72.9854 1001.95 73.5973 1001.18 Q74.2092 1000.37 74.2092 996.927 L74.2092 995.542 L76.2382 995.542 Q76.045 998.183 76.045 1003.92 Q76.045 1004.72 76.0772 1005.98 Q76.1094 1007.23 76.1738 1008.88 Q76.2382 1010.52 76.2382 1011.45 Z" fill="#000000" fill-rule="nonzero" fill-opacity="1" /><path clip-path="url(#clip050)" d="M61.7133 984.446 Q55.4976 984.446 51.0854 980.453 Q46.6732 976.459 46.6732 970.726 Q46.6732 964.929 50.4413 961.934 Q54.2094 958.907 59.62 958.907 Q60.6183 958.907 60.8116 959.165 Q61.0048 959.422 61.0048 960.549 L61.0048 978.971 Q67.7358 978.971 70.892 976.974 Q75.3042 974.205 75.3042 969.535 Q75.3042 968.891 75.1754 968.118 Q75.0466 967.345 74.4991 965.767 Q73.9194 964.189 72.4057 962.804 Q70.892 961.419 68.5088 960.614 Q67.5748 960.421 67.607 959.776 Q67.607 958.907 68.38 958.907 Q68.9597 958.907 70.2801 959.551 Q71.5683 960.163 73.1142 961.355 Q74.6601 962.546 75.8195 964.865 Q76.9789 967.152 76.9789 969.921 Q76.9789 975.718 72.5989 980.098 Q68.1867 984.446 61.7133 984.446 M59.62 978.907 L59.62 963.255 Q58.2351 963.255 56.6892 963.512 Q55.1433 963.738 53.0178 964.446 Q50.86 965.123 49.5073 966.733 Q48.1547 968.343 48.1547 970.726 Q48.1547 971.789 48.6056 972.949 Q49.0564 974.076 50.1514 975.461 Q51.2464 976.846 53.7263 977.812 Q56.2061 978.778 59.62 978.907 Z" fill="#000000" fill-rule="nonzero" fill-opacity="1" /><path clip-path="url(#clip050)" d="M75.3686 955.45 L66.673 955.45 Q65.9323 955.45 65.6747 955.418 Q65.417 955.386 65.2238 955.193 Q65.0305 955 65.0305 954.613 Q65.0305 954.162 65.2238 954.001 Q65.417 953.808 66.1578 953.679 Q70.6988 952.681 73.1142 950.555 Q75.4975 948.397 75.4975 944.5 Q75.4975 940.797 73.855 938.929 Q72.2125 937.061 69.5072 937.061 Q64.6763 937.061 63.4525 943.921 Q62.6473 947.882 62.132 949.525 Q61.5845 951.167 60.3929 952.616 Q58.0741 955.45 54.7891 955.45 Q51.5041 955.45 49.0886 952.971 Q46.6732 950.459 46.6732 944.919 Q46.6732 941.215 48.5411 938.703 Q47.9614 937.963 47.4784 937.576 Q46.6732 936.707 46.6732 936.256 Q46.6732 935.74 47.0275 935.644 Q47.3495 935.547 48.2835 935.547 L54.9179 935.547 Q55.6586 935.547 55.9163 935.579 Q56.1739 935.612 56.3672 935.805 Q56.5282 935.998 56.5282 936.417 Q56.5282 937.158 55.9163 937.19 Q47.9292 937.705 47.9292 944.919 Q47.9292 948.816 49.4429 950.555 Q50.9244 952.294 52.9534 952.294 Q54.0806 952.294 54.9501 951.779 Q55.7875 951.231 56.3028 950.555 Q56.7858 949.847 57.2689 948.558 Q57.7198 947.27 57.8808 946.497 Q58.0419 945.692 58.3639 944.178 Q59.3623 938.897 61.5201 936.674 Q64.2898 933.905 67.8003 933.905 Q71.6972 933.905 74.338 936.546 Q76.9789 939.186 76.9789 944.5 Q76.9789 948.784 74.1126 951.779 Q74.4991 952.165 74.8533 952.455 Q75.1754 952.745 75.3042 952.874 Q75.433 952.971 75.5297 953.003 Q75.5941 953.035 75.6585 953.099 Q76.9789 954.42 76.9789 954.742 Q76.9789 955.257 76.6247 955.354 Q76.3026 955.45 75.3686 955.45 Z" fill="#000000" fill-rule="nonzero" fill-opacity="1" /><path clip-path="url(#clip050)" d="M76.2382 931.324 L74.2092 931.324 Q74.2092 927.814 73.7905 927.009 Q73.3397 926.204 71.2141 926.204 L53.4686 926.204 Q51.021 926.204 50.4413 927.041 Q49.8616 927.846 49.8616 931.067 L47.8004 931.067 L47.0919 921.856 L71.2785 921.856 Q73.243 921.856 73.7261 921.147 Q74.2092 920.439 74.2092 917.218 L76.2382 917.218 Q76.045 923.949 76.045 924.078 Q76.045 924.98 76.2382 931.324 M35.5944 928.555 Q34.274 928.555 33.2112 927.556 Q32.1162 926.526 32.1162 925.076 Q32.1162 923.627 33.1145 922.596 Q34.0807 921.566 35.6266 921.566 Q37.1403 921.566 38.1387 922.596 Q39.1048 923.627 39.1048 925.076 Q39.1048 926.59 38.042 927.588 Q36.9792 928.555 35.5944 928.555 Z" fill="#000000" fill-rule="nonzero" fill-opacity="1" /><path clip-path="url(#clip050)" d="M62.0676 911.39 Q55.7875 911.39 51.4397 907.01 Q47.0919 902.63 47.0919 896.704 Q47.0919 891.68 51.182 888.395 L36.9148 888.395 Q34.4672 888.395 33.8553 889.264 Q33.2434 890.102 33.2434 893.516 L31.1822 893.516 L30.4737 884.015 L70.5055 884.015 Q72.9532 884.015 73.5973 883.177 Q74.2092 882.308 74.2092 878.894 L76.2382 878.894 L76.9789 888.588 L72.5989 888.588 Q76.9467 892.002 76.9789 897.412 Q76.9789 903.081 72.6311 907.235 Q68.2833 911.39 62.0676 911.39 M62.132 905.915 Q68.2511 905.915 71.2785 904.015 Q75.4975 901.374 75.4975 897.09 Q75.4975 892.195 70.892 889.297 Q69.7648 888.556 68.4444 888.588 L54.9179 888.588 Q53.5975 888.588 52.5025 889.297 Q48.5411 892.002 48.5411 896.414 Q48.5411 901.02 52.7601 903.886 Q55.9163 905.915 62.132 905.915 Z" fill="#000000" fill-rule="nonzero" fill-opacity="1" /><path clip-path="url(#clip050)" d="M49.8616 876.473 L47.8004 876.473 L47.0919 866.779 L68.9919 866.779 Q70.57 866.779 71.5039 866.65 Q72.4057 866.522 73.4685 866.006 Q74.5313 865.459 75.0144 864.235 Q75.4975 862.979 75.4975 860.982 Q75.4975 857.407 72.5667 855.217 Q69.636 852.995 65.2882 852.995 L53.5331 852.995 Q51.0854 852.995 50.4735 853.865 Q49.8616 854.734 49.8616 858.148 L47.8004 858.148 L47.0919 848.454 L70.5055 848.454 Q72.9532 848.454 73.5973 847.617 Q74.2092 846.747 74.2092 843.301 L76.2382 843.301 L76.9789 852.802 L71.0208 852.802 Q76.9467 855.572 76.9789 861.304 Q76.9789 864.203 76.2382 866.199 Q75.4975 868.164 74.5957 869.162 Q73.6617 870.161 71.8904 870.708 Q70.1191 871.224 69.0241 871.288 Q67.9291 871.352 65.8035 871.352 L55.9163 871.352 Q51.4397 871.352 50.6667 871.997 Q49.8616 872.641 49.8616 876.473 Z" fill="#000000" fill-rule="nonzero" fill-opacity="1" /><path clip-path="url(#clip050)" d="M69.958 839.708 Q64.3542 839.708 61.3913 833.106 Q59.4911 829.145 59.0081 820.965 L56.5926 820.965 Q52.5025 820.965 50.3447 823.122 Q48.1547 825.248 48.1547 827.953 Q48.1547 832.784 51.182 835.103 Q51.2464 833.138 52.2448 832.43 Q53.211 831.721 54.2094 831.721 Q55.5298 831.721 56.3994 832.559 Q57.2367 833.364 57.2367 834.749 Q57.2367 836.069 56.4316 836.939 Q55.5942 837.808 54.145 837.808 Q50.9244 837.808 48.7988 834.91 Q46.6732 831.979 46.6732 827.824 Q46.6732 822.414 50.3125 818.807 Q51.4397 817.68 52.8889 817.132 Q54.3382 816.552 55.3044 816.488 Q56.2383 816.424 58.1063 816.424 L71.2785 816.424 Q71.665 816.424 72.3091 816.295 Q72.9532 816.166 73.7905 815.586 Q74.5957 814.974 74.5957 813.976 Q74.5957 811.593 70.3767 811.625 L66.673 811.625 L66.673 809.95 L70.3767 809.95 Q73.8872 809.95 75.272 811.818 Q76.6247 813.654 76.6247 815.361 Q76.6247 817.551 75.0144 818.936 Q73.4041 820.321 71.2141 820.514 Q73.7261 821.512 75.3686 823.799 Q76.9789 826.053 76.9789 829.145 Q76.9789 831.528 76.367 833.783 Q75.7873 836.005 74.1448 837.873 Q72.4701 839.708 69.958 839.708 M69.8936 834.62 Q72.3413 834.62 73.9194 832.881 Q75.4975 831.142 75.4975 828.694 Q75.4975 825.924 73.3719 823.444 Q71.2141 820.965 66.9951 820.965 L60.3929 820.965 Q60.6506 828.275 63.5813 831.464 Q66.4798 834.62 69.8936 834.62 Z" fill="#000000" fill-rule="nonzero" fill-opacity="1" /><path clip-path="url(#clip050)" d="M76.2382 807.308 L74.2092 807.308 Q74.2092 803.798 73.7905 802.993 Q73.3397 802.188 71.2141 802.188 L36.9148 802.188 Q34.4672 802.188 33.8553 803.057 Q33.2434 803.895 33.2434 807.308 L31.1822 807.308 L30.4737 797.84 L71.2141 797.84 Q73.3397 797.84 73.7905 797.003 Q74.2092 796.165 74.2092 792.687 L76.2382 792.687 Q76.2382 793.492 76.1738 795.167 Q76.1094 796.841 76.0772 798.065 Q76.045 799.289 76.045 799.998 Q76.045 800.771 76.2382 807.308 Z" fill="#000000" fill-rule="nonzero" fill-opacity="1" /><path clip-path="url(#clip050)" d="M75.3686 788.43 L66.673 788.43 Q65.9323 788.43 65.6747 788.398 Q65.417 788.366 65.2238 788.172 Q65.0305 787.979 65.0305 787.593 Q65.0305 787.142 65.2238 786.981 Q65.417 786.787 66.1578 786.659 Q70.6988 785.66 73.1142 783.535 Q75.4975 781.377 75.4975 777.48 Q75.4975 773.776 73.855 771.908 Q72.2125 770.04 69.5072 770.04 Q64.6763 770.04 63.4525 776.9 Q62.6473 780.862 62.132 782.504 Q61.5845 784.147 60.3929 785.596 Q58.0741 788.43 54.7891 788.43 Q51.5041 788.43 49.0886 785.95 Q46.6732 783.438 46.6732 777.899 Q46.6732 774.195 48.5411 771.683 Q47.9614 770.942 47.4784 770.556 Q46.6732 769.686 46.6732 769.235 Q46.6732 768.72 47.0275 768.623 Q47.3495 768.527 48.2835 768.527 L54.9179 768.527 Q55.6586 768.527 55.9163 768.559 Q56.1739 768.591 56.3672 768.784 Q56.5282 768.978 56.5282 769.396 Q56.5282 770.137 55.9163 770.169 Q47.9292 770.685 47.9292 777.899 Q47.9292 781.796 49.4429 783.535 Q50.9244 785.274 52.9534 785.274 Q54.0806 785.274 54.9501 784.758 Q55.7875 784.211 56.3028 783.535 Q56.7858 782.826 57.2689 781.538 Q57.7198 780.25 57.8808 779.477 Q58.0419 778.672 58.3639 777.158 Q59.3623 771.876 61.5201 769.654 Q64.2898 766.884 67.8003 766.884 Q71.6972 766.884 74.338 769.525 Q76.9789 772.166 76.9789 777.48 Q76.9789 781.763 74.1126 784.758 Q74.4991 785.145 74.8533 785.435 Q75.1754 785.725 75.3042 785.853 Q75.433 785.95 75.5297 785.982 Q75.5941 786.014 75.6585 786.079 Q76.9789 787.399 76.9789 787.721 Q76.9789 788.237 76.6247 788.333 Q76.3026 788.43 75.3686 788.43 Z" fill="#000000" fill-rule="nonzero" fill-opacity="1" /><path clip-path="url(#clip050)" d="M72.6955 740.941 Q68.38 745.289 62.132 745.289 Q55.8519 745.289 51.2786 741.038 Q46.6732 736.754 46.6732 730.635 Q46.6732 724.645 51.2464 720.362 Q55.7875 716.046 62.132 716.046 Q68.3478 716.046 72.6633 720.394 Q76.9789 724.709 76.9789 730.7 Q76.9789 736.561 72.6955 740.941 M61.5845 739.814 Q67.9935 739.814 70.892 738.139 Q75.3042 735.563 75.3042 730.635 Q75.3042 728.188 73.9838 726.159 Q72.6633 724.097 70.4411 722.97 Q67.5426 721.521 61.5845 721.521 Q55.24 721.521 52.4381 723.26 Q48.1547 725.837 48.1547 730.7 Q48.1547 732.825 49.2819 734.919 Q50.3769 736.98 52.5669 738.236 Q55.4654 739.814 61.5845 739.814 Z" fill="#000000" fill-rule="nonzero" fill-opacity="1" /><path clip-path="url(#clip050)" d="M49.8616 712.625 L47.8004 712.625 L47.8004 707.44 L40.232 707.44 Q35.3367 707.44 32.5348 704.283 Q29.7329 701.095 29.7329 697.198 Q29.7329 694.622 31.1178 692.947 Q32.5026 691.272 34.3706 691.272 Q35.6266 691.272 36.4639 692.045 Q37.2691 692.786 37.2691 694.171 Q37.2691 695.491 36.4317 696.264 Q35.5944 697.005 34.435 697.005 Q32.3094 697.005 31.6653 695.04 Q31.2144 696.039 31.1822 697.198 Q31.1822 699.581 33.6298 701.449 Q36.0775 703.285 40.1676 703.285 L47.8004 703.285 L47.8004 695.556 L49.8616 695.556 L49.8616 703.06 L71.0853 703.06 Q72.9854 703.06 73.5973 702.287 Q74.2092 701.482 74.2092 698.068 L74.2092 696.683 L76.2382 696.683 Q76.045 699.324 76.045 705.056 Q76.045 705.862 76.0772 707.118 Q76.1094 708.341 76.1738 710.016 Q76.2382 711.659 76.2382 712.56 L74.2092 712.56 Q74.2092 709.05 73.7905 708.245 Q73.3397 707.44 71.2141 707.44 L49.8616 707.44 L49.8616 712.625 Z" fill="#000000" fill-rule="nonzero" fill-opacity="1" /><path clip-path="url(#clip050)" d="M50.1836 645.016 Q50.2159 645.016 51.3753 645.209 L80.6504 652.552 Q82.1963 652.938 83.7422 654.033 Q85.3202 655.096 86.6729 656.803 Q88.0577 658.478 88.8951 661.054 Q89.7647 663.599 89.7647 666.529 Q89.7647 671.199 88.7663 673.26 Q87.8001 675.289 85.7389 675.289 Q83.9354 675.289 82.9048 674.162 Q81.9064 673.035 81.9064 671.747 Q81.9064 670.523 82.6149 669.879 Q83.3235 669.235 84.2252 669.235 Q85.2236 669.235 86.222 669.911 Q87.2526 670.587 87.6391 671.94 Q88.3154 669.782 88.3154 666.658 Q88.3154 660.056 81.3267 657.222 Q81.2301 657.157 81.1979 657.157 L72.4701 654.967 L72.4057 655.064 Q73.0498 655.611 73.7905 656.481 Q74.4991 657.318 75.3686 659.122 Q76.2382 660.925 76.2382 662.697 Q76.2382 666.4 73.4041 668.945 Q70.5378 671.457 65.8035 671.457 Q62.3575 671.457 58.9114 670.072 Q55.4332 668.655 52.8889 666.465 Q50.3125 664.243 48.7022 661.409 Q47.0919 658.542 47.0919 655.772 Q47.0919 653.84 48.2513 652.198 Q49.3785 650.555 51.2464 649.653 Q49.7006 649.492 49.0564 648.623 Q48.4123 647.721 48.4123 646.948 Q48.4123 646.079 48.8954 645.563 Q49.3463 645.016 50.1836 645.016 M54.2094 650.426 Q54.0161 650.426 53.5009 650.555 Q52.9534 650.684 52.0838 651.07 Q51.2142 651.425 50.4413 651.972 Q49.6684 652.52 49.1209 653.518 Q48.5411 654.484 48.5411 655.708 Q48.5411 657.705 50.2159 659.702 Q51.8584 661.698 54.4026 663.083 Q56.8503 664.371 61.5845 665.595 Q66.3188 666.787 68.7342 666.787 Q71.1175 666.787 72.9532 665.756 Q74.7889 664.726 74.7889 662.504 Q74.7889 659.927 72.4057 657.157 Q69.9258 654.291 67.8003 653.808 L55.2078 650.62 Q54.4348 650.426 54.2094 650.426 Z" fill="#000000" fill-rule="nonzero" fill-opacity="1" /><path clip-path="url(#clip050)" d="M34.6809 638.265 Q26.8807 638.265 20.5909 635.357 Q17.9532 634.117 15.7439 632.381 Q13.5346 630.645 12.5652 629.495 Q11.5958 628.345 11.5958 628.03 Q11.5958 627.579 12.0466 627.556 Q12.2721 627.556 12.8357 628.165 Q20.4105 635.605 34.6809 635.582 Q48.9964 635.582 56.2782 628.345 Q57.0672 627.556 57.3152 627.556 Q57.7661 627.556 57.7661 628.03 Q57.7661 628.345 56.8418 629.45 Q55.9175 630.555 53.7983 632.268 Q51.6792 633.981 49.0866 635.221 Q42.7968 638.265 34.6809 638.265 Z" fill="#000000" fill-rule="nonzero" fill-opacity="1" /><path clip-path="url(#clip050)" d="M46.2235 623.123 Q45.3894 623.123 45.1414 623.055 Q44.8934 622.965 44.5101 622.604 L34.6358 613.745 Q29.1802 608.898 24.4234 608.898 Q21.3348 608.898 19.1255 610.521 Q16.9162 612.121 16.9162 615.075 Q16.9162 617.104 18.1561 618.817 Q19.396 620.53 21.6053 621.319 Q21.5603 621.184 21.5603 620.711 Q21.5603 619.561 22.2817 618.93 Q23.0031 618.276 23.9725 618.276 Q25.2124 618.276 25.8211 619.087 Q26.4072 619.877 26.4072 620.666 Q26.4072 620.981 26.3396 621.41 Q26.272 621.815 25.6407 622.469 Q24.987 623.123 23.8372 623.123 Q20.6134 623.123 18.0434 620.688 Q15.4733 618.231 15.4733 614.488 Q15.4733 610.25 17.9983 607.477 Q20.5007 604.682 24.4234 604.682 Q25.7985 604.682 27.061 605.11 Q28.3009 605.516 29.2703 606.08 Q30.2397 606.621 31.7953 608.109 Q33.3508 609.596 34.4555 610.791 Q35.5601 611.986 37.9047 614.669 L42.6615 619.561 L42.6615 611.242 Q42.6615 607.184 42.3008 606.869 Q41.647 606.418 38.1978 605.854 L38.1978 604.682 L46.2235 605.989 L46.2235 623.123 Z" fill="#000000" fill-rule="nonzero" fill-opacity="1" /><path clip-path="url(#clip050)" d="M57.3152 599.149 Q57.0898 599.149 56.5262 598.563 Q48.9513 591.124 34.6809 591.124 Q20.3654 591.124 13.1288 598.27 Q12.2946 599.149 12.0466 599.149 Q11.5958 599.149 11.5958 598.698 Q11.5958 598.383 12.5201 597.278 Q13.4444 596.151 15.5635 594.46 Q17.6827 592.747 20.2752 591.484 Q26.565 588.441 34.6809 588.441 Q42.4812 588.441 48.771 591.349 Q51.4086 592.589 53.618 594.325 Q55.8273 596.061 56.7967 597.21 Q57.7661 598.36 57.7661 598.698 Q57.7661 599.149 57.3152 599.149 Z" fill="#000000" fill-rule="nonzero" fill-opacity="1" /><path clip-path="url(#clip050)" d="M59.7488 574.38 Q48.6056 574.38 39.6201 570.226 Q35.852 568.454 32.6959 565.974 Q29.5397 563.494 28.1548 561.852 Q26.77 560.209 26.77 559.759 Q26.77 559.114 27.4141 559.082 Q27.7362 559.082 28.5413 559.952 Q39.3625 570.58 59.7488 570.548 Q80.1995 570.548 90.602 560.209 Q91.7292 559.082 92.0835 559.082 Q92.7276 559.082 92.7276 559.759 Q92.7276 560.209 91.4071 561.788 Q90.0867 563.366 87.0594 565.813 Q84.032 568.261 80.3283 570.032 Q71.3429 574.38 59.7488 574.38 Z" fill="#000000" fill-rule="nonzero" fill-opacity="1" /><path clip-path="url(#clip050)" d="M49.3785 522.12 Q51.6329 522.12 51.6329 525.373 L51.6329 536.452 L74.2092 540.864 Q74.7889 540.961 75.111 541.09 Q75.433 541.186 75.9805 541.476 Q76.4958 541.734 76.7535 542.281 Q77.0433 542.797 77.0433 543.57 Q77.0433 544.536 76.4636 545.019 Q75.9161 545.47 75.2398 545.47 Q74.8211 545.47 72.8244 544.826 L51.6329 538.352 L51.6329 543.827 Q51.6329 548.98 56.7214 552.201 Q57.3978 552.716 57.4622 553.006 Q57.4944 553.135 57.4944 553.264 Q57.4944 553.618 57.3333 553.843 Q57.1723 554.036 57.0113 554.036 L56.8503 554.069 Q56.6248 554.069 55.7231 553.553 Q54.7891 553.006 53.4042 552.04 Q52.0194 551.041 50.9244 550.043 Q49.5073 548.722 48.7666 547.241 Q47.9936 545.76 47.897 545.019 Q47.8004 544.246 47.8004 543.247 L47.8004 524.761 Q47.8004 523.924 47.8648 523.473 Q47.897 523.022 48.2835 522.571 Q48.6378 522.12 49.3785 522.12 Z" fill="#000000" fill-rule="nonzero" fill-opacity="1" /><path clip-path="url(#clip050)" d="M92.0835 516.047 Q91.7614 516.047 90.9563 515.21 Q80.1351 504.582 59.7488 504.582 Q39.2981 504.582 28.96 514.791 Q27.7684 516.047 27.4141 516.047 Q26.77 516.047 26.77 515.403 Q26.77 514.952 28.0904 513.374 Q29.4109 511.764 32.4382 509.349 Q35.4656 506.901 39.1692 505.097 Q48.1547 500.75 59.7488 500.75 Q70.892 500.75 79.8775 504.904 Q83.6455 506.675 86.8017 509.155 Q89.9579 511.635 91.3427 513.278 Q92.7276 514.92 92.7276 515.403 Q92.7276 516.047 92.0835 516.047 Z" fill="#000000" fill-rule="nonzero" fill-opacity="1" /><path clip-path="url(#clip052)" d="M314.007 1209.21 L411.046 1207.13 L508.085 1196.3 L605.124 1179.19 L702.163 1179.94 L799.202 1181.76 L896.24 1187.04 L993.279 1195.27 L1090.32 1207.99 L1187.36 1221.43 L1284.4 1240.95 L1381.43 1258.91 L1478.47 1275.92 L1575.51 1294.17 L1672.55 1311.47 L1769.59 1328.28 L1866.63 1343.47 L1963.67 1355.04 L2060.71 1366.47 L2157.75 1375.55 L2254.78 1385.14 L2254.78 1352.3 L2157.75 1335.54 L2060.71 1317.82 L1963.67 1296.37 L1866.63 1273.11 L1769.59 1246.1 L1672.55 1216.78 L1575.51 1184.17 L1478.47 1142.42 L1381.43 1100.59 L1284.4 1050.58 L1187.36 997.419 L1090.32 931.598 L993.279 856.508 L896.24 770.421 L799.202 685.406 L702.163 586.492 L605.124 475.475 L508.085 354.376 L411.046 243.208 L314.007 117.035  Z" fill="#009af9" fill-rule="evenodd" fill-opacity="0.5"/>
<polyline clip-path="url(#clip052)" style="stroke:#009af9; stroke-linecap:round; stroke-linejoin:round; stroke-width:4; stroke-opacity:1; fill:none" points="314.007,663.12 411.046,725.169 508.085,775.339 605.124,827.332 702.163,883.215 799.202,933.583 896.24,978.728 993.279,1025.89 1090.32,1069.79 1187.36,1109.42 1284.4,1145.77 1381.43,1179.75 1478.47,1209.17 1575.51,1239.17 1672.55,1264.13 1769.59,1287.19 1866.63,1308.29 1963.67,1325.7 2060.71,1342.15 2157.75,1355.55 2254.78,1368.72 "/>
<polyline clip-path="url(#clip050)" style="stroke:#000000; stroke-linecap:round; stroke-linejoin:round; stroke-width:4; stroke-opacity:1; fill:none" points="2313.01,1423.18 2313.01,78.9921 "/>
<polyline clip-path="url(#clip050)" style="stroke:#000000; stroke-linecap:round; stroke-linejoin:round; stroke-width:4; stroke-opacity:1; fill:none" points="2313.01,1178.42 2294.11,1178.42 "/>
<polyline clip-path="url(#clip050)" style="stroke:#000000; stroke-linecap:round; stroke-linejoin:round; stroke-width:4; stroke-opacity:1; fill:none" points="2313.01,911.347 2294.11,911.347 "/>
<polyline clip-path="url(#clip050)" style="stroke:#000000; stroke-linecap:round; stroke-linejoin:round; stroke-width:4; stroke-opacity:1; fill:none" points="2313.01,644.275 2294.11,644.275 "/>
<polyline clip-path="url(#clip050)" style="stroke:#000000; stroke-linecap:round; stroke-linejoin:round; stroke-width:4; stroke-opacity:1; fill:none" points="2313.01,377.202 2294.11,377.202 "/>
<polyline clip-path="url(#clip050)" style="stroke:#000000; stroke-linecap:round; stroke-linejoin:round; stroke-width:4; stroke-opacity:1; fill:none" points="2313.01,110.13 2294.11,110.13 "/>
<polyline clip-path="url(#clip050)" style="stroke:#000000; stroke-linecap:round; stroke-linejoin:round; stroke-width:4; stroke-opacity:1; fill:none" points="255.784,78.9921 2313.01,78.9921 "/>
<polyline clip-path="url(#clip050)" style="stroke:#000000; stroke-linecap:round; stroke-linejoin:round; stroke-width:4; stroke-opacity:1; fill:none" points="314.007,78.9921 314.007,97.8898 "/>
<polyline clip-path="url(#clip050)" style="stroke:#000000; stroke-linecap:round; stroke-linejoin:round; stroke-width:4; stroke-opacity:1; fill:none" points="799.202,78.9921 799.202,97.8898 "/>
<polyline clip-path="url(#clip050)" style="stroke:#000000; stroke-linecap:round; stroke-linejoin:round; stroke-width:4; stroke-opacity:1; fill:none" points="1284.4,78.9921 1284.4,97.8898 "/>
<polyline clip-path="url(#clip050)" style="stroke:#000000; stroke-linecap:round; stroke-linejoin:round; stroke-width:4; stroke-opacity:1; fill:none" points="1769.59,78.9921 1769.59,97.8898 "/>
<polyline clip-path="url(#clip050)" style="stroke:#000000; stroke-linecap:round; stroke-linejoin:round; stroke-width:4; stroke-opacity:1; fill:none" points="2254.78,78.9921 2254.78,97.8898 "/>
</svg>
