<?xml version="1.0" encoding="utf-8"?>
<svg xmlns="http://www.w3.org/2000/svg" xmlns:xlink="http://www.w3.org/1999/xlink" width="600" height="400" viewBox="0 0 2400 1600">
<defs>
  <clipPath id="clip250">
    <rect x="0" y="0" width="2400" height="1600"/>
  </clipPath>
</defs>
<path clip-path="url(#clip250)" d="M0 1600 L2400 1600 L2400 0 L0 0  Z" fill="#ffffff" fill-rule="evenodd" fill-opacity="1"/>
<defs>
  <clipPath id="clip251">
    <rect x="480" y="0" width="1681" height="1600"/>
  </clipPath>
</defs>
<defs>
  <clipPath id="clip252">
    <rect x="226" y="78" width="2088" height="1345"/>
  </clipPath>
</defs>
<path clip-path="url(#clip250)" d="M226.108 1423.18 L2313.01 1423.18 L2313.01 78.9921 L226.108 78.9921  Z" fill="#ffffff" fill-rule="evenodd" fill-opacity="1"/>
<polyline clip-path="url(#clip250)" style="stroke:#000000; stroke-linecap:round; stroke-linejoin:round; stroke-width:4; stroke-opacity:1; fill:none" points="226.108,1423.18 2313.01,1423.18 "/>
<polyline clip-path="url(#clip250)" style="stroke:#000000; stroke-linecap:round; stroke-linejoin:round; stroke-width:4; stroke-opacity:1; fill:none" points="285.171,1423.18 285.171,1404.28 "/>
<polyline clip-path="url(#clip250)" style="stroke:#000000; stroke-linecap:round; stroke-linejoin:round; stroke-width:4; stroke-opacity:1; fill:none" points="777.365,1423.18 777.365,1404.28 "/>
<polyline clip-path="url(#clip250)" style="stroke:#000000; stroke-linecap:round; stroke-linejoin:round; stroke-width:4; stroke-opacity:1; fill:none" points="1269.56,1423.18 1269.56,1404.28 "/>
<polyline clip-path="url(#clip250)" style="stroke:#000000; stroke-linecap:round; stroke-linejoin:round; stroke-width:4; stroke-opacity:1; fill:none" points="1761.75,1423.18 1761.75,1404.28 "/>
<polyline clip-path="url(#clip250)" style="stroke:#000000; stroke-linecap:round; stroke-linejoin:round; stroke-width:4; stroke-opacity:1; fill:none" points="2253.94,1423.18 2253.94,1404.28 "/>
<path clip-path="url(#clip250)" d="M252.324 1481.64 L259.963 1481.64 L259.963 1455.28 L251.653 1456.95 L251.653 1452.69 L259.917 1451.02 L264.593 1451.02 L264.593 1481.64 L272.232 1481.64 L272.232 1485.58 L252.324 1485.58 L252.324 1481.64 Z" fill="#000000" fill-rule="nonzero" fill-opacity="1" /><path clip-path="url(#clip250)" d="M281.676 1479.7 L286.56 1479.7 L286.56 1485.58 L281.676 1485.58 L281.676 1479.7 Z" fill="#000000" fill-rule="nonzero" fill-opacity="1" /><path clip-path="url(#clip250)" d="M306.745 1454.1 Q303.134 1454.1 301.306 1457.66 Q299.5 1461.2 299.5 1468.33 Q299.5 1475.44 301.306 1479.01 Q303.134 1482.55 306.745 1482.55 Q310.38 1482.55 312.185 1479.01 Q314.014 1475.44 314.014 1468.33 Q314.014 1461.2 312.185 1457.66 Q310.38 1454.1 306.745 1454.1 M306.745 1450.39 Q312.555 1450.39 315.611 1455 Q318.69 1459.58 318.69 1468.33 Q318.69 1477.06 315.611 1481.67 Q312.555 1486.25 306.745 1486.25 Q300.935 1486.25 297.856 1481.67 Q294.801 1477.06 294.801 1468.33 Q294.801 1459.58 297.856 1455 Q300.935 1450.39 306.745 1450.39 Z" fill="#000000" fill-rule="nonzero" fill-opacity="1" /><path clip-path="url(#clip250)" d="M745.015 1481.64 L752.654 1481.64 L752.654 1455.28 L744.344 1456.95 L744.344 1452.69 L752.608 1451.02 L757.284 1451.02 L757.284 1481.64 L764.923 1481.64 L764.923 1485.58 L745.015 1485.58 L745.015 1481.64 Z" fill="#000000" fill-rule="nonzero" fill-opacity="1" /><path clip-path="url(#clip250)" d="M774.367 1479.7 L779.251 1479.7 L779.251 1485.58 L774.367 1485.58 L774.367 1479.7 Z" fill="#000000" fill-rule="nonzero" fill-opacity="1" /><path clip-path="url(#clip250)" d="M789.483 1451.02 L807.839 1451.02 L807.839 1454.96 L793.765 1454.96 L793.765 1463.43 Q794.784 1463.08 795.802 1462.92 Q796.821 1462.73 797.839 1462.73 Q803.626 1462.73 807.006 1465.9 Q810.385 1469.08 810.385 1474.49 Q810.385 1480.07 806.913 1483.17 Q803.441 1486.25 797.122 1486.25 Q794.946 1486.25 792.677 1485.88 Q790.432 1485.51 788.024 1484.77 L788.024 1480.07 Q790.108 1481.2 792.33 1481.76 Q794.552 1482.32 797.029 1482.32 Q801.034 1482.32 803.371 1480.21 Q805.709 1478.1 805.709 1474.49 Q805.709 1470.88 803.371 1468.77 Q801.034 1466.67 797.029 1466.67 Q795.154 1466.67 793.279 1467.08 Q791.427 1467.5 789.483 1468.38 L789.483 1451.02 Z" fill="#000000" fill-rule="nonzero" fill-opacity="1" /><path clip-path="url(#clip250)" d="M1240.8 1481.64 L1257.12 1481.64 L1257.12 1485.58 L1235.17 1485.58 L1235.17 1481.64 Q1237.83 1478.89 1242.42 1474.26 Q1247.02 1469.61 1248.2 1468.27 Q1250.45 1465.74 1251.33 1464.01 Q1252.23 1462.25 1252.23 1460.56 Q1252.23 1457.8 1250.29 1456.07 Q1248.37 1454.33 1245.26 1454.33 Q1243.07 1454.33 1240.61 1455.09 Q1238.18 1455.86 1235.4 1457.41 L1235.4 1452.69 Q1238.23 1451.55 1240.68 1450.97 Q1243.13 1450.39 1245.17 1450.39 Q1250.54 1450.39 1253.74 1453.08 Q1256.93 1455.77 1256.93 1460.26 Q1256.93 1462.39 1256.12 1464.31 Q1255.33 1466.2 1253.23 1468.8 Q1252.65 1469.47 1249.55 1472.69 Q1246.44 1475.88 1240.8 1481.64 Z" fill="#000000" fill-rule="nonzero" fill-opacity="1" /><path clip-path="url(#clip250)" d="M1266.93 1479.7 L1271.81 1479.7 L1271.81 1485.58 L1266.93 1485.58 L1266.93 1479.7 Z" fill="#000000" fill-rule="nonzero" fill-opacity="1" /><path clip-path="url(#clip250)" d="M1292 1454.1 Q1288.39 1454.1 1286.56 1457.66 Q1284.75 1461.2 1284.75 1468.33 Q1284.75 1475.44 1286.56 1479.01 Q1288.39 1482.55 1292 1482.55 Q1295.63 1482.55 1297.44 1479.01 Q1299.27 1475.44 1299.27 1468.33 Q1299.27 1461.2 1297.44 1457.66 Q1295.63 1454.1 1292 1454.1 M1292 1450.39 Q1297.81 1450.39 1300.87 1455 Q1303.94 1459.58 1303.94 1468.33 Q1303.94 1477.06 1300.87 1481.67 Q1297.81 1486.25 1292 1486.25 Q1286.19 1486.25 1283.11 1481.67 Q1280.06 1477.06 1280.06 1468.33 Q1280.06 1459.58 1283.11 1455 Q1286.19 1450.39 1292 1450.39 Z" fill="#000000" fill-rule="nonzero" fill-opacity="1" /><path clip-path="url(#clip250)" d="M1733.49 1481.64 L1749.81 1481.64 L1749.81 1485.58 L1727.86 1485.58 L1727.86 1481.64 Q1730.52 1478.89 1735.11 1474.26 Q1739.71 1469.61 1740.89 1468.27 Q1743.14 1465.74 1744.02 1464.01 Q1744.92 1462.25 1744.92 1460.56 Q1744.92 1457.8 1742.98 1456.07 Q1741.06 1454.33 1737.96 1454.33 Q1735.76 1454.33 1733.3 1455.09 Q1730.87 1455.86 1728.09 1457.41 L1728.09 1452.69 Q1730.92 1451.55 1733.37 1450.97 Q1735.83 1450.39 1737.86 1450.39 Q1743.23 1450.39 1746.43 1453.08 Q1749.62 1455.77 1749.62 1460.26 Q1749.62 1462.39 1748.81 1464.31 Q1748.02 1466.2 1745.92 1468.8 Q1745.34 1469.47 1742.24 1472.69 Q1739.14 1475.88 1733.49 1481.64 Z" fill="#000000" fill-rule="nonzero" fill-opacity="1" /><path clip-path="url(#clip250)" d="M1759.62 1479.7 L1764.51 1479.7 L1764.51 1485.58 L1759.62 1485.58 L1759.62 1479.7 Z" fill="#000000" fill-rule="nonzero" fill-opacity="1" /><path clip-path="url(#clip250)" d="M1774.74 1451.02 L1793.09 1451.02 L1793.09 1454.96 L1779.02 1454.96 L1779.02 1463.43 Q1780.04 1463.08 1781.06 1462.92 Q1782.08 1462.73 1783.09 1462.73 Q1788.88 1462.73 1792.26 1465.9 Q1795.64 1469.08 1795.64 1474.49 Q1795.64 1480.07 1792.17 1483.17 Q1788.7 1486.25 1782.38 1486.25 Q1780.2 1486.25 1777.93 1485.88 Q1775.69 1485.51 1773.28 1484.77 L1773.28 1480.07 Q1775.36 1481.2 1777.58 1481.76 Q1779.81 1482.32 1782.28 1482.32 Q1786.29 1482.32 1788.63 1480.21 Q1790.96 1478.1 1790.96 1474.49 Q1790.96 1470.88 1788.63 1468.77 Q1786.29 1466.67 1782.28 1466.67 Q1780.41 1466.67 1778.53 1467.08 Q1776.68 1467.5 1774.74 1468.38 L1774.74 1451.02 Z" fill="#000000" fill-rule="nonzero" fill-opacity="1" /><path clip-path="url(#clip250)" d="M2235.25 1466.95 Q2238.61 1467.66 2240.48 1469.93 Q2242.38 1472.2 2242.38 1475.53 Q2242.38 1480.65 2238.86 1483.45 Q2235.35 1486.25 2228.86 1486.25 Q2226.69 1486.25 2224.37 1485.81 Q2222.08 1485.39 2219.63 1484.54 L2219.63 1480.02 Q2221.57 1481.16 2223.89 1481.74 Q2226.2 1482.32 2228.72 1482.32 Q2233.12 1482.32 2235.41 1480.58 Q2237.73 1478.84 2237.73 1475.53 Q2237.73 1472.48 2235.58 1470.77 Q2233.45 1469.03 2229.63 1469.03 L2225.6 1469.03 L2225.6 1465.19 L2229.81 1465.19 Q2233.26 1465.19 2235.09 1463.82 Q2236.92 1462.43 2236.92 1459.84 Q2236.92 1457.18 2235.02 1455.77 Q2233.15 1454.33 2229.63 1454.33 Q2227.71 1454.33 2225.51 1454.75 Q2223.31 1455.16 2220.67 1456.04 L2220.67 1451.88 Q2223.33 1451.14 2225.65 1450.77 Q2227.98 1450.39 2230.04 1450.39 Q2235.37 1450.39 2238.47 1452.83 Q2241.57 1455.23 2241.57 1459.35 Q2241.57 1462.22 2239.93 1464.21 Q2238.29 1466.18 2235.25 1466.95 Z" fill="#000000" fill-rule="nonzero" fill-opacity="1" /><path clip-path="url(#clip250)" d="M2251.25 1479.7 L2256.13 1479.7 L2256.13 1485.58 L2251.25 1485.58 L2251.25 1479.7 Z" fill="#000000" fill-rule="nonzero" fill-opacity="1" /><path clip-path="url(#clip250)" d="M2276.32 1454.1 Q2272.71 1454.1 2270.88 1457.66 Q2269.07 1461.2 2269.07 1468.33 Q2269.07 1475.44 2270.88 1479.01 Q2272.71 1482.55 2276.32 1482.55 Q2279.95 1482.55 2281.76 1479.01 Q2283.59 1475.44 2283.59 1468.33 Q2283.59 1461.2 2281.76 1457.66 Q2279.95 1454.1 2276.32 1454.1 M2276.32 1450.39 Q2282.13 1450.39 2285.18 1455 Q2288.26 1459.58 2288.26 1468.33 Q2288.26 1477.06 2285.18 1481.67 Q2282.13 1486.25 2276.32 1486.25 Q2270.51 1486.25 2267.43 1481.67 Q2264.37 1477.06 2264.37 1468.33 Q2264.37 1459.58 2267.43 1455 Q2270.51 1450.39 2276.32 1450.39 Z" fill="#000000" fill-rule="nonzero" fill-opacity="1" /><path clip-path="url(#clip250)" d="M1017.24 1554.39 L1017.24 1552.36 Q1020.75 1552.36 1021.55 1551.94 Q1022.36 1551.49 1022.36 1549.37 L1022.36 1515.07 Q1022.36 1512.62 1021.49 1512.01 Q1020.65 1511.4 1017.24 1511.4 L1017.24 1509.33 L1026.7 1508.63 L1026.7 1549.37 Q1026.7 1551.49 1027.54 1551.94 Q1028.38 1552.36 1031.86 1552.36 L1031.86 1554.39 Q1031.05 1554.39 1029.38 1554.33 Q1027.7 1554.26 1026.48 1554.23 Q1025.25 1554.2 1024.55 1554.2 Q1023.77 1554.2 1017.24 1554.39 Z" fill="#000000" fill-rule="nonzero" fill-opacity="1" /><path clip-path="url(#clip250)" d="M1041.78 1550.85 Q1037.43 1546.53 1037.43 1540.28 Q1037.43 1534 1041.68 1529.43 Q1045.97 1524.83 1052.09 1524.83 Q1058.08 1524.83 1062.36 1529.4 Q1066.68 1533.94 1066.68 1540.28 Q1066.68 1546.5 1062.33 1550.82 Q1058.01 1555.13 1052.02 1555.13 Q1046.16 1555.13 1041.78 1550.85 M1042.91 1539.74 Q1042.91 1546.15 1044.58 1549.04 Q1047.16 1553.46 1052.09 1553.46 Q1054.53 1553.46 1056.56 1552.14 Q1058.63 1550.82 1059.75 1548.59 Q1061.2 1545.69 1061.2 1539.74 Q1061.2 1533.39 1059.46 1530.59 Q1056.89 1526.31 1052.02 1526.31 Q1049.9 1526.31 1047.8 1527.43 Q1045.74 1528.53 1044.49 1530.72 Q1042.91 1533.62 1042.91 1539.74 Z" fill="#000000" fill-rule="nonzero" fill-opacity="1" /><path clip-path="url(#clip250)" d="M1067.72 1559.61 Q1067.72 1557.48 1069.33 1555.65 Q1070.97 1553.81 1073.81 1553.01 Q1070.91 1551.17 1070.91 1547.14 Q1070.91 1544.05 1072.94 1541.67 Q1069.85 1539.09 1069.85 1534.87 Q1069.85 1530.98 1072.94 1528.11 Q1076.03 1525.24 1080.54 1525.24 Q1084.5 1525.24 1087.53 1527.63 Q1090.68 1524.54 1094.52 1524.5 Q1096.22 1524.5 1097.03 1525.57 Q1097.87 1526.63 1097.87 1527.76 Q1097.87 1528.75 1097.22 1529.24 Q1096.61 1529.72 1095.97 1529.72 Q1095.16 1529.72 1094.58 1529.21 Q1094.03 1528.66 1094.03 1527.82 Q1094.03 1526.44 1095.1 1526.02 Q1094.9 1525.95 1094.45 1525.95 Q1091.23 1525.95 1088.49 1528.53 Q1091.2 1531.04 1091.2 1534.94 Q1091.2 1538.84 1088.11 1541.7 Q1085.02 1544.57 1080.54 1544.57 Q1076.84 1544.57 1074 1542.51 Q1072.87 1543.83 1072.87 1545.63 Q1072.87 1547.27 1073.87 1548.56 Q1074.87 1549.85 1076.39 1550.04 Q1076.84 1550.11 1081.31 1550.11 Q1083.95 1550.11 1085.4 1550.17 Q1086.85 1550.24 1088.91 1550.69 Q1091.01 1551.11 1092.65 1551.94 Q1096.93 1554.33 1096.96 1559.48 Q1096.96 1563.25 1092.62 1565.6 Q1088.3 1567.98 1082.31 1567.98 Q1076.26 1567.98 1071.97 1565.57 Q1067.72 1563.18 1067.72 1559.61 M1071.17 1559.61 Q1071.17 1562.31 1074.36 1564.37 Q1077.54 1566.47 1082.38 1566.47 Q1087.11 1566.47 1090.3 1564.41 Q1093.52 1562.38 1093.52 1559.61 Q1093.52 1557.64 1092.39 1556.39 Q1091.26 1555.13 1088.95 1554.62 Q1086.66 1554.13 1085.05 1554.04 Q1083.44 1553.94 1080.48 1553.94 L1076.58 1553.94 Q1074.32 1554.07 1072.75 1555.71 Q1071.17 1557.35 1071.17 1559.61 M1074.77 1534.94 Q1074.77 1543.05 1080.54 1543.05 Q1083.44 1543.05 1085.21 1540.41 Q1086.27 1538.64 1086.27 1534.87 Q1086.27 1526.76 1080.54 1526.76 Q1077.64 1526.76 1075.84 1529.4 Q1074.77 1531.17 1074.77 1534.94 Z" fill="#000000" fill-rule="nonzero" fill-opacity="1" /><path clip-path="url(#clip250)" d="M1104.61 1546.31 L1104.61 1544.87 Q1110.15 1544.87 1113.01 1541.92 Q1113.8 1541.92 1113.94 1542.1 Q1114.07 1542.28 1114.07 1543.11 L1114.07 1569.01 Q1114.07 1570.39 1114.75 1570.82 Q1115.43 1571.25 1118.38 1571.25 L1119.85 1571.25 L1119.85 1572.67 Q1118.22 1572.53 1112.36 1572.53 Q1106.5 1572.53 1104.9 1572.67 L1104.9 1571.25 L1106.36 1571.25 Q1109.27 1571.25 1109.97 1570.84 Q1110.67 1570.41 1110.67 1569.01 L1110.67 1545.1 Q1108.26 1546.31 1104.61 1546.31 Z" fill="#000000" fill-rule="nonzero" fill-opacity="1" /><path clip-path="url(#clip250)" d="M1122.13 1557.9 Q1122.13 1551.11 1123.85 1547.42 Q1126.24 1541.92 1131.87 1541.92 Q1133.07 1541.92 1134.31 1542.26 Q1135.57 1542.57 1137.15 1543.81 Q1138.75 1545.05 1139.72 1547.08 Q1141.57 1551 1141.57 1557.9 Q1141.57 1564.64 1139.85 1568.32 Q1137.35 1573.68 1131.83 1573.68 Q1129.75 1573.68 1127.63 1572.62 Q1125.54 1571.56 1124.21 1569.01 Q1122.13 1565.2 1122.13 1557.9 M1125.96 1557.34 Q1125.96 1564.3 1126.46 1567.08 Q1127.02 1570.07 1128.56 1571.38 Q1130.11 1572.67 1131.83 1572.67 Q1133.67 1572.67 1135.21 1571.29 Q1136.76 1569.89 1137.24 1566.9 Q1137.76 1563.94 1137.73 1557.34 Q1137.73 1550.91 1137.28 1548.34 Q1136.67 1545.34 1135.05 1544.15 Q1133.45 1542.93 1131.83 1542.93 Q1131.22 1542.93 1130.56 1543.11 Q1129.93 1543.29 1129.01 1543.81 Q1128.08 1544.33 1127.36 1545.61 Q1126.66 1546.9 1126.33 1548.84 Q1125.96 1551.34 1125.96 1557.34 Z" fill="#000000" fill-rule="nonzero" fill-opacity="1" /><path clip-path="url(#clip250)" d="M1152.04 1537.9 Q1152.04 1526.76 1156.19 1517.77 Q1157.96 1514 1160.44 1510.85 Q1162.92 1507.69 1164.57 1506.31 Q1166.21 1504.92 1166.66 1504.92 Q1167.3 1504.92 1167.33 1505.57 Q1167.33 1505.89 1166.47 1506.69 Q1155.84 1517.51 1155.87 1537.9 Q1155.87 1558.35 1166.21 1568.75 Q1167.33 1569.88 1167.33 1570.24 Q1167.33 1570.88 1166.66 1570.88 Q1166.21 1570.88 1164.63 1569.56 Q1163.05 1568.24 1160.6 1565.21 Q1158.16 1562.18 1156.38 1558.48 Q1152.04 1549.5 1152.04 1537.9 Z" fill="#000000" fill-rule="nonzero" fill-opacity="1" /><path clip-path="url(#clip250)" d="M1177.36 1553.52 L1177.36 1544.83 Q1177.36 1544.08 1177.4 1543.83 Q1177.43 1543.57 1177.62 1543.38 Q1177.82 1543.18 1178.2 1543.18 Q1178.65 1543.18 1178.81 1543.38 Q1179.01 1543.57 1179.14 1544.31 Q1180.13 1548.85 1182.26 1551.27 Q1184.42 1553.65 1188.31 1553.65 Q1192.02 1553.65 1193.89 1552.01 Q1195.75 1550.36 1195.75 1547.66 Q1195.75 1542.83 1188.89 1541.6 Q1184.93 1540.8 1183.29 1540.28 Q1181.65 1539.74 1180.2 1538.55 Q1177.36 1536.23 1177.36 1532.94 Q1177.36 1529.66 1179.84 1527.24 Q1182.36 1524.83 1187.9 1524.83 Q1191.6 1524.83 1194.11 1526.69 Q1194.85 1526.11 1195.24 1525.63 Q1196.11 1524.83 1196.56 1524.83 Q1197.07 1524.83 1197.17 1525.18 Q1197.27 1525.5 1197.27 1526.44 L1197.27 1533.07 Q1197.27 1533.81 1197.24 1534.07 Q1197.2 1534.33 1197.01 1534.52 Q1196.82 1534.68 1196.4 1534.68 Q1195.66 1534.68 1195.63 1534.07 Q1195.11 1526.08 1187.9 1526.08 Q1184 1526.08 1182.26 1527.6 Q1180.52 1529.08 1180.52 1531.11 Q1180.52 1532.23 1181.04 1533.1 Q1181.58 1533.94 1182.26 1534.46 Q1182.97 1534.94 1184.26 1535.42 Q1185.54 1535.87 1186.32 1536.03 Q1187.12 1536.19 1188.64 1536.52 Q1193.92 1537.51 1196.14 1539.67 Q1198.91 1542.44 1198.91 1545.95 Q1198.91 1549.85 1196.27 1552.49 Q1193.63 1555.13 1188.31 1555.13 Q1184.03 1555.13 1181.04 1552.26 Q1180.65 1552.65 1180.36 1553.01 Q1180.07 1553.33 1179.94 1553.46 Q1179.84 1553.59 1179.81 1553.68 Q1179.78 1553.75 1179.72 1553.81 Q1178.39 1555.13 1178.07 1555.13 Q1177.56 1555.13 1177.46 1554.78 Q1177.36 1554.45 1177.36 1553.52 Z" fill="#000000" fill-rule="nonzero" fill-opacity="1" /><path clip-path="url(#clip250)" d="M1202.55 1548.11 Q1202.55 1542.51 1209.15 1539.54 Q1213.11 1537.64 1221.29 1537.16 L1221.29 1534.74 Q1221.29 1530.65 1219.13 1528.5 Q1217.01 1526.31 1214.3 1526.31 Q1209.47 1526.31 1207.15 1529.33 Q1209.12 1529.4 1209.83 1530.4 Q1210.53 1531.36 1210.53 1532.36 Q1210.53 1533.68 1209.7 1534.55 Q1208.89 1535.39 1207.51 1535.39 Q1206.19 1535.39 1205.32 1534.58 Q1204.45 1533.75 1204.45 1532.3 Q1204.45 1529.08 1207.35 1526.95 Q1210.28 1524.83 1214.43 1524.83 Q1219.84 1524.83 1223.45 1528.46 Q1224.58 1529.59 1225.12 1531.04 Q1225.7 1532.49 1225.77 1533.46 Q1225.83 1534.39 1225.83 1536.26 L1225.83 1549.43 Q1225.83 1549.82 1225.96 1550.46 Q1226.09 1551.11 1226.67 1551.94 Q1227.28 1552.75 1228.28 1552.75 Q1230.66 1552.75 1230.63 1548.53 L1230.63 1544.83 L1232.3 1544.83 L1232.3 1548.53 Q1232.3 1552.04 1230.44 1553.42 Q1228.6 1554.78 1226.89 1554.78 Q1224.7 1554.78 1223.32 1553.17 Q1221.93 1551.56 1221.74 1549.37 Q1220.74 1551.88 1218.46 1553.52 Q1216.2 1555.13 1213.11 1555.13 Q1210.73 1555.13 1208.47 1554.52 Q1206.25 1553.94 1204.38 1552.3 Q1202.55 1550.62 1202.55 1548.11 M1207.64 1548.05 Q1207.64 1550.49 1209.37 1552.07 Q1211.11 1553.65 1213.56 1553.65 Q1216.33 1553.65 1218.81 1551.52 Q1221.29 1549.37 1221.29 1545.15 L1221.29 1538.55 Q1213.98 1538.8 1210.79 1541.73 Q1207.64 1544.63 1207.64 1548.05 Z" fill="#000000" fill-rule="nonzero" fill-opacity="1" /><path clip-path="url(#clip250)" d="M1233.63 1554.39 L1233.63 1552.36 Q1237.14 1552.36 1237.94 1551.94 Q1238.75 1551.49 1238.75 1549.37 L1238.75 1531.69 Q1238.75 1529.24 1237.88 1528.63 Q1237.04 1528.01 1233.63 1528.01 L1233.63 1525.95 L1242.9 1525.24 L1242.9 1532.17 Q1245.99 1525.24 1252.66 1525.24 Q1260.39 1525.24 1261.45 1531.69 Q1262.58 1529.17 1264.93 1527.21 Q1267.31 1525.24 1271.02 1525.24 Q1275.98 1525.24 1277.94 1527.69 Q1279.39 1529.33 1279.68 1531.17 Q1279.97 1533.01 1279.97 1537.77 L1279.97 1550.36 Q1280.04 1551.75 1281.1 1552.07 Q1282.16 1552.36 1285.12 1552.36 L1285.12 1554.39 Q1278.39 1554.2 1277.75 1554.2 Q1277.23 1554.2 1270.28 1554.39 L1270.28 1552.36 Q1273.79 1552.36 1274.59 1551.94 Q1275.43 1551.49 1275.43 1549.37 L1275.43 1534 Q1275.43 1530.65 1274.4 1528.69 Q1273.37 1526.69 1270.53 1526.69 Q1267.12 1526.69 1264.38 1529.56 Q1261.65 1532.43 1261.65 1537.26 L1261.65 1549.37 Q1261.65 1551.49 1262.45 1551.94 Q1263.29 1552.36 1266.8 1552.36 L1266.8 1554.39 Q1260.07 1554.2 1259.39 1554.2 Q1258.88 1554.2 1251.95 1554.39 L1251.95 1552.36 Q1255.46 1552.36 1256.27 1551.94 Q1257.1 1551.49 1257.1 1549.37 L1257.1 1534 Q1257.1 1530.65 1256.07 1528.69 Q1255.04 1526.69 1252.21 1526.69 Q1248.8 1526.69 1246.06 1529.56 Q1243.32 1532.43 1243.32 1537.26 L1243.32 1549.37 Q1243.32 1551.49 1244.13 1551.94 Q1244.96 1552.36 1248.44 1552.36 L1248.44 1554.39 Q1241.71 1554.2 1241.07 1554.2 Q1240.55 1554.2 1233.63 1554.39 Z" fill="#000000" fill-rule="nonzero" fill-opacity="1" /><path clip-path="url(#clip250)" d="M1285.04 1565.15 Q1288.55 1565.15 1289.36 1564.7 Q1290.19 1564.28 1290.19 1562.18 L1290.19 1531.3 Q1290.19 1529.11 1289.36 1528.56 Q1288.55 1528.01 1285.04 1528.01 L1285.04 1525.95 L1294.54 1525.24 L1294.54 1529.59 Q1298.5 1525.24 1303.78 1525.24 Q1309.39 1525.24 1313.48 1529.59 Q1317.57 1533.94 1317.57 1540.16 Q1317.57 1546.44 1313.22 1550.78 Q1308.87 1555.13 1302.85 1555.13 Q1299.56 1555.13 1297.34 1553.46 Q1295.15 1551.75 1294.73 1550.49 L1294.73 1551.11 L1294.73 1562.18 Q1294.73 1564.31 1295.57 1564.73 Q1296.41 1565.15 1299.89 1565.15 L1299.89 1567.18 Q1292.96 1566.98 1292.45 1566.98 Q1291.8 1566.98 1285.04 1567.18 L1285.04 1565.15 M1294.73 1546.89 Q1294.73 1547.88 1294.86 1548.24 Q1295.02 1548.59 1295.67 1549.66 Q1298.28 1553.65 1302.53 1553.65 Q1302.56 1553.65 1302.59 1553.65 Q1306.36 1553.65 1309.23 1549.82 Q1312.09 1545.95 1312.09 1540.16 Q1312.09 1534.62 1309.48 1530.75 Q1306.88 1526.89 1303.27 1526.89 Q1300.69 1526.89 1298.44 1528.27 Q1296.18 1529.66 1294.73 1532.17 L1294.73 1546.89 Z" fill="#000000" fill-rule="nonzero" fill-opacity="1" /><path clip-path="url(#clip250)" d="M1326.56 1554.39 L1326.56 1552.36 Q1330.07 1552.36 1330.87 1551.94 Q1331.68 1551.49 1331.68 1549.37 L1331.68 1515.07 Q1331.68 1512.62 1330.81 1512.01 Q1329.97 1511.4 1326.56 1511.4 L1326.56 1509.33 L1336.02 1508.63 L1336.02 1549.37 Q1336.02 1551.49 1336.86 1551.94 Q1337.7 1552.36 1341.18 1552.36 L1341.18 1554.39 Q1340.37 1554.39 1338.7 1554.33 Q1337.02 1554.26 1335.8 1554.23 Q1334.58 1554.2 1333.87 1554.2 Q1333.09 1554.2 1326.56 1554.39 Z" fill="#000000" fill-rule="nonzero" fill-opacity="1" /><path clip-path="url(#clip250)" d="M1345.43 1539.87 Q1345.43 1533.65 1349.43 1529.24 Q1353.42 1524.83 1359.15 1524.83 Q1364.95 1524.83 1367.95 1528.59 Q1370.97 1532.36 1370.97 1537.77 Q1370.97 1538.77 1370.72 1538.96 Q1370.46 1539.16 1369.33 1539.16 L1350.91 1539.16 Q1350.91 1545.89 1352.91 1549.04 Q1355.68 1553.46 1360.35 1553.46 Q1360.99 1553.46 1361.76 1553.33 Q1362.54 1553.2 1364.11 1552.65 Q1365.69 1552.07 1367.08 1550.56 Q1368.46 1549.04 1369.27 1546.66 Q1369.46 1545.73 1370.1 1545.76 Q1370.97 1545.76 1370.97 1546.53 Q1370.97 1547.11 1370.33 1548.43 Q1369.72 1549.72 1368.53 1551.27 Q1367.33 1552.81 1365.02 1553.97 Q1362.73 1555.13 1359.96 1555.13 Q1354.16 1555.13 1349.78 1550.75 Q1345.43 1546.34 1345.43 1539.87 M1350.97 1537.77 L1366.63 1537.77 Q1366.63 1536.39 1366.37 1534.84 Q1366.14 1533.3 1365.43 1531.17 Q1364.76 1529.01 1363.15 1527.66 Q1361.54 1526.31 1359.15 1526.31 Q1358.09 1526.31 1356.93 1526.76 Q1355.8 1527.21 1354.42 1528.3 Q1353.04 1529.4 1352.07 1531.88 Q1351.1 1534.36 1350.97 1537.77 Z" fill="#000000" fill-rule="nonzero" fill-opacity="1" /><path clip-path="url(#clip250)" d="M1391.86 1553.52 L1391.86 1544.83 Q1391.86 1544.08 1391.89 1543.83 Q1391.93 1543.57 1392.12 1543.38 Q1392.31 1543.18 1392.7 1543.18 Q1393.15 1543.18 1393.31 1543.38 Q1393.5 1543.57 1393.63 1544.31 Q1394.63 1548.85 1396.76 1551.27 Q1398.91 1553.65 1402.81 1553.65 Q1406.51 1553.65 1408.38 1552.01 Q1410.25 1550.36 1410.25 1547.66 Q1410.25 1542.83 1403.39 1541.6 Q1399.43 1540.8 1397.79 1540.28 Q1396.14 1539.74 1394.7 1538.55 Q1391.86 1536.23 1391.86 1532.94 Q1391.86 1529.66 1394.34 1527.24 Q1396.85 1524.83 1402.39 1524.83 Q1406.1 1524.83 1408.61 1526.69 Q1409.35 1526.11 1409.74 1525.63 Q1410.61 1524.83 1411.06 1524.83 Q1411.57 1524.83 1411.67 1525.18 Q1411.76 1525.5 1411.76 1526.44 L1411.76 1533.07 Q1411.76 1533.81 1411.73 1534.07 Q1411.7 1534.33 1411.51 1534.52 Q1411.31 1534.68 1410.89 1534.68 Q1410.15 1534.68 1410.12 1534.07 Q1409.61 1526.08 1402.39 1526.08 Q1398.5 1526.08 1396.76 1527.6 Q1395.02 1529.08 1395.02 1531.11 Q1395.02 1532.23 1395.53 1533.1 Q1396.08 1533.94 1396.76 1534.46 Q1397.47 1534.94 1398.75 1535.42 Q1400.04 1535.87 1400.81 1536.03 Q1401.62 1536.19 1403.13 1536.52 Q1408.42 1537.51 1410.64 1539.67 Q1413.41 1542.44 1413.41 1545.95 Q1413.41 1549.85 1410.77 1552.49 Q1408.13 1555.13 1402.81 1555.13 Q1398.53 1555.13 1395.53 1552.26 Q1395.15 1552.65 1394.86 1553.01 Q1394.57 1553.33 1394.44 1553.46 Q1394.34 1553.59 1394.31 1553.68 Q1394.28 1553.75 1394.21 1553.81 Q1392.89 1555.13 1392.57 1555.13 Q1392.05 1555.13 1391.96 1554.78 Q1391.86 1554.45 1391.86 1553.52 Z" fill="#000000" fill-rule="nonzero" fill-opacity="1" /><path clip-path="url(#clip250)" d="M1415.99 1554.39 L1415.99 1552.36 Q1419.5 1552.36 1420.3 1551.94 Q1421.11 1551.49 1421.11 1549.37 L1421.11 1531.62 Q1421.11 1529.17 1420.27 1528.59 Q1419.47 1528.01 1416.25 1528.01 L1416.25 1525.95 L1425.46 1525.24 L1425.46 1549.43 Q1425.46 1551.4 1426.16 1551.88 Q1426.87 1552.36 1430.09 1552.36 L1430.09 1554.39 Q1423.36 1554.2 1423.23 1554.2 Q1422.33 1554.2 1415.99 1554.39 M1418.76 1513.75 Q1418.76 1512.43 1419.76 1511.36 Q1420.79 1510.27 1422.24 1510.27 Q1423.68 1510.27 1424.72 1511.27 Q1425.75 1512.23 1425.75 1513.78 Q1425.75 1515.29 1424.72 1516.29 Q1423.68 1517.26 1422.24 1517.26 Q1420.72 1517.26 1419.72 1516.19 Q1418.76 1515.13 1418.76 1513.75 Z" fill="#000000" fill-rule="nonzero" fill-opacity="1" /><path clip-path="url(#clip250)" d="M1435.92 1553.46 Q1435.92 1553.01 1436.53 1552.26 L1454.92 1527.4 L1447.42 1527.4 Q1442.2 1527.4 1440.5 1529.33 Q1438.82 1531.23 1438.5 1536.58 L1436.86 1536.58 L1437.6 1525.95 L1458.69 1525.95 Q1459.43 1525.95 1459.72 1525.98 Q1460.01 1526.02 1460.21 1526.24 Q1460.4 1526.44 1460.4 1526.82 Q1460.4 1527.21 1459.82 1527.95 L1441.46 1552.75 L1449.26 1552.75 Q1454.73 1552.75 1456.57 1550.46 Q1458.43 1548.17 1458.88 1542.06 L1460.53 1542.06 L1459.4 1554.39 L1437.66 1554.39 Q1436.6 1554.39 1436.24 1554.26 Q1435.92 1554.1 1435.92 1553.46 Z" fill="#000000" fill-rule="nonzero" fill-opacity="1" /><path clip-path="url(#clip250)" d="M1467.56 1539.87 Q1467.56 1533.65 1471.55 1529.24 Q1475.54 1524.83 1481.28 1524.83 Q1487.07 1524.83 1490.07 1528.59 Q1493.1 1532.36 1493.1 1537.77 Q1493.1 1538.77 1492.84 1538.96 Q1492.58 1539.16 1491.45 1539.16 L1473.03 1539.16 Q1473.03 1545.89 1475.03 1549.04 Q1477.8 1553.46 1482.47 1553.46 Q1483.11 1553.46 1483.89 1553.33 Q1484.66 1553.2 1486.24 1552.65 Q1487.82 1552.07 1489.2 1550.56 Q1490.58 1549.04 1491.39 1546.66 Q1491.58 1545.73 1492.23 1545.76 Q1493.1 1545.76 1493.1 1546.53 Q1493.1 1547.11 1492.45 1548.43 Q1491.84 1549.72 1490.65 1551.27 Q1489.46 1552.81 1487.14 1553.97 Q1484.85 1555.13 1482.08 1555.13 Q1476.29 1555.13 1471.91 1550.75 Q1467.56 1546.34 1467.56 1539.87 M1473.1 1537.77 L1488.75 1537.77 Q1488.75 1536.39 1488.49 1534.84 Q1488.27 1533.3 1487.56 1531.17 Q1486.88 1529.01 1485.27 1527.66 Q1483.66 1526.31 1481.28 1526.31 Q1480.21 1526.31 1479.06 1526.76 Q1477.93 1527.21 1476.54 1528.3 Q1475.16 1529.4 1474.19 1531.88 Q1473.23 1534.36 1473.1 1537.77 Z" fill="#000000" fill-rule="nonzero" fill-opacity="1" /><path clip-path="url(#clip250)" d="M1496.55 1570.24 Q1496.55 1569.91 1497.39 1569.11 Q1508.02 1558.29 1508.02 1537.9 Q1508.02 1517.45 1497.81 1507.11 Q1496.55 1505.92 1496.55 1505.57 Q1496.55 1504.92 1497.2 1504.92 Q1497.65 1504.92 1499.23 1506.24 Q1500.84 1507.56 1503.25 1510.59 Q1505.7 1513.62 1507.5 1517.32 Q1511.85 1526.31 1511.85 1537.9 Q1511.85 1549.04 1507.7 1558.03 Q1505.93 1561.8 1503.45 1564.95 Q1500.97 1568.11 1499.32 1569.49 Q1497.68 1570.88 1497.2 1570.88 Q1496.55 1570.88 1496.55 1570.24 Z" fill="#000000" fill-rule="nonzero" fill-opacity="1" /><polyline clip-path="url(#clip250)" style="stroke:#000000; stroke-linecap:round; stroke-linejoin:round; stroke-width:4; stroke-opacity:1; fill:none" points="226.108,1423.18 226.108,78.9921 "/>
<polyline clip-path="url(#clip250)" style="stroke:#000000; stroke-linecap:round; stroke-linejoin:round; stroke-width:4; stroke-opacity:1; fill:none" points="226.108,1395.17 245.006,1395.17 "/>
<polyline clip-path="url(#clip250)" style="stroke:#000000; stroke-linecap:round; stroke-linejoin:round; stroke-width:4; stroke-opacity:1; fill:none" points="226.108,1194.49 245.006,1194.49 "/>
<polyline clip-path="url(#clip250)" style="stroke:#000000; stroke-linecap:round; stroke-linejoin:round; stroke-width:4; stroke-opacity:1; fill:none" points="226.108,993.804 245.006,993.804 "/>
<polyline clip-path="url(#clip250)" style="stroke:#000000; stroke-linecap:round; stroke-linejoin:round; stroke-width:4; stroke-opacity:1; fill:none" points="226.108,793.121 245.006,793.121 "/>
<polyline clip-path="url(#clip250)" style="stroke:#000000; stroke-linecap:round; stroke-linejoin:round; stroke-width:4; stroke-opacity:1; fill:none" points="226.108,592.438 245.006,592.438 "/>
<polyline clip-path="url(#clip250)" style="stroke:#000000; stroke-linecap:round; stroke-linejoin:round; stroke-width:4; stroke-opacity:1; fill:none" points="226.108,391.754 245.006,391.754 "/>
<polyline clip-path="url(#clip250)" style="stroke:#000000; stroke-linecap:round; stroke-linejoin:round; stroke-width:4; stroke-opacity:1; fill:none" points="226.108,191.071 245.006,191.071 "/>
<path clip-path="url(#clip250)" d="M132.933 1380.97 Q129.321 1380.97 127.493 1384.53 Q125.687 1388.08 125.687 1395.21 Q125.687 1402.31 127.493 1405.88 Q129.321 1409.42 132.933 1409.42 Q136.567 1409.42 138.372 1405.88 Q140.201 1402.31 140.201 1395.21 Q140.201 1388.08 138.372 1384.53 Q136.567 1380.97 132.933 1380.97 M132.933 1377.27 Q138.743 1377.27 141.798 1381.87 Q144.877 1386.46 144.877 1395.21 Q144.877 1403.93 141.798 1408.54 Q138.743 1413.12 132.933 1413.12 Q127.122 1413.12 124.044 1408.54 Q120.988 1403.93 120.988 1395.21 Q120.988 1386.46 124.044 1381.87 Q127.122 1377.27 132.933 1377.27 Z" fill="#000000" fill-rule="nonzero" fill-opacity="1" /><path clip-path="url(#clip250)" d="M153.094 1406.57 L157.979 1406.57 L157.979 1412.45 L153.094 1412.45 L153.094 1406.57 Z" fill="#000000" fill-rule="nonzero" fill-opacity="1" /><path clip-path="url(#clip250)" d="M178.164 1380.97 Q174.553 1380.97 172.724 1384.53 Q170.918 1388.08 170.918 1395.21 Q170.918 1402.31 172.724 1405.88 Q174.553 1409.42 178.164 1409.42 Q181.798 1409.42 183.604 1405.88 Q185.432 1402.31 185.432 1395.21 Q185.432 1388.08 183.604 1384.53 Q181.798 1380.97 178.164 1380.97 M178.164 1377.27 Q183.974 1377.27 187.029 1381.87 Q190.108 1386.46 190.108 1395.21 Q190.108 1403.93 187.029 1408.54 Q183.974 1413.12 178.164 1413.12 Q172.354 1413.12 169.275 1408.54 Q166.219 1403.93 166.219 1395.21 Q166.219 1386.46 169.275 1381.87 Q172.354 1377.27 178.164 1377.27 Z" fill="#000000" fill-rule="nonzero" fill-opacity="1" /><path clip-path="url(#clip250)" d="M134.53 1180.29 Q130.919 1180.29 129.09 1183.85 Q127.284 1187.39 127.284 1194.52 Q127.284 1201.63 129.09 1205.19 Q130.919 1208.74 134.53 1208.74 Q138.164 1208.74 139.97 1205.19 Q141.798 1201.63 141.798 1194.52 Q141.798 1187.39 139.97 1183.85 Q138.164 1180.29 134.53 1180.29 M134.53 1176.58 Q140.34 1176.58 143.395 1181.19 Q146.474 1185.77 146.474 1194.52 Q146.474 1203.25 143.395 1207.86 Q140.34 1212.44 134.53 1212.44 Q128.72 1212.44 125.641 1207.86 Q122.585 1203.25 122.585 1194.52 Q122.585 1185.77 125.641 1181.19 Q128.72 1176.58 134.53 1176.58 Z" fill="#000000" fill-rule="nonzero" fill-opacity="1" /><path clip-path="url(#clip250)" d="M154.692 1205.89 L159.576 1205.89 L159.576 1211.77 L154.692 1211.77 L154.692 1205.89 Z" fill="#000000" fill-rule="nonzero" fill-opacity="1" /><path clip-path="url(#clip250)" d="M173.789 1207.83 L190.108 1207.83 L190.108 1211.77 L168.164 1211.77 L168.164 1207.83 Q170.826 1205.08 175.409 1200.45 Q180.016 1195.8 181.196 1194.45 Q183.442 1191.93 184.321 1190.19 Q185.224 1188.43 185.224 1186.74 Q185.224 1183.99 183.279 1182.25 Q181.358 1180.52 178.256 1180.52 Q176.057 1180.52 173.604 1181.28 Q171.173 1182.05 168.395 1183.6 L168.395 1178.87 Q171.219 1177.74 173.673 1177.16 Q176.127 1176.58 178.164 1176.58 Q183.534 1176.58 186.729 1179.27 Q189.923 1181.95 189.923 1186.44 Q189.923 1188.57 189.113 1190.49 Q188.326 1192.39 186.219 1194.99 Q185.641 1195.66 182.539 1198.87 Q179.437 1202.07 173.789 1207.83 Z" fill="#000000" fill-rule="nonzero" fill-opacity="1" /><path clip-path="url(#clip250)" d="M132.446 979.603 Q128.835 979.603 127.007 983.168 Q125.201 986.709 125.201 993.839 Q125.201 1000.95 127.007 1004.51 Q128.835 1008.05 132.446 1008.05 Q136.081 1008.05 137.886 1004.51 Q139.715 1000.95 139.715 993.839 Q139.715 986.709 137.886 983.168 Q136.081 979.603 132.446 979.603 M132.446 975.899 Q138.257 975.899 141.312 980.506 Q144.391 985.089 144.391 993.839 Q144.391 1002.57 141.312 1007.17 Q138.257 1011.76 132.446 1011.76 Q126.636 1011.76 123.558 1007.17 Q120.502 1002.57 120.502 993.839 Q120.502 985.089 123.558 980.506 Q126.636 975.899 132.446 975.899 Z" fill="#000000" fill-rule="nonzero" fill-opacity="1" /><path clip-path="url(#clip250)" d="M152.608 1005.2 L157.493 1005.2 L157.493 1011.08 L152.608 1011.08 L152.608 1005.2 Z" fill="#000000" fill-rule="nonzero" fill-opacity="1" /><path clip-path="url(#clip250)" d="M180.525 980.598 L168.719 999.047 L180.525 999.047 L180.525 980.598 M179.298 976.524 L185.178 976.524 L185.178 999.047 L190.108 999.047 L190.108 1002.94 L185.178 1002.94 L185.178 1011.08 L180.525 1011.08 L180.525 1002.94 L164.923 1002.94 L164.923 998.422 L179.298 976.524 Z" fill="#000000" fill-rule="nonzero" fill-opacity="1" /><path clip-path="url(#clip250)" d="M132.77 778.92 Q129.159 778.92 127.331 782.484 Q125.525 786.026 125.525 793.156 Q125.525 800.262 127.331 803.827 Q129.159 807.369 132.77 807.369 Q136.405 807.369 138.21 803.827 Q140.039 800.262 140.039 793.156 Q140.039 786.026 138.21 782.484 Q136.405 778.92 132.77 778.92 M132.77 775.216 Q138.581 775.216 141.636 779.822 Q144.715 784.406 144.715 793.156 Q144.715 801.882 141.636 806.489 Q138.581 811.072 132.77 811.072 Q126.96 811.072 123.882 806.489 Q120.826 801.882 120.826 793.156 Q120.826 784.406 123.882 779.822 Q126.96 775.216 132.77 775.216 Z" fill="#000000" fill-rule="nonzero" fill-opacity="1" /><path clip-path="url(#clip250)" d="M152.932 804.521 L157.817 804.521 L157.817 810.401 L152.932 810.401 L152.932 804.521 Z" fill="#000000" fill-rule="nonzero" fill-opacity="1" /><path clip-path="url(#clip250)" d="M178.58 791.257 Q175.432 791.257 173.58 793.41 Q171.752 795.563 171.752 799.313 Q171.752 803.04 173.58 805.216 Q175.432 807.369 178.58 807.369 Q181.729 807.369 183.557 805.216 Q185.409 803.04 185.409 799.313 Q185.409 795.563 183.557 793.41 Q181.729 791.257 178.58 791.257 M187.863 776.605 L187.863 780.864 Q186.104 780.031 184.298 779.591 Q182.516 779.151 180.756 779.151 Q176.127 779.151 173.673 782.276 Q171.243 785.401 170.895 791.72 Q172.261 789.707 174.321 788.642 Q176.381 787.554 178.858 787.554 Q184.067 787.554 187.076 790.725 Q190.108 793.873 190.108 799.313 Q190.108 804.637 186.96 807.855 Q183.812 811.072 178.58 811.072 Q172.585 811.072 169.414 806.489 Q166.243 801.882 166.243 793.156 Q166.243 784.961 170.131 780.1 Q174.02 775.216 180.571 775.216 Q182.33 775.216 184.113 775.563 Q185.918 775.91 187.863 776.605 Z" fill="#000000" fill-rule="nonzero" fill-opacity="1" /><path clip-path="url(#clip250)" d="M133.025 578.236 Q129.414 578.236 127.585 581.801 Q125.78 585.343 125.78 592.472 Q125.78 599.579 127.585 603.144 Q129.414 606.685 133.025 606.685 Q136.659 606.685 138.465 603.144 Q140.294 599.579 140.294 592.472 Q140.294 585.343 138.465 581.801 Q136.659 578.236 133.025 578.236 M133.025 574.533 Q138.835 574.533 141.891 579.139 Q144.969 583.722 144.969 592.472 Q144.969 601.199 141.891 605.806 Q138.835 610.389 133.025 610.389 Q127.215 610.389 124.136 605.806 Q121.081 601.199 121.081 592.472 Q121.081 583.722 124.136 579.139 Q127.215 574.533 133.025 574.533 Z" fill="#000000" fill-rule="nonzero" fill-opacity="1" /><path clip-path="url(#clip250)" d="M153.187 603.838 L158.071 603.838 L158.071 609.718 L153.187 609.718 L153.187 603.838 Z" fill="#000000" fill-rule="nonzero" fill-opacity="1" /><path clip-path="url(#clip250)" d="M178.256 593.306 Q174.923 593.306 173.002 595.088 Q171.104 596.87 171.104 599.995 Q171.104 603.12 173.002 604.903 Q174.923 606.685 178.256 606.685 Q181.59 606.685 183.511 604.903 Q185.432 603.097 185.432 599.995 Q185.432 596.87 183.511 595.088 Q181.613 593.306 178.256 593.306 M173.58 591.315 Q170.571 590.574 168.881 588.514 Q167.215 586.454 167.215 583.491 Q167.215 579.347 170.155 576.94 Q173.117 574.533 178.256 574.533 Q183.418 574.533 186.358 576.94 Q189.298 579.347 189.298 583.491 Q189.298 586.454 187.608 588.514 Q185.941 590.574 182.955 591.315 Q186.335 592.102 188.21 594.394 Q190.108 596.685 190.108 599.995 Q190.108 605.019 187.029 607.704 Q183.974 610.389 178.256 610.389 Q172.539 610.389 169.46 607.704 Q166.405 605.019 166.405 599.995 Q166.405 596.685 168.303 594.394 Q170.201 592.102 173.58 591.315 M171.867 583.931 Q171.867 586.616 173.534 588.12 Q175.224 589.625 178.256 589.625 Q181.266 589.625 182.955 588.12 Q184.668 586.616 184.668 583.931 Q184.668 581.245 182.955 579.741 Q181.266 578.236 178.256 578.236 Q175.224 578.236 173.534 579.741 Q171.867 581.245 171.867 583.931 Z" fill="#000000" fill-rule="nonzero" fill-opacity="1" /><path clip-path="url(#clip250)" d="M123.743 405.099 L131.382 405.099 L131.382 378.733 L123.071 380.4 L123.071 376.141 L131.335 374.474 L136.011 374.474 L136.011 405.099 L143.65 405.099 L143.65 409.034 L123.743 409.034 L123.743 405.099 Z" fill="#000000" fill-rule="nonzero" fill-opacity="1" /><path clip-path="url(#clip250)" d="M153.094 403.155 L157.979 403.155 L157.979 409.034 L153.094 409.034 L153.094 403.155 Z" fill="#000000" fill-rule="nonzero" fill-opacity="1" /><path clip-path="url(#clip250)" d="M178.164 377.553 Q174.553 377.553 172.724 381.118 Q170.918 384.659 170.918 391.789 Q170.918 398.895 172.724 402.46 Q174.553 406.002 178.164 406.002 Q181.798 406.002 183.604 402.46 Q185.432 398.895 185.432 391.789 Q185.432 384.659 183.604 381.118 Q181.798 377.553 178.164 377.553 M178.164 373.849 Q183.974 373.849 187.029 378.456 Q190.108 383.039 190.108 391.789 Q190.108 400.516 187.029 405.122 Q183.974 409.706 178.164 409.706 Q172.354 409.706 169.275 405.122 Q166.219 400.516 166.219 391.789 Q166.219 383.039 169.275 378.456 Q172.354 373.849 178.164 373.849 Z" fill="#000000" fill-rule="nonzero" fill-opacity="1" /><path clip-path="url(#clip250)" d="M125.34 204.416 L132.979 204.416 L132.979 178.05 L124.669 179.717 L124.669 175.458 L132.933 173.791 L137.608 173.791 L137.608 204.416 L145.247 204.416 L145.247 208.351 L125.34 208.351 L125.34 204.416 Z" fill="#000000" fill-rule="nonzero" fill-opacity="1" /><path clip-path="url(#clip250)" d="M154.692 202.471 L159.576 202.471 L159.576 208.351 L154.692 208.351 L154.692 202.471 Z" fill="#000000" fill-rule="nonzero" fill-opacity="1" /><path clip-path="url(#clip250)" d="M173.789 204.416 L190.108 204.416 L190.108 208.351 L168.164 208.351 L168.164 204.416 Q170.826 201.661 175.409 197.031 Q180.016 192.379 181.196 191.036 Q183.442 188.513 184.321 186.777 Q185.224 185.018 185.224 183.328 Q185.224 180.573 183.279 178.837 Q181.358 177.101 178.256 177.101 Q176.057 177.101 173.604 177.865 Q171.173 178.629 168.395 180.18 L168.395 175.458 Q171.219 174.323 173.673 173.745 Q176.127 173.166 178.164 173.166 Q183.534 173.166 186.729 175.851 Q189.923 178.536 189.923 183.027 Q189.923 185.157 189.113 187.078 Q188.326 188.976 186.219 191.569 Q185.641 192.24 182.539 195.457 Q179.437 198.652 173.789 204.416 Z" fill="#000000" fill-rule="nonzero" fill-opacity="1" /><path clip-path="url(#clip250)" d="M76.2382 1011.45 L74.2092 1011.45 Q74.2092 1007.94 73.7905 1007.14 Q73.3397 1006.3 71.2141 1006.3 L53.5331 1006.3 Q51.0854 1006.3 50.4735 1007.17 Q49.8616 1008.01 49.8616 1011.45 L47.8004 1011.45 L47.0919 1002.27 L54.3382 1002.27 Q51.5041 1001.34 49.3141 999.375 Q47.0919 997.378 47.0919 994.157 Q47.0919 992.032 48.2835 990.679 Q49.4751 989.294 51.1176 989.294 Q52.5669 989.294 53.3076 990.196 Q54.0161 991.066 54.0161 992.128 Q54.0161 993.32 53.2754 994.157 Q52.5025 994.963 51.182 994.963 Q50.3769 994.963 49.765 994.608 Q49.1209 994.222 48.8954 993.932 Q48.67 993.642 48.6056 993.449 Q48.5411 993.578 48.5411 994.157 Q48.5411 997.797 52.1804 999.89 Q55.7875 1001.95 60.9404 1001.95 L71.0853 1001.95 Q72.9854 1001.95 73.5973 1001.18 Q74.2092 1000.37 74.2092 996.927 L74.2092 995.542 L76.2382 995.542 Q76.045 998.183 76.045 1003.92 Q76.045 1004.72 76.0772 1005.98 Q76.1094 1007.23 76.1738 1008.88 Q76.2382 1010.52 76.2382 1011.45 Z" fill="#000000" fill-rule="nonzero" fill-opacity="1" /><path clip-path="url(#clip250)" d="M61.7133 984.446 Q55.4976 984.446 51.0854 980.453 Q46.6732 976.459 46.6732 970.726 Q46.6732 964.929 50.4413 961.934 Q54.2094 958.907 59.62 958.907 Q60.6183 958.907 60.8116 959.165 Q61.0048 959.422 61.0048 960.549 L61.0048 978.971 Q67.7358 978.971 70.892 976.974 Q75.3042 974.205 75.3042 969.535 Q75.3042 968.891 75.1754 968.118 Q75.0466 967.345 74.4991 965.767 Q73.9194 964.189 72.4057 962.804 Q70.892 961.419 68.5088 960.614 Q67.5748 960.421 67.607 959.776 Q67.607 958.907 68.38 958.907 Q68.9597 958.907 70.2801 959.551 Q71.5683 960.163 73.1142 961.355 Q74.6601 962.546 75.8195 964.865 Q76.9789 967.152 76.9789 969.921 Q76.9789 975.718 72.5989 980.098 Q68.1867 984.446 61.7133 984.446 M59.62 978.907 L59.62 963.255 Q58.2351 963.255 56.6892 963.512 Q55.1433 963.738 53.0178 964.446 Q50.86 965.123 49.5073 966.733 Q48.1547 968.343 48.1547 970.726 Q48.1547 971.789 48.6056 972.949 Q49.0564 974.076 50.1514 975.461 Q51.2464 976.846 53.7263 977.812 Q56.2061 978.778 59.62 978.907 Z" fill="#000000" fill-rule="nonzero" fill-opacity="1" /><path clip-path="url(#clip250)" d="M75.3686 955.45 L66.673 955.45 Q65.9323 955.45 65.6747 955.418 Q65.417 955.386 65.2238 955.193 Q65.0305 955 65.0305 954.613 Q65.0305 954.162 65.2238 954.001 Q65.417 953.808 66.1578 953.679 Q70.6988 952.681 73.1142 950.555 Q75.4975 948.397 75.4975 944.5 Q75.4975 940.797 73.855 938.929 Q72.2125 937.061 69.5072 937.061 Q64.6763 937.061 63.4525 943.921 Q62.6473 947.882 62.132 949.525 Q61.5845 951.167 60.3929 952.616 Q58.0741 955.45 54.7891 955.45 Q51.5041 955.45 49.0886 952.971 Q46.6732 950.459 46.6732 944.919 Q46.6732 941.215 48.5411 938.703 Q47.9614 937.963 47.4784 937.576 Q46.6732 936.707 46.6732 936.256 Q46.6732 935.74 47.0275 935.644 Q47.3495 935.547 48.2835 935.547 L54.9179 935.547 Q55.6586 935.547 55.9163 935.579 Q56.1739 935.612 56.3672 935.805 Q56.5282 935.998 56.5282 936.417 Q56.5282 937.158 55.9163 937.19 Q47.9292 937.705 47.9292 944.919 Q47.9292 948.816 49.4429 950.555 Q50.9244 952.294 52.9534 952.294 Q54.0806 952.294 54.9501 951.779 Q55.7875 951.231 56.3028 950.555 Q56.7858 949.847 57.2689 948.558 Q57.7198 947.27 57.8808 946.497 Q58.0419 945.692 58.3639 944.178 Q59.3623 938.897 61.5201 936.674 Q64.2898 933.905 67.8003 933.905 Q71.6972 933.905 74.338 936.546 Q76.9789 939.186 76.9789 944.5 Q76.9789 948.784 74.1126 951.779 Q74.4991 952.165 74.8533 952.455 Q75.1754 952.745 75.3042 952.874 Q75.433 952.971 75.5297 953.003 Q75.5941 953.035 75.6585 953.099 Q76.9789 954.42 76.9789 954.742 Q76.9789 955.257 76.6247 955.354 Q76.3026 955.45 75.3686 955.45 Z" fill="#000000" fill-rule="nonzero" fill-opacity="1" /><path clip-path="url(#clip250)" d="M76.2382 931.324 L74.2092 931.324 Q74.2092 927.814 73.7905 927.009 Q73.3397 926.204 71.2141 926.204 L53.4686 926.204 Q51.021 926.204 50.4413 927.041 Q49.8616 927.846 49.8616 931.067 L47.8004 931.067 L47.0919 921.856 L71.2785 921.856 Q73.243 921.856 73.7261 921.147 Q74.2092 920.439 74.2092 917.218 L76.2382 917.218 Q76.045 923.949 76.045 924.078 Q76.045 924.98 76.2382 931.324 M35.5944 928.555 Q34.274 928.555 33.2112 927.556 Q32.1162 926.526 32.1162 925.076 Q32.1162 923.627 33.1145 922.596 Q34.0807 921.566 35.6266 921.566 Q37.1403 921.566 38.1387 922.596 Q39.1048 923.627 39.1048 925.076 Q39.1048 926.59 38.042 927.588 Q36.9792 928.555 35.5944 928.555 Z" fill="#000000" fill-rule="nonzero" fill-opacity="1" /><path clip-path="url(#clip250)" d="M62.0676 911.39 Q55.7875 911.39 51.4397 907.01 Q47.0919 902.63 47.0919 896.704 Q47.0919 891.68 51.182 888.395 L36.9148 888.395 Q34.4672 888.395 33.8553 889.264 Q33.2434 890.102 33.2434 893.516 L31.1822 893.516 L30.4737 884.015 L70.5055 884.015 Q72.9532 884.015 73.5973 883.177 Q74.2092 882.308 74.2092 878.894 L76.2382 878.894 L76.9789 888.588 L72.5989 888.588 Q76.9467 892.002 76.9789 897.412 Q76.9789 903.081 72.6311 907.235 Q68.2833 911.39 62.0676 911.39 M62.132 905.915 Q68.2511 905.915 71.2785 904.015 Q75.4975 901.374 75.4975 897.09 Q75.4975 892.195 70.892 889.297 Q69.7648 888.556 68.4444 888.588 L54.9179 888.588 Q53.5975 888.588 52.5025 889.297 Q48.5411 892.002 48.5411 896.414 Q48.5411 901.02 52.7601 903.886 Q55.9163 905.915 62.132 905.915 Z" fill="#000000" fill-rule="nonzero" fill-opacity="1" /><path clip-path="url(#clip250)" d="M49.8616 876.473 L47.8004 876.473 L47.0919 866.779 L68.9919 866.779 Q70.57 866.779 71.5039 866.65 Q72.4057 866.522 73.4685 866.006 Q74.5313 865.459 75.0144 864.235 Q75.4975 862.979 75.4975 860.982 Q75.4975 857.407 72.5667 855.217 Q69.636 852.995 65.2882 852.995 L53.5331 852.995 Q51.0854 852.995 50.4735 853.865 Q49.8616 854.734 49.8616 858.148 L47.8004 858.148 L47.0919 848.454 L70.5055 848.454 Q72.9532 848.454 73.5973 847.617 Q74.2092 846.747 74.2092 843.301 L76.2382 843.301 L76.9789 852.802 L71.0208 852.802 Q76.9467 855.572 76.9789 861.304 Q76.9789 864.203 76.2382 866.199 Q75.4975 868.164 74.5957 869.162 Q73.6617 870.161 71.8904 870.708 Q70.1191 871.224 69.0241 871.288 Q67.9291 871.352 65.8035 871.352 L55.9163 871.352 Q51.4397 871.352 50.6667 871.997 Q49.8616 872.641 49.8616 876.473 Z" fill="#000000" fill-rule="nonzero" fill-opacity="1" /><path clip-path="url(#clip250)" d="M69.958 839.708 Q64.3542 839.708 61.3913 833.106 Q59.4911 829.145 59.0081 820.965 L56.5926 820.965 Q52.5025 820.965 50.3447 823.122 Q48.1547 825.248 48.1547 827.953 Q48.1547 832.784 51.182 835.103 Q51.2464 833.138 52.2448 832.43 Q53.211 831.721 54.2094 831.721 Q55.5298 831.721 56.3994 832.559 Q57.2367 833.364 57.2367 834.749 Q57.2367 836.069 56.4316 836.939 Q55.5942 837.808 54.145 837.808 Q50.9244 837.808 48.7988 834.91 Q46.6732 831.979 46.6732 827.824 Q46.6732 822.414 50.3125 818.807 Q51.4397 817.68 52.8889 817.132 Q54.3382 816.552 55.3044 816.488 Q56.2383 816.424 58.1063 816.424 L71.2785 816.424 Q71.665 816.424 72.3091 816.295 Q72.9532 816.166 73.7905 815.586 Q74.5957 814.974 74.5957 813.976 Q74.5957 811.593 70.3767 811.625 L66.673 811.625 L66.673 809.95 L70.3767 809.95 Q73.8872 809.95 75.272 811.818 Q76.6247 813.654 76.6247 815.361 Q76.6247 817.551 75.0144 818.936 Q73.4041 820.321 71.2141 820.514 Q73.7261 821.512 75.3686 823.799 Q76.9789 826.053 76.9789 829.145 Q76.9789 831.528 76.367 833.783 Q75.7873 836.005 74.1448 837.873 Q72.4701 839.708 69.958 839.708 M69.8936 834.62 Q72.3413 834.62 73.9194 832.881 Q75.4975 831.142 75.4975 828.694 Q75.4975 825.924 73.3719 823.444 Q71.2141 820.965 66.9951 820.965 L60.3929 820.965 Q60.6506 828.275 63.5813 831.464 Q66.4798 834.62 69.8936 834.62 Z" fill="#000000" fill-rule="nonzero" fill-opacity="1" /><path clip-path="url(#clip250)" d="M76.2382 807.308 L74.2092 807.308 Q74.2092 803.798 73.7905 802.993 Q73.3397 802.188 71.2141 802.188 L36.9148 802.188 Q34.4672 802.188 33.8553 803.057 Q33.2434 803.895 33.2434 807.308 L31.1822 807.308 L30.4737 797.84 L71.2141 797.84 Q73.3397 797.84 73.7905 797.003 Q74.2092 796.165 74.2092 792.687 L76.2382 792.687 Q76.2382 793.492 76.1738 795.167 Q76.1094 796.841 76.0772 798.065 Q76.045 799.289 76.045 799.998 Q76.045 800.771 76.2382 807.308 Z" fill="#000000" fill-rule="nonzero" fill-opacity="1" /><path clip-path="url(#clip250)" d="M75.3686 788.43 L66.673 788.43 Q65.9323 788.43 65.6747 788.398 Q65.417 788.366 65.2238 788.172 Q65.0305 787.979 65.0305 787.593 Q65.0305 787.142 65.2238 786.981 Q65.417 786.787 66.1578 786.659 Q70.6988 785.66 73.1142 783.535 Q75.4975 781.377 75.4975 777.48 Q75.4975 773.776 73.855 771.908 Q72.2125 770.04 69.5072 770.04 Q64.6763 770.04 63.4525 776.9 Q62.6473 780.862 62.132 782.504 Q61.5845 784.147 60.3929 785.596 Q58.0741 788.43 54.7891 788.43 Q51.5041 788.43 49.0886 785.95 Q46.6732 783.438 46.6732 777.899 Q46.6732 774.195 48.5411 771.683 Q47.9614 770.942 47.4784 770.556 Q46.6732 769.686 46.6732 769.235 Q46.6732 768.72 47.0275 768.623 Q47.3495 768.527 48.2835 768.527 L54.9179 768.527 Q55.6586 768.527 55.9163 768.559 Q56.1739 768.591 56.3672 768.784 Q56.5282 768.978 56.5282 769.396 Q56.5282 770.137 55.9163 770.169 Q47.9292 770.685 47.9292 777.899 Q47.9292 781.796 49.4429 783.535 Q50.9244 785.274 52.9534 785.274 Q54.0806 785.274 54.9501 784.758 Q55.7875 784.211 56.3028 783.535 Q56.7858 782.826 57.2689 781.538 Q57.7198 780.25 57.8808 779.477 Q58.0419 778.672 58.3639 777.158 Q59.3623 771.876 61.5201 769.654 Q64.2898 766.884 67.8003 766.884 Q71.6972 766.884 74.338 769.525 Q76.9789 772.166 76.9789 777.48 Q76.9789 781.763 74.1126 784.758 Q74.4991 785.145 74.8533 785.435 Q75.1754 785.725 75.3042 785.853 Q75.433 785.95 75.5297 785.982 Q75.5941 786.014 75.6585 786.079 Q76.9789 787.399 76.9789 787.721 Q76.9789 788.237 76.6247 788.333 Q76.3026 788.43 75.3686 788.43 Z" fill="#000000" fill-rule="nonzero" fill-opacity="1" /><path clip-path="url(#clip250)" d="M72.6955 740.941 Q68.38 745.289 62.132 745.289 Q55.8519 745.289 51.2786 741.038 Q46.6732 736.754 46.6732 730.635 Q46.6732 724.645 51.2464 720.362 Q55.7875 716.046 62.132 716.046 Q68.3478 716.046 72.6633 720.394 Q76.9789 724.709 76.9789 730.7 Q76.9789 736.561 72.6955 740.941 M61.5845 739.814 Q67.9935 739.814 70.892 738.139 Q75.3042 735.563 75.3042 730.635 Q75.3042 728.188 73.9838 726.159 Q72.6633 724.097 70.4411 722.97 Q67.5426 721.521 61.5845 721.521 Q55.24 721.521 52.4381 723.26 Q48.1547 725.837 48.1547 730.7 Q48.1547 732.825 49.2819 734.919 Q50.3769 736.98 52.5669 738.236 Q55.4654 739.814 61.5845 739.814 Z" fill="#000000" fill-rule="nonzero" fill-opacity="1" /><path clip-path="url(#clip250)" d="M49.8616 712.625 L47.8004 712.625 L47.8004 707.44 L40.232 707.44 Q35.3367 707.44 32.5348 704.283 Q29.7329 701.095 29.7329 697.198 Q29.7329 694.622 31.1178 692.947 Q32.5026 691.272 34.3706 691.272 Q35.6266 691.272 36.4639 692.045 Q37.2691 692.786 37.2691 694.171 Q37.2691 695.491 36.4317 696.264 Q35.5944 697.005 34.435 697.005 Q32.3094 697.005 31.6653 695.04 Q31.2144 696.039 31.1822 697.198 Q31.1822 699.581 33.6298 701.449 Q36.0775 703.285 40.1676 703.285 L47.8004 703.285 L47.8004 695.556 L49.8616 695.556 L49.8616 703.06 L71.0853 703.06 Q72.9854 703.06 73.5973 702.287 Q74.2092 701.482 74.2092 698.068 L74.2092 696.683 L76.2382 696.683 Q76.045 699.324 76.045 705.056 Q76.045 705.862 76.0772 707.118 Q76.1094 708.341 76.1738 710.016 Q76.2382 711.659 76.2382 712.56 L74.2092 712.56 Q74.2092 709.05 73.7905 708.245 Q73.3397 707.44 71.2141 707.44 L49.8616 707.44 L49.8616 712.625 Z" fill="#000000" fill-rule="nonzero" fill-opacity="1" /><path clip-path="url(#clip250)" d="M50.1836 645.016 Q50.2159 645.016 51.3753 645.209 L80.6504 652.552 Q82.1963 652.938 83.7422 654.033 Q85.3202 655.096 86.6729 656.803 Q88.0577 658.478 88.8951 661.054 Q89.7647 663.599 89.7647 666.529 Q89.7647 671.199 88.7663 673.26 Q87.8001 675.289 85.7389 675.289 Q83.9354 675.289 82.9048 674.162 Q81.9064 673.035 81.9064 671.747 Q81.9064 670.523 82.6149 669.879 Q83.3235 669.235 84.2252 669.235 Q85.2236 669.235 86.222 669.911 Q87.2526 670.587 87.6391 671.94 Q88.3154 669.782 88.3154 666.658 Q88.3154 660.056 81.3267 657.222 Q81.2301 657.157 81.1979 657.157 L72.4701 654.967 L72.4057 655.064 Q73.0498 655.611 73.7905 656.481 Q74.4991 657.318 75.3686 659.122 Q76.2382 660.925 76.2382 662.697 Q76.2382 666.4 73.4041 668.945 Q70.5378 671.457 65.8035 671.457 Q62.3575 671.457 58.9114 670.072 Q55.4332 668.655 52.8889 666.465 Q50.3125 664.243 48.7022 661.409 Q47.0919 658.542 47.0919 655.772 Q47.0919 653.84 48.2513 652.198 Q49.3785 650.555 51.2464 649.653 Q49.7006 649.492 49.0564 648.623 Q48.4123 647.721 48.4123 646.948 Q48.4123 646.079 48.8954 645.563 Q49.3463 645.016 50.1836 645.016 M54.2094 650.426 Q54.0161 650.426 53.5009 650.555 Q52.9534 650.684 52.0838 651.07 Q51.2142 651.425 50.4413 651.972 Q49.6684 652.52 49.1209 653.518 Q48.5411 654.484 48.5411 655.708 Q48.5411 657.705 50.2159 659.702 Q51.8584 661.698 54.4026 663.083 Q56.8503 664.371 61.5845 665.595 Q66.3188 666.787 68.7342 666.787 Q71.1175 666.787 72.9532 665.756 Q74.7889 664.726 74.7889 662.504 Q74.7889 659.927 72.4057 657.157 Q69.9258 654.291 67.8003 653.808 L55.2078 650.62 Q54.4348 650.426 54.2094 650.426 Z" fill="#000000" fill-rule="nonzero" fill-opacity="1" /><path clip-path="url(#clip250)" d="M34.6809 638.265 Q26.8807 638.265 20.5909 635.357 Q17.9532 634.117 15.7439 632.381 Q13.5346 630.645 12.5652 629.495 Q11.5958 628.345 11.5958 628.03 Q11.5958 627.579 12.0466 627.556 Q12.2721 627.556 12.8357 628.165 Q20.4105 635.605 34.6809 635.582 Q48.9964 635.582 56.2782 628.345 Q57.0672 627.556 57.3152 627.556 Q57.7661 627.556 57.7661 628.03 Q57.7661 628.345 56.8418 629.45 Q55.9175 630.555 53.7983 632.268 Q51.6792 633.981 49.0866 635.221 Q42.7968 638.265 34.6809 638.265 Z" fill="#000000" fill-rule="nonzero" fill-opacity="1" /><path clip-path="url(#clip250)" d="M46.2235 623.123 Q45.3894 623.123 45.1414 623.055 Q44.8934 622.965 44.5101 622.604 L34.6358 613.745 Q29.1802 608.898 24.4234 608.898 Q21.3348 608.898 19.1255 610.521 Q16.9162 612.121 16.9162 615.075 Q16.9162 617.104 18.1561 618.817 Q19.396 620.53 21.6053 621.319 Q21.5603 621.184 21.5603 620.711 Q21.5603 619.561 22.2817 618.93 Q23.0031 618.276 23.9725 618.276 Q25.2124 618.276 25.8211 619.087 Q26.4072 619.877 26.4072 620.666 Q26.4072 620.981 26.3396 621.41 Q26.272 621.815 25.6407 622.469 Q24.987 623.123 23.8372 623.123 Q20.6134 623.123 18.0434 620.688 Q15.4733 618.231 15.4733 614.488 Q15.4733 610.25 17.9983 607.477 Q20.5007 604.682 24.4234 604.682 Q25.7985 604.682 27.061 605.11 Q28.3009 605.516 29.2703 606.08 Q30.2397 606.621 31.7953 608.109 Q33.3508 609.596 34.4555 610.791 Q35.5601 611.986 37.9047 614.669 L42.6615 619.561 L42.6615 611.242 Q42.6615 607.184 42.3008 606.869 Q41.647 606.418 38.1978 605.854 L38.1978 604.682 L46.2235 605.989 L46.2235 623.123 Z" fill="#000000" fill-rule="nonzero" fill-opacity="1" /><path clip-path="url(#clip250)" d="M57.3152 599.149 Q57.0898 599.149 56.5262 598.563 Q48.9513 591.124 34.6809 591.124 Q20.3654 591.124 13.1288 598.27 Q12.2946 599.149 12.0466 599.149 Q11.5958 599.149 11.5958 598.698 Q11.5958 598.383 12.5201 597.278 Q13.4444 596.151 15.5635 594.46 Q17.6827 592.747 20.2752 591.484 Q26.565 588.441 34.6809 588.441 Q42.4812 588.441 48.771 591.349 Q51.4086 592.589 53.618 594.325 Q55.8273 596.061 56.7967 597.21 Q57.7661 598.36 57.7661 598.698 Q57.7661 599.149 57.3152 599.149 Z" fill="#000000" fill-rule="nonzero" fill-opacity="1" /><path clip-path="url(#clip250)" d="M59.7488 574.38 Q48.6056 574.38 39.6201 570.226 Q35.852 568.454 32.6959 565.974 Q29.5397 563.494 28.1548 561.852 Q26.77 560.209 26.77 559.759 Q26.77 559.114 27.4141 559.082 Q27.7362 559.082 28.5413 559.952 Q39.3625 570.58 59.7488 570.548 Q80.1995 570.548 90.602 560.209 Q91.7292 559.082 92.0835 559.082 Q92.7276 559.082 92.7276 559.759 Q92.7276 560.209 91.4071 561.788 Q90.0867 563.366 87.0594 565.813 Q84.032 568.261 80.3283 570.032 Q71.3429 574.38 59.7488 574.38 Z" fill="#000000" fill-rule="nonzero" fill-opacity="1" /><path clip-path="url(#clip250)" d="M49.3785 522.12 Q51.6329 522.12 51.6329 525.373 L51.6329 536.452 L74.2092 540.864 Q74.7889 540.961 75.111 541.09 Q75.433 541.186 75.9805 541.476 Q76.4958 541.734 76.7535 542.281 Q77.0433 542.797 77.0433 543.57 Q77.0433 544.536 76.4636 545.019 Q75.9161 545.47 75.2398 545.47 Q74.8211 545.47 72.8244 544.826 L51.6329 538.352 L51.6329 543.827 Q51.6329 548.98 56.7214 552.201 Q57.3978 552.716 57.4622 553.006 Q57.4944 553.135 57.4944 553.264 Q57.4944 553.618 57.3333 553.843 Q57.1723 554.036 57.0113 554.036 L56.8503 554.069 Q56.6248 554.069 55.7231 553.553 Q54.7891 553.006 53.4042 552.04 Q52.0194 551.041 50.9244 550.043 Q49.5073 548.722 48.7666 547.241 Q47.9936 545.76 47.897 545.019 Q47.8004 544.246 47.8004 543.247 L47.8004 524.761 Q47.8004 523.924 47.8648 523.473 Q47.897 523.022 48.2835 522.571 Q48.6378 522.12 49.3785 522.12 Z" fill="#000000" fill-rule="nonzero" fill-opacity="1" /><path clip-path="url(#clip250)" d="M92.0835 516.047 Q91.7614 516.047 90.9563 515.21 Q80.1351 504.582 59.7488 504.582 Q39.2981 504.582 28.96 514.791 Q27.7684 516.047 27.4141 516.047 Q26.77 516.047 26.77 515.403 Q26.77 514.952 28.0904 513.374 Q29.4109 511.764 32.4382 509.349 Q35.4656 506.901 39.1692 505.097 Q48.1547 500.75 59.7488 500.75 Q70.892 500.75 79.8775 504.904 Q83.6455 506.675 86.8017 509.155 Q89.9579 511.635 91.3427 513.278 Q92.7276 514.92 92.7276 515.403 Q92.7276 516.047 92.0835 516.047 Z" fill="#000000" fill-rule="nonzero" fill-opacity="1" /><path clip-path="url(#clip252)" d="M285.171 1197.12 L383.61 1161.87 L482.049 1149.86 L580.487 1142.23 L678.926 1134.05 L777.365 1133.97 L875.803 1139.39 L974.242 1151.26 L1072.68 1164.38 L1171.12 1177.82 L1269.56 1194.27 L1368 1212.54 L1466.44 1229.71 L1564.87 1246.89 L1663.31 1263.53 L1761.75 1278.82 L1860.19 1295.01 L1958.63 1307.92 L2057.07 1319.75 L2155.51 1328.7 L2253.94 1337.25 L2253.94 1308.57 L2155.51 1291.79 L2057.07 1273.42 L1958.63 1254.48 L1860.19 1233.84 L1761.75 1206.94 L1663.31 1177.53 L1564.87 1147.77 L1466.44 1108.42 L1368 1066.19 L1269.56 1020.48 L1171.12 973.284 L1072.68 915.677 L974.242 847.42 L875.803 777.607 L777.365 686.707 L678.926 592.117 L580.487 487.308 L482.049 380.961 L383.61 277.149 L285.171 117.035  Z" fill="#009af9" fill-rule="evenodd" fill-opacity="0.5"/>
<polyline clip-path="url(#clip252)" style="stroke:#009af9; stroke-linecap:round; stroke-linejoin:round; stroke-width:4; stroke-opacity:1; fill:none" points="285.171,657.078 383.61,719.512 482.049,765.41 580.487,814.771 678.926,863.086 777.365,910.339 875.803,958.5 974.242,999.341 1072.68,1040.03 1171.12,1075.55 1269.56,1107.37 1368,1139.37 1466.44,1169.06 1564.87,1197.33 1663.31,1220.53 1761.75,1242.88 1860.19,1264.43 1958.63,1281.2 2057.07,1296.58 2155.51,1310.25 2253.94,1322.91 "/>
<polyline clip-path="url(#clip252)" style="stroke:#ff0000; stroke-linecap:round; stroke-linejoin:round; stroke-width:4; stroke-opacity:1; fill:none" points="-1860.79,1385.14 4399.91,1385.14 "/>
<path clip-path="url(#clip250)" d="M1988.54 276.191 L2243.44 276.191 L2243.44 123.798 L1988.54 123.798  Z" fill="#ffffff" fill-rule="evenodd" fill-opacity="1"/>
<polyline clip-path="url(#clip250)" style="stroke:#000000; stroke-linecap:round; stroke-linejoin:round; stroke-width:4; stroke-opacity:1; fill:none" points="1988.54,276.191 2243.44,276.191 2243.44,123.798 1988.54,123.798 1988.54,276.191 "/>
<polyline clip-path="url(#clip250)" style="stroke:#ff0000; stroke-linecap:round; stroke-linejoin:round; stroke-width:4; stroke-opacity:1; fill:none" points="2011.73,199.995 2150.85,199.995 "/>
<path clip-path="url(#clip250)" d="M2189.28 166.156 L2189.28 164.657 Q2195.04 164.657 2198.02 161.589 Q2198.84 161.589 2198.98 161.776 Q2199.12 161.964 2199.12 162.83 L2199.12 189.743 Q2199.12 191.171 2199.82 191.616 Q2200.53 192.062 2203.59 192.062 L2205.12 192.062 L2205.12 193.537 Q2203.43 193.397 2197.34 193.397 Q2191.25 193.397 2189.59 193.537 L2189.59 192.062 L2191.11 192.062 Q2194.13 192.062 2194.86 191.64 Q2195.58 191.195 2195.58 189.743 L2195.58 164.891 Q2193.08 166.156 2189.28 166.156 Z" fill="#000000" fill-rule="nonzero" fill-opacity="1" /><path clip-path="url(#clip250)" d="M2184.28 206.337 L2215.14 206.337 L2215.14 203.777 L2184.28 203.777  Z" fill="#000000" fill-rule="evenodd" fill-opacity="1"/>
<path clip-path="url(#clip250)" d="M2210.28 230.699 Q2210.28 230.886 2210.07 231.612 Q2209.86 232.338 2209.34 233.463 Q2208.85 234.587 2208.17 235.617 Q2207.49 236.625 2206.37 237.374 Q2205.27 238.1 2204 238.1 Q2202.32 238.1 2201.19 236.976 Q2200.07 235.852 2200.07 234.165 Q2200.07 233.228 2200.56 231.94 Q2203.68 223.625 2203.68 220.768 Q2203.68 217.418 2201.08 217.418 Q2199.79 217.418 2198.57 217.91 Q2197.38 218.379 2196.56 219.034 Q2195.74 219.69 2194.99 220.604 Q2194.26 221.494 2193.89 222.103 Q2193.53 222.688 2193.25 223.274 L2192.64 225.663 Q2192.5 226.319 2191.82 228.872 L2190.77 233.205 Q2190.02 236.437 2189.86 236.742 Q2189.62 237.398 2189.11 237.749 Q2188.59 238.1 2188.08 238.1 Q2187.49 238.1 2187.09 237.749 Q2186.69 237.398 2186.69 236.789 Q2186.69 236.695 2186.77 236.344 Q2186.84 235.992 2186.95 235.5 Q2187.07 235.008 2187.12 234.727 L2189.9 223.649 Q2190.42 221.634 2190.54 221.002 Q2190.68 220.346 2190.68 219.62 Q2190.68 217.418 2189.18 217.418 Q2187.96 217.418 2187.16 218.87 Q2186.37 220.323 2185.69 223.133 Q2185.48 223.906 2185.34 224.07 Q2185.22 224.234 2184.87 224.234 Q2184.28 224.211 2184.28 223.742 Q2184.28 223.625 2184.47 222.852 Q2184.66 222.079 2185.01 220.978 Q2185.38 219.854 2185.73 219.105 Q2186.04 218.542 2186.2 218.285 Q2186.39 218.004 2186.84 217.465 Q2187.3 216.903 2187.91 216.645 Q2188.55 216.364 2189.32 216.364 Q2191.05 216.364 2192.32 217.488 Q2193.58 218.589 2193.75 220.533 Q2196.86 216.364 2201.22 216.364 Q2203.79 216.364 2205.27 217.723 Q2206.74 219.081 2206.74 221.494 Q2206.74 222.056 2206.63 222.782 Q2206.53 223.485 2206.3 224.375 Q2206.09 225.265 2205.9 225.944 Q2205.71 226.623 2205.34 227.724 Q2204.96 228.802 2204.8 229.27 Q2204.64 229.738 2204.24 230.839 Q2203.86 231.917 2203.82 232.034 Q2202.95 234.212 2202.95 235.453 Q2202.95 236.273 2203.21 236.648 Q2203.49 237.023 2204.1 237.023 Q2205.74 237.023 2206.96 235.407 Q2208.2 233.767 2208.99 231.097 Q2209.18 230.511 2209.27 230.371 Q2209.39 230.23 2209.72 230.23 Q2210.28 230.23 2210.28 230.699 Z" fill="#000000" fill-rule="nonzero" fill-opacity="1" /><polyline clip-path="url(#clip250)" style="stroke:#000000; stroke-linecap:round; stroke-linejoin:round; stroke-width:4; stroke-opacity:1; fill:none" points="2313.01,1423.18 2313.01,78.9921 "/>
<polyline clip-path="url(#clip250)" style="stroke:#000000; stroke-linecap:round; stroke-linejoin:round; stroke-width:4; stroke-opacity:1; fill:none" points="2313.01,1395.17 2294.11,1395.17 "/>
<polyline clip-path="url(#clip250)" style="stroke:#000000; stroke-linecap:round; stroke-linejoin:round; stroke-width:4; stroke-opacity:1; fill:none" points="2313.01,1194.49 2294.11,1194.49 "/>
<polyline clip-path="url(#clip250)" style="stroke:#000000; stroke-linecap:round; stroke-linejoin:round; stroke-width:4; stroke-opacity:1; fill:none" points="2313.01,993.804 2294.11,993.804 "/>
<polyline clip-path="url(#clip250)" style="stroke:#000000; stroke-linecap:round; stroke-linejoin:round; stroke-width:4; stroke-opacity:1; fill:none" points="2313.01,793.121 2294.11,793.121 "/>
<polyline clip-path="url(#clip250)" style="stroke:#000000; stroke-linecap:round; stroke-linejoin:round; stroke-width:4; stroke-opacity:1; fill:none" points="2313.01,592.438 2294.11,592.438 "/>
<polyline clip-path="url(#clip250)" style="stroke:#000000; stroke-linecap:round; stroke-linejoin:round; stroke-width:4; stroke-opacity:1; fill:none" points="2313.01,391.754 2294.11,391.754 "/>
<polyline clip-path="url(#clip250)" style="stroke:#000000; stroke-linecap:round; stroke-linejoin:round; stroke-width:4; stroke-opacity:1; fill:none" points="2313.01,191.071 2294.11,191.071 "/>
<polyline clip-path="url(#clip250)" style="stroke:#000000; stroke-linecap:round; stroke-linejoin:round; stroke-width:4; stroke-opacity:1; fill:none" points="226.108,78.9921 2313.01,78.9921 "/>
<polyline clip-path="url(#clip250)" style="stroke:#000000; stroke-linecap:round; stroke-linejoin:round; stroke-width:4; stroke-opacity:1; fill:none" points="285.171,78.9921 285.171,97.8898 "/>
<polyline clip-path="url(#clip250)" style="stroke:#000000; stroke-linecap:round; stroke-linejoin:round; stroke-width:4; stroke-opacity:1; fill:none" points="777.365,78.9921 777.365,97.8898 "/>
<polyline clip-path="url(#clip250)" style="stroke:#000000; stroke-linecap:round; stroke-linejoin:round; stroke-width:4; stroke-opacity:1; fill:none" points="1269.56,78.9921 1269.56,97.8898 "/>
<polyline clip-path="url(#clip250)" style="stroke:#000000; stroke-linecap:round; stroke-linejoin:round; stroke-width:4; stroke-opacity:1; fill:none" points="1761.75,78.9921 1761.75,97.8898 "/>
<polyline clip-path="url(#clip250)" style="stroke:#000000; stroke-linecap:round; stroke-linejoin:round; stroke-width:4; stroke-opacity:1; fill:none" points="2253.94,78.9921 2253.94,97.8898 "/>
</svg>
