<?xml version="1.0" encoding="UTF-8"?>
<svg xmlns="http://www.w3.org/2000/svg" xmlns:xlink="http://www.w3.org/1999/xlink" width="600pt" height="450pt" viewBox="0 0 600 450" version="1.1">
<defs>
<g>
<symbol overflow="visible" id="9Eec4VDS0-0">
<path style="stroke:none;" d=""/>
</symbol>
<symbol overflow="visible" id="9Eec4VDS0-1">
<path style="stroke:none;" d="M 6.890625 -6.109375 C 6.796875 -6.46875 6.484375 -6.46875 6.1875 -6.46875 L 2 -6.46875 C 1.6875 -6.46875 1.109375 -6.46875 0.625 -5.765625 C 0.265625 -5.21875 0.03125 -4.5 0.0625 -4.40625 C 0.0625 -4.40625 0.09375 -4.265625 0.265625 -4.265625 C 0.390625 -4.265625 0.40625 -4.3125 0.46875 -4.4375 C 0.921875 -5.59375 1.765625 -5.59375 2.078125 -5.59375 L 3.328125 -5.59375 L 3.0625 -0.78125 C 3.046875 -0.59375 3.03125 -0.28125 3.046875 -0.21875 C 3.09375 -0.0625 3.25 0.1875 3.578125 0.1875 C 4.078125 0.1875 4.046875 -0.234375 4.03125 -0.46875 L 3.765625 -5.59375 L 6.28125 -5.59375 C 6.484375 -5.59375 7.015625 -5.59375 6.890625 -6.109375 Z M 6.890625 -6.109375 "/>
</symbol>
<symbol overflow="visible" id="9Eec4VDS1-0">
<path style="stroke:none;" d=""/>
</symbol>
<symbol overflow="visible" id="9Eec4VDS1-1">
<path style="stroke:none;" d="M 4.984375 3.5625 C 4.984375 3.53125 4.953125 3.484375 4.921875 3.453125 C 3.359375 2.28125 2.328125 -0.71875 2.328125 -3.125 L 2.328125 -4.375 C 2.328125 -6.78125 3.359375 -9.78125 4.921875 -10.953125 C 4.953125 -10.984375 4.984375 -11.03125 4.984375 -11.0625 C 4.984375 -11.140625 4.90625 -11.21875 4.828125 -11.21875 C 4.796875 -11.21875 4.765625 -11.203125 4.734375 -11.1875 C 3.09375 -9.9375 1.515625 -6.9375 1.515625 -4.375 L 1.515625 -3.125 C 1.515625 -0.5625 3.09375 2.4375 4.734375 3.6875 C 4.765625 3.703125 4.796875 3.71875 4.828125 3.71875 C 4.90625 3.71875 4.984375 3.640625 4.984375 3.5625 Z M 4.984375 3.5625 "/>
</symbol>
<symbol overflow="visible" id="9Eec4VDS2-0">
<path style="stroke:none;" d=""/>
</symbol>
<symbol overflow="visible" id="9Eec4VDS2-1">
<path style="stroke:none;" d="M 7.65625 -4.296875 C 7.65625 -5.890625 6.75 -6.625 5.84375 -6.625 C 5.109375 -6.625 4.46875 -6.09375 4.03125 -5.578125 C 3.859375 -6.453125 3.1875 -6.625 2.8125 -6.625 C 2.265625 -6.625 1.96875 -6.28125 1.71875 -5.828125 C 1.4375 -5.234375 1.25 -4.3125 1.25 -4.3125 C 1.25 -4.171875 1.390625 -4.171875 1.46875 -4.171875 C 1.671875 -4.171875 1.6875 -4.1875 1.75 -4.515625 C 2.03125 -5.5625 2.3125 -6.296875 2.78125 -6.296875 C 3.171875 -6.296875 3.171875 -5.859375 3.171875 -5.703125 C 3.171875 -5.609375 3.171875 -5.375 3.0625 -4.953125 L 1.34375 1.921875 C 1.234375 2.390625 1.109375 2.4375 0.53125 2.4375 C 0.390625 2.4375 0.203125 2.4375 0.203125 2.734375 C 0.203125 2.828125 0.28125 2.90625 0.390625 2.90625 C 0.796875 2.90625 1.234375 2.859375 1.65625 2.859375 C 2.125 2.859375 2.640625 2.90625 3.109375 2.90625 C 3.1875 2.90625 3.390625 2.90625 3.390625 2.625 C 3.390625 2.4375 3.234375 2.4375 3.03125 2.4375 C 2.265625 2.4375 2.265625 2.359375 2.265625 2.203125 C 2.265625 2.109375 2.375 1.71875 2.4375 1.484375 L 2.96875 -0.703125 C 3.078125 -0.453125 3.453125 0.171875 4.234375 0.171875 C 5.859375 0.171875 7.65625 -2.0625 7.65625 -4.296875 Z M 5.8125 -1.59375 C 5.625 -1.21875 4.984375 -0.171875 4.21875 -0.171875 C 3.34375 -0.171875 3.1875 -1.4375 3.1875 -1.5625 C 3.1875 -1.609375 3.203125 -1.65625 3.234375 -1.765625 L 3.9375 -4.609375 C 4.0625 -5.109375 5 -6.296875 5.8125 -6.296875 C 6.5 -6.296875 6.640625 -5.4375 6.640625 -4.96875 C 6.640625 -4.328125 6.234375 -2.546875 5.8125 -1.59375 Z M 5.8125 -1.59375 "/>
</symbol>
<symbol overflow="visible" id="9Eec4VDS2-2">
<path style="stroke:none;" d="M 5.890625 -2.359375 C 5.890625 -3.65625 4.71875 -3.9375 4.109375 -4.0625 C 3.6875 -4.15625 3.15625 -4.28125 3.15625 -4.921875 C 3.15625 -5.28125 3.46875 -6.296875 4.671875 -6.296875 C 5.0625 -6.296875 5.625 -6.15625 5.796875 -5.5625 C 5.3125 -5.5 5.1875 -5.09375 5.1875 -4.953125 C 5.1875 -4.78125 5.28125 -4.53125 5.640625 -4.53125 C 5.890625 -4.53125 6.28125 -4.703125 6.28125 -5.359375 C 6.28125 -6.046875 5.671875 -6.625 4.6875 -6.625 C 2.921875 -6.625 2.3125 -5.1875 2.3125 -4.40625 C 2.3125 -3.25 3.28125 -3.046875 3.703125 -2.953125 C 4.359375 -2.8125 5.046875 -2.65625 5.046875 -1.84375 C 5.046875 -1.359375 4.640625 -0.171875 3.09375 -0.171875 C 2.765625 -0.171875 1.890625 -0.234375 1.65625 -1 C 2.421875 -1.078125 2.421875 -1.734375 2.421875 -1.734375 C 2.421875 -2.03125 2.21875 -2.21875 1.90625 -2.21875 C 1.5625 -2.21875 1.140625 -1.96875 1.140625 -1.296875 C 1.140625 -0.375 2.015625 0.171875 3.078125 0.171875 C 5.328125 0.171875 5.890625 -1.671875 5.890625 -2.359375 Z M 5.890625 -2.359375 "/>
</symbol>
<symbol overflow="visible" id="9Eec4VDS3-0">
<path style="stroke:none;" d=""/>
</symbol>
<symbol overflow="visible" id="9Eec4VDS3-1">
<path style="stroke:none;" d="M 4.3125 -3.125 L 4.3125 -4.375 C 4.3125 -6.9375 2.75 -9.9375 1.09375 -11.1875 C 1.0625 -11.203125 1.03125 -11.21875 1 -11.21875 C 0.9375 -11.21875 0.859375 -11.140625 0.859375 -11.0625 C 0.859375 -11.03125 0.890625 -10.984375 0.921875 -10.953125 C 2.46875 -9.78125 3.515625 -6.78125 3.515625 -4.375 L 3.515625 -3.125 C 3.515625 -0.71875 2.46875 2.28125 0.921875 3.453125 C 0.890625 3.484375 0.859375 3.53125 0.859375 3.5625 C 0.859375 3.640625 0.9375 3.71875 1 3.71875 C 1.03125 3.71875 1.0625 3.703125 1.09375 3.6875 C 2.75 2.4375 4.3125 -0.5625 4.3125 -3.125 Z M 4.3125 -3.125 "/>
</symbol>
<symbol overflow="visible" id="9Eec4VDS4-0">
<path style="stroke:none;" d="M 0.59375 2.125 L 0.59375 -8.46875 L 6.59375 -8.46875 L 6.59375 2.125 Z M 1.265625 1.453125 L 5.9375 1.453125 L 5.9375 -7.78125 L 1.265625 -7.78125 Z M 1.265625 1.453125 "/>
</symbol>
<symbol overflow="visible" id="9Eec4VDS4-1">
<path style="stroke:none;" d="M 3.8125 -7.96875 C 3.207031 -7.96875 2.75 -7.664062 2.4375 -7.0625 C 2.132812 -6.46875 1.984375 -5.566406 1.984375 -4.359375 C 1.984375 -3.160156 2.132812 -2.257812 2.4375 -1.65625 C 2.75 -1.0625 3.207031 -0.765625 3.8125 -0.765625 C 4.425781 -0.765625 4.882812 -1.0625 5.1875 -1.65625 C 5.5 -2.257812 5.65625 -3.160156 5.65625 -4.359375 C 5.65625 -5.566406 5.5 -6.46875 5.1875 -7.0625 C 4.882812 -7.664062 4.425781 -7.96875 3.8125 -7.96875 Z M 3.8125 -8.90625 C 4.789062 -8.90625 5.539062 -8.515625 6.0625 -7.734375 C 6.582031 -6.960938 6.84375 -5.835938 6.84375 -4.359375 C 6.84375 -2.890625 6.582031 -1.765625 6.0625 -0.984375 C 5.539062 -0.210938 4.789062 0.171875 3.8125 0.171875 C 2.832031 0.171875 2.082031 -0.210938 1.5625 -0.984375 C 1.050781 -1.765625 0.796875 -2.890625 0.796875 -4.359375 C 0.796875 -5.835938 1.050781 -6.960938 1.5625 -7.734375 C 2.082031 -8.515625 2.832031 -8.90625 3.8125 -8.90625 Z M 3.8125 -8.90625 "/>
</symbol>
<symbol overflow="visible" id="9Eec4VDS4-2">
<path style="stroke:none;" d="M 1.28125 -1.484375 L 2.515625 -1.484375 L 2.515625 0 L 1.28125 0 Z M 1.28125 -1.484375 "/>
</symbol>
<symbol overflow="visible" id="9Eec4VDS4-3">
<path style="stroke:none;" d="M 1.296875 -8.75 L 5.9375 -8.75 L 5.9375 -7.75 L 2.375 -7.75 L 2.375 -5.609375 C 2.550781 -5.671875 2.722656 -5.710938 2.890625 -5.734375 C 3.066406 -5.765625 3.238281 -5.78125 3.40625 -5.78125 C 4.382812 -5.78125 5.160156 -5.507812 5.734375 -4.96875 C 6.304688 -4.4375 6.59375 -3.71875 6.59375 -2.8125 C 6.59375 -1.863281 6.296875 -1.128906 5.703125 -0.609375 C 5.117188 -0.0859375 4.296875 0.171875 3.234375 0.171875 C 2.859375 0.171875 2.476562 0.140625 2.09375 0.078125 C 1.71875 0.015625 1.328125 -0.078125 0.921875 -0.203125 L 0.921875 -1.390625 C 1.273438 -1.203125 1.640625 -1.0625 2.015625 -0.96875 C 2.390625 -0.875 2.785156 -0.828125 3.203125 -0.828125 C 3.878906 -0.828125 4.414062 -1.003906 4.8125 -1.359375 C 5.207031 -1.710938 5.40625 -2.195312 5.40625 -2.8125 C 5.40625 -3.414062 5.207031 -3.894531 4.8125 -4.25 C 4.414062 -4.601562 3.878906 -4.78125 3.203125 -4.78125 C 2.890625 -4.78125 2.570312 -4.742188 2.25 -4.671875 C 1.9375 -4.609375 1.617188 -4.503906 1.296875 -4.359375 Z M 1.296875 -8.75 "/>
</symbol>
<symbol overflow="visible" id="9Eec4VDS5-0">
<path style="stroke:none;" d="M 0.59375 2.125 L 0.59375 -8.46875 L 6.59375 -8.46875 L 6.59375 2.125 Z M 1.265625 1.453125 L 5.9375 1.453125 L 5.9375 -7.78125 L 1.265625 -7.78125 Z M 1.265625 1.453125 "/>
</symbol>
<symbol overflow="visible" id="9Eec4VDS5-1">
<path style="stroke:none;" d="M 1.296875 -8.75 L 5.9375 -8.75 L 5.9375 -7.75 L 2.375 -7.75 L 2.375 -5.609375 C 2.550781 -5.671875 2.722656 -5.710938 2.890625 -5.734375 C 3.066406 -5.765625 3.238281 -5.78125 3.40625 -5.78125 C 4.382812 -5.78125 5.160156 -5.507812 5.734375 -4.96875 C 6.304688 -4.4375 6.59375 -3.71875 6.59375 -2.8125 C 6.59375 -1.863281 6.296875 -1.128906 5.703125 -0.609375 C 5.117188 -0.0859375 4.296875 0.171875 3.234375 0.171875 C 2.859375 0.171875 2.476562 0.140625 2.09375 0.078125 C 1.71875 0.015625 1.328125 -0.078125 0.921875 -0.203125 L 0.921875 -1.390625 C 1.273438 -1.203125 1.640625 -1.0625 2.015625 -0.96875 C 2.390625 -0.875 2.785156 -0.828125 3.203125 -0.828125 C 3.878906 -0.828125 4.414062 -1.003906 4.8125 -1.359375 C 5.207031 -1.710938 5.40625 -2.195312 5.40625 -2.8125 C 5.40625 -3.414062 5.207031 -3.894531 4.8125 -4.25 C 4.414062 -4.601562 3.878906 -4.78125 3.203125 -4.78125 C 2.890625 -4.78125 2.570312 -4.742188 2.25 -4.671875 C 1.9375 -4.609375 1.617188 -4.503906 1.296875 -4.359375 Z M 1.296875 -8.75 "/>
</symbol>
<symbol overflow="visible" id="9Eec4VDS5-2">
<path style="stroke:none;" d="M 3.8125 -7.96875 C 3.207031 -7.96875 2.75 -7.664062 2.4375 -7.0625 C 2.132812 -6.46875 1.984375 -5.566406 1.984375 -4.359375 C 1.984375 -3.160156 2.132812 -2.257812 2.4375 -1.65625 C 2.75 -1.0625 3.207031 -0.765625 3.8125 -0.765625 C 4.425781 -0.765625 4.882812 -1.0625 5.1875 -1.65625 C 5.5 -2.257812 5.65625 -3.160156 5.65625 -4.359375 C 5.65625 -5.566406 5.5 -6.46875 5.1875 -7.0625 C 4.882812 -7.664062 4.425781 -7.96875 3.8125 -7.96875 Z M 3.8125 -8.90625 C 4.789062 -8.90625 5.539062 -8.515625 6.0625 -7.734375 C 6.582031 -6.960938 6.84375 -5.835938 6.84375 -4.359375 C 6.84375 -2.890625 6.582031 -1.765625 6.0625 -0.984375 C 5.539062 -0.210938 4.789062 0.171875 3.8125 0.171875 C 2.832031 0.171875 2.082031 -0.210938 1.5625 -0.984375 C 1.050781 -1.765625 0.796875 -2.890625 0.796875 -4.359375 C 0.796875 -5.835938 1.050781 -6.960938 1.5625 -7.734375 C 2.082031 -8.515625 2.832031 -8.90625 3.8125 -8.90625 Z M 3.8125 -8.90625 "/>
</symbol>
<symbol overflow="visible" id="9Eec4VDS6-0">
<path style="stroke:none;" d="M 0.59375 2.125 L 0.59375 -8.46875 L 6.59375 -8.46875 L 6.59375 2.125 Z M 1.265625 1.453125 L 5.9375 1.453125 L 5.9375 -7.78125 L 1.265625 -7.78125 Z M 1.265625 1.453125 "/>
</symbol>
<symbol overflow="visible" id="9Eec4VDS6-1">
<path style="stroke:none;" d="M 3.8125 -7.96875 C 3.207031 -7.96875 2.75 -7.664062 2.4375 -7.0625 C 2.132812 -6.46875 1.984375 -5.566406 1.984375 -4.359375 C 1.984375 -3.160156 2.132812 -2.257812 2.4375 -1.65625 C 2.75 -1.0625 3.207031 -0.765625 3.8125 -0.765625 C 4.425781 -0.765625 4.882812 -1.0625 5.1875 -1.65625 C 5.5 -2.257812 5.65625 -3.160156 5.65625 -4.359375 C 5.65625 -5.566406 5.5 -6.46875 5.1875 -7.0625 C 4.882812 -7.664062 4.425781 -7.96875 3.8125 -7.96875 Z M 3.8125 -8.90625 C 4.789062 -8.90625 5.539062 -8.515625 6.0625 -7.734375 C 6.582031 -6.960938 6.84375 -5.835938 6.84375 -4.359375 C 6.84375 -2.890625 6.582031 -1.765625 6.0625 -0.984375 C 5.539062 -0.210938 4.789062 0.171875 3.8125 0.171875 C 2.832031 0.171875 2.082031 -0.210938 1.5625 -0.984375 C 1.050781 -1.765625 0.796875 -2.890625 0.796875 -4.359375 C 0.796875 -5.835938 1.050781 -6.960938 1.5625 -7.734375 C 2.082031 -8.515625 2.832031 -8.90625 3.8125 -8.90625 Z M 3.8125 -8.90625 "/>
</symbol>
<symbol overflow="visible" id="9Eec4VDS7-0">
<path style="stroke:none;" d="M 0.59375 2.125 L 0.59375 -8.46875 L 6.59375 -8.46875 L 6.59375 2.125 Z M 1.265625 1.453125 L 5.9375 1.453125 L 5.9375 -7.78125 L 1.265625 -7.78125 Z M 1.265625 1.453125 "/>
</symbol>
<symbol overflow="visible" id="9Eec4VDS7-1">
<path style="stroke:none;" d="M 1.484375 -1 L 3.421875 -1 L 3.421875 -7.671875 L 1.3125 -7.25 L 1.3125 -8.328125 L 3.40625 -8.75 L 4.59375 -8.75 L 4.59375 -1 L 6.53125 -1 L 6.53125 0 L 1.484375 0 Z M 1.484375 -1 "/>
</symbol>
<symbol overflow="visible" id="9Eec4VDS7-2">
<path style="stroke:none;" d="M 3.8125 -7.96875 C 3.207031 -7.96875 2.75 -7.664062 2.4375 -7.0625 C 2.132812 -6.46875 1.984375 -5.566406 1.984375 -4.359375 C 1.984375 -3.160156 2.132812 -2.257812 2.4375 -1.65625 C 2.75 -1.0625 3.207031 -0.765625 3.8125 -0.765625 C 4.425781 -0.765625 4.882812 -1.0625 5.1875 -1.65625 C 5.5 -2.257812 5.65625 -3.160156 5.65625 -4.359375 C 5.65625 -5.566406 5.5 -6.46875 5.1875 -7.0625 C 4.882812 -7.664062 4.425781 -7.96875 3.8125 -7.96875 Z M 3.8125 -8.90625 C 4.789062 -8.90625 5.539062 -8.515625 6.0625 -7.734375 C 6.582031 -6.960938 6.84375 -5.835938 6.84375 -4.359375 C 6.84375 -2.890625 6.582031 -1.765625 6.0625 -0.984375 C 5.539062 -0.210938 4.789062 0.171875 3.8125 0.171875 C 2.832031 0.171875 2.082031 -0.210938 1.5625 -0.984375 C 1.050781 -1.765625 0.796875 -2.890625 0.796875 -4.359375 C 0.796875 -5.835938 1.050781 -6.960938 1.5625 -7.734375 C 2.082031 -8.515625 2.832031 -8.90625 3.8125 -8.90625 Z M 3.8125 -8.90625 "/>
</symbol>
<symbol overflow="visible" id="9Eec4VDS8-0">
<path style="stroke:none;" d="M 0.59375 2.125 L 0.59375 -8.46875 L 6.59375 -8.46875 L 6.59375 2.125 Z M 1.265625 1.453125 L 5.9375 1.453125 L 5.9375 -7.78125 L 1.265625 -7.78125 Z M 1.265625 1.453125 "/>
</symbol>
<symbol overflow="visible" id="9Eec4VDS8-1">
<path style="stroke:none;" d="M 3.8125 -7.96875 C 3.207031 -7.96875 2.75 -7.664062 2.4375 -7.0625 C 2.132812 -6.46875 1.984375 -5.566406 1.984375 -4.359375 C 1.984375 -3.160156 2.132812 -2.257812 2.4375 -1.65625 C 2.75 -1.0625 3.207031 -0.765625 3.8125 -0.765625 C 4.425781 -0.765625 4.882812 -1.0625 5.1875 -1.65625 C 5.5 -2.257812 5.65625 -3.160156 5.65625 -4.359375 C 5.65625 -5.566406 5.5 -6.46875 5.1875 -7.0625 C 4.882812 -7.664062 4.425781 -7.96875 3.8125 -7.96875 Z M 3.8125 -8.90625 C 4.789062 -8.90625 5.539062 -8.515625 6.0625 -7.734375 C 6.582031 -6.960938 6.84375 -5.835938 6.84375 -4.359375 C 6.84375 -2.890625 6.582031 -1.765625 6.0625 -0.984375 C 5.539062 -0.210938 4.789062 0.171875 3.8125 0.171875 C 2.832031 0.171875 2.082031 -0.210938 1.5625 -0.984375 C 1.050781 -1.765625 0.796875 -2.890625 0.796875 -4.359375 C 0.796875 -5.835938 1.050781 -6.960938 1.5625 -7.734375 C 2.082031 -8.515625 2.832031 -8.90625 3.8125 -8.90625 Z M 3.8125 -8.90625 "/>
</symbol>
<symbol overflow="visible" id="9Eec4VDS9-0">
<path style="stroke:none;" d="M 0.59375 2.125 L 0.59375 -8.46875 L 6.59375 -8.46875 L 6.59375 2.125 Z M 1.265625 1.453125 L 5.9375 1.453125 L 5.9375 -7.78125 L 1.265625 -7.78125 Z M 1.265625 1.453125 "/>
</symbol>
<symbol overflow="visible" id="9Eec4VDS9-1">
<path style="stroke:none;" d="M 3.8125 -7.96875 C 3.207031 -7.96875 2.75 -7.664062 2.4375 -7.0625 C 2.132812 -6.46875 1.984375 -5.566406 1.984375 -4.359375 C 1.984375 -3.160156 2.132812 -2.257812 2.4375 -1.65625 C 2.75 -1.0625 3.207031 -0.765625 3.8125 -0.765625 C 4.425781 -0.765625 4.882812 -1.0625 5.1875 -1.65625 C 5.5 -2.257812 5.65625 -3.160156 5.65625 -4.359375 C 5.65625 -5.566406 5.5 -6.46875 5.1875 -7.0625 C 4.882812 -7.664062 4.425781 -7.96875 3.8125 -7.96875 Z M 3.8125 -8.90625 C 4.789062 -8.90625 5.539062 -8.515625 6.0625 -7.734375 C 6.582031 -6.960938 6.84375 -5.835938 6.84375 -4.359375 C 6.84375 -2.890625 6.582031 -1.765625 6.0625 -0.984375 C 5.539062 -0.210938 4.789062 0.171875 3.8125 0.171875 C 2.832031 0.171875 2.082031 -0.210938 1.5625 -0.984375 C 1.050781 -1.765625 0.796875 -2.890625 0.796875 -4.359375 C 0.796875 -5.835938 1.050781 -6.960938 1.5625 -7.734375 C 2.082031 -8.515625 2.832031 -8.90625 3.8125 -8.90625 Z M 3.8125 -8.90625 "/>
</symbol>
<symbol overflow="visible" id="9Eec4VDS10-0">
<path style="stroke:none;" d=""/>
</symbol>
<symbol overflow="visible" id="9Eec4VDS10-1">
<path style="stroke:none;" d="M 0.9375 -5.609375 L -5.625 -7.25 C -5.84375 -7.3125 -5.875 -7.3125 -5.9375 -7.3125 C -6.25 -7.3125 -6.328125 -7.046875 -6.328125 -6.90625 C -6.328125 -6.71875 -6.203125 -6.375 -5.78125 -6.3125 C -6.203125 -6.109375 -6.625 -5.703125 -6.625 -5.0625 C -6.625 -3.375 -4.40625 -1.65625 -2.296875 -1.65625 C -1.015625 -1.65625 0 -2.359375 0 -3.484375 C 0 -4.25 -0.609375 -4.890625 -0.796875 -5.0625 L 0.46875 -4.75 C 1.21875 -4.578125 1.53125 -4.484375 2.046875 -4.0625 C 2.75 -3.46875 2.75 -2.859375 2.75 -2.640625 C 2.75 -2.4375 2.75 -1.984375 2.578125 -1.578125 C 2.453125 -1.875 2.140625 -2.0625 1.890625 -2.0625 C 1.6875 -2.0625 1.40625 -1.921875 1.40625 -1.53125 C 1.40625 -1.265625 1.625 -0.796875 2.203125 -0.796875 C 2.8125 -0.796875 3.078125 -1.34375 3.078125 -2.609375 C 3.078125 -4.1875 2.078125 -5.328125 0.9375 -5.609375 Z M -1.984375 -5.375 C -1.5 -5.25 -0.328125 -4.328125 -0.328125 -3.515625 C -0.328125 -2.703125 -1.46875 -2.671875 -1.640625 -2.671875 C -2.359375 -2.671875 -4.109375 -3.125 -4.8125 -3.4375 C -5.625 -3.8125 -6.296875 -4.46875 -6.296875 -5.0625 C -6.296875 -5.953125 -5.046875 -6.09375 -4.921875 -6.09375 L -4.703125 -6.046875 Z M -1.984375 -5.375 "/>
</symbol>
<symbol overflow="visible" id="9Eec4VDS11-0">
<path style="stroke:none;" d=""/>
</symbol>
<symbol overflow="visible" id="9Eec4VDS11-1">
<path style="stroke:none;" d="M 2.140625 -2.984375 C 2.109375 -2.984375 2.09375 -2.96875 2.0625 -2.953125 C 1.375 -2.015625 -0.4375 -1.390625 -1.875 -1.390625 L -2.625 -1.390625 C -4.0625 -1.390625 -5.875 -2.015625 -6.5625 -2.953125 C -6.59375 -2.96875 -6.609375 -2.984375 -6.640625 -2.984375 C -6.6875 -2.984375 -6.734375 -2.9375 -6.734375 -2.890625 C -6.734375 -2.875 -6.71875 -2.859375 -6.71875 -2.84375 C -5.96875 -1.859375 -4.171875 -0.90625 -2.625 -0.90625 L -1.875 -0.90625 C -0.328125 -0.90625 1.46875 -1.859375 2.21875 -2.84375 C 2.21875 -2.859375 2.234375 -2.875 2.234375 -2.890625 C 2.234375 -2.9375 2.1875 -2.984375 2.140625 -2.984375 Z M 2.140625 -2.984375 "/>
</symbol>
<symbol overflow="visible" id="9Eec4VDS12-0">
<path style="stroke:none;" d="M 0 -0.453125 L 0 -4.046875 L -4.828125 -4.046875 L -4.828125 -0.453125 Z M -0.453125 -0.90625 L -4.390625 -0.90625 L -4.390625 -3.59375 L -0.453125 -3.59375 Z M -0.453125 -0.90625 "/>
</symbol>
<symbol overflow="visible" id="9Eec4VDS12-1">
<path style="stroke:none;" d="M -1.5625 -4.046875 L -1.5625 -3.8125 C -1.296875 -3.765625 -0.90625 -3.703125 -0.765625 -3.625 C -0.6875 -3.5625 -0.6875 -2.96875 -0.6875 -2.765625 L -0.6875 -1.140625 L -1.625 -2.09375 C -2.859375 -3.5 -3.34375 -4.046875 -4.25 -4.046875 C -5.28125 -4.046875 -6 -3.234375 -6 -2.140625 C -6 -1.109375 -5.171875 -0.453125 -4.359375 -0.453125 C -3.859375 -0.453125 -3.859375 -0.90625 -3.859375 -0.921875 C -3.859375 -1.078125 -3.96875 -1.390625 -4.34375 -1.390625 C -4.578125 -1.390625 -4.8125 -1.234375 -4.8125 -0.921875 C -4.8125 -0.84375 -4.8125 -0.828125 -4.796875 -0.796875 C -5.375 -1.015625 -5.71875 -1.5 -5.71875 -2.015625 C -5.71875 -2.828125 -4.984375 -3.21875 -4.25 -3.21875 C -3.53125 -3.21875 -2.8125 -2.765625 -2.265625 -2.28125 L -0.328125 -0.546875 C -0.234375 -0.453125 -0.21875 -0.453125 0 -0.453125 L 0 -3.78125 Z M -1.5625 -4.046875 "/>
</symbol>
<symbol overflow="visible" id="9Eec4VDS13-0">
<path style="stroke:none;" d=""/>
</symbol>
<symbol overflow="visible" id="9Eec4VDS13-1">
<path style="stroke:none;" d="M -1.875 -2.59375 L -2.625 -2.59375 C -4.171875 -2.59375 -5.96875 -1.640625 -6.71875 -0.65625 C -6.71875 -0.640625 -6.734375 -0.625 -6.734375 -0.609375 C -6.734375 -0.5625 -6.6875 -0.515625 -6.640625 -0.515625 C -6.609375 -0.515625 -6.59375 -0.53125 -6.5625 -0.546875 C -5.875 -1.484375 -4.0625 -2.109375 -2.625 -2.109375 L -1.875 -2.109375 C -0.4375 -2.109375 1.375 -1.484375 2.0625 -0.546875 C 2.09375 -0.53125 2.109375 -0.515625 2.140625 -0.515625 C 2.1875 -0.515625 2.234375 -0.5625 2.234375 -0.609375 C 2.234375 -0.625 2.21875 -0.640625 2.21875 -0.65625 C 1.46875 -1.640625 -0.328125 -2.59375 -1.875 -2.59375 Z M -1.875 -2.59375 "/>
</symbol>
<symbol overflow="visible" id="9Eec4VDS14-0">
<path style="stroke:none;" d=""/>
</symbol>
<symbol overflow="visible" id="9Eec4VDS14-1">
<path style="stroke:none;" d="M 3.5625 -4.984375 C 3.53125 -4.984375 3.484375 -4.953125 3.453125 -4.921875 C 2.28125 -3.359375 -0.71875 -2.328125 -3.125 -2.328125 L -4.375 -2.328125 C -6.78125 -2.328125 -9.78125 -3.359375 -10.953125 -4.921875 C -10.984375 -4.953125 -11.03125 -4.984375 -11.0625 -4.984375 C -11.140625 -4.984375 -11.21875 -4.90625 -11.21875 -4.828125 C -11.21875 -4.796875 -11.203125 -4.765625 -11.1875 -4.734375 C -9.9375 -3.09375 -6.9375 -1.515625 -4.375 -1.515625 L -3.125 -1.515625 C -0.5625 -1.515625 2.4375 -3.09375 3.6875 -4.734375 C 3.703125 -4.765625 3.71875 -4.796875 3.71875 -4.828125 C 3.71875 -4.90625 3.640625 -4.984375 3.5625 -4.984375 Z M 3.5625 -4.984375 "/>
</symbol>
<symbol overflow="visible" id="9Eec4VDS14-2">
<path style="stroke:none;" d="M -3.125 -4.3125 L -4.375 -4.3125 C -6.9375 -4.3125 -9.9375 -2.75 -11.1875 -1.09375 C -11.203125 -1.0625 -11.21875 -1.03125 -11.21875 -1 C -11.21875 -0.9375 -11.140625 -0.859375 -11.0625 -0.859375 C -11.03125 -0.859375 -10.984375 -0.890625 -10.953125 -0.921875 C -9.78125 -2.46875 -6.78125 -3.515625 -4.375 -3.515625 L -3.125 -3.515625 C -0.71875 -3.515625 2.28125 -2.46875 3.453125 -0.921875 C 3.484375 -0.890625 3.53125 -0.859375 3.5625 -0.859375 C 3.640625 -0.859375 3.71875 -0.9375 3.71875 -1 C 3.71875 -1.03125 3.703125 -1.0625 3.6875 -1.09375 C 2.4375 -2.75 -0.5625 -4.3125 -3.125 -4.3125 Z M -3.125 -4.3125 "/>
</symbol>
<symbol overflow="visible" id="9Eec4VDS15-0">
<path style="stroke:none;" d=""/>
</symbol>
<symbol overflow="visible" id="9Eec4VDS15-1">
<path style="stroke:none;" d="M -6.109375 -6.890625 C -6.46875 -6.796875 -6.46875 -6.484375 -6.46875 -6.1875 L -6.46875 -2 C -6.46875 -1.6875 -6.46875 -1.109375 -5.765625 -0.625 C -5.21875 -0.265625 -4.5 -0.03125 -4.40625 -0.0625 C -4.40625 -0.0625 -4.265625 -0.09375 -4.265625 -0.265625 C -4.265625 -0.390625 -4.3125 -0.40625 -4.4375 -0.46875 C -5.59375 -0.921875 -5.59375 -1.765625 -5.59375 -2.078125 L -5.59375 -3.328125 L -0.78125 -3.0625 C -0.59375 -3.046875 -0.28125 -3.03125 -0.21875 -3.046875 C -0.0625 -3.09375 0.1875 -3.25 0.1875 -3.578125 C 0.1875 -4.078125 -0.234375 -4.046875 -0.46875 -4.03125 L -5.59375 -3.765625 L -5.59375 -6.28125 C -5.59375 -6.484375 -5.59375 -7.015625 -6.109375 -6.890625 Z M -6.109375 -6.890625 "/>
</symbol>
<symbol overflow="visible" id="9Eec4VDS16-0">
<path style="stroke:none;" d="M 0.59375 2.125 L 0.59375 -8.46875 L 6.59375 -8.46875 L 6.59375 2.125 Z M 1.265625 1.453125 L 5.9375 1.453125 L 5.9375 -7.78125 L 1.265625 -7.78125 Z M 1.265625 1.453125 "/>
</symbol>
<symbol overflow="visible" id="9Eec4VDS16-1">
<path style="stroke:none;" d="M 3.8125 -7.96875 C 3.207031 -7.96875 2.75 -7.664062 2.4375 -7.0625 C 2.132812 -6.46875 1.984375 -5.566406 1.984375 -4.359375 C 1.984375 -3.160156 2.132812 -2.257812 2.4375 -1.65625 C 2.75 -1.0625 3.207031 -0.765625 3.8125 -0.765625 C 4.425781 -0.765625 4.882812 -1.0625 5.1875 -1.65625 C 5.5 -2.257812 5.65625 -3.160156 5.65625 -4.359375 C 5.65625 -5.566406 5.5 -6.46875 5.1875 -7.0625 C 4.882812 -7.664062 4.425781 -7.96875 3.8125 -7.96875 Z M 3.8125 -8.90625 C 4.789062 -8.90625 5.539062 -8.515625 6.0625 -7.734375 C 6.582031 -6.960938 6.84375 -5.835938 6.84375 -4.359375 C 6.84375 -2.890625 6.582031 -1.765625 6.0625 -0.984375 C 5.539062 -0.210938 4.789062 0.171875 3.8125 0.171875 C 2.832031 0.171875 2.082031 -0.210938 1.5625 -0.984375 C 1.050781 -1.765625 0.796875 -2.890625 0.796875 -4.359375 C 0.796875 -5.835938 1.050781 -6.960938 1.5625 -7.734375 C 2.082031 -8.515625 2.832031 -8.90625 3.8125 -8.90625 Z M 3.8125 -8.90625 "/>
</symbol>
<symbol overflow="visible" id="9Eec4VDS17-0">
<path style="stroke:none;" d="M 0.59375 2.125 L 0.59375 -8.46875 L 6.59375 -8.46875 L 6.59375 2.125 Z M 1.265625 1.453125 L 5.9375 1.453125 L 5.9375 -7.78125 L 1.265625 -7.78125 Z M 1.265625 1.453125 "/>
</symbol>
<symbol overflow="visible" id="9Eec4VDS17-1">
<path style="stroke:none;" d="M 1.28125 -1.484375 L 2.515625 -1.484375 L 2.515625 0 L 1.28125 0 Z M 1.28125 -1.484375 "/>
</symbol>
<symbol overflow="visible" id="9Eec4VDS18-0">
<path style="stroke:none;" d="M 0.59375 2.125 L 0.59375 -8.46875 L 6.59375 -8.46875 L 6.59375 2.125 Z M 1.265625 1.453125 L 5.9375 1.453125 L 5.9375 -7.78125 L 1.265625 -7.78125 Z M 1.265625 1.453125 "/>
</symbol>
<symbol overflow="visible" id="9Eec4VDS18-1">
<path style="stroke:none;" d="M 1.484375 -1 L 3.421875 -1 L 3.421875 -7.671875 L 1.3125 -7.25 L 1.3125 -8.328125 L 3.40625 -8.75 L 4.59375 -8.75 L 4.59375 -1 L 6.53125 -1 L 6.53125 0 L 1.484375 0 Z M 1.484375 -1 "/>
</symbol>
<symbol overflow="visible" id="9Eec4VDS19-0">
<path style="stroke:none;" d="M 0.59375 2.125 L 0.59375 -8.46875 L 6.59375 -8.46875 L 6.59375 2.125 Z M 1.265625 1.453125 L 5.9375 1.453125 L 5.9375 -7.78125 L 1.265625 -7.78125 Z M 1.265625 1.453125 "/>
</symbol>
<symbol overflow="visible" id="9Eec4VDS19-1">
<path style="stroke:none;" d="M 1.28125 -1.484375 L 2.515625 -1.484375 L 2.515625 0 L 1.28125 0 Z M 1.28125 -1.484375 "/>
</symbol>
<symbol overflow="visible" id="9Eec4VDS19-2">
<path style="stroke:none;" d="M 3.8125 -7.96875 C 3.207031 -7.96875 2.75 -7.664062 2.4375 -7.0625 C 2.132812 -6.46875 1.984375 -5.566406 1.984375 -4.359375 C 1.984375 -3.160156 2.132812 -2.257812 2.4375 -1.65625 C 2.75 -1.0625 3.207031 -0.765625 3.8125 -0.765625 C 4.425781 -0.765625 4.882812 -1.0625 5.1875 -1.65625 C 5.5 -2.257812 5.65625 -3.160156 5.65625 -4.359375 C 5.65625 -5.566406 5.5 -6.46875 5.1875 -7.0625 C 4.882812 -7.664062 4.425781 -7.96875 3.8125 -7.96875 Z M 3.8125 -8.90625 C 4.789062 -8.90625 5.539062 -8.515625 6.0625 -7.734375 C 6.582031 -6.960938 6.84375 -5.835938 6.84375 -4.359375 C 6.84375 -2.890625 6.582031 -1.765625 6.0625 -0.984375 C 5.539062 -0.210938 4.789062 0.171875 3.8125 0.171875 C 2.832031 0.171875 2.082031 -0.210938 1.5625 -0.984375 C 1.050781 -1.765625 0.796875 -2.890625 0.796875 -4.359375 C 0.796875 -5.835938 1.050781 -6.960938 1.5625 -7.734375 C 2.082031 -8.515625 2.832031 -8.90625 3.8125 -8.90625 Z M 3.8125 -8.90625 "/>
</symbol>
<symbol overflow="visible" id="9Eec4VDS20-0">
<path style="stroke:none;" d="M 0.59375 2.125 L 0.59375 -8.46875 L 6.59375 -8.46875 L 6.59375 2.125 Z M 1.265625 1.453125 L 5.9375 1.453125 L 5.9375 -7.78125 L 1.265625 -7.78125 Z M 1.265625 1.453125 "/>
</symbol>
<symbol overflow="visible" id="9Eec4VDS20-1">
<path style="stroke:none;" d="M 1.484375 -1 L 3.421875 -1 L 3.421875 -7.671875 L 1.3125 -7.25 L 1.3125 -8.328125 L 3.40625 -8.75 L 4.59375 -8.75 L 4.59375 -1 L 6.53125 -1 L 6.53125 0 L 1.484375 0 Z M 1.484375 -1 "/>
</symbol>
<symbol overflow="visible" id="9Eec4VDS20-2">
<path style="stroke:none;" d="M 1.296875 -8.75 L 5.9375 -8.75 L 5.9375 -7.75 L 2.375 -7.75 L 2.375 -5.609375 C 2.550781 -5.671875 2.722656 -5.710938 2.890625 -5.734375 C 3.066406 -5.765625 3.238281 -5.78125 3.40625 -5.78125 C 4.382812 -5.78125 5.160156 -5.507812 5.734375 -4.96875 C 6.304688 -4.4375 6.59375 -3.71875 6.59375 -2.8125 C 6.59375 -1.863281 6.296875 -1.128906 5.703125 -0.609375 C 5.117188 -0.0859375 4.296875 0.171875 3.234375 0.171875 C 2.859375 0.171875 2.476562 0.140625 2.09375 0.078125 C 1.71875 0.015625 1.328125 -0.078125 0.921875 -0.203125 L 0.921875 -1.390625 C 1.273438 -1.203125 1.640625 -1.0625 2.015625 -0.96875 C 2.390625 -0.875 2.785156 -0.828125 3.203125 -0.828125 C 3.878906 -0.828125 4.414062 -1.003906 4.8125 -1.359375 C 5.207031 -1.710938 5.40625 -2.195312 5.40625 -2.8125 C 5.40625 -3.414062 5.207031 -3.894531 4.8125 -4.25 C 4.414062 -4.601562 3.878906 -4.78125 3.203125 -4.78125 C 2.890625 -4.78125 2.570312 -4.742188 2.25 -4.671875 C 1.9375 -4.609375 1.617188 -4.503906 1.296875 -4.359375 Z M 1.296875 -8.75 "/>
</symbol>
<symbol overflow="visible" id="9Eec4VDS21-0">
<path style="stroke:none;" d="M 0.59375 2.125 L 0.59375 -8.46875 L 6.59375 -8.46875 L 6.59375 2.125 Z M 1.265625 1.453125 L 5.9375 1.453125 L 5.9375 -7.78125 L 1.265625 -7.78125 Z M 1.265625 1.453125 "/>
</symbol>
<symbol overflow="visible" id="9Eec4VDS21-1">
<path style="stroke:none;" d="M 1.28125 -1.484375 L 2.515625 -1.484375 L 2.515625 0 L 1.28125 0 Z M 1.28125 -1.484375 "/>
</symbol>
<symbol overflow="visible" id="9Eec4VDS22-0">
<path style="stroke:none;" d="M 0.59375 2.125 L 0.59375 -8.46875 L 6.59375 -8.46875 L 6.59375 2.125 Z M 1.265625 1.453125 L 5.9375 1.453125 L 5.9375 -7.78125 L 1.265625 -7.78125 Z M 1.265625 1.453125 "/>
</symbol>
<symbol overflow="visible" id="9Eec4VDS22-1">
<path style="stroke:none;" d="M 2.296875 -1 L 6.4375 -1 L 6.4375 0 L 0.875 0 L 0.875 -1 C 1.320312 -1.457031 1.929688 -2.078125 2.703125 -2.859375 C 3.484375 -3.648438 3.972656 -4.160156 4.171875 -4.390625 C 4.554688 -4.804688 4.820312 -5.160156 4.96875 -5.453125 C 5.125 -5.753906 5.203125 -6.046875 5.203125 -6.328125 C 5.203125 -6.796875 5.035156 -7.175781 4.703125 -7.46875 C 4.378906 -7.757812 3.957031 -7.90625 3.4375 -7.90625 C 3.0625 -7.90625 2.664062 -7.84375 2.25 -7.71875 C 1.84375 -7.59375 1.40625 -7.394531 0.9375 -7.125 L 0.9375 -8.328125 C 1.414062 -8.515625 1.859375 -8.65625 2.265625 -8.75 C 2.679688 -8.851562 3.0625 -8.90625 3.40625 -8.90625 C 4.3125 -8.90625 5.035156 -8.675781 5.578125 -8.21875 C 6.117188 -7.769531 6.390625 -7.164062 6.390625 -6.40625 C 6.390625 -6.050781 6.320312 -5.710938 6.1875 -5.390625 C 6.050781 -5.066406 5.804688 -4.6875 5.453125 -4.25 C 5.347656 -4.132812 5.035156 -3.804688 4.515625 -3.265625 C 3.992188 -2.722656 3.253906 -1.96875 2.296875 -1 Z M 2.296875 -1 "/>
</symbol>
<symbol overflow="visible" id="9Eec4VDS23-0">
<path style="stroke:none;" d="M 0.59375 2.125 L 0.59375 -8.46875 L 6.59375 -8.46875 L 6.59375 2.125 Z M 1.265625 1.453125 L 5.9375 1.453125 L 5.9375 -7.78125 L 1.265625 -7.78125 Z M 1.265625 1.453125 "/>
</symbol>
<symbol overflow="visible" id="9Eec4VDS23-1">
<path style="stroke:none;" d="M 1.28125 -1.484375 L 2.515625 -1.484375 L 2.515625 0 L 1.28125 0 Z M 1.28125 -1.484375 "/>
</symbol>
<symbol overflow="visible" id="9Eec4VDS23-2">
<path style="stroke:none;" d="M 3.8125 -7.96875 C 3.207031 -7.96875 2.75 -7.664062 2.4375 -7.0625 C 2.132812 -6.46875 1.984375 -5.566406 1.984375 -4.359375 C 1.984375 -3.160156 2.132812 -2.257812 2.4375 -1.65625 C 2.75 -1.0625 3.207031 -0.765625 3.8125 -0.765625 C 4.425781 -0.765625 4.882812 -1.0625 5.1875 -1.65625 C 5.5 -2.257812 5.65625 -3.160156 5.65625 -4.359375 C 5.65625 -5.566406 5.5 -6.46875 5.1875 -7.0625 C 4.882812 -7.664062 4.425781 -7.96875 3.8125 -7.96875 Z M 3.8125 -8.90625 C 4.789062 -8.90625 5.539062 -8.515625 6.0625 -7.734375 C 6.582031 -6.960938 6.84375 -5.835938 6.84375 -4.359375 C 6.84375 -2.890625 6.582031 -1.765625 6.0625 -0.984375 C 5.539062 -0.210938 4.789062 0.171875 3.8125 0.171875 C 2.832031 0.171875 2.082031 -0.210938 1.5625 -0.984375 C 1.050781 -1.765625 0.796875 -2.890625 0.796875 -4.359375 C 0.796875 -5.835938 1.050781 -6.960938 1.5625 -7.734375 C 2.082031 -8.515625 2.832031 -8.90625 3.8125 -8.90625 Z M 3.8125 -8.90625 "/>
</symbol>
<symbol overflow="visible" id="9Eec4VDS24-0">
<path style="stroke:none;" d=""/>
</symbol>
<symbol overflow="visible" id="9Eec4VDS24-1">
<path style="stroke:none;" d="M 4.484375 0.75 L 5.796875 -4.5 C 5.84375 -4.6875 5.84375 -4.703125 5.84375 -4.75 C 5.84375 -5 5.640625 -5.0625 5.515625 -5.0625 C 5.375 -5.0625 5.09375 -4.96875 5.046875 -4.625 C 4.890625 -4.96875 4.5625 -5.296875 4.046875 -5.296875 C 2.703125 -5.296875 1.3125 -3.53125 1.3125 -1.84375 C 1.3125 -0.8125 1.890625 0 2.78125 0 C 3.390625 0 3.90625 -0.484375 4.0625 -0.640625 L 3.796875 0.375 C 3.65625 0.96875 3.59375 1.21875 3.25 1.625 C 2.765625 2.203125 2.296875 2.203125 2.109375 2.203125 C 1.953125 2.203125 1.578125 2.203125 1.265625 2.0625 C 1.5 1.96875 1.640625 1.71875 1.640625 1.515625 C 1.640625 1.359375 1.53125 1.125 1.21875 1.125 C 1.015625 1.125 0.640625 1.296875 0.640625 1.765625 C 0.640625 2.25 1.078125 2.453125 2.09375 2.453125 C 3.34375 2.453125 4.265625 1.671875 4.484375 0.75 Z M 4.296875 -1.578125 C 4.203125 -1.203125 3.46875 -0.265625 2.8125 -0.265625 C 2.15625 -0.265625 2.140625 -1.171875 2.140625 -1.3125 C 2.140625 -1.890625 2.5 -3.28125 2.75 -3.859375 C 3.046875 -4.5 3.578125 -5.046875 4.046875 -5.046875 C 4.765625 -5.046875 4.875 -4.03125 4.875 -3.9375 L 4.84375 -3.765625 Z M 4.296875 -1.578125 "/>
</symbol>
<symbol overflow="visible" id="9Eec4VDS25-0">
<path style="stroke:none;" d=""/>
</symbol>
<symbol overflow="visible" id="9Eec4VDS25-1">
<path style="stroke:none;" d="M 3.375 -0.75 C 3.375 -0.78125 3.3125 -0.859375 3.25 -0.859375 C 3.234375 -0.859375 3.21875 -0.859375 3.15625 -0.78125 C 2.625 -0.109375 1.984375 -0.078125 1.859375 -0.078125 C 1.484375 -0.078125 1.296875 -0.40625 1.296875 -0.828125 C 1.296875 -1.203125 1.484375 -1.953125 1.671875 -2.3125 C 1.9375 -2.765625 2.296875 -3.03125 2.625 -3.03125 C 2.703125 -3.03125 3.03125 -3.015625 3.140625 -2.71875 C 2.765625 -2.671875 2.765625 -2.359375 2.765625 -2.359375 C 2.765625 -2.25 2.859375 -2.125 3.015625 -2.125 C 3.21875 -2.125 3.390625 -2.296875 3.390625 -2.5625 C 3.390625 -2.921875 3.078125 -3.1875 2.609375 -3.1875 C 1.71875 -3.1875 0.796875 -2.15625 0.796875 -1.109375 C 0.796875 -0.390625 1.21875 0.078125 1.84375 0.078125 C 2.765625 0.078125 3.375 -0.640625 3.375 -0.75 Z M 3.375 -0.75 "/>
</symbol>
<symbol overflow="visible" id="9Eec4VDS25-2">
<path style="stroke:none;" d="M 3.78125 -1.03125 C 3.78125 -1.109375 3.71875 -1.109375 3.671875 -1.109375 C 3.59375 -1.109375 3.578125 -1.09375 3.53125 -0.9375 C 3.4375 -0.53125 3.296875 -0.078125 3.046875 -0.078125 C 2.859375 -0.078125 2.859375 -0.28125 2.859375 -0.375 C 2.859375 -0.421875 2.859375 -0.546875 2.921875 -0.734375 L 3.40625 -2.703125 C 3.4375 -2.796875 3.4375 -2.8125 3.4375 -2.859375 C 3.4375 -3 3.3125 -3.046875 3.234375 -3.046875 C 3.015625 -3.046875 2.953125 -2.796875 2.953125 -2.765625 C 2.8125 -3.0625 2.578125 -3.1875 2.359375 -3.1875 C 1.5625 -3.1875 0.703125 -2.09375 0.703125 -1.03125 C 0.703125 -0.421875 1.03125 0.078125 1.578125 0.078125 C 1.84375 0.078125 2.15625 -0.078125 2.4375 -0.421875 C 2.515625 -0.078125 2.78125 0.078125 3.046875 0.078125 C 3.3125 0.078125 3.453125 -0.09375 3.5625 -0.328125 C 3.6875 -0.59375 3.78125 -1.03125 3.78125 -1.03125 Z M 2.5 -0.890625 C 2.4375 -0.65625 1.984375 -0.078125 1.59375 -0.078125 C 1.25 -0.078125 1.203125 -0.5 1.203125 -0.71875 C 1.203125 -1.078125 1.421875 -1.921875 1.546875 -2.21875 C 1.734375 -2.671875 2.0625 -3.03125 2.359375 -3.03125 C 2.671875 -3.03125 2.859375 -2.65625 2.859375 -2.34375 C 2.859375 -2.34375 2.84375 -2.296875 2.828125 -2.25 Z M 2.5 -0.890625 "/>
</symbol>
<symbol overflow="visible" id="9Eec4VDS26-0">
<path style="stroke:none;" d=""/>
</symbol>
<symbol overflow="visible" id="9Eec4VDS26-1">
<path style="stroke:none;" d="M 2.015625 -1.03125 C 2.015625 -1.109375 1.953125 -1.109375 1.90625 -1.109375 C 1.875 -1.109375 1.828125 -1.109375 1.8125 -1.0625 L 1.75 -0.890625 C 1.640625 -0.375 1.5 -0.078125 1.296875 -0.078125 C 1.109375 -0.078125 1.109375 -0.28125 1.109375 -0.375 C 1.109375 -0.421875 1.109375 -0.53125 1.15625 -0.703125 L 2.1875 -4.8125 C 2.1875 -4.84375 2.203125 -4.90625 2.203125 -4.90625 C 2.203125 -4.984375 2.15625 -5 2.109375 -5 C 2.078125 -5 2.015625 -4.984375 1.984375 -4.984375 L 1.28125 -4.921875 C 1.1875 -4.921875 1.109375 -4.90625 1.109375 -4.78125 C 1.109375 -4.703125 1.1875 -4.703125 1.28125 -4.703125 C 1.625 -4.703125 1.640625 -4.640625 1.640625 -4.578125 C 1.640625 -4.546875 1.625 -4.453125 1.625 -4.453125 L 0.71875 -0.84375 C 0.71875 -0.828125 0.671875 -0.671875 0.671875 -0.5625 C 0.671875 -0.1875 0.9375 0.078125 1.28125 0.078125 C 1.5625 0.078125 1.703125 -0.109375 1.796875 -0.296875 C 1.921875 -0.546875 2.015625 -1.015625 2.015625 -1.03125 Z M 2.015625 -1.03125 "/>
</symbol>
<symbol overflow="visible" id="9Eec4VDS27-0">
<path style="stroke:none;" d=""/>
</symbol>
<symbol overflow="visible" id="9Eec4VDS27-1">
<path style="stroke:none;" d="M 2.390625 1.71875 C 2.390625 1.6875 2.375 1.671875 2.359375 1.65625 C 1.609375 1.09375 1.109375 -0.34375 1.109375 -1.5 L 1.109375 -2.109375 C 1.109375 -3.25 1.609375 -4.703125 2.359375 -5.265625 C 2.375 -5.265625 2.390625 -5.296875 2.390625 -5.3125 C 2.390625 -5.359375 2.359375 -5.390625 2.3125 -5.390625 C 2.3125 -5.390625 2.296875 -5.375 2.28125 -5.375 C 1.484375 -4.78125 0.734375 -3.328125 0.734375 -2.109375 L 0.734375 -1.5 C 0.734375 -0.265625 1.484375 1.171875 2.28125 1.765625 C 2.296875 1.78125 2.3125 1.78125 2.3125 1.78125 C 2.359375 1.78125 2.390625 1.75 2.390625 1.71875 Z M 2.390625 1.71875 "/>
</symbol>
<symbol overflow="visible" id="9Eec4VDS28-0">
<path style="stroke:none;" d="M 0.359375 0 L 3.234375 0 L 3.234375 -3.875 L 0.359375 -3.875 Z M 0.71875 -0.359375 L 0.71875 -3.515625 L 2.875 -3.515625 L 2.875 -0.359375 Z M 0.71875 -0.359375 "/>
</symbol>
<symbol overflow="visible" id="9Eec4VDS28-1">
<path style="stroke:none;" d="M 3.234375 -1.25 L 3.046875 -1.25 C 3.015625 -1.03125 2.96875 -0.71875 2.890625 -0.609375 C 2.84375 -0.546875 2.375 -0.546875 2.21875 -0.546875 L 0.921875 -0.546875 L 1.671875 -1.296875 C 2.796875 -2.296875 3.234375 -2.671875 3.234375 -3.40625 C 3.234375 -4.21875 2.578125 -4.796875 1.703125 -4.796875 C 0.890625 -4.796875 0.359375 -4.140625 0.359375 -3.5 C 0.359375 -3.09375 0.71875 -3.09375 0.734375 -3.09375 C 0.859375 -3.09375 1.109375 -3.171875 1.109375 -3.46875 C 1.109375 -3.65625 0.984375 -3.84375 0.734375 -3.84375 C 0.671875 -3.84375 0.65625 -3.84375 0.640625 -3.84375 C 0.8125 -4.3125 1.203125 -4.578125 1.609375 -4.578125 C 2.265625 -4.578125 2.578125 -3.984375 2.578125 -3.40625 C 2.578125 -2.828125 2.21875 -2.25 1.828125 -1.8125 L 0.4375 -0.265625 C 0.359375 -0.1875 0.359375 -0.171875 0.359375 0 L 3.03125 0 Z M 3.234375 -1.25 "/>
</symbol>
<symbol overflow="visible" id="9Eec4VDS29-0">
<path style="stroke:none;" d=""/>
</symbol>
<symbol overflow="visible" id="9Eec4VDS29-1">
<path style="stroke:none;" d="M 2.078125 -1.5 L 2.078125 -2.109375 C 2.078125 -3.328125 1.3125 -4.78125 0.53125 -5.375 C 0.515625 -5.375 0.5 -5.390625 0.484375 -5.390625 C 0.453125 -5.390625 0.40625 -5.359375 0.40625 -5.3125 C 0.40625 -5.296875 0.421875 -5.265625 0.4375 -5.265625 C 1.1875 -4.703125 1.6875 -3.25 1.6875 -2.109375 L 1.6875 -1.5 C 1.6875 -0.34375 1.1875 1.09375 0.4375 1.65625 C 0.421875 1.671875 0.40625 1.6875 0.40625 1.71875 C 0.40625 1.75 0.453125 1.78125 0.484375 1.78125 C 0.5 1.78125 0.515625 1.78125 0.53125 1.765625 C 1.3125 1.171875 2.078125 -0.265625 2.078125 -1.5 Z M 2.078125 -1.5 "/>
</symbol>
<symbol overflow="visible" id="9Eec4VDS30-0">
<path style="stroke:none;" d=""/>
</symbol>
<symbol overflow="visible" id="9Eec4VDS30-1">
<path style="stroke:none;" d="M 3.984375 2.859375 C 3.984375 2.8125 3.953125 2.78125 3.9375 2.765625 C 2.6875 1.828125 1.859375 -0.578125 1.859375 -2.5 L 1.859375 -3.5 C 1.859375 -5.421875 2.6875 -7.828125 3.9375 -8.765625 C 3.953125 -8.78125 3.984375 -8.8125 3.984375 -8.859375 C 3.984375 -8.921875 3.921875 -8.96875 3.859375 -8.96875 C 3.84375 -8.96875 3.8125 -8.96875 3.796875 -8.953125 C 2.46875 -7.953125 1.21875 -5.5625 1.21875 -3.5 L 1.21875 -2.5 C 1.21875 -0.4375 2.46875 1.953125 3.796875 2.953125 C 3.8125 2.96875 3.84375 2.96875 3.859375 2.96875 C 3.921875 2.96875 3.984375 2.921875 3.984375 2.859375 Z M 3.984375 2.859375 "/>
</symbol>
<symbol overflow="visible" id="9Eec4VDS31-0">
<path style="stroke:none;" d=""/>
</symbol>
<symbol overflow="visible" id="9Eec4VDS31-1">
<path style="stroke:none;" d="M 5.515625 -4.890625 C 5.4375 -5.171875 5.1875 -5.171875 4.953125 -5.171875 L 1.59375 -5.171875 C 1.359375 -5.171875 0.890625 -5.171875 0.5 -4.609375 C 0.21875 -4.171875 0.03125 -3.59375 0.046875 -3.53125 C 0.046875 -3.53125 0.078125 -3.40625 0.21875 -3.40625 C 0.3125 -3.40625 0.328125 -3.453125 0.375 -3.546875 C 0.734375 -4.46875 1.421875 -4.46875 1.671875 -4.46875 L 2.65625 -4.46875 L 2.453125 -0.625 C 2.4375 -0.484375 2.421875 -0.234375 2.4375 -0.1875 C 2.46875 -0.046875 2.609375 0.140625 2.875 0.140625 C 3.265625 0.140625 3.234375 -0.1875 3.234375 -0.375 L 3.015625 -4.46875 L 5.03125 -4.46875 C 5.1875 -4.46875 5.609375 -4.46875 5.515625 -4.890625 Z M 5.515625 -4.890625 "/>
</symbol>
<symbol overflow="visible" id="9Eec4VDS31-2">
<path style="stroke:none;" d="M 3.453125 -2.5 L 3.453125 -3.5 C 3.453125 -5.5625 2.203125 -7.953125 0.875 -8.953125 C 0.859375 -8.96875 0.828125 -8.96875 0.796875 -8.96875 C 0.75 -8.96875 0.6875 -8.921875 0.6875 -8.859375 C 0.6875 -8.8125 0.703125 -8.78125 0.734375 -8.765625 C 1.984375 -7.828125 2.8125 -5.421875 2.8125 -3.5 L 2.8125 -2.5 C 2.8125 -0.578125 1.984375 1.828125 0.734375 2.765625 C 0.703125 2.78125 0.6875 2.8125 0.6875 2.859375 C 0.6875 2.921875 0.75 2.96875 0.796875 2.96875 C 0.828125 2.96875 0.859375 2.96875 0.875 2.953125 C 2.203125 1.953125 3.453125 -0.4375 3.453125 -2.5 Z M 3.453125 -2.5 "/>
</symbol>
</g>
</defs>
<g id="surface1">
<rect x="0" y="0" width="600" height="450" style="fill:rgb(100%,100%,100%);fill-opacity:1;stroke:none;"/>
<path style=" stroke:none;fill-rule:nonzero;fill:rgb(100%,100%,100%);fill-opacity:1;" d="M 60 399 L 588 399 L 588 12 L 60 12 Z M 60 399 "/>
<path style="fill:none;stroke-width:1;stroke-linecap:butt;stroke-linejoin:miter;stroke:rgb(0%,0%,0%);stroke-opacity:1;stroke-miterlimit:10;" d="M 267.640625 528.5 L 267.640625 532.5 " transform="matrix(0.75,0,0,0.75,0,0)"/>
<path style="fill:none;stroke-width:1;stroke-linecap:butt;stroke-linejoin:miter;stroke:rgb(0%,0%,0%);stroke-opacity:1;stroke-miterlimit:10;" d="M 590.546875 528.5 L 590.546875 532.5 " transform="matrix(0.75,0,0,0.75,0,0)"/>
<g style="fill:rgb(0%,0%,0%);fill-opacity:1;">
  <use xlink:href="#9Eec4VDS0-1" x="308.0625" y="434.34375"/>
</g>
<g style="fill:rgb(0%,0%,0%);fill-opacity:1;">
  <use xlink:href="#9Eec4VDS1-1" x="316.011719" y="434.34375"/>
</g>
<g style="fill:rgb(0%,0%,0%);fill-opacity:1;">
  <use xlink:href="#9Eec4VDS2-1" x="321.847656" y="434.34375"/>
</g>
<g style="fill:rgb(0%,0%,0%);fill-opacity:1;">
  <use xlink:href="#9Eec4VDS2-2" x="329.511719" y="434.34375"/>
</g>
<g style="fill:rgb(0%,0%,0%);fill-opacity:1;">
  <use xlink:href="#9Eec4VDS3-1" x="335.648438" y="434.34375"/>
</g>
<g style="fill:rgb(0%,0%,0%);fill-opacity:1;">
  <use xlink:href="#9Eec4VDS4-1" x="76.222656" y="412.390625"/>
</g>
<g style="fill:rgb(0%,0%,0%);fill-opacity:1;">
  <use xlink:href="#9Eec4VDS5-1" x="310.699219" y="412.390625"/>
</g>
<g style="fill:rgb(0%,0%,0%);fill-opacity:1;">
  <use xlink:href="#9Eec4VDS6-1" x="318.335938" y="412.390625"/>
</g>
<g style="fill:rgb(0%,0%,0%);fill-opacity:1;">
  <use xlink:href="#9Eec4VDS5-2" x="325.96875" y="412.390625"/>
</g>
<g style="fill:rgb(0%,0%,0%);fill-opacity:1;">
  <use xlink:href="#9Eec4VDS7-1" x="548.867188" y="412.390625"/>
</g>
<g style="fill:rgb(0%,0%,0%);fill-opacity:1;">
  <use xlink:href="#9Eec4VDS8-1" x="556.5" y="412.390625"/>
</g>
<g style="fill:rgb(0%,0%,0%);fill-opacity:1;">
  <use xlink:href="#9Eec4VDS9-1" x="564.132812" y="412.390625"/>
</g>
<g style="fill:rgb(0%,0%,0%);fill-opacity:1;">
  <use xlink:href="#9Eec4VDS7-2" x="571.769531" y="412.390625"/>
</g>
<path style="fill:none;stroke-width:1;stroke-linecap:butt;stroke-linejoin:miter;stroke:rgb(0%,0%,0%);stroke-opacity:1;stroke-miterlimit:10;" d="M 83.5 471.53125 L 79.5 471.53125 " transform="matrix(0.75,0,0,0.75,0,0)"/>
<path style="fill:none;stroke-width:1;stroke-linecap:butt;stroke-linejoin:miter;stroke:rgb(0%,0%,0%);stroke-opacity:1;stroke-miterlimit:10;" d="M 83.5 350.59375 L 79.5 350.59375 " transform="matrix(0.75,0,0,0.75,0,0)"/>
<path style="fill:none;stroke-width:1;stroke-linecap:butt;stroke-linejoin:miter;stroke:rgb(0%,0%,0%);stroke-opacity:1;stroke-miterlimit:10;" d="M 83.5 229.65625 L 79.5 229.65625 " transform="matrix(0.75,0,0,0.75,0,0)"/>
<path style="fill:none;stroke-width:1;stroke-linecap:butt;stroke-linejoin:miter;stroke:rgb(0%,0%,0%);stroke-opacity:1;stroke-miterlimit:10;" d="M 83.5 108.71875 L 79.5 108.71875 " transform="matrix(0.75,0,0,0.75,0,0)"/>
<g style="fill:rgb(0%,0%,0%);fill-opacity:1;">
  <use xlink:href="#9Eec4VDS10-1" x="30.519531" y="223.355469"/>
</g>
<g style="fill:rgb(0%,0%,0%);fill-opacity:1;">
  <use xlink:href="#9Eec4VDS11-1" x="21.550781" y="216.457031"/>
</g>
<g style="fill:rgb(0%,0%,0%);fill-opacity:1;">
  <use xlink:href="#9Eec4VDS12-1" x="21.550781" y="212.953125"/>
</g>
<g style="fill:rgb(0%,0%,0%);fill-opacity:1;">
  <use xlink:href="#9Eec4VDS13-1" x="21.550781" y="208.453125"/>
</g>
<g style="fill:rgb(0%,0%,0%);fill-opacity:1;">
  <use xlink:href="#9Eec4VDS14-1" x="30.519531" y="204.953125"/>
</g>
<g style="fill:rgb(0%,0%,0%);fill-opacity:1;">
  <use xlink:href="#9Eec4VDS15-1" x="30.519531" y="199.117188"/>
</g>
<g style="fill:rgb(0%,0%,0%);fill-opacity:1;">
  <use xlink:href="#9Eec4VDS14-2" x="30.519531" y="191.167969"/>
</g>
<g style="fill:rgb(0%,0%,0%);fill-opacity:1;">
  <use xlink:href="#9Eec4VDS16-1" x="38.753906" y="403.15625"/>
</g>
<g style="fill:rgb(0%,0%,0%);fill-opacity:1;">
  <use xlink:href="#9Eec4VDS4-2" x="46.386719" y="403.15625"/>
</g>
<g style="fill:rgb(0%,0%,0%);fill-opacity:1;">
  <use xlink:href="#9Eec4VDS4-1" x="50.203125" y="403.15625"/>
</g>
<g style="fill:rgb(0%,0%,0%);fill-opacity:1;">
  <use xlink:href="#9Eec4VDS4-1" x="39.140625" y="312.453125"/>
</g>
<g style="fill:rgb(0%,0%,0%);fill-opacity:1;">
  <use xlink:href="#9Eec4VDS17-1" x="46.777344" y="312.453125"/>
</g>
<g style="fill:rgb(0%,0%,0%);fill-opacity:1;">
  <use xlink:href="#9Eec4VDS4-3" x="50.589844" y="312.453125"/>
</g>
<g style="fill:rgb(0%,0%,0%);fill-opacity:1;">
  <use xlink:href="#9Eec4VDS18-1" x="38.753906" y="221.75"/>
</g>
<g style="fill:rgb(0%,0%,0%);fill-opacity:1;">
  <use xlink:href="#9Eec4VDS19-1" x="46.386719" y="221.75"/>
</g>
<g style="fill:rgb(0%,0%,0%);fill-opacity:1;">
  <use xlink:href="#9Eec4VDS19-2" x="50.203125" y="221.75"/>
</g>
<g style="fill:rgb(0%,0%,0%);fill-opacity:1;">
  <use xlink:href="#9Eec4VDS20-1" x="39.140625" y="131.046875"/>
</g>
<g style="fill:rgb(0%,0%,0%);fill-opacity:1;">
  <use xlink:href="#9Eec4VDS21-1" x="46.777344" y="131.046875"/>
</g>
<g style="fill:rgb(0%,0%,0%);fill-opacity:1;">
  <use xlink:href="#9Eec4VDS20-2" x="50.589844" y="131.046875"/>
</g>
<g style="fill:rgb(0%,0%,0%);fill-opacity:1;">
  <use xlink:href="#9Eec4VDS22-1" x="38.753906" y="40.339844"/>
</g>
<g style="fill:rgb(0%,0%,0%);fill-opacity:1;">
  <use xlink:href="#9Eec4VDS23-1" x="46.386719" y="40.339844"/>
</g>
<g style="fill:rgb(0%,0%,0%);fill-opacity:1;">
  <use xlink:href="#9Eec4VDS23-2" x="50.203125" y="40.339844"/>
</g>
<path style="fill:none;stroke-width:1.5;stroke-linecap:butt;stroke-linejoin:miter;stroke:rgb(0%,44.705883%,69.803923%);stroke-opacity:1;stroke-miterlimit:10;" d="M 112 274 L 752 274 " transform="matrix(0.75,0,0,0.75,0,0)"/>
<path style="fill:none;stroke-width:1;stroke-linecap:butt;stroke-linejoin:miter;stroke:rgb(0%,0%,0%);stroke-opacity:1;stroke-miterlimit:10;" d="M 106.1875 526.5 L 106.1875 532.5 " transform="matrix(0.75,0,0,0.75,0,0)"/>
<path style="fill:none;stroke-width:1;stroke-linecap:butt;stroke-linejoin:miter;stroke:rgb(0%,0%,0%);stroke-opacity:1;stroke-miterlimit:10;" d="M 429.09375 526.5 L 429.09375 532.5 " transform="matrix(0.75,0,0,0.75,0,0)"/>
<path style="fill:none;stroke-width:1;stroke-linecap:butt;stroke-linejoin:miter;stroke:rgb(0%,0%,0%);stroke-opacity:1;stroke-miterlimit:10;" d="M 752 526.5 L 752 532.5 " transform="matrix(0.75,0,0,0.75,0,0)"/>
<path style="fill:none;stroke-width:1;stroke-linecap:butt;stroke-linejoin:miter;stroke:rgb(0%,0%,0%);stroke-opacity:1;stroke-miterlimit:10;" d="M 85.5 532 L 79.5 532 " transform="matrix(0.75,0,0,0.75,0,0)"/>
<path style="fill:none;stroke-width:1;stroke-linecap:butt;stroke-linejoin:miter;stroke:rgb(0%,0%,0%);stroke-opacity:1;stroke-miterlimit:10;" d="M 85.5 411.0625 L 79.5 411.0625 " transform="matrix(0.75,0,0,0.75,0,0)"/>
<path style="fill:none;stroke-width:1;stroke-linecap:butt;stroke-linejoin:miter;stroke:rgb(0%,0%,0%);stroke-opacity:1;stroke-miterlimit:10;" d="M 85.5 290.125 L 79.5 290.125 " transform="matrix(0.75,0,0,0.75,0,0)"/>
<path style="fill:none;stroke-width:1;stroke-linecap:butt;stroke-linejoin:miter;stroke:rgb(0%,0%,0%);stroke-opacity:1;stroke-miterlimit:10;" d="M 85.5 169.1875 L 79.5 169.1875 " transform="matrix(0.75,0,0,0.75,0,0)"/>
<path style="fill:none;stroke-width:1;stroke-linecap:butt;stroke-linejoin:miter;stroke:rgb(0%,0%,0%);stroke-opacity:1;stroke-miterlimit:10;" d="M 85.5 48.25 L 79.5 48.25 " transform="matrix(0.75,0,0,0.75,0,0)"/>
<path style="fill-rule:nonzero;fill:rgb(100%,100%,100%);fill-opacity:1;stroke-width:1;stroke-linecap:butt;stroke-linejoin:miter;stroke:rgb(0%,0%,0%);stroke-opacity:1;stroke-miterlimit:10;" d="M 687.5 67.5 L 773.5 67.5 L 773.5 26.5 L 687.5 26.5 Z M 687.5 67.5 " transform="matrix(0.75,0,0,0.75,0,0)"/>
<g style="fill:rgb(0%,0%,0%);fill-opacity:1;">
  <use xlink:href="#9Eec4VDS24-1" x="540.855469" y="40.652344"/>
</g>
<g style="fill:rgb(0%,0%,0%);fill-opacity:1;">
  <use xlink:href="#9Eec4VDS25-1" x="546.375" y="43.050781"/>
</g>
<g style="fill:rgb(0%,0%,0%);fill-opacity:1;">
  <use xlink:href="#9Eec4VDS25-2" x="549.6875" y="43.050781"/>
</g>
<g style="fill:rgb(0%,0%,0%);fill-opacity:1;">
  <use xlink:href="#9Eec4VDS26-1" x="553.367188" y="43.050781"/>
</g>
<g style="fill:rgb(0%,0%,0%);fill-opacity:1;">
  <use xlink:href="#9Eec4VDS25-1" x="555.210938" y="43.050781"/>
</g>
<g style="fill:rgb(0%,0%,0%);fill-opacity:1;">
  <use xlink:href="#9Eec4VDS27-1" x="546.375" y="33.476562"/>
</g>
<g style="fill:rgb(0%,0%,0%);fill-opacity:1;">
  <use xlink:href="#9Eec4VDS28-1" x="549.175781" y="33.476562"/>
</g>
<g style="fill:rgb(0%,0%,0%);fill-opacity:1;">
  <use xlink:href="#9Eec4VDS29-1" x="552.777344" y="33.476562"/>
</g>
<g style="fill:rgb(0%,0%,0%);fill-opacity:1;">
  <use xlink:href="#9Eec4VDS30-1" x="558.523438" y="40.652344"/>
</g>
<g style="fill:rgb(0%,0%,0%);fill-opacity:1;">
  <use xlink:href="#9Eec4VDS31-1" x="563.191406" y="40.652344"/>
</g>
<g style="fill:rgb(0%,0%,0%);fill-opacity:1;">
  <use xlink:href="#9Eec4VDS31-2" x="569.550781" y="40.652344"/>
</g>
<path style="fill:none;stroke-width:1.5;stroke-linecap:butt;stroke-linejoin:miter;stroke:rgb(0%,44.705883%,69.803923%);stroke-opacity:1;stroke-miterlimit:10;" d="M 696.989583 47 L 716.989583 47 " transform="matrix(0.75,0,0,0.75,0,0)"/>
<path style="fill:none;stroke-width:1;stroke-linecap:butt;stroke-linejoin:miter;stroke:rgb(0%,0%,0%);stroke-opacity:1;stroke-miterlimit:10;" d="M 79.5 532 L 784.5 532 " transform="matrix(0.75,0,0,0.75,0,0)"/>
<path style="fill:none;stroke-width:1;stroke-linecap:butt;stroke-linejoin:miter;stroke:rgb(0%,0%,0%);stroke-opacity:1;stroke-miterlimit:10;" d="M 80 532.5 L 80 15.5 " transform="matrix(0.75,0,0,0.75,0,0)"/>
<path style="fill:none;stroke-width:1;stroke-linecap:butt;stroke-linejoin:miter;stroke:rgb(0%,0%,0%);stroke-opacity:1;stroke-miterlimit:10;" d="M 79.5 16 L 784.5 16 " transform="matrix(0.75,0,0,0.75,0,0)"/>
<path style="fill:none;stroke-width:1;stroke-linecap:butt;stroke-linejoin:miter;stroke:rgb(0%,0%,0%);stroke-opacity:1;stroke-miterlimit:10;" d="M 784 532.5 L 784 15.5 " transform="matrix(0.75,0,0,0.75,0,0)"/>
</g>
</svg>
