<?xml version="1.0" encoding="utf-8"?>
<svg xmlns="http://www.w3.org/2000/svg" xmlns:xlink="http://www.w3.org/1999/xlink" width="600" height="400" viewBox="0 0 2400 1600">
<defs>
  <clipPath id="clip410">
    <rect x="0" y="0" width="2400" height="1600"/>
  </clipPath>
</defs>
<path clip-path="url(#clip410)" d="M0 1600 L2400 1600 L2400 0 L0 0  Z" fill="#ffffff" fill-rule="evenodd" fill-opacity="1"/>
<defs>
  <clipPath id="clip411">
    <rect x="480" y="0" width="1681" height="1600"/>
  </clipPath>
</defs>
<defs>
  <clipPath id="clip412">
    <rect x="210" y="78" width="2103" height="1345"/>
  </clipPath>
</defs>
<path clip-path="url(#clip410)" d="M175.445 1423.18 L2313.01 1423.18 L2313.01 78.9921 L175.445 78.9921  Z" fill="#ffffff" fill-rule="evenodd" fill-opacity="1"/>
<defs>
  <clipPath id="clip413">
    <rect x="175" y="78" width="2139" height="1345"/>
  </clipPath>
</defs>
<polyline clip-path="url(#clip410)" style="stroke:#000000; stroke-linecap:round; stroke-linejoin:round; stroke-width:4; stroke-opacity:1; fill:none" points="175.445,1423.18 2313.01,1423.18 "/>
<polyline clip-path="url(#clip410)" style="stroke:#000000; stroke-linecap:round; stroke-linejoin:round; stroke-width:4; stroke-opacity:1; fill:none" points="235.942,1423.18 235.942,1404.28 "/>
<polyline clip-path="url(#clip410)" style="stroke:#000000; stroke-linecap:round; stroke-linejoin:round; stroke-width:4; stroke-opacity:1; fill:none" points="740.084,1423.18 740.084,1404.28 "/>
<polyline clip-path="url(#clip410)" style="stroke:#000000; stroke-linecap:round; stroke-linejoin:round; stroke-width:4; stroke-opacity:1; fill:none" points="1244.23,1423.18 1244.23,1404.28 "/>
<polyline clip-path="url(#clip410)" style="stroke:#000000; stroke-linecap:round; stroke-linejoin:round; stroke-width:4; stroke-opacity:1; fill:none" points="1748.37,1423.18 1748.37,1404.28 "/>
<polyline clip-path="url(#clip410)" style="stroke:#000000; stroke-linecap:round; stroke-linejoin:round; stroke-width:4; stroke-opacity:1; fill:none" points="2252.51,1423.18 2252.51,1404.28 "/>
<path clip-path="url(#clip410)" d="M203.095 1481.64 L210.734 1481.64 L210.734 1455.28 L202.424 1456.95 L202.424 1452.69 L210.688 1451.02 L215.364 1451.02 L215.364 1481.64 L223.003 1481.64 L223.003 1485.58 L203.095 1485.58 L203.095 1481.64 Z" fill="#000000" fill-rule="nonzero" fill-opacity="1" /><path clip-path="url(#clip410)" d="M232.447 1479.7 L237.331 1479.7 L237.331 1485.58 L232.447 1485.58 L232.447 1479.7 Z" fill="#000000" fill-rule="nonzero" fill-opacity="1" /><path clip-path="url(#clip410)" d="M257.516 1454.1 Q253.905 1454.1 252.076 1457.66 Q250.271 1461.2 250.271 1468.33 Q250.271 1475.44 252.076 1479.01 Q253.905 1482.55 257.516 1482.55 Q261.15 1482.55 262.956 1479.01 Q264.785 1475.44 264.785 1468.33 Q264.785 1461.2 262.956 1457.66 Q261.15 1454.1 257.516 1454.1 M257.516 1450.39 Q263.326 1450.39 266.382 1455 Q269.461 1459.58 269.461 1468.33 Q269.461 1477.06 266.382 1481.67 Q263.326 1486.25 257.516 1486.25 Q251.706 1486.25 248.627 1481.67 Q245.572 1477.06 245.572 1468.33 Q245.572 1459.58 248.627 1455 Q251.706 1450.39 257.516 1450.39 Z" fill="#000000" fill-rule="nonzero" fill-opacity="1" /><path clip-path="url(#clip410)" d="M707.735 1481.64 L715.374 1481.64 L715.374 1455.28 L707.064 1456.95 L707.064 1452.69 L715.328 1451.02 L720.003 1451.02 L720.003 1481.64 L727.642 1481.64 L727.642 1485.58 L707.735 1485.58 L707.735 1481.64 Z" fill="#000000" fill-rule="nonzero" fill-opacity="1" /><path clip-path="url(#clip410)" d="M737.087 1479.7 L741.971 1479.7 L741.971 1485.58 L737.087 1485.58 L737.087 1479.7 Z" fill="#000000" fill-rule="nonzero" fill-opacity="1" /><path clip-path="url(#clip410)" d="M752.202 1451.02 L770.559 1451.02 L770.559 1454.96 L756.485 1454.96 L756.485 1463.43 Q757.503 1463.08 758.522 1462.92 Q759.54 1462.73 760.559 1462.73 Q766.346 1462.73 769.725 1465.9 Q773.105 1469.08 773.105 1474.49 Q773.105 1480.07 769.633 1483.17 Q766.161 1486.25 759.841 1486.25 Q757.665 1486.25 755.397 1485.88 Q753.151 1485.51 750.744 1484.77 L750.744 1480.07 Q752.827 1481.2 755.05 1481.76 Q757.272 1482.32 759.749 1482.32 Q763.753 1482.32 766.091 1480.21 Q768.429 1478.1 768.429 1474.49 Q768.429 1470.88 766.091 1468.77 Q763.753 1466.67 759.749 1466.67 Q757.874 1466.67 755.999 1467.08 Q754.147 1467.5 752.202 1468.38 L752.202 1451.02 Z" fill="#000000" fill-rule="nonzero" fill-opacity="1" /><path clip-path="url(#clip410)" d="M1215.47 1481.64 L1231.78 1481.64 L1231.78 1485.58 L1209.84 1485.58 L1209.84 1481.64 Q1212.5 1478.89 1217.09 1474.26 Q1221.69 1469.61 1222.87 1468.27 Q1225.12 1465.74 1226 1464.01 Q1226.9 1462.25 1226.9 1460.56 Q1226.9 1457.8 1224.96 1456.07 Q1223.03 1454.33 1219.93 1454.33 Q1217.73 1454.33 1215.28 1455.09 Q1212.85 1455.86 1210.07 1457.41 L1210.07 1452.69 Q1212.9 1451.55 1215.35 1450.97 Q1217.8 1450.39 1219.84 1450.39 Q1225.21 1450.39 1228.4 1453.08 Q1231.6 1455.77 1231.6 1460.26 Q1231.6 1462.39 1230.79 1464.31 Q1230 1466.2 1227.9 1468.8 Q1227.32 1469.47 1224.22 1472.69 Q1221.11 1475.88 1215.47 1481.64 Z" fill="#000000" fill-rule="nonzero" fill-opacity="1" /><path clip-path="url(#clip410)" d="M1241.6 1479.7 L1246.48 1479.7 L1246.48 1485.58 L1241.6 1485.58 L1241.6 1479.7 Z" fill="#000000" fill-rule="nonzero" fill-opacity="1" /><path clip-path="url(#clip410)" d="M1266.67 1454.1 Q1263.06 1454.1 1261.23 1457.66 Q1259.42 1461.2 1259.42 1468.33 Q1259.42 1475.44 1261.23 1479.01 Q1263.06 1482.55 1266.67 1482.55 Q1270.3 1482.55 1272.11 1479.01 Q1273.94 1475.44 1273.94 1468.33 Q1273.94 1461.2 1272.11 1457.66 Q1270.3 1454.1 1266.67 1454.1 M1266.67 1450.39 Q1272.48 1450.39 1275.53 1455 Q1278.61 1459.58 1278.61 1468.33 Q1278.61 1477.06 1275.53 1481.67 Q1272.48 1486.25 1266.67 1486.25 Q1260.86 1486.25 1257.78 1481.67 Q1254.72 1477.06 1254.72 1468.33 Q1254.72 1459.58 1257.78 1455 Q1260.86 1450.39 1266.67 1450.39 Z" fill="#000000" fill-rule="nonzero" fill-opacity="1" /><path clip-path="url(#clip410)" d="M1720.1 1481.64 L1736.42 1481.64 L1736.42 1485.58 L1714.48 1485.58 L1714.48 1481.64 Q1717.14 1478.89 1721.73 1474.26 Q1726.33 1469.61 1727.51 1468.27 Q1729.76 1465.74 1730.64 1464.01 Q1731.54 1462.25 1731.54 1460.56 Q1731.54 1457.8 1729.6 1456.07 Q1727.67 1454.33 1724.57 1454.33 Q1722.37 1454.33 1719.92 1455.09 Q1717.49 1455.86 1714.71 1457.41 L1714.71 1452.69 Q1717.54 1451.55 1719.99 1450.97 Q1722.44 1450.39 1724.48 1450.39 Q1729.85 1450.39 1733.04 1453.08 Q1736.24 1455.77 1736.24 1460.26 Q1736.24 1462.39 1735.43 1464.31 Q1734.64 1466.2 1732.54 1468.8 Q1731.96 1469.47 1728.85 1472.69 Q1725.75 1475.88 1720.1 1481.64 Z" fill="#000000" fill-rule="nonzero" fill-opacity="1" /><path clip-path="url(#clip410)" d="M1746.24 1479.7 L1751.12 1479.7 L1751.12 1485.58 L1746.24 1485.58 L1746.24 1479.7 Z" fill="#000000" fill-rule="nonzero" fill-opacity="1" /><path clip-path="url(#clip410)" d="M1761.35 1451.02 L1779.71 1451.02 L1779.71 1454.96 L1765.64 1454.96 L1765.64 1463.43 Q1766.66 1463.08 1767.67 1462.92 Q1768.69 1462.73 1769.71 1462.73 Q1775.5 1462.73 1778.88 1465.9 Q1782.26 1469.08 1782.26 1474.49 Q1782.26 1480.07 1778.79 1483.17 Q1775.31 1486.25 1768.99 1486.25 Q1766.82 1486.25 1764.55 1485.88 Q1762.3 1485.51 1759.9 1484.77 L1759.9 1480.07 Q1761.98 1481.2 1764.2 1481.76 Q1766.42 1482.32 1768.9 1482.32 Q1772.91 1482.32 1775.24 1480.21 Q1777.58 1478.1 1777.58 1474.49 Q1777.58 1470.88 1775.24 1468.77 Q1772.91 1466.67 1768.9 1466.67 Q1767.03 1466.67 1765.15 1467.08 Q1763.3 1467.5 1761.35 1468.38 L1761.35 1451.02 Z" fill="#000000" fill-rule="nonzero" fill-opacity="1" /><path clip-path="url(#clip410)" d="M2233.82 1466.95 Q2237.18 1467.66 2239.05 1469.93 Q2240.95 1472.2 2240.95 1475.53 Q2240.95 1480.65 2237.43 1483.45 Q2233.91 1486.25 2227.43 1486.25 Q2225.25 1486.25 2222.94 1485.81 Q2220.65 1485.39 2218.19 1484.54 L2218.19 1480.02 Q2220.14 1481.16 2222.45 1481.74 Q2224.77 1482.32 2227.29 1482.32 Q2231.69 1482.32 2233.98 1480.58 Q2236.3 1478.84 2236.3 1475.53 Q2236.3 1472.48 2234.14 1470.77 Q2232.01 1469.03 2228.19 1469.03 L2224.17 1469.03 L2224.17 1465.19 L2228.38 1465.19 Q2231.83 1465.19 2233.66 1463.82 Q2235.49 1462.43 2235.49 1459.84 Q2235.49 1457.18 2233.59 1455.77 Q2231.71 1454.33 2228.19 1454.33 Q2226.27 1454.33 2224.07 1454.75 Q2221.87 1455.16 2219.24 1456.04 L2219.24 1451.88 Q2221.9 1451.14 2224.21 1450.77 Q2226.55 1450.39 2228.61 1450.39 Q2233.93 1450.39 2237.04 1452.83 Q2240.14 1455.23 2240.14 1459.35 Q2240.14 1462.22 2238.49 1464.21 Q2236.85 1466.18 2233.82 1466.95 Z" fill="#000000" fill-rule="nonzero" fill-opacity="1" /><path clip-path="url(#clip410)" d="M2249.81 1479.7 L2254.7 1479.7 L2254.7 1485.58 L2249.81 1485.58 L2249.81 1479.7 Z" fill="#000000" fill-rule="nonzero" fill-opacity="1" /><path clip-path="url(#clip410)" d="M2274.88 1454.1 Q2271.27 1454.1 2269.44 1457.66 Q2267.64 1461.2 2267.64 1468.33 Q2267.64 1475.44 2269.44 1479.01 Q2271.27 1482.55 2274.88 1482.55 Q2278.52 1482.55 2280.32 1479.01 Q2282.15 1475.44 2282.15 1468.33 Q2282.15 1461.2 2280.32 1457.66 Q2278.52 1454.1 2274.88 1454.1 M2274.88 1450.39 Q2280.69 1450.39 2283.75 1455 Q2286.83 1459.58 2286.83 1468.33 Q2286.83 1477.06 2283.75 1481.67 Q2280.69 1486.25 2274.88 1486.25 Q2269.07 1486.25 2265.99 1481.67 Q2262.94 1477.06 2262.94 1468.33 Q2262.94 1459.58 2265.99 1455 Q2269.07 1450.39 2274.88 1450.39 Z" fill="#000000" fill-rule="nonzero" fill-opacity="1" /><path clip-path="url(#clip410)" d="M991.904 1554.39 L991.904 1552.36 Q995.414 1552.36 996.219 1551.94 Q997.024 1551.49 997.024 1549.37 L997.024 1515.07 Q997.024 1512.62 996.155 1512.01 Q995.318 1511.4 991.904 1511.4 L991.904 1509.33 L1001.37 1508.63 L1001.37 1549.37 Q1001.37 1551.49 1002.21 1551.94 Q1003.05 1552.36 1006.53 1552.36 L1006.53 1554.39 Q1005.72 1554.39 1004.05 1554.33 Q1002.37 1554.26 1001.15 1554.23 Q999.923 1554.2 999.214 1554.2 Q998.442 1554.2 991.904 1554.39 Z" fill="#000000" fill-rule="nonzero" fill-opacity="1" /><path clip-path="url(#clip410)" d="M1016.45 1550.85 Q1012.1 1546.53 1012.1 1540.28 Q1012.1 1534 1016.35 1529.43 Q1020.64 1524.83 1026.76 1524.83 Q1032.75 1524.83 1037.03 1529.4 Q1041.35 1533.94 1041.35 1540.28 Q1041.35 1546.5 1037 1550.82 Q1032.68 1555.13 1026.69 1555.13 Q1020.83 1555.13 1016.45 1550.85 M1017.58 1539.74 Q1017.58 1546.15 1019.25 1549.04 Q1021.83 1553.46 1026.76 1553.46 Q1029.2 1553.46 1031.23 1552.14 Q1033.29 1550.82 1034.42 1548.59 Q1035.87 1545.69 1035.87 1539.74 Q1035.87 1533.39 1034.13 1530.59 Q1031.55 1526.31 1026.69 1526.31 Q1024.57 1526.31 1022.47 1527.43 Q1020.41 1528.53 1019.16 1530.72 Q1017.58 1533.62 1017.58 1539.74 Z" fill="#000000" fill-rule="nonzero" fill-opacity="1" /><path clip-path="url(#clip410)" d="M1042.39 1559.61 Q1042.39 1557.48 1044 1555.65 Q1045.64 1553.81 1048.48 1553.01 Q1045.58 1551.17 1045.58 1547.14 Q1045.58 1544.05 1047.61 1541.67 Q1044.52 1539.09 1044.52 1534.87 Q1044.52 1530.98 1047.61 1528.11 Q1050.7 1525.24 1055.21 1525.24 Q1059.17 1525.24 1062.2 1527.63 Q1065.35 1524.54 1069.19 1524.5 Q1070.89 1524.5 1071.7 1525.57 Q1072.53 1526.63 1072.53 1527.76 Q1072.53 1528.75 1071.89 1529.24 Q1071.28 1529.72 1070.63 1529.72 Q1069.83 1529.72 1069.25 1529.21 Q1068.7 1528.66 1068.7 1527.82 Q1068.7 1526.44 1069.77 1526.02 Q1069.57 1525.95 1069.12 1525.95 Q1065.9 1525.95 1063.16 1528.53 Q1065.87 1531.04 1065.87 1534.94 Q1065.87 1538.84 1062.78 1541.7 Q1059.68 1544.57 1055.21 1544.57 Q1051.5 1544.57 1048.67 1542.51 Q1047.54 1543.83 1047.54 1545.63 Q1047.54 1547.27 1048.54 1548.56 Q1049.54 1549.85 1051.05 1550.04 Q1051.5 1550.11 1055.98 1550.11 Q1058.62 1550.11 1060.07 1550.17 Q1061.52 1550.24 1063.58 1550.69 Q1065.68 1551.11 1067.32 1551.94 Q1071.6 1554.33 1071.63 1559.48 Q1071.63 1563.25 1067.29 1565.6 Q1062.97 1567.98 1056.98 1567.98 Q1050.92 1567.98 1046.64 1565.57 Q1042.39 1563.18 1042.39 1559.61 M1045.84 1559.61 Q1045.84 1562.31 1049.02 1564.37 Q1052.21 1566.47 1057.04 1566.47 Q1061.78 1566.47 1064.97 1564.41 Q1068.19 1562.38 1068.19 1559.61 Q1068.19 1557.64 1067.06 1556.39 Q1065.93 1555.13 1063.61 1554.62 Q1061.33 1554.13 1059.72 1554.04 Q1058.11 1553.94 1055.14 1553.94 L1051.25 1553.94 Q1048.99 1554.07 1047.41 1555.71 Q1045.84 1557.35 1045.84 1559.61 M1049.44 1534.94 Q1049.44 1543.05 1055.21 1543.05 Q1058.11 1543.05 1059.88 1540.41 Q1060.94 1538.64 1060.94 1534.87 Q1060.94 1526.76 1055.21 1526.76 Q1052.31 1526.76 1050.51 1529.4 Q1049.44 1531.17 1049.44 1534.94 Z" fill="#000000" fill-rule="nonzero" fill-opacity="1" /><path clip-path="url(#clip410)" d="M1079.27 1546.31 L1079.27 1544.87 Q1084.82 1544.87 1087.68 1541.92 Q1088.47 1541.92 1088.61 1542.1 Q1088.74 1542.28 1088.74 1543.11 L1088.74 1569.01 Q1088.74 1570.39 1089.42 1570.82 Q1090.1 1571.25 1093.05 1571.25 L1094.51 1571.25 L1094.51 1572.67 Q1092.89 1572.53 1087.03 1572.53 Q1081.17 1572.53 1079.57 1572.67 L1079.57 1571.25 L1081.03 1571.25 Q1083.94 1571.25 1084.64 1570.84 Q1085.34 1570.41 1085.34 1569.01 L1085.34 1545.1 Q1082.93 1546.31 1079.27 1546.31 Z" fill="#000000" fill-rule="nonzero" fill-opacity="1" /><path clip-path="url(#clip410)" d="M1096.8 1557.9 Q1096.8 1551.11 1098.51 1547.42 Q1100.9 1541.92 1106.54 1541.92 Q1107.73 1541.92 1108.97 1542.26 Q1110.24 1542.57 1111.82 1543.81 Q1113.42 1545.05 1114.39 1547.08 Q1116.23 1551 1116.23 1557.9 Q1116.23 1564.64 1114.52 1568.32 Q1112.02 1573.68 1106.49 1573.68 Q1104.42 1573.68 1102.3 1572.62 Q1100.2 1571.56 1098.87 1569.01 Q1096.8 1565.2 1096.8 1557.9 M1100.63 1557.34 Q1100.63 1564.3 1101.13 1567.08 Q1101.69 1570.07 1103.23 1571.38 Q1104.78 1572.67 1106.49 1572.67 Q1108.34 1572.67 1109.88 1571.29 Q1111.43 1569.89 1111.91 1566.9 Q1112.42 1563.94 1112.4 1557.34 Q1112.4 1550.91 1111.95 1548.34 Q1111.34 1545.34 1109.72 1544.15 Q1108.12 1542.93 1106.49 1542.93 Q1105.89 1542.93 1105.23 1543.11 Q1104.6 1543.29 1103.68 1543.81 Q1102.75 1544.33 1102.03 1545.61 Q1101.33 1546.9 1100.99 1548.84 Q1100.63 1551.34 1100.63 1557.34 Z" fill="#000000" fill-rule="nonzero" fill-opacity="1" /><path clip-path="url(#clip410)" d="M1126.71 1537.9 Q1126.71 1526.76 1130.86 1517.77 Q1132.63 1514 1135.11 1510.85 Q1137.59 1507.69 1139.23 1506.31 Q1140.88 1504.92 1141.33 1504.92 Q1141.97 1504.92 1142 1505.57 Q1142 1505.89 1141.13 1506.69 Q1130.51 1517.51 1130.54 1537.9 Q1130.54 1558.35 1140.88 1568.75 Q1142 1569.88 1142 1570.24 Q1142 1570.88 1141.33 1570.88 Q1140.88 1570.88 1139.3 1569.56 Q1137.72 1568.24 1135.27 1565.21 Q1132.82 1562.18 1131.05 1558.48 Q1126.71 1549.5 1126.71 1537.9 Z" fill="#000000" fill-rule="nonzero" fill-opacity="1" /><path clip-path="url(#clip410)" d="M1152.03 1553.52 L1152.03 1544.83 Q1152.03 1544.08 1152.07 1543.83 Q1152.1 1543.57 1152.29 1543.38 Q1152.48 1543.18 1152.87 1543.18 Q1153.32 1543.18 1153.48 1543.38 Q1153.68 1543.57 1153.8 1544.31 Q1154.8 1548.85 1156.93 1551.27 Q1159.09 1553.65 1162.98 1553.65 Q1166.69 1553.65 1168.55 1552.01 Q1170.42 1550.36 1170.42 1547.66 Q1170.42 1542.83 1163.56 1541.6 Q1159.6 1540.8 1157.96 1540.28 Q1156.32 1539.74 1154.87 1538.55 Q1152.03 1536.23 1152.03 1532.94 Q1152.03 1529.66 1154.51 1527.24 Q1157.02 1524.83 1162.56 1524.83 Q1166.27 1524.83 1168.78 1526.69 Q1169.52 1526.11 1169.91 1525.63 Q1170.78 1524.83 1171.23 1524.83 Q1171.74 1524.83 1171.84 1525.18 Q1171.94 1525.5 1171.94 1526.44 L1171.94 1533.07 Q1171.94 1533.81 1171.9 1534.07 Q1171.87 1534.33 1171.68 1534.52 Q1171.49 1534.68 1171.07 1534.68 Q1170.33 1534.68 1170.29 1534.07 Q1169.78 1526.08 1162.56 1526.08 Q1158.67 1526.08 1156.93 1527.6 Q1155.19 1529.08 1155.19 1531.11 Q1155.19 1532.23 1155.7 1533.1 Q1156.25 1533.94 1156.93 1534.46 Q1157.64 1534.94 1158.92 1535.42 Q1160.21 1535.87 1160.99 1536.03 Q1161.79 1536.19 1163.3 1536.52 Q1168.59 1537.51 1170.81 1539.67 Q1173.58 1542.44 1173.58 1545.95 Q1173.58 1549.85 1170.94 1552.49 Q1168.3 1555.13 1162.98 1555.13 Q1158.7 1555.13 1155.7 1552.26 Q1155.32 1552.65 1155.03 1553.01 Q1154.74 1553.33 1154.61 1553.46 Q1154.51 1553.59 1154.48 1553.68 Q1154.45 1553.75 1154.38 1553.81 Q1153.06 1555.13 1152.74 1555.13 Q1152.23 1555.13 1152.13 1554.78 Q1152.03 1554.45 1152.03 1553.52 Z" fill="#000000" fill-rule="nonzero" fill-opacity="1" /><path clip-path="url(#clip410)" d="M1177.22 1548.11 Q1177.22 1542.51 1183.82 1539.54 Q1187.78 1537.64 1195.96 1537.16 L1195.96 1534.74 Q1195.96 1530.65 1193.8 1528.5 Q1191.68 1526.31 1188.97 1526.31 Q1184.14 1526.31 1181.82 1529.33 Q1183.79 1529.4 1184.49 1530.4 Q1185.2 1531.36 1185.2 1532.36 Q1185.2 1533.68 1184.36 1534.55 Q1183.56 1535.39 1182.17 1535.39 Q1180.85 1535.39 1179.98 1534.58 Q1179.12 1533.75 1179.12 1532.3 Q1179.12 1529.08 1182.01 1526.95 Q1184.94 1524.83 1189.1 1524.83 Q1194.51 1524.83 1198.12 1528.46 Q1199.24 1529.59 1199.79 1531.04 Q1200.37 1532.49 1200.44 1533.46 Q1200.5 1534.39 1200.5 1536.26 L1200.5 1549.43 Q1200.5 1549.82 1200.63 1550.46 Q1200.76 1551.11 1201.34 1551.94 Q1201.95 1552.75 1202.95 1552.75 Q1205.33 1552.75 1205.3 1548.53 L1205.3 1544.83 L1206.97 1544.83 L1206.97 1548.53 Q1206.97 1552.04 1205.11 1553.42 Q1203.27 1554.78 1201.56 1554.78 Q1199.37 1554.78 1197.99 1553.17 Q1196.6 1551.56 1196.41 1549.37 Q1195.41 1551.88 1193.12 1553.52 Q1190.87 1555.13 1187.78 1555.13 Q1185.4 1555.13 1183.14 1554.52 Q1180.92 1553.94 1179.05 1552.3 Q1177.22 1550.62 1177.22 1548.11 M1182.3 1548.05 Q1182.3 1550.49 1184.04 1552.07 Q1185.78 1553.65 1188.23 1553.65 Q1191 1553.65 1193.48 1551.52 Q1195.96 1549.37 1195.96 1545.15 L1195.96 1538.55 Q1188.65 1538.8 1185.46 1541.73 Q1182.3 1544.63 1182.3 1548.05 Z" fill="#000000" fill-rule="nonzero" fill-opacity="1" /><path clip-path="url(#clip410)" d="M1208.3 1554.39 L1208.3 1552.36 Q1211.81 1552.36 1212.61 1551.94 Q1213.42 1551.49 1213.42 1549.37 L1213.42 1531.69 Q1213.42 1529.24 1212.55 1528.63 Q1211.71 1528.01 1208.3 1528.01 L1208.3 1525.95 L1217.57 1525.24 L1217.57 1532.17 Q1220.66 1525.24 1227.33 1525.24 Q1235.06 1525.24 1236.12 1531.69 Q1237.25 1529.17 1239.6 1527.21 Q1241.98 1525.24 1245.69 1525.24 Q1250.65 1525.24 1252.61 1527.69 Q1254.06 1529.33 1254.35 1531.17 Q1254.64 1533.01 1254.64 1537.77 L1254.64 1550.36 Q1254.7 1551.75 1255.77 1552.07 Q1256.83 1552.36 1259.79 1552.36 L1259.79 1554.39 Q1253.06 1554.2 1252.42 1554.2 Q1251.9 1554.2 1244.95 1554.39 L1244.95 1552.36 Q1248.46 1552.36 1249.26 1551.94 Q1250.1 1551.49 1250.1 1549.37 L1250.1 1534 Q1250.1 1530.65 1249.07 1528.69 Q1248.04 1526.69 1245.2 1526.69 Q1241.79 1526.69 1239.05 1529.56 Q1236.31 1532.43 1236.31 1537.26 L1236.31 1549.37 Q1236.31 1551.49 1237.12 1551.94 Q1237.96 1552.36 1241.47 1552.36 L1241.47 1554.39 Q1234.74 1554.2 1234.06 1554.2 Q1233.54 1554.2 1226.62 1554.39 L1226.62 1552.36 Q1230.13 1552.36 1230.94 1551.94 Q1231.77 1551.49 1231.77 1549.37 L1231.77 1534 Q1231.77 1530.65 1230.74 1528.69 Q1229.71 1526.69 1226.88 1526.69 Q1223.46 1526.69 1220.73 1529.56 Q1217.99 1532.43 1217.99 1537.26 L1217.99 1549.37 Q1217.99 1551.49 1218.79 1551.94 Q1219.63 1552.36 1223.11 1552.36 L1223.11 1554.39 Q1216.38 1554.2 1215.73 1554.2 Q1215.22 1554.2 1208.3 1554.39 Z" fill="#000000" fill-rule="nonzero" fill-opacity="1" /><path clip-path="url(#clip410)" d="M1259.71 1565.15 Q1263.22 1565.15 1264.02 1564.7 Q1264.86 1564.28 1264.86 1562.18 L1264.86 1531.3 Q1264.86 1529.11 1264.02 1528.56 Q1263.22 1528.01 1259.71 1528.01 L1259.71 1525.95 L1269.21 1525.24 L1269.21 1529.59 Q1273.17 1525.24 1278.45 1525.24 Q1284.06 1525.24 1288.15 1529.59 Q1292.24 1533.94 1292.24 1540.16 Q1292.24 1546.44 1287.89 1550.78 Q1283.54 1555.13 1277.52 1555.13 Q1274.23 1555.13 1272.01 1553.46 Q1269.82 1551.75 1269.4 1550.49 L1269.4 1551.11 L1269.4 1562.18 Q1269.4 1564.31 1270.24 1564.73 Q1271.08 1565.15 1274.55 1565.15 L1274.55 1567.18 Q1267.63 1566.98 1267.12 1566.98 Q1266.47 1566.98 1259.71 1567.18 L1259.71 1565.15 M1269.4 1546.89 Q1269.4 1547.88 1269.53 1548.24 Q1269.69 1548.59 1270.34 1549.66 Q1272.94 1553.65 1277.2 1553.65 Q1277.23 1553.65 1277.26 1553.65 Q1281.03 1553.65 1283.89 1549.82 Q1286.76 1545.95 1286.76 1540.16 Q1286.76 1534.62 1284.15 1530.75 Q1281.54 1526.89 1277.94 1526.89 Q1275.36 1526.89 1273.11 1528.27 Q1270.85 1529.66 1269.4 1532.17 L1269.4 1546.89 Z" fill="#000000" fill-rule="nonzero" fill-opacity="1" /><path clip-path="url(#clip410)" d="M1301.22 1554.39 L1301.22 1552.36 Q1304.74 1552.36 1305.54 1551.94 Q1306.35 1551.49 1306.35 1549.37 L1306.35 1515.07 Q1306.35 1512.62 1305.48 1512.01 Q1304.64 1511.4 1301.22 1511.4 L1301.22 1509.33 L1310.69 1508.63 L1310.69 1549.37 Q1310.69 1551.49 1311.53 1551.94 Q1312.37 1552.36 1315.85 1552.36 L1315.85 1554.39 Q1315.04 1554.39 1313.37 1554.33 Q1311.69 1554.26 1310.47 1554.23 Q1309.24 1554.2 1308.54 1554.2 Q1307.76 1554.2 1301.22 1554.39 Z" fill="#000000" fill-rule="nonzero" fill-opacity="1" /><path clip-path="url(#clip410)" d="M1320.1 1539.87 Q1320.1 1533.65 1324.1 1529.24 Q1328.09 1524.83 1333.82 1524.83 Q1339.62 1524.83 1342.62 1528.59 Q1345.64 1532.36 1345.64 1537.77 Q1345.64 1538.77 1345.38 1538.96 Q1345.13 1539.16 1344 1539.16 L1325.58 1539.16 Q1325.58 1545.89 1327.57 1549.04 Q1330.34 1553.46 1335.01 1553.46 Q1335.66 1553.46 1336.43 1553.33 Q1337.2 1553.2 1338.78 1552.65 Q1340.36 1552.07 1341.75 1550.56 Q1343.13 1549.04 1343.94 1546.66 Q1344.13 1545.73 1344.77 1545.76 Q1345.64 1545.76 1345.64 1546.53 Q1345.64 1547.11 1345 1548.43 Q1344.39 1549.72 1343.19 1551.27 Q1342 1552.81 1339.68 1553.97 Q1337.4 1555.13 1334.63 1555.13 Q1328.83 1555.13 1324.45 1550.75 Q1320.1 1546.34 1320.1 1539.87 M1325.64 1537.77 L1341.29 1537.77 Q1341.29 1536.39 1341.04 1534.84 Q1340.81 1533.3 1340.1 1531.17 Q1339.43 1529.01 1337.82 1527.66 Q1336.21 1526.31 1333.82 1526.31 Q1332.76 1526.31 1331.6 1526.76 Q1330.47 1527.21 1329.09 1528.3 Q1327.7 1529.4 1326.74 1531.88 Q1325.77 1534.36 1325.64 1537.77 Z" fill="#000000" fill-rule="nonzero" fill-opacity="1" /><path clip-path="url(#clip410)" d="M1366.53 1553.52 L1366.53 1544.83 Q1366.53 1544.08 1366.56 1543.83 Q1366.59 1543.57 1366.79 1543.38 Q1366.98 1543.18 1367.37 1543.18 Q1367.82 1543.18 1367.98 1543.38 Q1368.17 1543.57 1368.3 1544.31 Q1369.3 1548.85 1371.43 1551.27 Q1373.58 1553.65 1377.48 1553.65 Q1381.18 1553.65 1383.05 1552.01 Q1384.92 1550.36 1384.92 1547.66 Q1384.92 1542.83 1378.06 1541.6 Q1374.1 1540.8 1372.46 1540.28 Q1370.81 1539.74 1369.36 1538.55 Q1366.53 1536.23 1366.53 1532.94 Q1366.53 1529.66 1369.01 1527.24 Q1371.52 1524.83 1377.06 1524.83 Q1380.76 1524.83 1383.28 1526.69 Q1384.02 1526.11 1384.4 1525.63 Q1385.27 1524.83 1385.72 1524.83 Q1386.24 1524.83 1386.34 1525.18 Q1386.43 1525.5 1386.43 1526.44 L1386.43 1533.07 Q1386.43 1533.81 1386.4 1534.07 Q1386.37 1534.33 1386.18 1534.52 Q1385.98 1534.68 1385.56 1534.68 Q1384.82 1534.68 1384.79 1534.07 Q1384.28 1526.08 1377.06 1526.08 Q1373.16 1526.08 1371.43 1527.6 Q1369.69 1529.08 1369.69 1531.11 Q1369.69 1532.23 1370.2 1533.1 Q1370.75 1533.94 1371.43 1534.46 Q1372.13 1534.94 1373.42 1535.42 Q1374.71 1535.87 1375.48 1536.03 Q1376.29 1536.19 1377.8 1536.52 Q1383.08 1537.51 1385.31 1539.67 Q1388.08 1542.44 1388.08 1545.95 Q1388.08 1549.85 1385.43 1552.49 Q1382.79 1555.13 1377.48 1555.13 Q1373.2 1555.13 1370.2 1552.26 Q1369.81 1552.65 1369.52 1553.01 Q1369.24 1553.33 1369.11 1553.46 Q1369.01 1553.59 1368.98 1553.68 Q1368.95 1553.75 1368.88 1553.81 Q1367.56 1555.13 1367.24 1555.13 Q1366.72 1555.13 1366.63 1554.78 Q1366.53 1554.45 1366.53 1553.52 Z" fill="#000000" fill-rule="nonzero" fill-opacity="1" /><path clip-path="url(#clip410)" d="M1390.66 1554.39 L1390.66 1552.36 Q1394.17 1552.36 1394.97 1551.94 Q1395.78 1551.49 1395.78 1549.37 L1395.78 1531.62 Q1395.78 1529.17 1394.94 1528.59 Q1394.13 1528.01 1390.91 1528.01 L1390.91 1525.95 L1400.12 1525.24 L1400.12 1549.43 Q1400.12 1551.4 1400.83 1551.88 Q1401.54 1552.36 1404.76 1552.36 L1404.76 1554.39 Q1398.03 1554.2 1397.9 1554.2 Q1397 1554.2 1390.66 1554.39 M1393.43 1513.75 Q1393.43 1512.43 1394.42 1511.36 Q1395.45 1510.27 1396.9 1510.27 Q1398.35 1510.27 1399.38 1511.27 Q1400.41 1512.23 1400.41 1513.78 Q1400.41 1515.29 1399.38 1516.29 Q1398.35 1517.26 1396.9 1517.26 Q1395.39 1517.26 1394.39 1516.19 Q1393.43 1515.13 1393.43 1513.75 Z" fill="#000000" fill-rule="nonzero" fill-opacity="1" /><path clip-path="url(#clip410)" d="M1410.59 1553.46 Q1410.59 1553.01 1411.2 1552.26 L1429.59 1527.4 L1422.09 1527.4 Q1416.87 1527.4 1415.16 1529.33 Q1413.49 1531.23 1413.17 1536.58 L1411.52 1536.58 L1412.27 1525.95 L1433.36 1525.95 Q1434.1 1525.95 1434.39 1525.98 Q1434.68 1526.02 1434.87 1526.24 Q1435.07 1526.44 1435.07 1526.82 Q1435.07 1527.21 1434.49 1527.95 L1416.13 1552.75 L1423.92 1552.75 Q1429.4 1552.75 1431.23 1550.46 Q1433.1 1548.17 1433.55 1542.06 L1435.2 1542.06 L1434.07 1554.39 L1412.33 1554.39 Q1411.27 1554.39 1410.91 1554.26 Q1410.59 1554.1 1410.59 1553.46 Z" fill="#000000" fill-rule="nonzero" fill-opacity="1" /><path clip-path="url(#clip410)" d="M1442.23 1539.87 Q1442.23 1533.65 1446.22 1529.24 Q1450.21 1524.83 1455.95 1524.83 Q1461.74 1524.83 1464.74 1528.59 Q1467.77 1532.36 1467.77 1537.77 Q1467.77 1538.77 1467.51 1538.96 Q1467.25 1539.16 1466.12 1539.16 L1447.7 1539.16 Q1447.7 1545.89 1449.7 1549.04 Q1452.47 1553.46 1457.14 1553.46 Q1457.78 1553.46 1458.55 1553.33 Q1459.33 1553.2 1460.91 1552.65 Q1462.48 1552.07 1463.87 1550.56 Q1465.25 1549.04 1466.06 1546.66 Q1466.25 1545.73 1466.9 1545.76 Q1467.77 1545.76 1467.77 1546.53 Q1467.77 1547.11 1467.12 1548.43 Q1466.51 1549.72 1465.32 1551.27 Q1464.13 1552.81 1461.81 1553.97 Q1459.52 1555.13 1456.75 1555.13 Q1450.95 1555.13 1446.57 1550.75 Q1442.23 1546.34 1442.23 1539.87 M1447.77 1537.77 L1463.42 1537.77 Q1463.42 1536.39 1463.16 1534.84 Q1462.93 1533.3 1462.23 1531.17 Q1461.55 1529.01 1459.94 1527.66 Q1458.33 1526.31 1455.95 1526.31 Q1454.88 1526.31 1453.72 1526.76 Q1452.6 1527.21 1451.21 1528.3 Q1449.83 1529.4 1448.86 1531.88 Q1447.89 1534.36 1447.77 1537.77 Z" fill="#000000" fill-rule="nonzero" fill-opacity="1" /><path clip-path="url(#clip410)" d="M1471.22 1570.24 Q1471.22 1569.91 1472.06 1569.11 Q1482.69 1558.29 1482.69 1537.9 Q1482.69 1517.45 1472.48 1507.11 Q1471.22 1505.92 1471.22 1505.57 Q1471.22 1504.92 1471.87 1504.92 Q1472.32 1504.92 1473.9 1506.24 Q1475.51 1507.56 1477.92 1510.59 Q1480.37 1513.62 1482.17 1517.32 Q1486.52 1526.31 1486.52 1537.9 Q1486.52 1549.04 1482.37 1558.03 Q1480.59 1561.8 1478.11 1564.95 Q1475.63 1568.11 1473.99 1569.49 Q1472.35 1570.88 1471.87 1570.88 Q1471.22 1570.88 1471.22 1570.24 Z" fill="#000000" fill-rule="nonzero" fill-opacity="1" /><polyline clip-path="url(#clip410)" style="stroke:#000000; stroke-linecap:round; stroke-linejoin:round; stroke-width:4; stroke-opacity:1; fill:none" points="175.445,1423.18 175.445,78.9921 "/>
<polyline clip-path="url(#clip410)" style="stroke:#000000; stroke-linecap:round; stroke-linejoin:round; stroke-width:4; stroke-opacity:1; fill:none" points="175.445,1347.59 194.343,1347.59 "/>
<polyline clip-path="url(#clip410)" style="stroke:#000000; stroke-linecap:round; stroke-linejoin:round; stroke-width:4; stroke-opacity:1; fill:none" points="175.445,1113.22 194.343,1113.22 "/>
<polyline clip-path="url(#clip410)" style="stroke:#000000; stroke-linecap:round; stroke-linejoin:round; stroke-width:4; stroke-opacity:1; fill:none" points="175.445,878.849 194.343,878.849 "/>
<polyline clip-path="url(#clip410)" style="stroke:#000000; stroke-linecap:round; stroke-linejoin:round; stroke-width:4; stroke-opacity:1; fill:none" points="175.445,644.479 194.343,644.479 "/>
<polyline clip-path="url(#clip410)" style="stroke:#000000; stroke-linecap:round; stroke-linejoin:round; stroke-width:4; stroke-opacity:1; fill:none" points="175.445,410.108 194.343,410.108 "/>
<polyline clip-path="url(#clip410)" style="stroke:#000000; stroke-linecap:round; stroke-linejoin:round; stroke-width:4; stroke-opacity:1; fill:none" points="175.445,175.738 194.343,175.738 "/>
<path clip-path="url(#clip410)" d="M127.501 1333.39 Q123.89 1333.39 122.061 1336.95 Q120.255 1340.5 120.255 1347.62 Q120.255 1354.73 122.061 1358.3 Q123.89 1361.84 127.501 1361.84 Q131.135 1361.84 132.941 1358.3 Q134.769 1354.73 134.769 1347.62 Q134.769 1340.5 132.941 1336.95 Q131.135 1333.39 127.501 1333.39 M127.501 1329.69 Q133.311 1329.69 136.367 1334.29 Q139.445 1338.87 139.445 1347.62 Q139.445 1356.35 136.367 1360.96 Q133.311 1365.54 127.501 1365.54 Q121.691 1365.54 118.612 1360.96 Q115.556 1356.35 115.556 1347.62 Q115.556 1338.87 118.612 1334.29 Q121.691 1329.69 127.501 1329.69 Z" fill="#000000" fill-rule="nonzero" fill-opacity="1" /><path clip-path="url(#clip410)" d="M119.538 1126.56 L127.177 1126.56 L127.177 1100.2 L118.867 1101.87 L118.867 1097.61 L127.13 1095.94 L131.806 1095.94 L131.806 1126.56 L139.445 1126.56 L139.445 1130.5 L119.538 1130.5 L119.538 1126.56 Z" fill="#000000" fill-rule="nonzero" fill-opacity="1" /><path clip-path="url(#clip410)" d="M123.126 892.194 L139.445 892.194 L139.445 896.129 L117.501 896.129 L117.501 892.194 Q120.163 889.44 124.746 884.81 Q129.353 880.157 130.533 878.815 Q132.779 876.291 133.658 874.555 Q134.561 872.796 134.561 871.106 Q134.561 868.352 132.617 866.616 Q130.695 864.879 127.593 864.879 Q125.394 864.879 122.941 865.643 Q120.51 866.407 117.732 867.958 L117.732 863.236 Q120.556 862.102 123.01 861.523 Q125.464 860.944 127.501 860.944 Q132.871 860.944 136.066 863.629 Q139.26 866.315 139.26 870.805 Q139.26 872.935 138.45 874.856 Q137.663 876.754 135.556 879.347 Q134.978 880.018 131.876 883.236 Q128.774 886.43 123.126 892.194 Z" fill="#000000" fill-rule="nonzero" fill-opacity="1" /><path clip-path="url(#clip410)" d="M132.316 643.125 Q135.672 643.842 137.547 646.111 Q139.445 648.379 139.445 651.713 Q139.445 656.828 135.927 659.629 Q132.408 662.43 125.927 662.43 Q123.751 662.43 121.436 661.99 Q119.144 661.574 116.691 660.717 L116.691 656.203 Q118.635 657.338 120.95 657.916 Q123.265 658.495 125.788 658.495 Q130.186 658.495 132.478 656.759 Q134.792 655.023 134.792 651.713 Q134.792 648.657 132.64 646.944 Q130.51 645.208 126.691 645.208 L122.663 645.208 L122.663 641.365 L126.876 641.365 Q130.325 641.365 132.154 640 Q133.982 638.611 133.982 636.018 Q133.982 633.356 132.084 631.944 Q130.209 630.509 126.691 630.509 Q124.769 630.509 122.57 630.926 Q120.371 631.342 117.732 632.222 L117.732 628.055 Q120.394 627.315 122.709 626.944 Q125.047 626.574 127.107 626.574 Q132.431 626.574 135.533 629.004 Q138.635 631.412 138.635 635.532 Q138.635 638.403 136.992 640.393 Q135.348 642.361 132.316 643.125 Z" fill="#000000" fill-rule="nonzero" fill-opacity="1" /><path clip-path="url(#clip410)" d="M129.862 396.902 L118.056 415.351 L129.862 415.351 L129.862 396.902 M128.635 392.828 L134.515 392.828 L134.515 415.351 L139.445 415.351 L139.445 419.24 L134.515 419.24 L134.515 427.388 L129.862 427.388 L129.862 419.24 L114.26 419.24 L114.26 414.726 L128.635 392.828 Z" fill="#000000" fill-rule="nonzero" fill-opacity="1" /><path clip-path="url(#clip410)" d="M118.543 158.458 L136.899 158.458 L136.899 162.393 L122.825 162.393 L122.825 170.865 Q123.843 170.518 124.862 170.356 Q125.88 170.171 126.899 170.171 Q132.686 170.171 136.066 173.342 Q139.445 176.513 139.445 181.93 Q139.445 187.509 135.973 190.611 Q132.501 193.689 126.181 193.689 Q124.005 193.689 121.737 193.319 Q119.492 192.949 117.084 192.208 L117.084 187.509 Q119.168 188.643 121.39 189.199 Q123.612 189.754 126.089 189.754 Q130.093 189.754 132.431 187.648 Q134.769 185.541 134.769 181.93 Q134.769 178.319 132.431 176.213 Q130.093 174.106 126.089 174.106 Q124.214 174.106 122.339 174.523 Q120.487 174.939 118.543 175.819 L118.543 158.458 Z" fill="#000000" fill-rule="nonzero" fill-opacity="1" /><path clip-path="url(#clip410)" d="M66.0841 1262.27 L64.0551 1262.27 Q64.0551 1259.89 63.6042 1258.38 Q63.1212 1256.86 62.2516 1256.32 Q61.3498 1255.77 60.7701 1255.64 Q60.1582 1255.48 59.1598 1255.48 L24.7318 1255.48 Q23.7978 1255.48 23.5724 1255.74 Q23.3469 1255.96 23.2181 1257.09 Q23.0893 1259.05 23.0893 1260.37 L23.0893 1262.27 L21.0281 1262.27 L21.0281 1251.07 Q21.0281 1250.13 21.1569 1249.88 Q21.2857 1249.62 21.8977 1249.17 L56.1325 1225.88 L27.9524 1225.88 Q26.954 1225.88 26.3743 1226.01 Q25.7946 1226.14 24.8928 1226.72 Q23.991 1227.27 23.5402 1228.78 Q23.0893 1230.29 23.0893 1232.68 L21.0281 1232.68 Q21.2213 1225.75 21.2213 1224.98 Q21.2213 1224.17 21.0281 1217.25 L23.0893 1217.25 Q23.0893 1219.63 23.5402 1221.15 Q23.991 1222.66 24.8928 1223.21 Q25.7946 1223.76 26.4065 1223.92 Q26.9862 1224.05 27.9524 1224.05 L64.3772 1224.05 Q65.44 1224.05 65.762 1224.17 Q66.0841 1224.3 66.0841 1224.95 Q66.0841 1225.4 65.2145 1226.08 L25.6657 1253 Q25.2793 1253.26 24.8606 1253.64 L59.1598 1253.64 Q60.1582 1253.64 60.7701 1253.51 Q61.3498 1253.39 62.2516 1252.84 Q63.1212 1252.26 63.6042 1250.74 Q64.0551 1249.23 64.0551 1246.85 L66.0841 1246.85 Q65.8909 1253.77 65.8909 1254.58 Q65.8909 1255.35 66.0841 1262.27 Z" fill="#000000" fill-rule="nonzero" fill-opacity="1" /><path clip-path="url(#clip410)" d="M62.5415 1202.3 Q58.2259 1206.65 51.9779 1206.65 Q45.6978 1206.65 41.1246 1202.4 Q36.5191 1198.12 36.5191 1192 Q36.5191 1186.01 41.0923 1181.72 Q45.6334 1177.41 51.9779 1177.41 Q58.1937 1177.41 62.5092 1181.76 Q66.8248 1186.07 66.8248 1192.06 Q66.8248 1197.92 62.5415 1202.3 M51.4304 1201.18 Q57.8394 1201.18 60.7379 1199.5 Q65.1501 1196.92 65.1501 1192 Q65.1501 1189.55 63.8297 1187.52 Q62.5092 1185.46 60.287 1184.33 Q57.3885 1182.88 51.4304 1182.88 Q45.0859 1182.88 42.284 1184.62 Q38.0006 1187.2 38.0006 1192.06 Q38.0006 1194.19 39.1278 1196.28 Q40.2228 1198.34 42.4128 1199.6 Q45.3113 1201.18 51.4304 1201.18 Z" fill="#000000" fill-rule="nonzero" fill-opacity="1" /><path clip-path="url(#clip410)" d="M66.0841 1175.31 L64.0551 1175.31 Q64.0551 1171.8 63.6364 1170.99 Q63.1856 1170.15 61.06 1170.15 L43.379 1170.15 Q40.9313 1170.15 40.3194 1171.02 Q39.7075 1171.86 39.7075 1175.31 L37.6463 1175.31 L36.9378 1166.13 L44.1841 1166.13 Q41.35 1165.19 39.16 1163.23 Q36.9378 1161.23 36.9378 1158.01 Q36.9378 1155.89 38.1294 1154.53 Q39.321 1153.15 40.9635 1153.15 Q42.4128 1153.15 43.1535 1154.05 Q43.8621 1154.92 43.8621 1155.98 Q43.8621 1157.17 43.1213 1158.01 Q42.3484 1158.82 41.0279 1158.82 Q40.2228 1158.82 39.6109 1158.46 Q38.9668 1158.08 38.7413 1157.79 Q38.5159 1157.5 38.4515 1157.3 Q38.3871 1157.43 38.3871 1158.01 Q38.3871 1161.65 42.0263 1163.74 Q45.6334 1165.81 50.7863 1165.81 L60.9312 1165.81 Q62.8313 1165.81 63.4432 1165.03 Q64.0551 1164.23 64.0551 1160.78 L64.0551 1159.4 L66.0841 1159.4 Q65.8909 1162.04 65.8909 1167.77 Q65.8909 1168.58 65.9231 1169.83 Q65.9553 1171.09 66.0197 1172.73 Q66.0841 1174.37 66.0841 1175.31 Z" fill="#000000" fill-rule="nonzero" fill-opacity="1" /><path clip-path="url(#clip410)" d="M66.0841 1145.8 L64.0551 1145.8 Q64.0551 1142.29 63.6364 1141.48 Q63.1856 1140.68 61.06 1140.68 L43.379 1140.68 Q40.9313 1140.68 40.3194 1141.55 Q39.7075 1142.39 39.7075 1145.8 L37.6463 1145.8 L36.9378 1136.53 L43.8621 1136.53 Q36.9378 1133.43 36.9378 1126.77 Q36.9378 1119.04 43.379 1117.97 Q40.8669 1116.85 38.9023 1114.5 Q36.9378 1112.11 36.9378 1108.41 Q36.9378 1103.45 39.3854 1101.49 Q41.0279 1100.04 42.8637 1099.75 Q44.6994 1099.46 49.4659 1099.46 L62.0584 1099.46 Q63.4432 1099.39 63.7653 1098.33 Q64.0551 1097.27 64.0551 1094.3 L66.0841 1094.3 Q65.8909 1101.03 65.8909 1101.68 Q65.8909 1102.19 66.0841 1109.15 L64.0551 1109.15 Q64.0551 1105.64 63.6364 1104.83 Q63.1856 1104 61.06 1104 L45.6978 1104 Q42.3484 1104 40.3838 1105.03 Q38.3871 1106.06 38.3871 1108.89 Q38.3871 1112.31 41.2534 1115.04 Q44.1197 1117.78 48.9506 1117.78 L61.06 1117.78 Q63.1856 1117.78 63.6364 1116.98 Q64.0551 1116.14 64.0551 1112.63 L66.0841 1112.63 Q65.8909 1119.36 65.8909 1120.04 Q65.8909 1120.55 66.0841 1127.48 L64.0551 1127.48 Q64.0551 1123.96 63.6364 1123.16 Q63.1856 1122.32 61.06 1122.32 L45.6978 1122.32 Q42.3484 1122.32 40.3838 1123.35 Q38.3871 1124.38 38.3871 1127.22 Q38.3871 1130.63 41.2534 1133.37 Q44.1197 1136.11 48.9506 1136.11 L61.06 1136.11 Q63.1856 1136.11 63.6364 1135.3 Q64.0551 1134.46 64.0551 1130.99 L66.0841 1130.99 Q65.8909 1137.72 65.8909 1138.36 Q65.8909 1138.88 66.0841 1145.8 Z" fill="#000000" fill-rule="nonzero" fill-opacity="1" /><path clip-path="url(#clip410)" d="M59.804 1090.62 Q54.2001 1090.62 51.2372 1084.02 Q49.337 1080.06 48.854 1071.88 L46.4385 1071.88 Q42.3484 1071.88 40.1906 1074.04 Q38.0006 1076.16 38.0006 1078.87 Q38.0006 1083.7 41.0279 1086.02 Q41.0923 1084.05 42.0907 1083.34 Q43.0569 1082.63 44.0553 1082.63 Q45.3757 1082.63 46.2453 1083.47 Q47.0826 1084.28 47.0826 1085.66 Q47.0826 1086.98 46.2775 1087.85 Q45.4401 1088.72 43.9909 1088.72 Q40.7703 1088.72 38.6447 1085.82 Q36.5191 1082.89 36.5191 1078.74 Q36.5191 1073.33 40.1584 1069.72 Q41.2856 1068.59 42.7348 1068.05 Q44.1841 1067.47 45.1503 1067.4 Q46.0843 1067.34 47.9522 1067.34 L61.1244 1067.34 Q61.5109 1067.34 62.155 1067.21 Q62.7991 1067.08 63.6364 1066.5 Q64.4416 1065.89 64.4416 1064.89 Q64.4416 1062.51 60.2226 1062.54 L56.519 1062.54 L56.519 1060.86 L60.2226 1060.86 Q63.7331 1060.86 65.1179 1062.73 Q66.4706 1064.57 66.4706 1066.27 Q66.4706 1068.46 64.8603 1069.85 Q63.25 1071.23 61.06 1071.43 Q63.572 1072.43 65.2145 1074.71 Q66.8248 1076.97 66.8248 1080.06 Q66.8248 1082.44 66.2129 1084.7 Q65.6332 1086.92 63.9907 1088.79 Q62.316 1090.62 59.804 1090.62 M59.7395 1085.53 Q62.1872 1085.53 63.7653 1083.79 Q65.3434 1082.05 65.3434 1079.61 Q65.3434 1076.84 63.2178 1074.36 Q61.06 1071.88 56.841 1071.88 L50.2388 1071.88 Q50.4965 1079.19 53.4272 1082.38 Q56.3257 1085.53 59.7395 1085.53 Z" fill="#000000" fill-rule="nonzero" fill-opacity="1" /><path clip-path="url(#clip410)" d="M66.0841 1058.22 L64.0551 1058.22 Q64.0551 1054.71 63.6364 1053.91 Q63.1856 1053.1 61.06 1053.1 L26.7607 1053.1 Q24.3131 1053.1 23.7012 1053.97 Q23.0893 1054.81 23.0893 1058.22 L21.0281 1058.22 L20.3196 1048.75 L61.06 1048.75 Q63.1856 1048.75 63.6364 1047.92 Q64.0551 1047.08 64.0551 1043.6 L66.0841 1043.6 Q66.0841 1044.41 66.0197 1046.08 Q65.9553 1047.75 65.9231 1048.98 Q65.8909 1050.2 65.8909 1050.91 Q65.8909 1051.68 66.0841 1058.22 Z" fill="#000000" fill-rule="nonzero" fill-opacity="1" /><path clip-path="url(#clip410)" d="M66.0841 1040.66 L64.0551 1040.66 Q64.0551 1037.15 63.6364 1036.35 Q63.1856 1035.54 61.06 1035.54 L43.3146 1035.54 Q40.8669 1035.54 40.2872 1036.38 Q39.7075 1037.18 39.7075 1040.41 L37.6463 1040.41 L36.9378 1031.19 L61.1244 1031.19 Q63.0889 1031.19 63.572 1030.49 Q64.0551 1029.78 64.0551 1026.56 L66.0841 1026.56 Q65.8909 1033.29 65.8909 1033.42 Q65.8909 1034.32 66.0841 1040.66 M25.4403 1037.89 Q24.1199 1037.89 23.0571 1036.89 Q21.9621 1035.86 21.9621 1034.42 Q21.9621 1032.97 22.9604 1031.94 Q23.9266 1030.9 25.4725 1030.9 Q26.9862 1030.9 27.9846 1031.94 Q28.9507 1032.97 28.9507 1034.42 Q28.9507 1035.93 27.8879 1036.93 Q26.8252 1037.89 25.4403 1037.89 Z" fill="#000000" fill-rule="nonzero" fill-opacity="1" /><path clip-path="url(#clip410)" d="M65.1501 1020.73 Q64.6992 1020.73 63.9585 1020.12 L39.0956 1001.73 L39.0956 1009.23 Q39.0956 1014.45 41.0279 1016.16 Q42.9281 1017.83 48.2743 1018.15 L48.2743 1019.79 L37.6463 1019.05 L37.6463 997.959 Q37.6463 997.218 37.6785 996.928 Q37.7107 996.639 37.9362 996.445 Q38.1294 996.252 38.5159 996.252 Q38.9023 996.252 39.6431 996.832 L64.4416 1015.19 L64.4416 1007.4 Q64.4416 1001.92 62.155 1000.08 Q59.8684 998.217 53.7493 997.766 L53.7493 996.123 L66.0841 997.25 L66.0841 1018.99 Q66.0841 1020.05 65.9553 1020.41 Q65.7942 1020.73 65.1501 1020.73 Z" fill="#000000" fill-rule="nonzero" fill-opacity="1" /><path clip-path="url(#clip410)" d="M51.5593 989.093 Q45.3435 989.093 40.9313 985.099 Q36.5191 981.106 36.5191 975.373 Q36.5191 969.576 40.2872 966.581 Q44.0553 963.554 49.4659 963.554 Q50.4643 963.554 50.6575 963.811 Q50.8507 964.069 50.8507 965.196 L50.8507 983.618 Q57.5817 983.618 60.7379 981.621 Q65.1501 978.851 65.1501 974.182 Q65.1501 973.537 65.0213 972.764 Q64.8925 971.992 64.345 970.413 Q63.7653 968.835 62.2516 967.45 Q60.7379 966.066 58.3547 965.26 Q57.4207 965.067 57.4529 964.423 Q57.4529 963.554 58.2259 963.554 Q58.8056 963.554 60.126 964.198 Q61.4142 964.81 62.9601 966.001 Q64.506 967.193 65.6654 969.512 Q66.8248 971.798 66.8248 974.568 Q66.8248 980.365 62.4448 984.745 Q58.0326 989.093 51.5593 989.093 M49.4659 983.553 L49.4659 967.901 Q48.081 967.901 46.5351 968.159 Q44.9893 968.384 42.8637 969.093 Q40.7059 969.769 39.3532 971.38 Q38.0006 972.99 38.0006 975.373 Q38.0006 976.436 38.4515 977.595 Q38.9023 978.723 39.9973 980.107 Q41.0923 981.492 43.5722 982.458 Q46.052 983.425 49.4659 983.553 Z" fill="#000000" fill-rule="nonzero" fill-opacity="1" /><path clip-path="url(#clip410)" d="M51.9135 960.097 Q45.6334 960.097 41.2856 955.717 Q36.9378 951.337 36.9378 945.411 Q36.9378 940.387 41.0279 937.102 L26.7607 937.102 Q24.3131 937.102 23.7012 937.972 Q23.0893 938.809 23.0893 942.223 L21.0281 942.223 L20.3196 932.722 L60.3515 932.722 Q62.7991 932.722 63.4432 931.885 Q64.0551 931.015 64.0551 927.601 L66.0841 927.601 L66.8248 937.295 L62.4448 937.295 Q66.7926 940.709 66.8248 946.12 Q66.8248 951.788 62.477 955.943 Q58.1292 960.097 51.9135 960.097 M51.9779 954.622 Q58.097 954.622 61.1244 952.722 Q65.3434 950.081 65.3434 945.798 Q65.3434 940.902 60.7379 938.004 Q59.6107 937.263 58.2903 937.295 L44.7638 937.295 Q43.4434 937.295 42.3484 938.004 Q38.3871 940.709 38.3871 945.121 Q38.3871 949.727 42.606 952.593 Q45.7622 954.622 51.9779 954.622 Z" fill="#000000" fill-rule="nonzero" fill-opacity="1" /><path clip-path="url(#clip410)" d="M39.7075 906.43 L37.6463 906.43 Q37.8396 903.467 37.8396 900.021 Q37.8396 898.765 37.6463 892.839 L39.7075 892.839 Q39.7075 896.607 41.4144 896.607 Q41.6721 896.607 42.5416 896.22 L60.9312 888.813 L44.1197 882.082 Q42.9925 881.695 42.5416 881.695 Q41.4144 881.695 40.6093 882.468 Q39.7719 883.209 39.7075 884.852 L37.6463 884.852 Q37.8396 881.502 37.8396 879.119 Q37.8396 876.414 37.6463 874.191 L39.7075 874.191 Q39.7075 876.156 40.6093 877.541 Q41.4788 878.926 42.2518 879.377 Q42.9925 879.795 44.1197 880.246 L65.5688 888.877 Q66.8248 889.393 66.8248 890.262 Q66.8248 890.842 66.5672 891.1 Q66.3417 891.325 65.5688 891.647 L42.1551 901.148 Q40.5126 901.792 40.1262 902.629 Q39.7075 903.467 39.7075 906.43 Z" fill="#000000" fill-rule="nonzero" fill-opacity="1" /><path clip-path="url(#clip410)" d="M59.804 868.69 Q54.2001 868.69 51.2372 862.088 Q49.337 858.127 48.854 849.946 L46.4385 849.946 Q42.3484 849.946 40.1906 852.104 Q38.0006 854.23 38.0006 856.935 Q38.0006 861.766 41.0279 864.085 Q41.0923 862.12 42.0907 861.412 Q43.0569 860.703 44.0553 860.703 Q45.3757 860.703 46.2453 861.54 Q47.0826 862.345 47.0826 863.73 Q47.0826 865.051 46.2775 865.92 Q45.4401 866.79 43.9909 866.79 Q40.7703 866.79 38.6447 863.891 Q36.5191 860.961 36.5191 856.806 Q36.5191 851.396 40.1584 847.788 Q41.2856 846.661 42.7348 846.114 Q44.1841 845.534 45.1503 845.47 Q46.0843 845.405 47.9522 845.405 L61.1244 845.405 Q61.5109 845.405 62.155 845.276 Q62.7991 845.148 63.6364 844.568 Q64.4416 843.956 64.4416 842.958 Q64.4416 840.574 60.2226 840.607 L56.519 840.607 L56.519 838.932 L60.2226 838.932 Q63.7331 838.932 65.1179 840.8 Q66.4706 842.636 66.4706 844.342 Q66.4706 846.532 64.8603 847.917 Q63.25 849.302 61.06 849.495 Q63.572 850.494 65.2145 852.78 Q66.8248 855.035 66.8248 858.127 Q66.8248 860.51 66.2129 862.764 Q65.6332 864.986 63.9907 866.854 Q62.316 868.69 59.804 868.69 M59.7395 863.602 Q62.1872 863.602 63.7653 861.862 Q65.3434 860.123 65.3434 857.676 Q65.3434 854.906 63.2178 852.426 Q61.06 849.946 56.841 849.946 L50.2388 849.946 Q50.4965 857.257 53.4272 860.445 Q56.3257 863.602 59.7395 863.602 Z" fill="#000000" fill-rule="nonzero" fill-opacity="1" /><path clip-path="url(#clip410)" d="M66.0841 837.61 L64.0551 837.61 Q64.0551 834.1 63.6364 833.294 Q63.1856 832.457 61.06 832.457 L43.379 832.457 Q40.9313 832.457 40.3194 833.327 Q39.7075 834.164 39.7075 837.61 L37.6463 837.61 L36.9378 828.431 L44.1841 828.431 Q41.35 827.497 39.16 825.533 Q36.9378 823.536 36.9378 820.315 Q36.9378 818.19 38.1294 816.837 Q39.321 815.452 40.9635 815.452 Q42.4128 815.452 43.1535 816.354 Q43.8621 817.224 43.8621 818.286 Q43.8621 819.478 43.1213 820.315 Q42.3484 821.121 41.0279 821.121 Q40.2228 821.121 39.6109 820.766 Q38.9668 820.38 38.7413 820.09 Q38.5159 819.8 38.4515 819.607 Q38.3871 819.736 38.3871 820.315 Q38.3871 823.955 42.0263 826.048 Q45.6334 828.109 50.7863 828.109 L60.9312 828.109 Q62.8313 828.109 63.4432 827.336 Q64.0551 826.531 64.0551 823.085 L64.0551 821.7 L66.0841 821.7 Q65.8909 824.341 65.8909 830.074 Q65.8909 830.879 65.9231 832.135 Q65.9553 833.391 66.0197 835.034 Q66.0841 836.676 66.0841 837.61 Z" fill="#000000" fill-rule="nonzero" fill-opacity="1" /><path clip-path="url(#clip410)" d="M66.0841 812.924 L64.0551 812.924 Q64.0551 809.414 63.6364 808.609 Q63.1856 807.803 61.06 807.803 L43.3146 807.803 Q40.8669 807.803 40.2872 808.641 Q39.7075 809.446 39.7075 812.667 L37.6463 812.667 L36.9378 803.456 L61.1244 803.456 Q63.0889 803.456 63.572 802.747 Q64.0551 802.039 64.0551 798.818 L66.0841 798.818 Q65.8909 805.549 65.8909 805.678 Q65.8909 806.58 66.0841 812.924 M25.4403 810.154 Q24.1199 810.154 23.0571 809.156 Q21.9621 808.126 21.9621 806.676 Q21.9621 805.227 22.9604 804.196 Q23.9266 803.166 25.4725 803.166 Q26.9862 803.166 27.9846 804.196 Q28.9507 805.227 28.9507 806.676 Q28.9507 808.19 27.8879 809.188 Q26.8252 810.154 25.4403 810.154 Z" fill="#000000" fill-rule="nonzero" fill-opacity="1" /><path clip-path="url(#clip410)" d="M59.804 793.254 Q54.2001 793.254 51.2372 786.652 Q49.337 782.69 48.854 774.51 L46.4385 774.51 Q42.3484 774.51 40.1906 776.668 Q38.0006 778.793 38.0006 781.499 Q38.0006 786.329 41.0279 788.648 Q41.0923 786.684 42.0907 785.975 Q43.0569 785.267 44.0553 785.267 Q45.3757 785.267 46.2453 786.104 Q47.0826 786.909 47.0826 788.294 Q47.0826 789.614 46.2775 790.484 Q45.4401 791.354 43.9909 791.354 Q40.7703 791.354 38.6447 788.455 Q36.5191 785.524 36.5191 781.37 Q36.5191 775.959 40.1584 772.352 Q41.2856 771.225 42.7348 770.677 Q44.1841 770.098 45.1503 770.033 Q46.0843 769.969 47.9522 769.969 L61.1244 769.969 Q61.5109 769.969 62.155 769.84 Q62.7991 769.711 63.6364 769.132 Q64.4416 768.52 64.4416 767.521 Q64.4416 765.138 60.2226 765.17 L56.519 765.17 L56.519 763.496 L60.2226 763.496 Q63.7331 763.496 65.1179 765.363 Q66.4706 767.199 66.4706 768.906 Q66.4706 771.096 64.8603 772.481 Q63.25 773.866 61.06 774.059 Q63.572 775.057 65.2145 777.344 Q66.8248 779.598 66.8248 782.69 Q66.8248 785.073 66.2129 787.328 Q65.6332 789.55 63.9907 791.418 Q62.316 793.254 59.804 793.254 M59.7395 788.165 Q62.1872 788.165 63.7653 786.426 Q65.3434 784.687 65.3434 782.239 Q65.3434 779.47 63.2178 776.99 Q61.06 774.51 56.841 774.51 L50.2388 774.51 Q50.4965 781.821 53.4272 785.009 Q56.3257 788.165 59.7395 788.165 Z" fill="#000000" fill-rule="nonzero" fill-opacity="1" /><path clip-path="url(#clip410)" d="M66.0841 762.174 L64.0551 762.174 Q64.0551 758.663 63.6364 757.858 Q63.1856 757.053 61.06 757.053 L43.379 757.053 Q40.9313 757.053 40.3194 757.923 Q39.7075 758.76 39.7075 762.174 L37.6463 762.174 L36.9378 752.898 L43.8621 752.898 Q36.9378 749.807 36.9378 743.14 Q36.9378 738.18 39.3854 736.216 Q41.0279 734.766 42.8637 734.477 Q44.6994 734.155 49.4659 734.155 L62.0584 734.155 Q63.4432 734.09 63.7653 733.027 Q64.0551 731.965 64.0551 729.002 L66.0841 729.002 Q65.8909 735.733 65.8909 736.409 Q65.8909 736.924 66.0841 743.849 L64.0551 743.849 Q64.0551 740.338 63.6364 739.533 Q63.1856 738.696 61.06 738.696 L45.6978 738.696 Q42.3484 738.696 40.3838 739.726 Q38.3871 740.757 38.3871 743.591 Q38.3871 747.005 41.2534 749.742 Q44.1197 752.48 48.9506 752.48 L61.06 752.48 Q63.1856 752.48 63.6364 751.675 Q64.0551 750.837 64.0551 747.359 L66.0841 747.359 Q65.8909 754.09 65.8909 754.734 Q65.8909 755.249 66.0841 762.174 Z" fill="#000000" fill-rule="nonzero" fill-opacity="1" /><path clip-path="url(#clip410)" d="M62.477 720.166 Q58.097 724.353 51.8491 724.353 Q45.569 724.353 41.0601 720.231 Q36.5191 716.108 36.5191 710.054 Q36.5191 706.028 38.4515 703.001 Q40.3516 699.973 43.6044 699.973 Q45.0537 699.973 45.891 700.843 Q46.6962 701.68 46.6962 703.001 Q46.6962 704.385 45.8588 705.223 Q44.9893 706.028 43.6688 706.028 Q43.0891 706.028 42.5094 705.835 Q41.9297 705.641 41.3178 704.933 Q40.7059 704.192 40.6093 702.936 Q38.1938 705.287 38.1938 709.86 Q38.1938 709.925 38.1938 709.989 Q38.1938 713.339 41.35 716.108 Q44.5062 718.878 51.7203 718.878 Q55.4884 718.878 58.2581 717.976 Q60.9956 717.042 62.4126 715.529 Q63.8297 714.015 64.506 712.533 Q65.1501 711.052 65.1501 709.603 Q65.1501 703.129 58.2259 700.939 Q57.5817 700.746 57.5817 700.102 Q57.5817 699.232 58.2259 699.232 Q58.5479 699.232 59.3853 699.49 Q60.2226 699.748 61.5431 700.553 Q62.8635 701.358 64.0229 702.517 Q65.1501 703.645 65.9875 705.674 Q66.8248 707.67 66.8248 710.182 Q66.8248 715.979 62.477 720.166 Z" fill="#000000" fill-rule="nonzero" fill-opacity="1" /><path clip-path="url(#clip410)" d="M51.5593 695.621 Q45.3435 695.621 40.9313 691.628 Q36.5191 687.634 36.5191 681.902 Q36.5191 676.105 40.2872 673.109 Q44.0553 670.082 49.4659 670.082 Q50.4643 670.082 50.6575 670.34 Q50.8507 670.597 50.8507 671.725 L50.8507 690.146 Q57.5817 690.146 60.7379 688.15 Q65.1501 685.38 65.1501 680.71 Q65.1501 680.066 65.0213 679.293 Q64.8925 678.52 64.345 676.942 Q63.7653 675.364 62.2516 673.979 Q60.7379 672.594 58.3547 671.789 Q57.4207 671.596 57.4529 670.952 Q57.4529 670.082 58.2259 670.082 Q58.8056 670.082 60.126 670.726 Q61.4142 671.338 62.9601 672.53 Q64.506 673.721 65.6654 676.04 Q66.8248 678.327 66.8248 681.096 Q66.8248 686.893 62.4448 691.273 Q58.0326 695.621 51.5593 695.621 M49.4659 690.082 L49.4659 674.43 Q48.081 674.43 46.5351 674.687 Q44.9893 674.913 42.8637 675.621 Q40.7059 676.298 39.3532 677.908 Q38.0006 679.518 38.0006 681.902 Q38.0006 682.964 38.4515 684.124 Q38.9023 685.251 39.9973 686.636 Q41.0923 688.021 43.5722 688.987 Q46.052 689.953 49.4659 690.082 Z" fill="#000000" fill-rule="nonzero" fill-opacity="1" /><path clip-path="url(#clip410)" d="M62.5415 644.847 Q58.2259 649.195 51.9779 649.195 Q45.6978 649.195 41.1246 644.943 Q36.5191 640.66 36.5191 634.541 Q36.5191 628.551 41.0923 624.267 Q45.6334 619.952 51.9779 619.952 Q58.1937 619.952 62.5092 624.3 Q66.8248 628.615 66.8248 634.605 Q66.8248 640.467 62.5415 644.847 M51.4304 643.72 Q57.8394 643.72 60.7379 642.045 Q65.1501 639.468 65.1501 634.541 Q65.1501 632.093 63.8297 630.064 Q62.5092 628.003 60.287 626.876 Q57.3885 625.427 51.4304 625.427 Q45.0859 625.427 42.284 627.166 Q38.0006 629.742 38.0006 634.605 Q38.0006 636.731 39.1278 638.824 Q40.2228 640.886 42.4128 642.142 Q45.3113 643.72 51.4304 643.72 Z" fill="#000000" fill-rule="nonzero" fill-opacity="1" /><path clip-path="url(#clip410)" d="M39.7075 616.531 L37.6463 616.531 L37.6463 611.345 L30.0779 611.345 Q25.1827 611.345 22.3807 608.189 Q19.5788 605.001 19.5788 601.104 Q19.5788 598.528 20.9637 596.853 Q22.3485 595.178 24.2165 595.178 Q25.4725 595.178 26.3099 595.951 Q27.115 596.692 27.115 598.077 Q27.115 599.397 26.2777 600.17 Q25.4403 600.911 24.2809 600.911 Q22.1553 600.911 21.5112 598.946 Q21.0603 599.945 21.0281 601.104 Q21.0281 603.487 23.4757 605.355 Q25.9234 607.191 30.0135 607.191 L37.6463 607.191 L37.6463 599.461 L39.7075 599.461 L39.7075 606.965 L60.9312 606.965 Q62.8313 606.965 63.4432 606.193 Q64.0551 605.387 64.0551 601.974 L64.0551 600.589 L66.0841 600.589 Q65.8909 603.23 65.8909 608.962 Q65.8909 609.767 65.9231 611.023 Q65.9553 612.247 66.0197 613.922 Q66.0841 615.564 66.0841 616.466 L64.0551 616.466 Q64.0551 612.956 63.6364 612.151 Q63.1856 611.345 61.06 611.345 L39.7075 611.345 L39.7075 616.531 Z" fill="#000000" fill-rule="nonzero" fill-opacity="1" /><path clip-path="url(#clip410)" d="M21.8332 548.664 Q22.4452 548.664 22.735 548.922 Q22.9927 549.147 23.0571 549.501 Q23.0893 549.855 23.0893 550.789 Q23.0893 552.368 23.2181 553.366 Q23.3147 554.364 23.4757 554.976 Q23.6046 555.588 24.0554 555.942 Q24.4741 556.264 24.8606 556.425 Q25.2471 556.554 26.1166 556.78 L61.2532 565.604 Q62.2838 565.894 62.7991 565.894 Q63.3466 565.894 63.572 565.572 Q63.7975 565.25 63.8941 564.219 Q64.0551 562.577 64.0551 561.385 Q64.0551 559.807 64.2806 559.582 Q64.506 559.421 64.8281 559.421 Q65.4078 559.421 65.7298 559.678 Q66.0197 559.936 66.0519 560.161 Q66.0841 560.355 66.0841 560.741 L65.8909 569.565 L66.0841 578.229 Q66.0841 579.195 65.3434 579.195 Q64.8603 579.195 64.6026 579.131 Q64.3128 579.034 64.2162 578.712 Q64.0873 578.358 64.0873 578.1 Q64.0551 577.842 64.0551 577.102 Q64.0551 575.781 64.0229 574.912 Q63.9585 574.01 63.7975 573.366 Q63.6042 572.689 63.4432 572.367 Q63.25 572.013 62.8313 571.755 Q62.3804 571.466 62.0262 571.369 Q61.6719 571.24 60.9312 571.079 L25.3759 562.19 Q24.7962 562.062 24.3453 562.062 Q23.4757 562.062 23.2825 563.092 Q23.0893 564.09 23.0893 566.603 Q23.0893 567.375 23.0571 567.698 Q23.0249 567.987 22.8638 568.245 Q22.7028 568.47 22.3485 568.47 Q21.8977 568.47 21.6078 568.342 Q21.2857 568.213 21.1891 567.987 Q21.0925 567.73 21.0603 567.569 Q21.0281 567.408 21.0281 567.15 L21.2213 558.358 L21.0281 549.662 Q21.0281 548.664 21.8332 548.664 Z" fill="#000000" fill-rule="nonzero" fill-opacity="1" /><path clip-path="url(#clip410)" d="M49.5947 541.214 Q38.4515 541.214 29.466 537.06 Q25.6979 535.289 22.5418 532.809 Q19.3856 530.329 18.0007 528.686 Q16.6159 527.044 16.6159 526.593 Q16.6159 525.949 17.26 525.917 Q17.5821 525.917 18.3872 526.786 Q29.2084 537.414 49.5947 537.382 Q70.0454 537.382 80.4479 527.044 Q81.5751 525.917 81.9294 525.917 Q82.5735 525.917 82.5735 526.593 Q82.5735 527.044 81.2531 528.622 Q79.9326 530.2 76.9053 532.648 Q73.8779 535.095 70.1742 536.867 Q61.1888 541.214 49.5947 541.214 Z" fill="#000000" fill-rule="nonzero" fill-opacity="1" /><path clip-path="url(#clip410)" d="M38.3871 500.646 Q39.2888 500.646 39.5143 501.064 Q39.7075 501.483 39.7075 502.642 L39.7075 508.826 L59.1598 513.721 Q60.8667 514.108 62.316 514.108 Q63.9263 514.108 64.6348 513.625 Q65.3434 513.109 65.3434 512.046 Q65.3434 509.953 63.4432 507.699 Q61.5431 505.412 56.9054 503.48 Q56.2935 503.222 56.1647 503.093 Q56.0037 502.932 56.0037 502.514 Q56.0037 501.708 56.6478 501.708 Q56.8732 501.708 57.9038 502.159 Q58.9344 502.578 60.4481 503.512 Q61.9617 504.414 63.3788 505.605 Q64.7959 506.765 65.8264 508.536 Q66.8248 510.307 66.8248 512.208 Q66.8248 514.881 65.1179 516.588 Q63.411 518.262 60.7379 518.262 Q59.8684 518.262 57.0987 517.586 Q54.2967 516.91 39.7075 513.238 L39.7075 519.067 Q39.7075 519.873 39.6753 520.195 Q39.6431 520.484 39.4821 520.71 Q39.2888 520.903 38.9023 520.903 Q38.2904 520.903 38.0328 520.645 Q37.7429 520.388 37.7107 520.066 Q37.6463 519.711 37.6463 518.906 L37.6463 512.723 L27.1794 510.146 Q26.1488 509.889 25.5691 509.245 Q24.9572 508.568 24.8928 508.182 Q24.7962 507.795 24.7962 507.505 Q24.7962 506.636 25.2793 506.121 Q25.7302 505.605 26.5675 505.605 Q27.0184 505.605 37.6463 508.311 L37.6463 502.514 Q37.6463 501.773 37.6785 501.483 Q37.7107 501.161 37.8718 500.903 Q38.0328 500.646 38.3871 500.646 Z" fill="#000000" fill-rule="nonzero" fill-opacity="1" /><path clip-path="url(#clip410)" d="M81.9294 495.482 Q81.6073 495.482 80.8022 494.645 Q69.981 484.017 49.5947 484.017 Q29.144 484.017 18.8059 494.226 Q17.6143 495.482 17.26 495.482 Q16.6159 495.482 16.6159 494.838 Q16.6159 494.387 17.9363 492.809 Q19.2568 491.199 22.2841 488.783 Q25.3115 486.336 29.0151 484.532 Q38.0006 480.184 49.5947 480.184 Q60.7379 480.184 69.7234 484.339 Q73.4914 486.11 76.6476 488.59 Q79.8038 491.07 81.1886 492.712 Q82.5735 494.355 82.5735 494.838 Q82.5735 495.482 81.9294 495.482 Z" fill="#000000" fill-rule="nonzero" fill-opacity="1" /><path clip-path="url(#clip410)" d="M21.8332 442 Q22.4452 442 22.735 442.257 Q22.9927 442.483 23.0571 442.837 Q23.0893 443.191 23.0893 444.125 Q23.0893 445.703 23.2181 446.702 Q23.3147 447.7 23.4757 448.312 Q23.6046 448.924 24.0554 449.278 Q24.4741 449.6 24.8606 449.761 Q25.2471 449.89 26.1166 450.115 L61.2532 458.94 Q62.2838 459.23 62.7991 459.23 Q63.3466 459.23 63.572 458.908 Q63.7975 458.586 63.8941 457.555 Q64.0551 455.912 64.0551 454.721 Q64.0551 453.143 64.2806 452.917 Q64.506 452.756 64.8281 452.756 Q65.4078 452.756 65.7298 453.014 Q66.0197 453.272 66.0519 453.497 Q66.0841 453.69 66.0841 454.077 L65.8909 462.901 L66.0841 471.565 Q66.0841 472.531 65.3434 472.531 Q64.8603 472.531 64.6026 472.466 Q64.3128 472.37 64.2162 472.048 Q64.0873 471.693 64.0873 471.436 Q64.0551 471.178 64.0551 470.437 Q64.0551 469.117 64.0229 468.247 Q63.9585 467.346 63.7975 466.701 Q63.6042 466.025 63.4432 465.703 Q63.25 465.349 62.8313 465.091 Q62.3804 464.801 62.0262 464.705 Q61.6719 464.576 60.9312 464.415 L25.3759 455.526 Q24.7962 455.397 24.3453 455.397 Q23.4757 455.397 23.2825 456.428 Q23.0893 457.426 23.0893 459.938 Q23.0893 460.711 23.0571 461.033 Q23.0249 461.323 22.8638 461.581 Q22.7028 461.806 22.3485 461.806 Q21.8977 461.806 21.6078 461.677 Q21.2857 461.549 21.1891 461.323 Q21.0925 461.065 21.0603 460.904 Q21.0281 460.743 21.0281 460.486 L21.2213 451.694 L21.0281 442.998 Q21.0281 442 21.8332 442 Z" fill="#000000" fill-rule="nonzero" fill-opacity="1" /><path clip-path="url(#clip410)" d="M49.5947 434.55 Q38.4515 434.55 29.466 430.396 Q25.6979 428.624 22.5418 426.144 Q19.3856 423.665 18.0007 422.022 Q16.6159 420.38 16.6159 419.929 Q16.6159 419.285 17.26 419.252 Q17.5821 419.252 18.3872 420.122 Q29.2084 430.75 49.5947 430.718 Q70.0454 430.718 80.4479 420.38 Q81.5751 419.252 81.9294 419.252 Q82.5735 419.252 82.5735 419.929 Q82.5735 420.38 81.2531 421.958 Q79.9326 423.536 76.9053 425.983 Q73.8779 428.431 70.1742 430.202 Q61.1888 434.55 49.5947 434.55 Z" fill="#000000" fill-rule="nonzero" fill-opacity="1" /><path clip-path="url(#clip410)" d="M38.3871 393.981 Q39.2888 393.981 39.5143 394.4 Q39.7075 394.819 39.7075 395.978 L39.7075 402.162 L59.1598 407.057 Q60.8667 407.443 62.316 407.443 Q63.9263 407.443 64.6348 406.96 Q65.3434 406.445 65.3434 405.382 Q65.3434 403.289 63.4432 401.034 Q61.5431 398.748 56.9054 396.815 Q56.2935 396.558 56.1647 396.429 Q56.0037 396.268 56.0037 395.849 Q56.0037 395.044 56.6478 395.044 Q56.8732 395.044 57.9038 395.495 Q58.9344 395.914 60.4481 396.848 Q61.9617 397.749 63.3788 398.941 Q64.7959 400.1 65.8264 401.872 Q66.8248 403.643 66.8248 405.543 Q66.8248 408.216 65.1179 409.923 Q63.411 411.598 60.7379 411.598 Q59.8684 411.598 57.0987 410.922 Q54.2967 410.245 39.7075 406.574 L39.7075 412.403 Q39.7075 413.208 39.6753 413.53 Q39.6431 413.82 39.4821 414.046 Q39.2888 414.239 38.9023 414.239 Q38.2904 414.239 38.0328 413.981 Q37.7429 413.723 37.7107 413.401 Q37.6463 413.047 37.6463 412.242 L37.6463 406.058 L27.1794 403.482 Q26.1488 403.224 25.5691 402.58 Q24.9572 401.904 24.8928 401.517 Q24.7962 401.131 24.7962 400.841 Q24.7962 399.972 25.2793 399.456 Q25.7302 398.941 26.5675 398.941 Q27.0184 398.941 37.6463 401.646 L37.6463 395.849 Q37.6463 395.108 37.6785 394.819 Q37.7107 394.497 37.8718 394.239 Q38.0328 393.981 38.3871 393.981 Z" fill="#000000" fill-rule="nonzero" fill-opacity="1" /><path clip-path="url(#clip410)" d="M50.3998 370.849 Q50.3998 372.363 49.5947 372.363 Q48.7895 372.363 48.7895 370.785 Q48.7895 370.592 48.8218 370.27 Q48.854 369.916 48.854 369.851 L48.854 351.268 L30.2068 351.268 Q30.1424 351.268 29.8525 351.301 Q29.5304 351.333 29.3372 351.333 Q27.7591 351.333 27.7591 350.56 Q27.7591 349.755 29.3372 349.755 L48.854 349.755 L48.854 331.14 Q48.854 331.075 48.8218 330.753 Q48.7895 330.431 48.7895 330.238 Q48.7895 328.724 49.5947 328.724 Q50.3998 328.692 50.3998 330.302 Q50.3998 330.496 50.3676 330.785 Q50.3354 331.075 50.3354 331.14 L50.3354 349.755 L69.9166 349.755 Q71.4303 349.755 71.4303 350.56 Q71.4303 351.333 69.8522 351.333 Q69.6589 351.333 69.3369 351.301 Q69.047 351.268 68.9826 351.268 L50.3354 351.268 L50.3354 369.851 Q50.3354 369.916 50.3676 370.302 Q50.3998 370.656 50.3998 370.849 Z" fill="#000000" fill-rule="nonzero" fill-opacity="1" /><path clip-path="url(#clip410)" d="M39.2244 271.298 Q41.4788 271.298 41.4788 274.551 L41.4788 285.63 L64.0551 290.042 Q64.6348 290.138 64.9569 290.267 Q65.2789 290.364 65.8264 290.654 Q66.3417 290.911 66.5994 291.459 Q66.8892 291.974 66.8892 292.747 Q66.8892 293.713 66.3095 294.196 Q65.762 294.647 65.0857 294.647 Q64.667 294.647 62.6703 294.003 L41.4788 287.53 L41.4788 293.005 Q41.4788 298.158 46.5673 301.378 Q47.2437 301.894 47.3081 302.183 Q47.3403 302.312 47.3403 302.441 Q47.3403 302.795 47.1793 303.021 Q47.0182 303.214 46.8572 303.214 L46.6962 303.246 Q46.4707 303.246 45.569 302.731 Q44.635 302.183 43.2501 301.217 Q41.8653 300.219 40.7703 299.221 Q39.3532 297.9 38.6125 296.419 Q37.8396 294.937 37.7429 294.196 Q37.6463 293.423 37.6463 292.425 L37.6463 273.939 Q37.6463 273.102 37.7107 272.651 Q37.7429 272.2 38.1294 271.749 Q38.4837 271.298 39.2244 271.298 Z" fill="#000000" fill-rule="nonzero" fill-opacity="1" /><path clip-path="url(#clip410)" d="M81.9294 265.225 Q81.6073 265.225 80.8022 264.388 Q69.981 253.76 49.5947 253.76 Q29.144 253.76 18.8059 263.969 Q17.6143 265.225 17.26 265.225 Q16.6159 265.225 16.6159 264.581 Q16.6159 264.13 17.9363 262.552 Q19.2568 260.942 22.2841 258.526 Q25.3115 256.079 29.0151 254.275 Q38.0006 249.927 49.5947 249.927 Q60.7379 249.927 69.7234 254.082 Q73.4914 255.853 76.6476 258.333 Q79.8038 260.813 81.1886 262.455 Q82.5735 264.098 82.5735 264.581 Q82.5735 265.225 81.9294 265.225 Z" fill="#000000" fill-rule="nonzero" fill-opacity="1" /><path clip-path="url(#clip413)" d="M235.942 1385.14 L336.771 1379.96 L437.599 1317.03 L538.428 1279.56 L639.256 1242.19 L740.084 1195.77 L840.913 1152.37 L941.741 1121.8 L1042.57 1131.03 L1143.4 1080.26 L1244.23 1025.32 L1345.05 1018.37 L1445.88 988.746 L1546.71 949.203 L1647.54 914.229 L1748.37 903.747 L1849.2 887.952 L1950.03 873.151 L2050.85 865.694 L2151.68 852.442 L2252.51 849.92 L2252.51 442.955 L2151.68 441.206 L2050.85 421.861 L1950.03 423.925 L1849.2 393.557 L1748.37 368.472 L1647.54 353.521 L1546.71 350.602 L1445.88 309.266 L1345.05 320.905 L1244.23 294.405 L1143.4 280.555 L1042.57 240.457 L941.741 298.202 L840.913 306.053 L740.084 226.789 L639.256 191.93 L538.428 165.831 L437.599 124.896 L336.771 117.035 L235.942 179.78  Z" fill="#009af9" fill-rule="evenodd" fill-opacity="0.5"/>
<polyline clip-path="url(#clip413)" style="stroke:#009af9; stroke-linecap:round; stroke-linejoin:round; stroke-width:4; stroke-opacity:1; fill:none" points="235.942,782.458 336.771,748.496 437.599,720.962 538.428,722.696 639.256,717.062 740.084,711.278 840.913,729.211 941.741,710.003 1042.57,685.746 1143.4,680.407 1244.23,659.863 1345.05,669.64 1445.88,649.006 1546.71,649.902 1647.54,633.875 1748.37,636.11 1849.2,640.754 1950.03,648.538 2050.85,643.777 2151.68,646.824 2252.51,646.438 "/>
<polyline clip-path="url(#clip410)" style="stroke:#000000; stroke-linecap:round; stroke-linejoin:round; stroke-width:4; stroke-opacity:1; fill:none" points="2313.01,1423.18 2313.01,78.9921 "/>
<polyline clip-path="url(#clip410)" style="stroke:#000000; stroke-linecap:round; stroke-linejoin:round; stroke-width:4; stroke-opacity:1; fill:none" points="2313.01,1347.59 2294.11,1347.59 "/>
<polyline clip-path="url(#clip410)" style="stroke:#000000; stroke-linecap:round; stroke-linejoin:round; stroke-width:4; stroke-opacity:1; fill:none" points="2313.01,1113.22 2294.11,1113.22 "/>
<polyline clip-path="url(#clip410)" style="stroke:#000000; stroke-linecap:round; stroke-linejoin:round; stroke-width:4; stroke-opacity:1; fill:none" points="2313.01,878.849 2294.11,878.849 "/>
<polyline clip-path="url(#clip410)" style="stroke:#000000; stroke-linecap:round; stroke-linejoin:round; stroke-width:4; stroke-opacity:1; fill:none" points="2313.01,644.479 2294.11,644.479 "/>
<polyline clip-path="url(#clip410)" style="stroke:#000000; stroke-linecap:round; stroke-linejoin:round; stroke-width:4; stroke-opacity:1; fill:none" points="2313.01,410.108 2294.11,410.108 "/>
<polyline clip-path="url(#clip410)" style="stroke:#000000; stroke-linecap:round; stroke-linejoin:round; stroke-width:4; stroke-opacity:1; fill:none" points="2313.01,175.738 2294.11,175.738 "/>
<polyline clip-path="url(#clip410)" style="stroke:#000000; stroke-linecap:round; stroke-linejoin:round; stroke-width:4; stroke-opacity:1; fill:none" points="175.445,78.9921 2313.01,78.9921 "/>
<polyline clip-path="url(#clip410)" style="stroke:#000000; stroke-linecap:round; stroke-linejoin:round; stroke-width:4; stroke-opacity:1; fill:none" points="235.942,78.9921 235.942,97.8898 "/>
<polyline clip-path="url(#clip410)" style="stroke:#000000; stroke-linecap:round; stroke-linejoin:round; stroke-width:4; stroke-opacity:1; fill:none" points="740.084,78.9921 740.084,97.8898 "/>
<polyline clip-path="url(#clip410)" style="stroke:#000000; stroke-linecap:round; stroke-linejoin:round; stroke-width:4; stroke-opacity:1; fill:none" points="1244.23,78.9921 1244.23,97.8898 "/>
<polyline clip-path="url(#clip410)" style="stroke:#000000; stroke-linecap:round; stroke-linejoin:round; stroke-width:4; stroke-opacity:1; fill:none" points="1748.37,78.9921 1748.37,97.8898 "/>
<polyline clip-path="url(#clip410)" style="stroke:#000000; stroke-linecap:round; stroke-linejoin:round; stroke-width:4; stroke-opacity:1; fill:none" points="2252.51,78.9921 2252.51,97.8898 "/>
</svg>
